M48
; DRILL file {KiCad (5.1.5-0-10_14)} date 2020 August 25, Tuesday 00:08:33
; FORMAT={-:-/ absolute / metric / decimal}
; #@! TF.CreationDate,2020-08-25T00:08:33+09:00
; #@! TF.GenerationSoftware,Kicad,Pcbnew,(5.1.5-0-10_14)
FMAT,2
METRIC
T1C0.300
T2C0.700
T3C0.762
T4C0.800
T5C0.950
T6C3.200
%
G90
G05
T1
X62.865Y-110.49
X62.865Y-113.03
X62.865Y-115.57
X64.135Y-99.06
X65.405Y-98.425
X65.405Y-100.33
X66.04Y-97.79
X66.04Y-102.87
X66.675Y-97.155
X66.675Y-105.41
X67.945Y-92.075
X68.58Y-120.65
X69.215Y-92.075
X69.85Y-99.695
X69.85Y-113.665
X70.485Y-120.65
X71.12Y-92.71
X71.12Y-113.656
X72.39Y-93.345
X73.025Y-99.695
X73.025Y-111.125
X73.025Y-120.65
X74.93Y-93.98
X75.565Y-110.49
X75.565Y-120.65
X76.2Y-94.615
X76.835Y-99.695
X78.105Y-109.855
X78.105Y-120.65
X79.375Y-95.25
X80.01Y-95.885
X80.645Y-99.695
X80.645Y-109.22
X80.645Y-120.65
X83.185Y-108.585
X83.185Y-120.65
X84.455Y-104.14
X85.5Y-100.595
X85.725Y-102.235
X85.725Y-107.95
X85.725Y-120.65
X86.36Y-101.6
X86.995Y-100.965
X86.995Y-102.995
X87.63Y-98.025
X87.729Y-103.845
X88.265Y-107.315
X88.265Y-120.65
X90.805Y-98.425
X90.805Y-100.965
X90.805Y-120.65
X91.44Y-96.52
X91.44Y-106.68
X92.71Y-96.52
X92.71Y-97.79
X92.71Y-105.41
X93.345Y-102.87
X95.212Y-117.475
X95.25Y-97.155
X96.135Y-98.675
X98.425Y-119.41
X99.695Y-97.155
X100.33Y-100.33
X100.965Y-119.31
X101.6Y-100.965
X103.505Y-119.41
X104.14Y-101.6
X104.775Y-96.52
X104.775Y-99.06
X105.41Y-120.65
X106.68Y-99.695
X110.059Y-96.274
X110.49Y-100.965
X111.125Y-95.885
X140.97Y-92.71
X141.605Y-110.49
X144.78Y-93.345
X145.415Y-106.68
X145.415Y-111.76
X146.685Y-101.6
X149.225Y-93.345
X149.86Y-105.41
X150.495Y-103.505
X150.495Y-113.03
X151.13Y-102.87
X151.13Y-115.57
X151.13Y-120.015
X151.765Y-102.235
X152.4Y-120.015
X153.035Y-100.965
X153.035Y-102.235
X153.035Y-104.14
X153.035Y-108.585
X154.94Y-104.775
X157.88Y-102.87
X157.88Y-113.03
X157.88Y-115.57
T2
X61.595Y-102.87
X61.595Y-100.33
X134.62Y-123.19
X120.25Y-123.19
X61.595Y-105.41
T3
X139.446Y-111.76
X139.446Y-115.316
X141.351Y-111.76
X141.351Y-115.316
X135.636Y-111.76
X135.636Y-115.316
X137.541Y-111.76
X137.541Y-115.316
X124.206Y-111.76
X124.206Y-115.316
X126.111Y-111.76
X126.111Y-115.316
X120.396Y-111.76
X120.396Y-115.316
X122.301Y-111.76
X122.301Y-115.316
X116.586Y-111.76
X116.586Y-115.316
X118.491Y-111.76
X118.491Y-115.316
X112.776Y-111.76
X112.776Y-115.316
X114.681Y-111.76
X114.681Y-115.316
X139.446Y-96.774
X139.446Y-100.33
X141.351Y-96.774
X141.351Y-100.33
X135.636Y-96.774
X135.636Y-100.33
X137.541Y-96.774
X137.541Y-100.33
X131.826Y-96.774
X131.826Y-100.33
X133.731Y-96.774
X133.731Y-100.33
X128.016Y-96.774
X128.016Y-100.33
X129.921Y-96.774
X129.921Y-100.33
X120.396Y-96.774
X120.396Y-100.33
X122.301Y-96.774
X122.301Y-100.33
X116.586Y-96.774
X116.586Y-100.33
X118.491Y-96.774
X118.491Y-100.33
X112.776Y-96.774
X112.776Y-100.33
X114.681Y-96.774
X114.681Y-100.33
X124.206Y-96.774
X124.206Y-100.33
X126.111Y-96.774
X126.111Y-100.33
X131.826Y-111.76
X131.826Y-115.316
X133.731Y-111.76
X133.731Y-115.316
X128.016Y-111.76
X128.016Y-115.316
X129.921Y-111.76
X129.921Y-115.316
T4
X70.485Y-115.57
X70.485Y-123.19
X73.025Y-115.57
X73.025Y-123.19
X75.565Y-115.57
X75.565Y-123.19
X78.105Y-115.57
X78.105Y-123.19
X80.645Y-115.57
X80.645Y-123.19
X83.185Y-115.57
X83.185Y-123.19
X85.725Y-115.57
X85.725Y-123.19
X88.265Y-115.57
X88.265Y-123.19
X90.805Y-115.57
X90.805Y-123.19
X93.345Y-115.57
X93.345Y-123.19
X95.885Y-115.57
X95.885Y-123.19
X98.425Y-115.57
X98.425Y-123.19
X100.965Y-115.57
X100.965Y-123.19
X103.505Y-115.57
X103.505Y-123.19
T5
X57.15Y-93.98
X57.15Y-96.48
X57.15Y-98.98
X57.15Y-101.48
X57.15Y-103.98
X57.15Y-114.3
X57.15Y-116.8
X57.15Y-119.3
X57.15Y-121.8
T6
X160.89Y-121.92
X160.89Y-93.98
X64.135Y-93.98
X64.135Y-121.92
T0
M30
