G04 #@! TF.GenerationSoftware,KiCad,Pcbnew,(5.1.5-0-10_14)*
G04 #@! TF.CreationDate,2020-08-25T00:06:45+09:00*
G04 #@! TF.ProjectId,FPGA-X68k-ProCaseLED,46504741-2d58-4363-986b-2d50726f4361,rev?*
G04 #@! TF.SameCoordinates,Original*
G04 #@! TF.FileFunction,Copper,L2,Bot*
G04 #@! TF.FilePolarity,Positive*
%FSLAX46Y46*%
G04 Gerber Fmt 4.6, Leading zero omitted, Abs format (unit mm)*
G04 Created by KiCad (PCBNEW (5.1.5-0-10_14)) date 2020-08-25 00:06:45*
%MOMM*%
%LPD*%
G04 APERTURE LIST*
%ADD10O,1.950000X1.700000*%
%ADD11C,0.100000*%
%ADD12R,1.000000X1.000000*%
%ADD13R,1.600000X0.300000*%
%ADD14O,1.200000X1.524000*%
%ADD15O,1.600000X1.600000*%
%ADD16R,1.600000X1.600000*%
%ADD17C,1.500000*%
%ADD18C,6.400000*%
%ADD19C,0.620000*%
%ADD20C,0.250000*%
%ADD21C,0.500000*%
%ADD22C,0.254000*%
G04 APERTURE END LIST*
D10*
X57150000Y-121800000D03*
X57150000Y-119300000D03*
X57150000Y-116800000D03*
G04 #@! TA.AperFunction,ComponentPad*
D11*
G36*
X57899504Y-113451204D02*
G01*
X57923773Y-113454804D01*
X57947571Y-113460765D01*
X57970671Y-113469030D01*
X57992849Y-113479520D01*
X58013893Y-113492133D01*
X58033598Y-113506747D01*
X58051777Y-113523223D01*
X58068253Y-113541402D01*
X58082867Y-113561107D01*
X58095480Y-113582151D01*
X58105970Y-113604329D01*
X58114235Y-113627429D01*
X58120196Y-113651227D01*
X58123796Y-113675496D01*
X58125000Y-113700000D01*
X58125000Y-114900000D01*
X58123796Y-114924504D01*
X58120196Y-114948773D01*
X58114235Y-114972571D01*
X58105970Y-114995671D01*
X58095480Y-115017849D01*
X58082867Y-115038893D01*
X58068253Y-115058598D01*
X58051777Y-115076777D01*
X58033598Y-115093253D01*
X58013893Y-115107867D01*
X57992849Y-115120480D01*
X57970671Y-115130970D01*
X57947571Y-115139235D01*
X57923773Y-115145196D01*
X57899504Y-115148796D01*
X57875000Y-115150000D01*
X56425000Y-115150000D01*
X56400496Y-115148796D01*
X56376227Y-115145196D01*
X56352429Y-115139235D01*
X56329329Y-115130970D01*
X56307151Y-115120480D01*
X56286107Y-115107867D01*
X56266402Y-115093253D01*
X56248223Y-115076777D01*
X56231747Y-115058598D01*
X56217133Y-115038893D01*
X56204520Y-115017849D01*
X56194030Y-114995671D01*
X56185765Y-114972571D01*
X56179804Y-114948773D01*
X56176204Y-114924504D01*
X56175000Y-114900000D01*
X56175000Y-113700000D01*
X56176204Y-113675496D01*
X56179804Y-113651227D01*
X56185765Y-113627429D01*
X56194030Y-113604329D01*
X56204520Y-113582151D01*
X56217133Y-113561107D01*
X56231747Y-113541402D01*
X56248223Y-113523223D01*
X56266402Y-113506747D01*
X56286107Y-113492133D01*
X56307151Y-113479520D01*
X56329329Y-113469030D01*
X56352429Y-113460765D01*
X56376227Y-113454804D01*
X56400496Y-113451204D01*
X56425000Y-113450000D01*
X57875000Y-113450000D01*
X57899504Y-113451204D01*
G37*
G04 #@! TD.AperFunction*
D12*
X97155000Y-103505000D03*
D13*
X89275000Y-98010000D03*
X89275000Y-98660000D03*
X89275000Y-99310000D03*
X89275000Y-99960000D03*
X89275000Y-100610000D03*
X89275000Y-101260000D03*
X89275000Y-101910000D03*
X89275000Y-102560000D03*
X89275000Y-103210000D03*
X89275000Y-103860000D03*
X89275000Y-104510000D03*
X89275000Y-105160000D03*
X89275000Y-105810000D03*
X89275000Y-106460000D03*
X94875000Y-106460000D03*
X94875000Y-105810000D03*
X94875000Y-105160000D03*
X94875000Y-104510000D03*
X94875000Y-103860000D03*
X94875000Y-103210000D03*
X94875000Y-102560000D03*
X94875000Y-101910000D03*
X94875000Y-101260000D03*
X94875000Y-100610000D03*
X94875000Y-99960000D03*
X94875000Y-99310000D03*
X94875000Y-98660000D03*
X94875000Y-98010000D03*
D14*
X124206000Y-96774000D03*
X124206000Y-100330000D03*
X126111000Y-96774000D03*
X126111000Y-100330000D03*
X131826000Y-111760000D03*
X131826000Y-115316000D03*
X133731000Y-111760000D03*
X133731000Y-115316000D03*
X128016000Y-111760000D03*
X128016000Y-115316000D03*
X129921000Y-111760000D03*
X129921000Y-115316000D03*
D15*
X70485000Y-123190000D03*
X103505000Y-115570000D03*
X73025000Y-123190000D03*
X100965000Y-115570000D03*
X75565000Y-123190000D03*
X98425000Y-115570000D03*
X78105000Y-123190000D03*
X95885000Y-115570000D03*
X80645000Y-123190000D03*
X93345000Y-115570000D03*
X83185000Y-123190000D03*
X90805000Y-115570000D03*
X85725000Y-123190000D03*
X88265000Y-115570000D03*
X88265000Y-123190000D03*
X85725000Y-115570000D03*
X90805000Y-123190000D03*
X83185000Y-115570000D03*
X93345000Y-123190000D03*
X80645000Y-115570000D03*
X95885000Y-123190000D03*
X78105000Y-115570000D03*
X98425000Y-123190000D03*
X75565000Y-115570000D03*
X100965000Y-123190000D03*
X73025000Y-115570000D03*
X103505000Y-123190000D03*
D16*
X70485000Y-115570000D03*
D14*
X139446000Y-111760000D03*
X139446000Y-115316000D03*
X141351000Y-111760000D03*
X141351000Y-115316000D03*
X135636000Y-111760000D03*
X135636000Y-115316000D03*
X137541000Y-111760000D03*
X137541000Y-115316000D03*
X124206000Y-111760000D03*
X124206000Y-115316000D03*
X126111000Y-111760000D03*
X126111000Y-115316000D03*
X120396000Y-111760000D03*
X120396000Y-115316000D03*
X122301000Y-111760000D03*
X122301000Y-115316000D03*
X116586000Y-111760000D03*
X116586000Y-115316000D03*
X118491000Y-111760000D03*
X118491000Y-115316000D03*
X112776000Y-111760000D03*
X112776000Y-115316000D03*
X114681000Y-111760000D03*
X114681000Y-115316000D03*
X139446000Y-96774000D03*
X139446000Y-100330000D03*
X141351000Y-96774000D03*
X141351000Y-100330000D03*
X135636000Y-96774000D03*
X135636000Y-100330000D03*
X137541000Y-96774000D03*
X137541000Y-100330000D03*
X131826000Y-96774000D03*
X131826000Y-100330000D03*
X133731000Y-96774000D03*
X133731000Y-100330000D03*
X128016000Y-96774000D03*
X128016000Y-100330000D03*
X129921000Y-96774000D03*
X129921000Y-100330000D03*
X120396000Y-96774000D03*
X120396000Y-100330000D03*
X122301000Y-96774000D03*
X122301000Y-100330000D03*
X116586000Y-96774000D03*
X116586000Y-100330000D03*
X118491000Y-96774000D03*
X118491000Y-100330000D03*
X112776000Y-96774000D03*
X112776000Y-100330000D03*
X114681000Y-96774000D03*
X114681000Y-100330000D03*
D17*
X61595000Y-105410000D03*
X61595000Y-102870000D03*
X61595000Y-100330000D03*
X120250000Y-123190000D03*
X134620000Y-123190000D03*
D10*
X57150000Y-103980000D03*
X57150000Y-101480000D03*
X57150000Y-98980000D03*
X57150000Y-96480000D03*
G04 #@! TA.AperFunction,ComponentPad*
D11*
G36*
X57899504Y-93131204D02*
G01*
X57923773Y-93134804D01*
X57947571Y-93140765D01*
X57970671Y-93149030D01*
X57992849Y-93159520D01*
X58013893Y-93172133D01*
X58033598Y-93186747D01*
X58051777Y-93203223D01*
X58068253Y-93221402D01*
X58082867Y-93241107D01*
X58095480Y-93262151D01*
X58105970Y-93284329D01*
X58114235Y-93307429D01*
X58120196Y-93331227D01*
X58123796Y-93355496D01*
X58125000Y-93380000D01*
X58125000Y-94580000D01*
X58123796Y-94604504D01*
X58120196Y-94628773D01*
X58114235Y-94652571D01*
X58105970Y-94675671D01*
X58095480Y-94697849D01*
X58082867Y-94718893D01*
X58068253Y-94738598D01*
X58051777Y-94756777D01*
X58033598Y-94773253D01*
X58013893Y-94787867D01*
X57992849Y-94800480D01*
X57970671Y-94810970D01*
X57947571Y-94819235D01*
X57923773Y-94825196D01*
X57899504Y-94828796D01*
X57875000Y-94830000D01*
X56425000Y-94830000D01*
X56400496Y-94828796D01*
X56376227Y-94825196D01*
X56352429Y-94819235D01*
X56329329Y-94810970D01*
X56307151Y-94800480D01*
X56286107Y-94787867D01*
X56266402Y-94773253D01*
X56248223Y-94756777D01*
X56231747Y-94738598D01*
X56217133Y-94718893D01*
X56204520Y-94697849D01*
X56194030Y-94675671D01*
X56185765Y-94652571D01*
X56179804Y-94628773D01*
X56176204Y-94604504D01*
X56175000Y-94580000D01*
X56175000Y-93380000D01*
X56176204Y-93355496D01*
X56179804Y-93331227D01*
X56185765Y-93307429D01*
X56194030Y-93284329D01*
X56204520Y-93262151D01*
X56217133Y-93241107D01*
X56231747Y-93221402D01*
X56248223Y-93203223D01*
X56266402Y-93186747D01*
X56286107Y-93172133D01*
X56307151Y-93159520D01*
X56329329Y-93149030D01*
X56352429Y-93140765D01*
X56376227Y-93134804D01*
X56400496Y-93131204D01*
X56425000Y-93130000D01*
X57875000Y-93130000D01*
X57899504Y-93131204D01*
G37*
G04 #@! TD.AperFunction*
D18*
X160890000Y-121920000D03*
X160890000Y-93980000D03*
X64135000Y-93980000D03*
X64135000Y-121920000D03*
D19*
X70485000Y-120650000D03*
X68580000Y-120650000D03*
X73025000Y-120650000D03*
X75565000Y-120650000D03*
X78105000Y-120650000D03*
X80645000Y-120650000D03*
X83185000Y-120650000D03*
X85725000Y-120650000D03*
X88265000Y-120650000D03*
X69850000Y-99695000D03*
X80645000Y-99695000D03*
X76835000Y-99695000D03*
X73025000Y-99695000D03*
X110490000Y-100965000D03*
X104775000Y-96520000D03*
X104775000Y-99060000D03*
X90805000Y-98425000D03*
X64135000Y-99060000D03*
X87630000Y-98025000D03*
X91440000Y-106680000D03*
X92710000Y-105410000D03*
X90805000Y-120650000D03*
X144780000Y-93345000D03*
X149225000Y-93345000D03*
X153035000Y-102235000D03*
X153035000Y-100964999D03*
X152400000Y-120015000D03*
X151130000Y-120015000D03*
X85500000Y-100595000D03*
X65405000Y-98425000D03*
X65405000Y-100330000D03*
X66040000Y-102870000D03*
X66040000Y-97790000D03*
X66675000Y-105410000D03*
X66675000Y-97155000D03*
X87729373Y-103845000D03*
X111125000Y-95885000D03*
X146685000Y-101600000D03*
X140970000Y-92710000D03*
X99695000Y-97155000D03*
X93345000Y-102870000D03*
X90805000Y-100965000D03*
X105410000Y-120650000D03*
X141605000Y-110490000D03*
X71120000Y-113655887D03*
X69850000Y-113665000D03*
X106680000Y-99695000D03*
X95250000Y-97155000D03*
X151765000Y-102235000D03*
X151130000Y-102870000D03*
X151130000Y-115570000D03*
X157880000Y-115570000D03*
X150495000Y-103505000D03*
X150495000Y-113030000D03*
X157880000Y-113030000D03*
X153035000Y-104140000D03*
X157880000Y-102870000D03*
X154940000Y-104775000D03*
X149860000Y-105410000D03*
X153035000Y-108585000D03*
X92710000Y-97790000D03*
X92710000Y-96520000D03*
X91440000Y-96520000D03*
X84455000Y-104140000D03*
X86995000Y-102995010D03*
X85725000Y-102235000D03*
X86360000Y-101600000D03*
X86995000Y-100965000D03*
X145415000Y-111760000D03*
X145415000Y-106680000D03*
X80010000Y-95885000D03*
X110059013Y-96274211D03*
X79375000Y-95250000D03*
X76200000Y-94615000D03*
X74930000Y-93980000D03*
X72390000Y-93345000D03*
X71120000Y-92710000D03*
X69215000Y-92075000D03*
X67945000Y-92075000D03*
X73025000Y-111125000D03*
X75565000Y-110490000D03*
X78105000Y-109855000D03*
X80645000Y-109220000D03*
X83185000Y-108585000D03*
X85725000Y-107950000D03*
X88265000Y-107315000D03*
X98425000Y-119410000D03*
X100965000Y-119310000D03*
X103505000Y-119410000D03*
X95211550Y-117475000D03*
X62865000Y-110490000D03*
X62865000Y-113030000D03*
X62865000Y-115570000D03*
X96135460Y-98675000D03*
X100330000Y-100330000D03*
X101600000Y-100965000D03*
X104140000Y-101600000D03*
D20*
X70485000Y-120650000D02*
X73025000Y-120650000D01*
X73025000Y-120650000D02*
X75565000Y-120650000D01*
X75565000Y-120650000D02*
X78105000Y-120650000D01*
X78105000Y-120650000D02*
X80645000Y-120650000D01*
X80645000Y-120650000D02*
X83185000Y-120650000D01*
X83185000Y-120650000D02*
X85725000Y-120650000D01*
X85725000Y-120650000D02*
X88265000Y-120650000D01*
X76835000Y-99695000D02*
X80645000Y-99695000D01*
X69850000Y-99695000D02*
X76835000Y-99695000D01*
X106678590Y-100965000D02*
X106680000Y-100965000D01*
X104775000Y-99061410D02*
X106678590Y-100965000D01*
X104775000Y-96520000D02*
X104775000Y-99061410D01*
X90390000Y-98010000D02*
X89275000Y-98010000D01*
X90805000Y-98425000D02*
X90390000Y-98010000D01*
X69850000Y-99695000D02*
X67310000Y-99695000D01*
X66675000Y-99060000D02*
X64135000Y-99060000D01*
X67310000Y-99695000D02*
X66675000Y-99060000D01*
X70485000Y-120650000D02*
X68580000Y-120650000D01*
X89260000Y-98025000D02*
X89275000Y-98010000D01*
X87630000Y-98025000D02*
X89260000Y-98025000D01*
X91440000Y-106680000D02*
X92710000Y-105410000D01*
X90805000Y-120650000D02*
X88265000Y-120650000D01*
X144780000Y-93345000D02*
X149225000Y-93345000D01*
X153035000Y-102235000D02*
X153035000Y-100964999D01*
X152400000Y-120015000D02*
X151130000Y-120015000D01*
X81545000Y-100595000D02*
X80645000Y-99695000D01*
X85500000Y-100595000D02*
X81545000Y-100595000D01*
D21*
X104775000Y-96520000D02*
X104775000Y-99060000D01*
X104775000Y-99060000D02*
X106680000Y-100965000D01*
X106680000Y-100965000D02*
X110490000Y-100965000D01*
D20*
X89275000Y-99960000D02*
X84720000Y-99960000D01*
X84720000Y-99960000D02*
X82550000Y-97790000D01*
X82550000Y-97790000D02*
X68580000Y-97790000D01*
X67945000Y-98425000D02*
X65405000Y-98425000D01*
X68580000Y-97790000D02*
X67945000Y-98425000D01*
X61595000Y-100330000D02*
X65405000Y-100330000D01*
X66040000Y-102870000D02*
X61595000Y-102870000D01*
X67945000Y-97155000D02*
X67310000Y-97790000D01*
X83185000Y-97155000D02*
X67945000Y-97155000D01*
X85340000Y-99310000D02*
X83185000Y-97155000D01*
X89275000Y-99310000D02*
X85340000Y-99310000D01*
X67310000Y-97790000D02*
X66040000Y-97790000D01*
X83769490Y-96520000D02*
X67945000Y-96520000D01*
X85909490Y-98660000D02*
X83769490Y-96520000D01*
X89275000Y-98660000D02*
X85909490Y-98660000D01*
X67945000Y-96520000D02*
X67310000Y-96520000D01*
X66675000Y-105410000D02*
X61595000Y-105410000D01*
X66675000Y-97155000D02*
X67310000Y-96520000D01*
X87744373Y-103860000D02*
X87729373Y-103845000D01*
X89275000Y-103860000D02*
X87744373Y-103860000D01*
X112776000Y-100330000D02*
X112776000Y-101346000D01*
X112776000Y-101346000D02*
X113030000Y-101600000D01*
X116586000Y-100330000D02*
X116586000Y-101346000D01*
X116586000Y-101346000D02*
X116840000Y-101600000D01*
X113030000Y-101600000D02*
X116840000Y-101600000D01*
X120396000Y-100330000D02*
X120396000Y-101346000D01*
X120396000Y-101346000D02*
X120650000Y-101600000D01*
X116840000Y-101600000D02*
X120650000Y-101600000D01*
X124206000Y-100330000D02*
X124206000Y-101342000D01*
X124460000Y-101596000D02*
X124460000Y-101600000D01*
X124206000Y-101342000D02*
X124460000Y-101600000D01*
X128016000Y-101346000D02*
X128270000Y-101600000D01*
X128016000Y-100330000D02*
X128016000Y-101346000D01*
X120650000Y-101600000D02*
X128270000Y-101600000D01*
X132080000Y-101596000D02*
X132080000Y-101600000D01*
X131826000Y-101342000D02*
X132080000Y-101596000D01*
X131826000Y-100330000D02*
X131826000Y-101342000D01*
X128270000Y-101600000D02*
X132080000Y-101600000D01*
X135636000Y-100330000D02*
X135636000Y-101346000D01*
X135636000Y-101346000D02*
X135890000Y-101600000D01*
X132080000Y-101600000D02*
X135890000Y-101600000D01*
X139446000Y-100330000D02*
X139446000Y-101346000D01*
X139446000Y-101346000D02*
X139700000Y-101600000D01*
X135890000Y-101600000D02*
X139700000Y-101600000D01*
X142201000Y-96774000D02*
X142582000Y-97155000D01*
X141351000Y-96774000D02*
X142201000Y-96774000D01*
X142582000Y-97155000D02*
X147320000Y-97155000D01*
X147320000Y-97155000D02*
X147955000Y-97790000D01*
X147955000Y-97790000D02*
X147955000Y-99695000D01*
X147955000Y-99695000D02*
X147320000Y-100330000D01*
X147320000Y-100330000D02*
X143510000Y-100330000D01*
X143510000Y-100330000D02*
X142240000Y-101600000D01*
X142240000Y-101600000D02*
X146685000Y-101600000D01*
X139700000Y-101600000D02*
X142240000Y-101600000D01*
X93345000Y-103380000D02*
X93345000Y-102870000D01*
X93825000Y-103860000D02*
X93345000Y-103380000D01*
X94875000Y-103860000D02*
X93825000Y-103860000D01*
X90450000Y-100610000D02*
X89275000Y-100610000D01*
X90805000Y-100965000D02*
X90450000Y-100610000D01*
X90805000Y-103380000D02*
X90325000Y-103860000D01*
X90325000Y-103860000D02*
X89275000Y-103860000D01*
X90805000Y-100965000D02*
X90805000Y-103380000D01*
X93345000Y-102870000D02*
X93345000Y-97790000D01*
X93345000Y-97790000D02*
X94615000Y-96520000D01*
X99060000Y-96520000D02*
X99695000Y-97155000D01*
X94615000Y-96520000D02*
X99060000Y-96520000D01*
X112776000Y-116328000D02*
X112776000Y-115316000D01*
X112948000Y-116500000D02*
X112776000Y-116328000D01*
X116586000Y-115316000D02*
X116586000Y-116414000D01*
X116500000Y-116500000D02*
X112948000Y-116500000D01*
X116586000Y-116414000D02*
X116500000Y-116500000D01*
X120396000Y-115316000D02*
X120396000Y-116396000D01*
X120396000Y-116396000D02*
X120500000Y-116500000D01*
X120500000Y-116500000D02*
X116500000Y-116500000D01*
X124206000Y-116328000D02*
X124034000Y-116500000D01*
X124000000Y-116500000D02*
X120500000Y-116500000D01*
X124034000Y-116500000D02*
X124000000Y-116500000D01*
X124206000Y-115316000D02*
X124206000Y-116328000D01*
X128016000Y-116484000D02*
X128000000Y-116500000D01*
X128016000Y-115316000D02*
X128016000Y-116484000D01*
X128000000Y-116500000D02*
X124000000Y-116500000D01*
X131826000Y-116328000D02*
X131998000Y-116500000D01*
X131826000Y-115316000D02*
X131826000Y-116328000D01*
X135636000Y-115316000D02*
X135636000Y-116364000D01*
X139446000Y-116446000D02*
X139500000Y-116500000D01*
X139446000Y-115316000D02*
X139446000Y-116446000D01*
X139500000Y-116500000D02*
X128000000Y-116500000D01*
X142000000Y-116500000D02*
X139500000Y-116500000D01*
X143500000Y-115000000D02*
X142000000Y-116500000D01*
X147000000Y-115000000D02*
X143500000Y-115000000D01*
X141605000Y-110490000D02*
X143510001Y-112395001D01*
X143510001Y-112395001D02*
X147395001Y-112395001D01*
X148000000Y-114000000D02*
X147000000Y-115000000D01*
X148000000Y-113000000D02*
X148000000Y-114000000D01*
X147395001Y-112395001D02*
X148000000Y-113000000D01*
X140970000Y-92075000D02*
X140970000Y-92710000D01*
X139745010Y-90850010D02*
X140970000Y-92075000D01*
X67264990Y-90850010D02*
X139745010Y-90850010D01*
X64135000Y-93980000D02*
X67264990Y-90850010D01*
X112776000Y-100330000D02*
X112776000Y-100076000D01*
D21*
X93345000Y-115570000D02*
X93345000Y-114300000D01*
X92700887Y-113655887D02*
X71120000Y-113655887D01*
X93345000Y-114300000D02*
X92700887Y-113655887D01*
X87729373Y-103845000D02*
X85430000Y-103845000D01*
X85430000Y-103845000D02*
X84455000Y-102870000D01*
X84455000Y-102870000D02*
X83820000Y-102870000D01*
X83820000Y-102870000D02*
X83185000Y-103505000D01*
X83185000Y-103505000D02*
X69850000Y-103505000D01*
X69850000Y-103505000D02*
X69850000Y-113665000D01*
X106680000Y-99695000D02*
X106045000Y-99060000D01*
X106045000Y-99060000D02*
X106045000Y-97790000D01*
X107189999Y-100204999D02*
X106989999Y-100004999D01*
X110979802Y-100330000D02*
X110854801Y-100204999D01*
X106989999Y-100004999D02*
X106680000Y-99695000D01*
X110854801Y-100204999D02*
X107189999Y-100204999D01*
X112776000Y-100330000D02*
X110979802Y-100330000D01*
X106045000Y-97790000D02*
X106680000Y-97155000D01*
X110490000Y-97155000D02*
X111125000Y-96520000D01*
X111125000Y-96520000D02*
X111125000Y-95885000D01*
X106680000Y-97155000D02*
X110490000Y-97155000D01*
D20*
X94875000Y-97530000D02*
X95250000Y-97155000D01*
X94875000Y-98010000D02*
X94875000Y-97530000D01*
X96860000Y-103210000D02*
X97155000Y-103505000D01*
X94875000Y-103210000D02*
X96860000Y-103210000D01*
X95925000Y-101260000D02*
X94875000Y-101260000D01*
X98722820Y-101260000D02*
X95925000Y-101260000D01*
X99697820Y-102235000D02*
X98722820Y-101260000D01*
X147320000Y-102235000D02*
X99697820Y-102235000D01*
X147320000Y-102235000D02*
X151765000Y-102235000D01*
X98736410Y-101910000D02*
X95925000Y-101910000D01*
X99696410Y-102870000D02*
X98736410Y-101910000D01*
X95925000Y-101910000D02*
X94875000Y-101910000D01*
X146685000Y-102870000D02*
X99696410Y-102870000D01*
X146685000Y-102870000D02*
X151130000Y-102870000D01*
X151130000Y-115570000D02*
X157880000Y-115570000D01*
X98750000Y-102560000D02*
X95925000Y-102560000D01*
X99695000Y-103505000D02*
X98750000Y-102560000D01*
X95925000Y-102560000D02*
X94875000Y-102560000D01*
X146050000Y-103505000D02*
X99695000Y-103505000D01*
X146050000Y-103505000D02*
X150495000Y-103505000D01*
X150495000Y-113030000D02*
X157880000Y-113030000D01*
X103770000Y-104510000D02*
X104140000Y-104140000D01*
X94875000Y-104510000D02*
X103770000Y-104510000D01*
X104140000Y-104140000D02*
X153035000Y-104140000D01*
X156610000Y-104140000D02*
X157880000Y-102870000D01*
X153035000Y-104140000D02*
X156610000Y-104140000D01*
X94875000Y-105160000D02*
X104390000Y-105160000D01*
X104390000Y-105160000D02*
X104775000Y-104775000D01*
X104775000Y-104775000D02*
X144145000Y-104775000D01*
X144145000Y-104775000D02*
X147955000Y-104775000D01*
X147955000Y-104775000D02*
X154940000Y-104775000D01*
X104540000Y-105810000D02*
X104940000Y-105410000D01*
X94875000Y-105810000D02*
X104540000Y-105810000D01*
X104940000Y-105410000D02*
X107315000Y-105410000D01*
X107315000Y-105410000D02*
X110490000Y-105410000D01*
X110490000Y-105410000D02*
X144145000Y-105410000D01*
X144145000Y-105410000D02*
X149860000Y-105410000D01*
X94875000Y-106460000D02*
X104995000Y-106460000D01*
X104995000Y-106460000D02*
X105410000Y-106045000D01*
X105410000Y-106045000D02*
X144145000Y-106045000D01*
X144145000Y-106045000D02*
X152400000Y-106045000D01*
X153035000Y-106680000D02*
X153035000Y-108585000D01*
X152400000Y-106045000D02*
X153035000Y-106680000D01*
X90325000Y-106460000D02*
X92710000Y-104075000D01*
X89275000Y-106460000D02*
X90325000Y-106460000D01*
X92710000Y-104075000D02*
X92710000Y-97790000D01*
X90325000Y-105810000D02*
X89275000Y-105810000D01*
X92075000Y-104060000D02*
X90325000Y-105810000D01*
X92075000Y-97790000D02*
X92075000Y-104060000D01*
X92075000Y-97155000D02*
X92710000Y-96520000D01*
X92075000Y-97790000D02*
X92075000Y-97155000D01*
X91440000Y-103880002D02*
X90160002Y-105160000D01*
X90160002Y-105160000D02*
X89275000Y-105160000D01*
X91440000Y-96520000D02*
X91440000Y-103880002D01*
X84825000Y-104510000D02*
X89275000Y-104510000D01*
X84455000Y-104140000D02*
X84825000Y-104510000D01*
X87209990Y-103210000D02*
X86995000Y-102995010D01*
X89275000Y-103210000D02*
X87209990Y-103210000D01*
X89275000Y-102560000D02*
X88225000Y-102560000D01*
X88025010Y-102360010D02*
X85850010Y-102360010D01*
X88225000Y-102560000D02*
X88025010Y-102360010D01*
X89275000Y-101910000D02*
X86670000Y-101910000D01*
X86670000Y-101910000D02*
X86360000Y-101600000D01*
X88132000Y-101320000D02*
X89180000Y-101320000D01*
X87290000Y-101260000D02*
X86995000Y-100965000D01*
X89275000Y-101260000D02*
X87290000Y-101260000D01*
X145415000Y-106680000D02*
X145415000Y-111760000D01*
X109220000Y-95885000D02*
X80645000Y-95885000D01*
X80645000Y-95885000D02*
X80010000Y-95885000D01*
X110059013Y-96274211D02*
X109609211Y-96274211D01*
X109609211Y-96274211D02*
X109220000Y-95885000D01*
X116586000Y-95631000D02*
X116586000Y-96774000D01*
X79375000Y-95250000D02*
X116205000Y-95250000D01*
X116205000Y-95250000D02*
X116586000Y-95631000D01*
X104775000Y-94615000D02*
X76200000Y-94615000D01*
X120015000Y-94615000D02*
X104775000Y-94615000D01*
X120396000Y-94996000D02*
X120015000Y-94615000D01*
X120396000Y-96774000D02*
X120396000Y-94996000D01*
X74930000Y-93980000D02*
X123825000Y-93980000D01*
X124206000Y-96774000D02*
X124206000Y-94361000D01*
X124206000Y-94361000D02*
X123825000Y-93980000D01*
X128016000Y-96774000D02*
X128016000Y-95631000D01*
X127635000Y-93345000D02*
X104775000Y-93345000D01*
X104775000Y-93345000D02*
X72390000Y-93345000D01*
X128016000Y-96774000D02*
X128016000Y-93726000D01*
X128016000Y-93726000D02*
X127635000Y-93345000D01*
X131826000Y-96774000D02*
X131826000Y-94996000D01*
X105410000Y-92710000D02*
X71120000Y-92710000D01*
X131826000Y-93091000D02*
X131445000Y-92710000D01*
X131826000Y-96774000D02*
X131826000Y-93091000D01*
X131445000Y-92710000D02*
X105410000Y-92710000D01*
X106680000Y-92075000D02*
X69850000Y-92075000D01*
X135255000Y-92075000D02*
X106680000Y-92075000D01*
X69850000Y-92075000D02*
X69215000Y-92075000D01*
X135636000Y-96774000D02*
X135636000Y-92456000D01*
X135636000Y-92456000D02*
X135255000Y-92075000D01*
X139446000Y-91821000D02*
X139065000Y-91440000D01*
X139446000Y-96774000D02*
X139446000Y-91821000D01*
X68580000Y-91440000D02*
X139065000Y-91440000D01*
X67945000Y-92075000D02*
X68580000Y-91440000D01*
X71120000Y-111760000D02*
X112776000Y-111760000D01*
X70485000Y-112395000D02*
X71120000Y-111760000D01*
X70485000Y-115570000D02*
X70485000Y-112395000D01*
X116586000Y-110748000D02*
X116586000Y-111760000D01*
X109855000Y-111125000D02*
X110490000Y-110490000D01*
X116328000Y-110490000D02*
X116586000Y-110748000D01*
X110490000Y-110490000D02*
X116328000Y-110490000D01*
X73025000Y-111125000D02*
X109855000Y-111125000D01*
X120396000Y-110748000D02*
X119503000Y-109855000D01*
X119503000Y-109855000D02*
X119380000Y-109855000D01*
X120396000Y-111760000D02*
X120396000Y-110748000D01*
X120396000Y-110748000D02*
X119380000Y-109855000D01*
X109220000Y-109855000D02*
X119380000Y-109855000D01*
X108585000Y-110490000D02*
X109220000Y-109855000D01*
X75565000Y-110490000D02*
X108585000Y-110490000D01*
X124206000Y-110748000D02*
X124206000Y-111760000D01*
X108585000Y-109220000D02*
X122678000Y-109220000D01*
X107950000Y-109855000D02*
X108585000Y-109220000D01*
X78105000Y-109855000D02*
X107950000Y-109855000D01*
X122678000Y-109220000D02*
X124206000Y-110748000D01*
X128016000Y-110748000D02*
X128016000Y-111760000D01*
X107950000Y-108585000D02*
X125853000Y-108585000D01*
X80645000Y-109220000D02*
X107315000Y-109220000D01*
X125853000Y-108585000D02*
X128016000Y-110748000D01*
X107315000Y-109220000D02*
X107950000Y-108585000D01*
X131826000Y-110748000D02*
X131826000Y-111760000D01*
X129028000Y-107950000D02*
X131826000Y-110748000D01*
X107315000Y-107950000D02*
X129028000Y-107950000D01*
X106680000Y-108585000D02*
X107315000Y-107950000D01*
X83185000Y-108585000D02*
X106680000Y-108585000D01*
X135636000Y-110748000D02*
X135636000Y-111760000D01*
X132203000Y-107315000D02*
X135636000Y-110748000D01*
X106680000Y-107315000D02*
X132203000Y-107315000D01*
X106045000Y-107950000D02*
X106680000Y-107315000D01*
X85725000Y-107950000D02*
X106045000Y-107950000D01*
X135378000Y-106680000D02*
X139446000Y-110748000D01*
X106045000Y-106680000D02*
X135378000Y-106680000D01*
X105410000Y-107315000D02*
X106045000Y-106680000D01*
X139446000Y-110748000D02*
X139446000Y-111760000D01*
X88265000Y-107315000D02*
X105410000Y-107315000D01*
X98425000Y-123190000D02*
X98425000Y-119410000D01*
X100965000Y-123190000D02*
X100965000Y-119310000D01*
X103505000Y-123190000D02*
X103505000Y-119410000D01*
X69850000Y-117475000D02*
X95211550Y-117475000D01*
X62865000Y-110490000D02*
X69850000Y-117475000D01*
X95885000Y-118110000D02*
X98425000Y-115570000D01*
X69215000Y-118110000D02*
X95885000Y-118110000D01*
X64135000Y-113030000D02*
X69215000Y-118110000D01*
X62865000Y-113030000D02*
X64135000Y-113030000D01*
X65405000Y-115570000D02*
X62865000Y-115570000D01*
X97790000Y-118745000D02*
X68580000Y-118745000D01*
X68580000Y-118745000D02*
X65405000Y-115570000D01*
X100965000Y-115570000D02*
X97790000Y-118745000D01*
X96120460Y-98660000D02*
X96135460Y-98675000D01*
X94875000Y-98660000D02*
X96120460Y-98660000D01*
X99060000Y-99310000D02*
X94875000Y-99310000D01*
X100330000Y-100330000D02*
X99060000Y-99310000D01*
X94875000Y-99960000D02*
X98695640Y-99960000D01*
X99700640Y-100965000D02*
X101600000Y-100965000D01*
X98695640Y-99960000D02*
X99700640Y-100965000D01*
X98709230Y-100610000D02*
X94875000Y-100610000D01*
X99699230Y-101600000D02*
X98709230Y-100610000D01*
X104140000Y-101600000D02*
X99699230Y-101600000D01*
D22*
G36*
X61613724Y-91279119D02*
G01*
X64135000Y-93800395D01*
X66656276Y-91279119D01*
X66568655Y-91160000D01*
X67701107Y-91160000D01*
X67669354Y-91166316D01*
X67497375Y-91237552D01*
X67342598Y-91340971D01*
X67210971Y-91472598D01*
X67107552Y-91627375D01*
X67097652Y-91651277D01*
X66835881Y-91458724D01*
X64314605Y-93980000D01*
X64328748Y-93994143D01*
X64149143Y-94173748D01*
X64135000Y-94159605D01*
X61613724Y-96680881D01*
X61973912Y-97170548D01*
X62637882Y-97530849D01*
X63359385Y-97754694D01*
X64110695Y-97833480D01*
X64715839Y-97777730D01*
X64670971Y-97822598D01*
X64567552Y-97977375D01*
X64496316Y-98149354D01*
X64489434Y-98183951D01*
X64410646Y-98151316D01*
X64228074Y-98115000D01*
X64041926Y-98115000D01*
X63859354Y-98151316D01*
X63687375Y-98222552D01*
X63532598Y-98325971D01*
X63400971Y-98457598D01*
X63297552Y-98612375D01*
X63226316Y-98784354D01*
X63190000Y-98966926D01*
X63190000Y-99153074D01*
X63226316Y-99335646D01*
X63297552Y-99507625D01*
X63339230Y-99570000D01*
X62752909Y-99570000D01*
X62670799Y-99447114D01*
X62477886Y-99254201D01*
X62251043Y-99102629D01*
X61998989Y-98998225D01*
X61731411Y-98945000D01*
X61458589Y-98945000D01*
X61191011Y-98998225D01*
X60938957Y-99102629D01*
X60712114Y-99254201D01*
X60519201Y-99447114D01*
X60367629Y-99673957D01*
X60263225Y-99926011D01*
X60210000Y-100193589D01*
X60210000Y-100466411D01*
X60263225Y-100733989D01*
X60367629Y-100986043D01*
X60519201Y-101212886D01*
X60712114Y-101405799D01*
X60938957Y-101557371D01*
X61041873Y-101600000D01*
X60938957Y-101642629D01*
X60712114Y-101794201D01*
X60519201Y-101987114D01*
X60367629Y-102213957D01*
X60263225Y-102466011D01*
X60210000Y-102733589D01*
X60210000Y-103006411D01*
X60263225Y-103273989D01*
X60367629Y-103526043D01*
X60519201Y-103752886D01*
X60712114Y-103945799D01*
X60938957Y-104097371D01*
X61041873Y-104140000D01*
X60938957Y-104182629D01*
X60712114Y-104334201D01*
X60519201Y-104527114D01*
X60367629Y-104753957D01*
X60263225Y-105006011D01*
X60210000Y-105273589D01*
X60210000Y-105546411D01*
X60263225Y-105813989D01*
X60367629Y-106066043D01*
X60519201Y-106292886D01*
X60712114Y-106485799D01*
X60938957Y-106637371D01*
X61191011Y-106741775D01*
X61458589Y-106795000D01*
X61731411Y-106795000D01*
X61998989Y-106741775D01*
X62251043Y-106637371D01*
X62477886Y-106485799D01*
X62670799Y-106292886D01*
X62752909Y-106170000D01*
X66111466Y-106170000D01*
X66227375Y-106247448D01*
X66399354Y-106318684D01*
X66581926Y-106355000D01*
X66768074Y-106355000D01*
X66950646Y-106318684D01*
X67122625Y-106247448D01*
X67277402Y-106144029D01*
X67409029Y-106012402D01*
X67512448Y-105857625D01*
X67583684Y-105685646D01*
X67620000Y-105503074D01*
X67620000Y-105316926D01*
X67583684Y-105134354D01*
X67512448Y-104962375D01*
X67409029Y-104807598D01*
X67277402Y-104675971D01*
X67122625Y-104572552D01*
X66950646Y-104501316D01*
X66768074Y-104465000D01*
X66581926Y-104465000D01*
X66399354Y-104501316D01*
X66227375Y-104572552D01*
X66111466Y-104650000D01*
X62752909Y-104650000D01*
X62670799Y-104527114D01*
X62477886Y-104334201D01*
X62251043Y-104182629D01*
X62148127Y-104140000D01*
X62251043Y-104097371D01*
X62477886Y-103945799D01*
X62670799Y-103752886D01*
X62752909Y-103630000D01*
X65476466Y-103630000D01*
X65592375Y-103707448D01*
X65764354Y-103778684D01*
X65946926Y-103815000D01*
X66133074Y-103815000D01*
X66315646Y-103778684D01*
X66487625Y-103707448D01*
X66642402Y-103604029D01*
X66774029Y-103472402D01*
X66877448Y-103317625D01*
X66948684Y-103145646D01*
X66985000Y-102963074D01*
X66985000Y-102776926D01*
X66948684Y-102594354D01*
X66877448Y-102422375D01*
X66774029Y-102267598D01*
X66642402Y-102135971D01*
X66487625Y-102032552D01*
X66315646Y-101961316D01*
X66133074Y-101925000D01*
X65946926Y-101925000D01*
X65764354Y-101961316D01*
X65592375Y-102032552D01*
X65476466Y-102110000D01*
X62752909Y-102110000D01*
X62670799Y-101987114D01*
X62477886Y-101794201D01*
X62251043Y-101642629D01*
X62148127Y-101600000D01*
X62251043Y-101557371D01*
X62477886Y-101405799D01*
X62670799Y-101212886D01*
X62752909Y-101090000D01*
X64841466Y-101090000D01*
X64957375Y-101167448D01*
X65129354Y-101238684D01*
X65311926Y-101275000D01*
X65498074Y-101275000D01*
X65680646Y-101238684D01*
X65852625Y-101167448D01*
X66007402Y-101064029D01*
X66139029Y-100932402D01*
X66242448Y-100777625D01*
X66313684Y-100605646D01*
X66350000Y-100423074D01*
X66350000Y-100236926D01*
X66313684Y-100054354D01*
X66242448Y-99882375D01*
X66200770Y-99820000D01*
X66360199Y-99820000D01*
X66746200Y-100206002D01*
X66769999Y-100235001D01*
X66885724Y-100329974D01*
X67017753Y-100400546D01*
X67161014Y-100444003D01*
X67262484Y-100453997D01*
X67310000Y-100458677D01*
X67347333Y-100455000D01*
X69286466Y-100455000D01*
X69402375Y-100532448D01*
X69574354Y-100603684D01*
X69756926Y-100640000D01*
X69943074Y-100640000D01*
X70125646Y-100603684D01*
X70297625Y-100532448D01*
X70413534Y-100455000D01*
X72461466Y-100455000D01*
X72577375Y-100532448D01*
X72749354Y-100603684D01*
X72931926Y-100640000D01*
X73118074Y-100640000D01*
X73300646Y-100603684D01*
X73472625Y-100532448D01*
X73588534Y-100455000D01*
X76271466Y-100455000D01*
X76387375Y-100532448D01*
X76559354Y-100603684D01*
X76741926Y-100640000D01*
X76928074Y-100640000D01*
X77110646Y-100603684D01*
X77282625Y-100532448D01*
X77398534Y-100455000D01*
X80081466Y-100455000D01*
X80197375Y-100532448D01*
X80369354Y-100603684D01*
X80506079Y-100630880D01*
X80981201Y-101106003D01*
X81004999Y-101135001D01*
X81120724Y-101229974D01*
X81252753Y-101300546D01*
X81396014Y-101344003D01*
X81507667Y-101355000D01*
X81507676Y-101355000D01*
X81544999Y-101358676D01*
X81582322Y-101355000D01*
X84936466Y-101355000D01*
X85052375Y-101432448D01*
X85159032Y-101476627D01*
X85122598Y-101500971D01*
X84990971Y-101632598D01*
X84887552Y-101787375D01*
X84816316Y-101959354D01*
X84780000Y-102141926D01*
X84780000Y-102328074D01*
X84816316Y-102510646D01*
X84887552Y-102682625D01*
X84990971Y-102837402D01*
X85122598Y-102969029D01*
X85277375Y-103072448D01*
X85449354Y-103143684D01*
X85631926Y-103180000D01*
X85818074Y-103180000D01*
X86000646Y-103143684D01*
X86056461Y-103120565D01*
X86086316Y-103270656D01*
X86157552Y-103442635D01*
X86260971Y-103597412D01*
X86392598Y-103729039D01*
X86423968Y-103750000D01*
X85316317Y-103750000D01*
X85292448Y-103692375D01*
X85189029Y-103537598D01*
X85057402Y-103405971D01*
X84902625Y-103302552D01*
X84730646Y-103231316D01*
X84548074Y-103195000D01*
X84361926Y-103195000D01*
X84179354Y-103231316D01*
X84007375Y-103302552D01*
X83852598Y-103405971D01*
X83720971Y-103537598D01*
X83617552Y-103692375D01*
X83546316Y-103864354D01*
X83510000Y-104046926D01*
X83510000Y-104233074D01*
X83546316Y-104415646D01*
X83617552Y-104587625D01*
X83720971Y-104742402D01*
X83852598Y-104874029D01*
X84007375Y-104977448D01*
X84179354Y-105048684D01*
X84316678Y-105076000D01*
X84400724Y-105144974D01*
X84532753Y-105215546D01*
X84676014Y-105259003D01*
X84787667Y-105270000D01*
X84787677Y-105270000D01*
X84824999Y-105273676D01*
X84862322Y-105270000D01*
X87836928Y-105270000D01*
X87836928Y-105310000D01*
X87849188Y-105434482D01*
X87864512Y-105485000D01*
X87849188Y-105535518D01*
X87836928Y-105660000D01*
X87836928Y-105960000D01*
X87849188Y-106084482D01*
X87864512Y-106135000D01*
X87849188Y-106185518D01*
X87836928Y-106310000D01*
X87836928Y-106469453D01*
X87817375Y-106477552D01*
X87662598Y-106580971D01*
X87530971Y-106712598D01*
X87427552Y-106867375D01*
X87356316Y-107039354D01*
X87326351Y-107190000D01*
X86288534Y-107190000D01*
X86172625Y-107112552D01*
X86000646Y-107041316D01*
X85818074Y-107005000D01*
X85631926Y-107005000D01*
X85449354Y-107041316D01*
X85277375Y-107112552D01*
X85122598Y-107215971D01*
X84990971Y-107347598D01*
X84887552Y-107502375D01*
X84816316Y-107674354D01*
X84786351Y-107825000D01*
X83748534Y-107825000D01*
X83632625Y-107747552D01*
X83460646Y-107676316D01*
X83278074Y-107640000D01*
X83091926Y-107640000D01*
X82909354Y-107676316D01*
X82737375Y-107747552D01*
X82582598Y-107850971D01*
X82450971Y-107982598D01*
X82347552Y-108137375D01*
X82276316Y-108309354D01*
X82246351Y-108460000D01*
X81208534Y-108460000D01*
X81092625Y-108382552D01*
X80920646Y-108311316D01*
X80738074Y-108275000D01*
X80551926Y-108275000D01*
X80369354Y-108311316D01*
X80197375Y-108382552D01*
X80042598Y-108485971D01*
X79910971Y-108617598D01*
X79807552Y-108772375D01*
X79736316Y-108944354D01*
X79706351Y-109095000D01*
X78668534Y-109095000D01*
X78552625Y-109017552D01*
X78380646Y-108946316D01*
X78198074Y-108910000D01*
X78011926Y-108910000D01*
X77829354Y-108946316D01*
X77657375Y-109017552D01*
X77502598Y-109120971D01*
X77370971Y-109252598D01*
X77267552Y-109407375D01*
X77196316Y-109579354D01*
X77166351Y-109730000D01*
X76128534Y-109730000D01*
X76012625Y-109652552D01*
X75840646Y-109581316D01*
X75658074Y-109545000D01*
X75471926Y-109545000D01*
X75289354Y-109581316D01*
X75117375Y-109652552D01*
X74962598Y-109755971D01*
X74830971Y-109887598D01*
X74727552Y-110042375D01*
X74656316Y-110214354D01*
X74626351Y-110365000D01*
X73588534Y-110365000D01*
X73472625Y-110287552D01*
X73300646Y-110216316D01*
X73118074Y-110180000D01*
X72931926Y-110180000D01*
X72749354Y-110216316D01*
X72577375Y-110287552D01*
X72422598Y-110390971D01*
X72290971Y-110522598D01*
X72187552Y-110677375D01*
X72116316Y-110849354D01*
X72086351Y-111000000D01*
X71157333Y-111000000D01*
X71120000Y-110996323D01*
X71082667Y-111000000D01*
X70971014Y-111010997D01*
X70827753Y-111054454D01*
X70695724Y-111125026D01*
X70579999Y-111219999D01*
X70556200Y-111248998D01*
X69973998Y-111831201D01*
X69945000Y-111854999D01*
X69921202Y-111883997D01*
X69921201Y-111883998D01*
X69850026Y-111970724D01*
X69779454Y-112102754D01*
X69755555Y-112181542D01*
X69735998Y-112246014D01*
X69730837Y-112298417D01*
X69721324Y-112395000D01*
X69725001Y-112432332D01*
X69725000Y-114131928D01*
X69685000Y-114131928D01*
X69560518Y-114144188D01*
X69440820Y-114180498D01*
X69330506Y-114239463D01*
X69233815Y-114318815D01*
X69154463Y-114415506D01*
X69095498Y-114525820D01*
X69059188Y-114645518D01*
X69046928Y-114770000D01*
X69046928Y-115597126D01*
X63800881Y-110351079D01*
X63773684Y-110214354D01*
X63702448Y-110042375D01*
X63599029Y-109887598D01*
X63467402Y-109755971D01*
X63312625Y-109652552D01*
X63140646Y-109581316D01*
X62958074Y-109545000D01*
X62771926Y-109545000D01*
X62589354Y-109581316D01*
X62417375Y-109652552D01*
X62262598Y-109755971D01*
X62130971Y-109887598D01*
X62027552Y-110042375D01*
X61956316Y-110214354D01*
X61920000Y-110396926D01*
X61920000Y-110583074D01*
X61956316Y-110765646D01*
X62027552Y-110937625D01*
X62130971Y-111092402D01*
X62262598Y-111224029D01*
X62417375Y-111327448D01*
X62589354Y-111398684D01*
X62726079Y-111425881D01*
X63570199Y-112270000D01*
X63428534Y-112270000D01*
X63312625Y-112192552D01*
X63140646Y-112121316D01*
X62958074Y-112085000D01*
X62771926Y-112085000D01*
X62589354Y-112121316D01*
X62417375Y-112192552D01*
X62262598Y-112295971D01*
X62130971Y-112427598D01*
X62027552Y-112582375D01*
X61956316Y-112754354D01*
X61920000Y-112936926D01*
X61920000Y-113123074D01*
X61956316Y-113305646D01*
X62027552Y-113477625D01*
X62130971Y-113632402D01*
X62262598Y-113764029D01*
X62417375Y-113867448D01*
X62589354Y-113938684D01*
X62771926Y-113975000D01*
X62958074Y-113975000D01*
X63140646Y-113938684D01*
X63312625Y-113867448D01*
X63428534Y-113790000D01*
X63820199Y-113790000D01*
X64840199Y-114810000D01*
X63428534Y-114810000D01*
X63312625Y-114732552D01*
X63140646Y-114661316D01*
X62958074Y-114625000D01*
X62771926Y-114625000D01*
X62589354Y-114661316D01*
X62417375Y-114732552D01*
X62262598Y-114835971D01*
X62130971Y-114967598D01*
X62027552Y-115122375D01*
X61956316Y-115294354D01*
X61920000Y-115476926D01*
X61920000Y-115663074D01*
X61956316Y-115845646D01*
X62027552Y-116017625D01*
X62130971Y-116172402D01*
X62262598Y-116304029D01*
X62417375Y-116407448D01*
X62589354Y-116478684D01*
X62771926Y-116515000D01*
X62958074Y-116515000D01*
X63140646Y-116478684D01*
X63312625Y-116407448D01*
X63428534Y-116330000D01*
X65090199Y-116330000D01*
X68016201Y-119256003D01*
X68039999Y-119285001D01*
X68068997Y-119308799D01*
X68155723Y-119379974D01*
X68190802Y-119398724D01*
X68287753Y-119450546D01*
X68431014Y-119494003D01*
X68542667Y-119505000D01*
X68542676Y-119505000D01*
X68579999Y-119508676D01*
X68617322Y-119505000D01*
X97480383Y-119505000D01*
X97516316Y-119685646D01*
X97587552Y-119857625D01*
X97665001Y-119973535D01*
X97665000Y-121971956D01*
X97510241Y-122075363D01*
X97310363Y-122275241D01*
X97155000Y-122507759D01*
X96999637Y-122275241D01*
X96799759Y-122075363D01*
X96564727Y-121918320D01*
X96303574Y-121810147D01*
X96026335Y-121755000D01*
X95743665Y-121755000D01*
X95466426Y-121810147D01*
X95205273Y-121918320D01*
X94970241Y-122075363D01*
X94770363Y-122275241D01*
X94615000Y-122507759D01*
X94459637Y-122275241D01*
X94259759Y-122075363D01*
X94024727Y-121918320D01*
X93763574Y-121810147D01*
X93486335Y-121755000D01*
X93203665Y-121755000D01*
X92926426Y-121810147D01*
X92665273Y-121918320D01*
X92430241Y-122075363D01*
X92230363Y-122275241D01*
X92075000Y-122507759D01*
X91919637Y-122275241D01*
X91719759Y-122075363D01*
X91484727Y-121918320D01*
X91223574Y-121810147D01*
X90946335Y-121755000D01*
X90663665Y-121755000D01*
X90386426Y-121810147D01*
X90125273Y-121918320D01*
X89890241Y-122075363D01*
X89690363Y-122275241D01*
X89535000Y-122507759D01*
X89379637Y-122275241D01*
X89179759Y-122075363D01*
X88944727Y-121918320D01*
X88683574Y-121810147D01*
X88406335Y-121755000D01*
X88123665Y-121755000D01*
X87846426Y-121810147D01*
X87585273Y-121918320D01*
X87350241Y-122075363D01*
X87150363Y-122275241D01*
X86995000Y-122507759D01*
X86839637Y-122275241D01*
X86639759Y-122075363D01*
X86404727Y-121918320D01*
X86143574Y-121810147D01*
X85866335Y-121755000D01*
X85583665Y-121755000D01*
X85306426Y-121810147D01*
X85045273Y-121918320D01*
X84810241Y-122075363D01*
X84610363Y-122275241D01*
X84455000Y-122507759D01*
X84299637Y-122275241D01*
X84099759Y-122075363D01*
X83864727Y-121918320D01*
X83603574Y-121810147D01*
X83326335Y-121755000D01*
X83043665Y-121755000D01*
X82766426Y-121810147D01*
X82505273Y-121918320D01*
X82270241Y-122075363D01*
X82070363Y-122275241D01*
X81915000Y-122507759D01*
X81759637Y-122275241D01*
X81559759Y-122075363D01*
X81324727Y-121918320D01*
X81063574Y-121810147D01*
X80786335Y-121755000D01*
X80503665Y-121755000D01*
X80226426Y-121810147D01*
X79965273Y-121918320D01*
X79730241Y-122075363D01*
X79530363Y-122275241D01*
X79375000Y-122507759D01*
X79219637Y-122275241D01*
X79019759Y-122075363D01*
X78784727Y-121918320D01*
X78523574Y-121810147D01*
X78246335Y-121755000D01*
X77963665Y-121755000D01*
X77686426Y-121810147D01*
X77425273Y-121918320D01*
X77190241Y-122075363D01*
X76990363Y-122275241D01*
X76835000Y-122507759D01*
X76679637Y-122275241D01*
X76479759Y-122075363D01*
X76244727Y-121918320D01*
X75983574Y-121810147D01*
X75706335Y-121755000D01*
X75423665Y-121755000D01*
X75146426Y-121810147D01*
X74885273Y-121918320D01*
X74650241Y-122075363D01*
X74450363Y-122275241D01*
X74295000Y-122507759D01*
X74139637Y-122275241D01*
X73939759Y-122075363D01*
X73704727Y-121918320D01*
X73443574Y-121810147D01*
X73166335Y-121755000D01*
X72883665Y-121755000D01*
X72606426Y-121810147D01*
X72345273Y-121918320D01*
X72110241Y-122075363D01*
X71910363Y-122275241D01*
X71755000Y-122507759D01*
X71599637Y-122275241D01*
X71399759Y-122075363D01*
X71164727Y-121918320D01*
X70903574Y-121810147D01*
X70626335Y-121755000D01*
X70343665Y-121755000D01*
X70066426Y-121810147D01*
X69805273Y-121918320D01*
X69570241Y-122075363D01*
X69370363Y-122275241D01*
X69213320Y-122510273D01*
X69105147Y-122771426D01*
X69050000Y-123048665D01*
X69050000Y-123331335D01*
X69105147Y-123608574D01*
X69213320Y-123869727D01*
X69370363Y-124104759D01*
X69570241Y-124304637D01*
X69805273Y-124461680D01*
X70066426Y-124569853D01*
X70343665Y-124625000D01*
X70626335Y-124625000D01*
X70903574Y-124569853D01*
X71164727Y-124461680D01*
X71399759Y-124304637D01*
X71599637Y-124104759D01*
X71755000Y-123872241D01*
X71910363Y-124104759D01*
X72110241Y-124304637D01*
X72345273Y-124461680D01*
X72606426Y-124569853D01*
X72883665Y-124625000D01*
X73166335Y-124625000D01*
X73443574Y-124569853D01*
X73704727Y-124461680D01*
X73939759Y-124304637D01*
X74139637Y-124104759D01*
X74295000Y-123872241D01*
X74450363Y-124104759D01*
X74650241Y-124304637D01*
X74885273Y-124461680D01*
X75146426Y-124569853D01*
X75423665Y-124625000D01*
X75706335Y-124625000D01*
X75983574Y-124569853D01*
X76244727Y-124461680D01*
X76479759Y-124304637D01*
X76679637Y-124104759D01*
X76835000Y-123872241D01*
X76990363Y-124104759D01*
X77190241Y-124304637D01*
X77425273Y-124461680D01*
X77686426Y-124569853D01*
X77963665Y-124625000D01*
X78246335Y-124625000D01*
X78523574Y-124569853D01*
X78784727Y-124461680D01*
X79019759Y-124304637D01*
X79219637Y-124104759D01*
X79375000Y-123872241D01*
X79530363Y-124104759D01*
X79730241Y-124304637D01*
X79965273Y-124461680D01*
X80226426Y-124569853D01*
X80503665Y-124625000D01*
X80786335Y-124625000D01*
X81063574Y-124569853D01*
X81324727Y-124461680D01*
X81559759Y-124304637D01*
X81759637Y-124104759D01*
X81915000Y-123872241D01*
X82070363Y-124104759D01*
X82270241Y-124304637D01*
X82505273Y-124461680D01*
X82766426Y-124569853D01*
X83043665Y-124625000D01*
X83326335Y-124625000D01*
X83603574Y-124569853D01*
X83864727Y-124461680D01*
X84099759Y-124304637D01*
X84299637Y-124104759D01*
X84455000Y-123872241D01*
X84610363Y-124104759D01*
X84810241Y-124304637D01*
X85045273Y-124461680D01*
X85306426Y-124569853D01*
X85583665Y-124625000D01*
X85866335Y-124625000D01*
X86143574Y-124569853D01*
X86404727Y-124461680D01*
X86639759Y-124304637D01*
X86839637Y-124104759D01*
X86995000Y-123872241D01*
X87150363Y-124104759D01*
X87350241Y-124304637D01*
X87585273Y-124461680D01*
X87846426Y-124569853D01*
X88123665Y-124625000D01*
X88406335Y-124625000D01*
X88683574Y-124569853D01*
X88944727Y-124461680D01*
X89179759Y-124304637D01*
X89379637Y-124104759D01*
X89535000Y-123872241D01*
X89690363Y-124104759D01*
X89890241Y-124304637D01*
X90125273Y-124461680D01*
X90386426Y-124569853D01*
X90663665Y-124625000D01*
X90946335Y-124625000D01*
X91223574Y-124569853D01*
X91484727Y-124461680D01*
X91719759Y-124304637D01*
X91919637Y-124104759D01*
X92075000Y-123872241D01*
X92230363Y-124104759D01*
X92430241Y-124304637D01*
X92665273Y-124461680D01*
X92926426Y-124569853D01*
X93203665Y-124625000D01*
X93486335Y-124625000D01*
X93763574Y-124569853D01*
X94024727Y-124461680D01*
X94259759Y-124304637D01*
X94459637Y-124104759D01*
X94615000Y-123872241D01*
X94770363Y-124104759D01*
X94970241Y-124304637D01*
X95205273Y-124461680D01*
X95466426Y-124569853D01*
X95743665Y-124625000D01*
X96026335Y-124625000D01*
X96303574Y-124569853D01*
X96564727Y-124461680D01*
X96799759Y-124304637D01*
X96999637Y-124104759D01*
X97155000Y-123872241D01*
X97310363Y-124104759D01*
X97510241Y-124304637D01*
X97745273Y-124461680D01*
X98006426Y-124569853D01*
X98283665Y-124625000D01*
X98566335Y-124625000D01*
X98843574Y-124569853D01*
X99104727Y-124461680D01*
X99339759Y-124304637D01*
X99539637Y-124104759D01*
X99695000Y-123872241D01*
X99850363Y-124104759D01*
X100050241Y-124304637D01*
X100285273Y-124461680D01*
X100546426Y-124569853D01*
X100823665Y-124625000D01*
X101106335Y-124625000D01*
X101383574Y-124569853D01*
X101644727Y-124461680D01*
X101879759Y-124304637D01*
X102079637Y-124104759D01*
X102235000Y-123872241D01*
X102390363Y-124104759D01*
X102590241Y-124304637D01*
X102825273Y-124461680D01*
X103086426Y-124569853D01*
X103363665Y-124625000D01*
X103646335Y-124625000D01*
X103923574Y-124569853D01*
X104184727Y-124461680D01*
X104419759Y-124304637D01*
X104619637Y-124104759D01*
X104776680Y-123869727D01*
X104884853Y-123608574D01*
X104940000Y-123331335D01*
X104940000Y-123053589D01*
X118865000Y-123053589D01*
X118865000Y-123326411D01*
X118918225Y-123593989D01*
X119022629Y-123846043D01*
X119174201Y-124072886D01*
X119367114Y-124265799D01*
X119593957Y-124417371D01*
X119846011Y-124521775D01*
X120113589Y-124575000D01*
X120386411Y-124575000D01*
X120653989Y-124521775D01*
X120906043Y-124417371D01*
X121132886Y-124265799D01*
X121251692Y-124146993D01*
X133842612Y-124146993D01*
X133908137Y-124385860D01*
X134155116Y-124501760D01*
X134419960Y-124567250D01*
X134692492Y-124579812D01*
X134962238Y-124538965D01*
X135218832Y-124446277D01*
X135331863Y-124385860D01*
X135397388Y-124146993D01*
X134620000Y-123369605D01*
X133842612Y-124146993D01*
X121251692Y-124146993D01*
X121325799Y-124072886D01*
X121477371Y-123846043D01*
X121581775Y-123593989D01*
X121635000Y-123326411D01*
X121635000Y-123262492D01*
X133230188Y-123262492D01*
X133271035Y-123532238D01*
X133363723Y-123788832D01*
X133424140Y-123901863D01*
X133663007Y-123967388D01*
X134440395Y-123190000D01*
X134799605Y-123190000D01*
X135576993Y-123967388D01*
X135815860Y-123901863D01*
X135931760Y-123654884D01*
X135997250Y-123390040D01*
X136009812Y-123117508D01*
X135968965Y-122847762D01*
X135876277Y-122591168D01*
X135815860Y-122478137D01*
X135576993Y-122412612D01*
X134799605Y-123190000D01*
X134440395Y-123190000D01*
X133663007Y-122412612D01*
X133424140Y-122478137D01*
X133308240Y-122725116D01*
X133242750Y-122989960D01*
X133230188Y-123262492D01*
X121635000Y-123262492D01*
X121635000Y-123053589D01*
X121581775Y-122786011D01*
X121477371Y-122533957D01*
X121325799Y-122307114D01*
X121251692Y-122233007D01*
X133842612Y-122233007D01*
X134620000Y-123010395D01*
X135397388Y-122233007D01*
X135331863Y-121994140D01*
X135122081Y-121895695D01*
X157036520Y-121895695D01*
X157105822Y-122647938D01*
X157320548Y-123372208D01*
X157672445Y-124040670D01*
X157699452Y-124081088D01*
X158189119Y-124441276D01*
X160710395Y-121920000D01*
X158189119Y-119398724D01*
X157699452Y-119758912D01*
X157339151Y-120422882D01*
X157115306Y-121144385D01*
X157036520Y-121895695D01*
X135122081Y-121895695D01*
X135084884Y-121878240D01*
X134820040Y-121812750D01*
X134547508Y-121800188D01*
X134277762Y-121841035D01*
X134021168Y-121933723D01*
X133908137Y-121994140D01*
X133842612Y-122233007D01*
X121251692Y-122233007D01*
X121132886Y-122114201D01*
X120906043Y-121962629D01*
X120653989Y-121858225D01*
X120386411Y-121805000D01*
X120113589Y-121805000D01*
X119846011Y-121858225D01*
X119593957Y-121962629D01*
X119367114Y-122114201D01*
X119174201Y-122307114D01*
X119022629Y-122533957D01*
X118918225Y-122786011D01*
X118865000Y-123053589D01*
X104940000Y-123053589D01*
X104940000Y-123048665D01*
X104884853Y-122771426D01*
X104776680Y-122510273D01*
X104619637Y-122275241D01*
X104419759Y-122075363D01*
X104265000Y-121971957D01*
X104265000Y-119973534D01*
X104299483Y-119921926D01*
X150185000Y-119921926D01*
X150185000Y-120108074D01*
X150221316Y-120290646D01*
X150292552Y-120462625D01*
X150395971Y-120617402D01*
X150527598Y-120749029D01*
X150682375Y-120852448D01*
X150854354Y-120923684D01*
X151036926Y-120960000D01*
X151223074Y-120960000D01*
X151405646Y-120923684D01*
X151577625Y-120852448D01*
X151693534Y-120775000D01*
X151836466Y-120775000D01*
X151952375Y-120852448D01*
X152124354Y-120923684D01*
X152306926Y-120960000D01*
X152493074Y-120960000D01*
X152675646Y-120923684D01*
X152847625Y-120852448D01*
X153002402Y-120749029D01*
X153134029Y-120617402D01*
X153237448Y-120462625D01*
X153308684Y-120290646D01*
X153345000Y-120108074D01*
X153345000Y-119921926D01*
X153308684Y-119739354D01*
X153237448Y-119567375D01*
X153134029Y-119412598D01*
X153002402Y-119280971D01*
X152909835Y-119219119D01*
X158368724Y-119219119D01*
X160890000Y-121740395D01*
X163411276Y-119219119D01*
X163051088Y-118729452D01*
X162387118Y-118369151D01*
X161665615Y-118145306D01*
X160914305Y-118066520D01*
X160162062Y-118135822D01*
X159437792Y-118350548D01*
X158769330Y-118702445D01*
X158728912Y-118729452D01*
X158368724Y-119219119D01*
X152909835Y-119219119D01*
X152847625Y-119177552D01*
X152675646Y-119106316D01*
X152493074Y-119070000D01*
X152306926Y-119070000D01*
X152124354Y-119106316D01*
X151952375Y-119177552D01*
X151836466Y-119255000D01*
X151693534Y-119255000D01*
X151577625Y-119177552D01*
X151405646Y-119106316D01*
X151223074Y-119070000D01*
X151036926Y-119070000D01*
X150854354Y-119106316D01*
X150682375Y-119177552D01*
X150527598Y-119280971D01*
X150395971Y-119412598D01*
X150292552Y-119567375D01*
X150221316Y-119739354D01*
X150185000Y-119921926D01*
X104299483Y-119921926D01*
X104342448Y-119857625D01*
X104413684Y-119685646D01*
X104450000Y-119503074D01*
X104450000Y-119316926D01*
X104413684Y-119134354D01*
X104342448Y-118962375D01*
X104239029Y-118807598D01*
X104107402Y-118675971D01*
X103952625Y-118572552D01*
X103780646Y-118501316D01*
X103598074Y-118465000D01*
X103411926Y-118465000D01*
X103229354Y-118501316D01*
X103057375Y-118572552D01*
X102902598Y-118675971D01*
X102770971Y-118807598D01*
X102667552Y-118962375D01*
X102596316Y-119134354D01*
X102560000Y-119316926D01*
X102560000Y-119503074D01*
X102596316Y-119685646D01*
X102667552Y-119857625D01*
X102745001Y-119973535D01*
X102745000Y-121971956D01*
X102590241Y-122075363D01*
X102390363Y-122275241D01*
X102235000Y-122507759D01*
X102079637Y-122275241D01*
X101879759Y-122075363D01*
X101725000Y-121971957D01*
X101725000Y-119873534D01*
X101802448Y-119757625D01*
X101873684Y-119585646D01*
X101910000Y-119403074D01*
X101910000Y-119216926D01*
X101873684Y-119034354D01*
X101802448Y-118862375D01*
X101699029Y-118707598D01*
X101567402Y-118575971D01*
X101412625Y-118472552D01*
X101240646Y-118401316D01*
X101058074Y-118365000D01*
X100871926Y-118365000D01*
X100689354Y-118401316D01*
X100517375Y-118472552D01*
X100362598Y-118575971D01*
X100230971Y-118707598D01*
X100127552Y-118862375D01*
X100056316Y-119034354D01*
X100020000Y-119216926D01*
X100020000Y-119403074D01*
X100056316Y-119585646D01*
X100127552Y-119757625D01*
X100205001Y-119873535D01*
X100205000Y-121971956D01*
X100050241Y-122075363D01*
X99850363Y-122275241D01*
X99695000Y-122507759D01*
X99539637Y-122275241D01*
X99339759Y-122075363D01*
X99185000Y-121971957D01*
X99185000Y-119973534D01*
X99262448Y-119857625D01*
X99333684Y-119685646D01*
X99370000Y-119503074D01*
X99370000Y-119316926D01*
X99333684Y-119134354D01*
X99262448Y-118962375D01*
X99159029Y-118807598D01*
X99027402Y-118675971D01*
X98971310Y-118638491D01*
X100641114Y-116968688D01*
X100823665Y-117005000D01*
X101106335Y-117005000D01*
X101383574Y-116949853D01*
X101644727Y-116841680D01*
X101879759Y-116684637D01*
X102079637Y-116484759D01*
X102235000Y-116252241D01*
X102390363Y-116484759D01*
X102590241Y-116684637D01*
X102825273Y-116841680D01*
X103086426Y-116949853D01*
X103363665Y-117005000D01*
X103646335Y-117005000D01*
X103923574Y-116949853D01*
X104184727Y-116841680D01*
X104419759Y-116684637D01*
X104619637Y-116484759D01*
X104776680Y-116249727D01*
X104884853Y-115988574D01*
X104940000Y-115711335D01*
X104940000Y-115636909D01*
X111548955Y-115636909D01*
X111603534Y-115873240D01*
X111703170Y-116094382D01*
X111844034Y-116291837D01*
X112020713Y-116458017D01*
X112226417Y-116586535D01*
X112458391Y-116671462D01*
X112649000Y-116546731D01*
X112649000Y-115443000D01*
X111697953Y-115443000D01*
X111548955Y-115636909D01*
X104940000Y-115636909D01*
X104940000Y-115428665D01*
X104884853Y-115151426D01*
X104776680Y-114890273D01*
X104619637Y-114655241D01*
X104419759Y-114455363D01*
X104184727Y-114298320D01*
X103923574Y-114190147D01*
X103646335Y-114135000D01*
X103363665Y-114135000D01*
X103086426Y-114190147D01*
X102825273Y-114298320D01*
X102590241Y-114455363D01*
X102390363Y-114655241D01*
X102235000Y-114887759D01*
X102079637Y-114655241D01*
X101879759Y-114455363D01*
X101644727Y-114298320D01*
X101383574Y-114190147D01*
X101106335Y-114135000D01*
X100823665Y-114135000D01*
X100546426Y-114190147D01*
X100285273Y-114298320D01*
X100050241Y-114455363D01*
X99850363Y-114655241D01*
X99695000Y-114887759D01*
X99539637Y-114655241D01*
X99339759Y-114455363D01*
X99104727Y-114298320D01*
X98843574Y-114190147D01*
X98566335Y-114135000D01*
X98283665Y-114135000D01*
X98006426Y-114190147D01*
X97745273Y-114298320D01*
X97510241Y-114455363D01*
X97310363Y-114655241D01*
X97155000Y-114887759D01*
X96999637Y-114655241D01*
X96799759Y-114455363D01*
X96564727Y-114298320D01*
X96303574Y-114190147D01*
X96026335Y-114135000D01*
X95743665Y-114135000D01*
X95466426Y-114190147D01*
X95205273Y-114298320D01*
X94970241Y-114455363D01*
X94770363Y-114655241D01*
X94613320Y-114890273D01*
X94608933Y-114900865D01*
X94497385Y-114714869D01*
X94308414Y-114506481D01*
X94082420Y-114338963D01*
X93828087Y-114218754D01*
X93694039Y-114178096D01*
X93472000Y-114300085D01*
X93472000Y-115443000D01*
X93492000Y-115443000D01*
X93492000Y-115697000D01*
X93472000Y-115697000D01*
X93472000Y-115717000D01*
X93218000Y-115717000D01*
X93218000Y-115697000D01*
X93198000Y-115697000D01*
X93198000Y-115443000D01*
X93218000Y-115443000D01*
X93218000Y-114300085D01*
X92995961Y-114178096D01*
X92861913Y-114218754D01*
X92607580Y-114338963D01*
X92381586Y-114506481D01*
X92192615Y-114714869D01*
X92081067Y-114900865D01*
X92076680Y-114890273D01*
X91919637Y-114655241D01*
X91719759Y-114455363D01*
X91484727Y-114298320D01*
X91223574Y-114190147D01*
X90946335Y-114135000D01*
X90663665Y-114135000D01*
X90386426Y-114190147D01*
X90125273Y-114298320D01*
X89890241Y-114455363D01*
X89690363Y-114655241D01*
X89535000Y-114887759D01*
X89379637Y-114655241D01*
X89179759Y-114455363D01*
X88944727Y-114298320D01*
X88683574Y-114190147D01*
X88406335Y-114135000D01*
X88123665Y-114135000D01*
X87846426Y-114190147D01*
X87585273Y-114298320D01*
X87350241Y-114455363D01*
X87150363Y-114655241D01*
X86995000Y-114887759D01*
X86839637Y-114655241D01*
X86639759Y-114455363D01*
X86404727Y-114298320D01*
X86143574Y-114190147D01*
X85866335Y-114135000D01*
X85583665Y-114135000D01*
X85306426Y-114190147D01*
X85045273Y-114298320D01*
X84810241Y-114455363D01*
X84610363Y-114655241D01*
X84455000Y-114887759D01*
X84299637Y-114655241D01*
X84099759Y-114455363D01*
X83864727Y-114298320D01*
X83603574Y-114190147D01*
X83326335Y-114135000D01*
X83043665Y-114135000D01*
X82766426Y-114190147D01*
X82505273Y-114298320D01*
X82270241Y-114455363D01*
X82070363Y-114655241D01*
X81915000Y-114887759D01*
X81759637Y-114655241D01*
X81559759Y-114455363D01*
X81324727Y-114298320D01*
X81063574Y-114190147D01*
X80786335Y-114135000D01*
X80503665Y-114135000D01*
X80226426Y-114190147D01*
X79965273Y-114298320D01*
X79730241Y-114455363D01*
X79530363Y-114655241D01*
X79375000Y-114887759D01*
X79219637Y-114655241D01*
X79019759Y-114455363D01*
X78784727Y-114298320D01*
X78523574Y-114190147D01*
X78246335Y-114135000D01*
X77963665Y-114135000D01*
X77686426Y-114190147D01*
X77425273Y-114298320D01*
X77190241Y-114455363D01*
X76990363Y-114655241D01*
X76835000Y-114887759D01*
X76679637Y-114655241D01*
X76479759Y-114455363D01*
X76244727Y-114298320D01*
X75983574Y-114190147D01*
X75706335Y-114135000D01*
X75423665Y-114135000D01*
X75146426Y-114190147D01*
X74885273Y-114298320D01*
X74650241Y-114455363D01*
X74450363Y-114655241D01*
X74295000Y-114887759D01*
X74139637Y-114655241D01*
X73939759Y-114455363D01*
X73704727Y-114298320D01*
X73443574Y-114190147D01*
X73166335Y-114135000D01*
X72883665Y-114135000D01*
X72606426Y-114190147D01*
X72345273Y-114298320D01*
X72110241Y-114455363D01*
X71911643Y-114653961D01*
X71910812Y-114645518D01*
X71874502Y-114525820D01*
X71815537Y-114415506D01*
X71736185Y-114318815D01*
X71639494Y-114239463D01*
X71529180Y-114180498D01*
X71409482Y-114144188D01*
X71285000Y-114131928D01*
X71245000Y-114131928D01*
X71245000Y-112709801D01*
X71434802Y-112520000D01*
X106490401Y-112520000D01*
X106455603Y-112554556D01*
X106449779Y-112561697D01*
X106358061Y-112675773D01*
X106325313Y-112725819D01*
X106291860Y-112775414D01*
X106287534Y-112783551D01*
X106219719Y-112913268D01*
X106197331Y-112968680D01*
X106174127Y-113023880D01*
X106171464Y-113032702D01*
X106130137Y-113173121D01*
X106118920Y-113231921D01*
X106106901Y-113290473D01*
X106106002Y-113299644D01*
X106106001Y-113299649D01*
X106106001Y-113299655D01*
X106092735Y-113445415D01*
X106093152Y-113505198D01*
X106092734Y-113565057D01*
X106093634Y-113574228D01*
X106108935Y-113719800D01*
X106120954Y-113778352D01*
X106132171Y-113837152D01*
X106134835Y-113845974D01*
X106178119Y-113985803D01*
X106201294Y-114040933D01*
X106223708Y-114096412D01*
X106228035Y-114104548D01*
X106297653Y-114233306D01*
X106331098Y-114282890D01*
X106363858Y-114332953D01*
X106369683Y-114340094D01*
X106462985Y-114452877D01*
X106505421Y-114495018D01*
X106547284Y-114537767D01*
X106554384Y-114543641D01*
X106667816Y-114636154D01*
X106717625Y-114669246D01*
X106766997Y-114703053D01*
X106775104Y-114707436D01*
X106904345Y-114776155D01*
X106959626Y-114798940D01*
X107014636Y-114822517D01*
X107023439Y-114825242D01*
X107163566Y-114867548D01*
X107222232Y-114879164D01*
X107280753Y-114891603D01*
X107289918Y-114892566D01*
X107435594Y-114906850D01*
X107435598Y-114906850D01*
X107467581Y-114910000D01*
X111568606Y-114910000D01*
X111548955Y-114995091D01*
X111697953Y-115189000D01*
X112649000Y-115189000D01*
X112649000Y-115169000D01*
X112903000Y-115169000D01*
X112903000Y-115189000D01*
X112923000Y-115189000D01*
X112923000Y-115443000D01*
X112903000Y-115443000D01*
X112903000Y-116546731D01*
X113093609Y-116671462D01*
X113325583Y-116586535D01*
X113531287Y-116458017D01*
X113707966Y-116291837D01*
X113728095Y-116263622D01*
X113803498Y-116355502D01*
X113991551Y-116509833D01*
X114206099Y-116624511D01*
X114438898Y-116695130D01*
X114681000Y-116718975D01*
X114923101Y-116695130D01*
X115155900Y-116624511D01*
X115370448Y-116509833D01*
X115558502Y-116355502D01*
X115633906Y-116263622D01*
X115654034Y-116291837D01*
X115830713Y-116458017D01*
X116036417Y-116586535D01*
X116268391Y-116671462D01*
X116459000Y-116546731D01*
X116459000Y-115443000D01*
X116439000Y-115443000D01*
X116439000Y-115189000D01*
X116459000Y-115189000D01*
X116459000Y-115169000D01*
X116713000Y-115169000D01*
X116713000Y-115189000D01*
X116733000Y-115189000D01*
X116733000Y-115443000D01*
X116713000Y-115443000D01*
X116713000Y-116546731D01*
X116903609Y-116671462D01*
X117135583Y-116586535D01*
X117341287Y-116458017D01*
X117517966Y-116291837D01*
X117538095Y-116263622D01*
X117613498Y-116355502D01*
X117801551Y-116509833D01*
X118016099Y-116624511D01*
X118248898Y-116695130D01*
X118491000Y-116718975D01*
X118733101Y-116695130D01*
X118965900Y-116624511D01*
X119180448Y-116509833D01*
X119368502Y-116355502D01*
X119443906Y-116263622D01*
X119464034Y-116291837D01*
X119640713Y-116458017D01*
X119846417Y-116586535D01*
X120078391Y-116671462D01*
X120269000Y-116546731D01*
X120269000Y-115443000D01*
X120249000Y-115443000D01*
X120249000Y-115189000D01*
X120269000Y-115189000D01*
X120269000Y-115169000D01*
X120523000Y-115169000D01*
X120523000Y-115189000D01*
X120543000Y-115189000D01*
X120543000Y-115443000D01*
X120523000Y-115443000D01*
X120523000Y-116546731D01*
X120713609Y-116671462D01*
X120945583Y-116586535D01*
X121151287Y-116458017D01*
X121327966Y-116291837D01*
X121348095Y-116263622D01*
X121423498Y-116355502D01*
X121611551Y-116509833D01*
X121826099Y-116624511D01*
X122058898Y-116695130D01*
X122301000Y-116718975D01*
X122543101Y-116695130D01*
X122775900Y-116624511D01*
X122990448Y-116509833D01*
X123178502Y-116355502D01*
X123253906Y-116263622D01*
X123274034Y-116291837D01*
X123450713Y-116458017D01*
X123656417Y-116586535D01*
X123888391Y-116671462D01*
X124079000Y-116546731D01*
X124079000Y-115443000D01*
X124059000Y-115443000D01*
X124059000Y-115189000D01*
X124079000Y-115189000D01*
X124079000Y-115169000D01*
X124333000Y-115169000D01*
X124333000Y-115189000D01*
X124353000Y-115189000D01*
X124353000Y-115443000D01*
X124333000Y-115443000D01*
X124333000Y-116546731D01*
X124523609Y-116671462D01*
X124755583Y-116586535D01*
X124961287Y-116458017D01*
X125137966Y-116291837D01*
X125158095Y-116263622D01*
X125233498Y-116355502D01*
X125421551Y-116509833D01*
X125636099Y-116624511D01*
X125868898Y-116695130D01*
X126111000Y-116718975D01*
X126353101Y-116695130D01*
X126585900Y-116624511D01*
X126800448Y-116509833D01*
X126988502Y-116355502D01*
X127063906Y-116263622D01*
X127084034Y-116291837D01*
X127260713Y-116458017D01*
X127466417Y-116586535D01*
X127698391Y-116671462D01*
X127889000Y-116546731D01*
X127889000Y-115443000D01*
X127869000Y-115443000D01*
X127869000Y-115189000D01*
X127889000Y-115189000D01*
X127889000Y-115169000D01*
X128143000Y-115169000D01*
X128143000Y-115189000D01*
X128163000Y-115189000D01*
X128163000Y-115443000D01*
X128143000Y-115443000D01*
X128143000Y-116546731D01*
X128333609Y-116671462D01*
X128565583Y-116586535D01*
X128771287Y-116458017D01*
X128947966Y-116291837D01*
X128968095Y-116263622D01*
X129043498Y-116355502D01*
X129231551Y-116509833D01*
X129446099Y-116624511D01*
X129678898Y-116695130D01*
X129921000Y-116718975D01*
X130163101Y-116695130D01*
X130395900Y-116624511D01*
X130610448Y-116509833D01*
X130798502Y-116355502D01*
X130873906Y-116263622D01*
X130894034Y-116291837D01*
X131070713Y-116458017D01*
X131276417Y-116586535D01*
X131508391Y-116671462D01*
X131699000Y-116546731D01*
X131699000Y-115443000D01*
X131679000Y-115443000D01*
X131679000Y-115189000D01*
X131699000Y-115189000D01*
X131699000Y-115169000D01*
X131953000Y-115169000D01*
X131953000Y-115189000D01*
X131973000Y-115189000D01*
X131973000Y-115443000D01*
X131953000Y-115443000D01*
X131953000Y-116546731D01*
X132143609Y-116671462D01*
X132375583Y-116586535D01*
X132581287Y-116458017D01*
X132757966Y-116291837D01*
X132778095Y-116263622D01*
X132853498Y-116355502D01*
X133041551Y-116509833D01*
X133256099Y-116624511D01*
X133488898Y-116695130D01*
X133731000Y-116718975D01*
X133973101Y-116695130D01*
X134205900Y-116624511D01*
X134420448Y-116509833D01*
X134608502Y-116355502D01*
X134683906Y-116263622D01*
X134704034Y-116291837D01*
X134880713Y-116458017D01*
X135086417Y-116586535D01*
X135318391Y-116671462D01*
X135509000Y-116546731D01*
X135509000Y-115443000D01*
X135489000Y-115443000D01*
X135489000Y-115189000D01*
X135509000Y-115189000D01*
X135509000Y-115169000D01*
X135763000Y-115169000D01*
X135763000Y-115189000D01*
X135783000Y-115189000D01*
X135783000Y-115443000D01*
X135763000Y-115443000D01*
X135763000Y-116546731D01*
X135953609Y-116671462D01*
X136185583Y-116586535D01*
X136391287Y-116458017D01*
X136567966Y-116291837D01*
X136588095Y-116263622D01*
X136663498Y-116355502D01*
X136851551Y-116509833D01*
X137066099Y-116624511D01*
X137298898Y-116695130D01*
X137541000Y-116718975D01*
X137783101Y-116695130D01*
X138015900Y-116624511D01*
X138230448Y-116509833D01*
X138418502Y-116355502D01*
X138493906Y-116263622D01*
X138514034Y-116291837D01*
X138690713Y-116458017D01*
X138896417Y-116586535D01*
X139128391Y-116671462D01*
X139319000Y-116546731D01*
X139319000Y-115443000D01*
X139299000Y-115443000D01*
X139299000Y-115189000D01*
X139319000Y-115189000D01*
X139319000Y-115169000D01*
X139573000Y-115169000D01*
X139573000Y-115189000D01*
X139593000Y-115189000D01*
X139593000Y-115443000D01*
X139573000Y-115443000D01*
X139573000Y-116546731D01*
X139763609Y-116671462D01*
X139995583Y-116586535D01*
X140201287Y-116458017D01*
X140377966Y-116291837D01*
X140398095Y-116263622D01*
X140473498Y-116355502D01*
X140661551Y-116509833D01*
X140876099Y-116624511D01*
X141108898Y-116695130D01*
X141351000Y-116718975D01*
X141593101Y-116695130D01*
X141825900Y-116624511D01*
X142040448Y-116509833D01*
X142228502Y-116355502D01*
X142382833Y-116167449D01*
X142497511Y-115952901D01*
X142568130Y-115720102D01*
X142586000Y-115538665D01*
X142586000Y-115476926D01*
X150185000Y-115476926D01*
X150185000Y-115663074D01*
X150221316Y-115845646D01*
X150292552Y-116017625D01*
X150395971Y-116172402D01*
X150527598Y-116304029D01*
X150682375Y-116407448D01*
X150854354Y-116478684D01*
X151036926Y-116515000D01*
X151223074Y-116515000D01*
X151405646Y-116478684D01*
X151577625Y-116407448D01*
X151693534Y-116330000D01*
X157316466Y-116330000D01*
X157432375Y-116407448D01*
X157604354Y-116478684D01*
X157786926Y-116515000D01*
X157973074Y-116515000D01*
X158155646Y-116478684D01*
X158327625Y-116407448D01*
X158482402Y-116304029D01*
X158614029Y-116172402D01*
X158717448Y-116017625D01*
X158788684Y-115845646D01*
X158825000Y-115663074D01*
X158825000Y-115476926D01*
X158788684Y-115294354D01*
X158717448Y-115122375D01*
X158614029Y-114967598D01*
X158482402Y-114835971D01*
X158327625Y-114732552D01*
X158155646Y-114661316D01*
X157973074Y-114625000D01*
X157786926Y-114625000D01*
X157604354Y-114661316D01*
X157432375Y-114732552D01*
X157316466Y-114810000D01*
X151693534Y-114810000D01*
X151577625Y-114732552D01*
X151405646Y-114661316D01*
X151223074Y-114625000D01*
X151036926Y-114625000D01*
X150854354Y-114661316D01*
X150682375Y-114732552D01*
X150527598Y-114835971D01*
X150395971Y-114967598D01*
X150292552Y-115122375D01*
X150221316Y-115294354D01*
X150185000Y-115476926D01*
X142586000Y-115476926D01*
X142586000Y-115093336D01*
X142568130Y-114911899D01*
X142567554Y-114910000D01*
X146532419Y-114910000D01*
X146565143Y-114906777D01*
X146574876Y-114906777D01*
X146584041Y-114905814D01*
X146729503Y-114889498D01*
X146788017Y-114877060D01*
X146846695Y-114865442D01*
X146855498Y-114862717D01*
X146995021Y-114818458D01*
X147050005Y-114794891D01*
X147105309Y-114772097D01*
X147113410Y-114767716D01*
X147113414Y-114767714D01*
X147113417Y-114767712D01*
X147241684Y-114697196D01*
X147291029Y-114663409D01*
X147340861Y-114630301D01*
X147347962Y-114624427D01*
X147460092Y-114530340D01*
X147501957Y-114487589D01*
X147544397Y-114445444D01*
X147550221Y-114438303D01*
X147641940Y-114324226D01*
X147674694Y-114274172D01*
X147708140Y-114224586D01*
X147712466Y-114216449D01*
X147780281Y-114086733D01*
X147802675Y-114031306D01*
X147825873Y-113976120D01*
X147828536Y-113967298D01*
X147869863Y-113826879D01*
X147881077Y-113768093D01*
X147893099Y-113709528D01*
X147893998Y-113700357D01*
X147907265Y-113554585D01*
X147906848Y-113494802D01*
X147907266Y-113434943D01*
X147906366Y-113425772D01*
X147891065Y-113280200D01*
X147879039Y-113221617D01*
X147867829Y-113162848D01*
X147865165Y-113154026D01*
X147821881Y-113014197D01*
X147798706Y-112959067D01*
X147789761Y-112936926D01*
X149550000Y-112936926D01*
X149550000Y-113123074D01*
X149586316Y-113305646D01*
X149657552Y-113477625D01*
X149760971Y-113632402D01*
X149892598Y-113764029D01*
X150047375Y-113867448D01*
X150219354Y-113938684D01*
X150401926Y-113975000D01*
X150588074Y-113975000D01*
X150770646Y-113938684D01*
X150942625Y-113867448D01*
X151058534Y-113790000D01*
X157316466Y-113790000D01*
X157432375Y-113867448D01*
X157604354Y-113938684D01*
X157786926Y-113975000D01*
X157973074Y-113975000D01*
X158155646Y-113938684D01*
X158327625Y-113867448D01*
X158482402Y-113764029D01*
X158614029Y-113632402D01*
X158717448Y-113477625D01*
X158788684Y-113305646D01*
X158825000Y-113123074D01*
X158825000Y-112936926D01*
X158788684Y-112754354D01*
X158717448Y-112582375D01*
X158614029Y-112427598D01*
X158482402Y-112295971D01*
X158327625Y-112192552D01*
X158155646Y-112121316D01*
X157973074Y-112085000D01*
X157786926Y-112085000D01*
X157604354Y-112121316D01*
X157432375Y-112192552D01*
X157316466Y-112270000D01*
X151058534Y-112270000D01*
X150942625Y-112192552D01*
X150770646Y-112121316D01*
X150588074Y-112085000D01*
X150401926Y-112085000D01*
X150219354Y-112121316D01*
X150047375Y-112192552D01*
X149892598Y-112295971D01*
X149760971Y-112427598D01*
X149657552Y-112582375D01*
X149586316Y-112754354D01*
X149550000Y-112936926D01*
X147789761Y-112936926D01*
X147776292Y-112903588D01*
X147771965Y-112895451D01*
X147702346Y-112766694D01*
X147668919Y-112717137D01*
X147636142Y-112667047D01*
X147630317Y-112659906D01*
X147537015Y-112547123D01*
X147494598Y-112505001D01*
X147452716Y-112462232D01*
X147445615Y-112456359D01*
X147332184Y-112363846D01*
X147282375Y-112330754D01*
X147233003Y-112296947D01*
X147224897Y-112292564D01*
X147095655Y-112223845D01*
X147040362Y-112201055D01*
X146985364Y-112177483D01*
X146976560Y-112174758D01*
X146836434Y-112132452D01*
X146777768Y-112120836D01*
X146719247Y-112108397D01*
X146710083Y-112107434D01*
X146564406Y-112093150D01*
X146564402Y-112093150D01*
X146532419Y-112090000D01*
X146301170Y-112090000D01*
X146323684Y-112035646D01*
X146360000Y-111853074D01*
X146360000Y-111666926D01*
X146323684Y-111484354D01*
X146252448Y-111312375D01*
X146175000Y-111196466D01*
X146175000Y-107243534D01*
X146252448Y-107127625D01*
X146323684Y-106955646D01*
X146353649Y-106805000D01*
X152085199Y-106805000D01*
X152275000Y-106994802D01*
X152275001Y-108021465D01*
X152197552Y-108137375D01*
X152126316Y-108309354D01*
X152090000Y-108491926D01*
X152090000Y-108678074D01*
X152126316Y-108860646D01*
X152197552Y-109032625D01*
X152300971Y-109187402D01*
X152432598Y-109319029D01*
X152587375Y-109422448D01*
X152759354Y-109493684D01*
X152941926Y-109530000D01*
X153128074Y-109530000D01*
X153310646Y-109493684D01*
X153482625Y-109422448D01*
X153637402Y-109319029D01*
X153769029Y-109187402D01*
X153872448Y-109032625D01*
X153943684Y-108860646D01*
X153980000Y-108678074D01*
X153980000Y-108491926D01*
X153943684Y-108309354D01*
X153872448Y-108137375D01*
X153795000Y-108021466D01*
X153795000Y-106717333D01*
X153798677Y-106680000D01*
X153784003Y-106531014D01*
X153740546Y-106387753D01*
X153669974Y-106255724D01*
X153598799Y-106168997D01*
X153575001Y-106139999D01*
X153546003Y-106116201D01*
X152964801Y-105535000D01*
X154376466Y-105535000D01*
X154492375Y-105612448D01*
X154664354Y-105683684D01*
X154846926Y-105720000D01*
X155033074Y-105720000D01*
X155215646Y-105683684D01*
X155387625Y-105612448D01*
X155542402Y-105509029D01*
X155674029Y-105377402D01*
X155777448Y-105222625D01*
X155848684Y-105050646D01*
X155878649Y-104900000D01*
X156572678Y-104900000D01*
X156610000Y-104903676D01*
X156647322Y-104900000D01*
X156647333Y-104900000D01*
X156758986Y-104889003D01*
X156902247Y-104845546D01*
X157034276Y-104774974D01*
X157150001Y-104680001D01*
X157173804Y-104650997D01*
X158018921Y-103805880D01*
X158155646Y-103778684D01*
X158327625Y-103707448D01*
X158482402Y-103604029D01*
X158614029Y-103472402D01*
X158717448Y-103317625D01*
X158788684Y-103145646D01*
X158825000Y-102963074D01*
X158825000Y-102776926D01*
X158788684Y-102594354D01*
X158717448Y-102422375D01*
X158614029Y-102267598D01*
X158482402Y-102135971D01*
X158327625Y-102032552D01*
X158155646Y-101961316D01*
X157973074Y-101925000D01*
X157786926Y-101925000D01*
X157604354Y-101961316D01*
X157432375Y-102032552D01*
X157277598Y-102135971D01*
X157145971Y-102267598D01*
X157042552Y-102422375D01*
X156971316Y-102594354D01*
X156944120Y-102731079D01*
X156295199Y-103380000D01*
X153598534Y-103380000D01*
X153482625Y-103302552D01*
X153310646Y-103231316D01*
X153128074Y-103195000D01*
X152941926Y-103195000D01*
X152759354Y-103231316D01*
X152587375Y-103302552D01*
X152471466Y-103380000D01*
X151925770Y-103380000D01*
X151967448Y-103317625D01*
X152038684Y-103145646D01*
X152039010Y-103144010D01*
X152040646Y-103143684D01*
X152212625Y-103072448D01*
X152367402Y-102969029D01*
X152400000Y-102936431D01*
X152432598Y-102969029D01*
X152587375Y-103072448D01*
X152759354Y-103143684D01*
X152941926Y-103180000D01*
X153128074Y-103180000D01*
X153310646Y-103143684D01*
X153482625Y-103072448D01*
X153637402Y-102969029D01*
X153769029Y-102837402D01*
X153872448Y-102682625D01*
X153943684Y-102510646D01*
X153980000Y-102328074D01*
X153980000Y-102141926D01*
X153943684Y-101959354D01*
X153872448Y-101787375D01*
X153795000Y-101671466D01*
X153795000Y-101528533D01*
X153872448Y-101412624D01*
X153943684Y-101240645D01*
X153980000Y-101058073D01*
X153980000Y-100871925D01*
X153943684Y-100689353D01*
X153872448Y-100517374D01*
X153769029Y-100362597D01*
X153637402Y-100230970D01*
X153482625Y-100127551D01*
X153310646Y-100056315D01*
X153128074Y-100019999D01*
X152941926Y-100019999D01*
X152759354Y-100056315D01*
X152587375Y-100127551D01*
X152432598Y-100230970D01*
X152300971Y-100362597D01*
X152197552Y-100517374D01*
X152126316Y-100689353D01*
X152090000Y-100871925D01*
X152090000Y-101058073D01*
X152126316Y-101240645D01*
X152186894Y-101386894D01*
X152040646Y-101326316D01*
X151858074Y-101290000D01*
X151671926Y-101290000D01*
X151489354Y-101326316D01*
X151317375Y-101397552D01*
X151201466Y-101475000D01*
X142099952Y-101475000D01*
X142228502Y-101369502D01*
X142382833Y-101181449D01*
X142497511Y-100966901D01*
X142568130Y-100734102D01*
X142586000Y-100552665D01*
X142586000Y-100107336D01*
X142568130Y-99925899D01*
X142563307Y-99910000D01*
X146532419Y-99910000D01*
X146565143Y-99906777D01*
X146574876Y-99906777D01*
X146584041Y-99905814D01*
X146729503Y-99889498D01*
X146788017Y-99877060D01*
X146846695Y-99865442D01*
X146855498Y-99862717D01*
X146995021Y-99818458D01*
X147050005Y-99794891D01*
X147105309Y-99772097D01*
X147113410Y-99767716D01*
X147113414Y-99767714D01*
X147113417Y-99767712D01*
X147241684Y-99697196D01*
X147291029Y-99663409D01*
X147340861Y-99630301D01*
X147347962Y-99624427D01*
X147460092Y-99530340D01*
X147501957Y-99487589D01*
X147544397Y-99445444D01*
X147550221Y-99438303D01*
X147641940Y-99324226D01*
X147674694Y-99274172D01*
X147708140Y-99224586D01*
X147712466Y-99216449D01*
X147780281Y-99086733D01*
X147802675Y-99031306D01*
X147825873Y-98976120D01*
X147828536Y-98967298D01*
X147869863Y-98826879D01*
X147881077Y-98768093D01*
X147893099Y-98709528D01*
X147893998Y-98700357D01*
X147907265Y-98554585D01*
X147906848Y-98494802D01*
X147907266Y-98434943D01*
X147906366Y-98425772D01*
X147891065Y-98280200D01*
X147879039Y-98221617D01*
X147867829Y-98162848D01*
X147865165Y-98154026D01*
X147821881Y-98014197D01*
X147798706Y-97959067D01*
X147776292Y-97903588D01*
X147771965Y-97895451D01*
X147702346Y-97766694D01*
X147668919Y-97717137D01*
X147636142Y-97667047D01*
X147630317Y-97659906D01*
X147537015Y-97547123D01*
X147494598Y-97505001D01*
X147452716Y-97462232D01*
X147445615Y-97456359D01*
X147332184Y-97363846D01*
X147282375Y-97330754D01*
X147233003Y-97296947D01*
X147224897Y-97292564D01*
X147095655Y-97223845D01*
X147040362Y-97201055D01*
X146985364Y-97177483D01*
X146976560Y-97174758D01*
X146836434Y-97132452D01*
X146777768Y-97120836D01*
X146719247Y-97108397D01*
X146710083Y-97107434D01*
X146564406Y-97093150D01*
X146564402Y-97093150D01*
X146532419Y-97090000D01*
X142574273Y-97090000D01*
X142429047Y-96901000D01*
X141478000Y-96901000D01*
X141478000Y-96921000D01*
X141224000Y-96921000D01*
X141224000Y-96901000D01*
X141204000Y-96901000D01*
X141204000Y-96680881D01*
X158368724Y-96680881D01*
X158728912Y-97170548D01*
X159392882Y-97530849D01*
X160114385Y-97754694D01*
X160865695Y-97833480D01*
X161617938Y-97764178D01*
X162342208Y-97549452D01*
X163010670Y-97197555D01*
X163051088Y-97170548D01*
X163411276Y-96680881D01*
X160890000Y-94159605D01*
X158368724Y-96680881D01*
X141204000Y-96680881D01*
X141204000Y-96647000D01*
X141224000Y-96647000D01*
X141224000Y-95543269D01*
X141478000Y-95543269D01*
X141478000Y-96647000D01*
X142429047Y-96647000D01*
X142578045Y-96453091D01*
X142523466Y-96216760D01*
X142423830Y-95995618D01*
X142282966Y-95798163D01*
X142106287Y-95631983D01*
X141900583Y-95503465D01*
X141668609Y-95418538D01*
X141478000Y-95543269D01*
X141224000Y-95543269D01*
X141033391Y-95418538D01*
X140801417Y-95503465D01*
X140595713Y-95631983D01*
X140419034Y-95798163D01*
X140398905Y-95826378D01*
X140323502Y-95734498D01*
X140206000Y-95638067D01*
X140206000Y-93251926D01*
X143835000Y-93251926D01*
X143835000Y-93438074D01*
X143871316Y-93620646D01*
X143942552Y-93792625D01*
X144045971Y-93947402D01*
X144177598Y-94079029D01*
X144332375Y-94182448D01*
X144504354Y-94253684D01*
X144686926Y-94290000D01*
X144873074Y-94290000D01*
X145055646Y-94253684D01*
X145227625Y-94182448D01*
X145343534Y-94105000D01*
X148661466Y-94105000D01*
X148777375Y-94182448D01*
X148949354Y-94253684D01*
X149131926Y-94290000D01*
X149318074Y-94290000D01*
X149500646Y-94253684D01*
X149672625Y-94182448D01*
X149827402Y-94079029D01*
X149950736Y-93955695D01*
X157036520Y-93955695D01*
X157105822Y-94707938D01*
X157320548Y-95432208D01*
X157672445Y-96100670D01*
X157699452Y-96141088D01*
X158189119Y-96501276D01*
X160710395Y-93980000D01*
X158189119Y-91458724D01*
X157699452Y-91818912D01*
X157339151Y-92482882D01*
X157115306Y-93204385D01*
X157036520Y-93955695D01*
X149950736Y-93955695D01*
X149959029Y-93947402D01*
X150062448Y-93792625D01*
X150133684Y-93620646D01*
X150170000Y-93438074D01*
X150170000Y-93251926D01*
X150133684Y-93069354D01*
X150062448Y-92897375D01*
X149959029Y-92742598D01*
X149827402Y-92610971D01*
X149672625Y-92507552D01*
X149500646Y-92436316D01*
X149318074Y-92400000D01*
X149131926Y-92400000D01*
X148949354Y-92436316D01*
X148777375Y-92507552D01*
X148661466Y-92585000D01*
X145343534Y-92585000D01*
X145227625Y-92507552D01*
X145055646Y-92436316D01*
X144873074Y-92400000D01*
X144686926Y-92400000D01*
X144504354Y-92436316D01*
X144332375Y-92507552D01*
X144177598Y-92610971D01*
X144045971Y-92742598D01*
X143942552Y-92897375D01*
X143871316Y-93069354D01*
X143835000Y-93251926D01*
X140206000Y-93251926D01*
X140206000Y-91858322D01*
X140209676Y-91820999D01*
X140206000Y-91783676D01*
X140206000Y-91783667D01*
X140195003Y-91672014D01*
X140151546Y-91528753D01*
X140080974Y-91396724D01*
X139986001Y-91280999D01*
X139956997Y-91257196D01*
X139859801Y-91160000D01*
X158456345Y-91160000D01*
X158368724Y-91279119D01*
X160890000Y-93800395D01*
X163411276Y-91279119D01*
X163323655Y-91160000D01*
X163840001Y-91160000D01*
X163840001Y-91641971D01*
X163590881Y-91458724D01*
X161069605Y-93980000D01*
X163590881Y-96501276D01*
X163840001Y-96318029D01*
X163840000Y-119581970D01*
X163590881Y-119398724D01*
X161069605Y-121920000D01*
X163590881Y-124441276D01*
X163840000Y-124258030D01*
X163840000Y-124840000D01*
X163250097Y-124840000D01*
X163411276Y-124620881D01*
X160890000Y-122099605D01*
X158368724Y-124620881D01*
X158529903Y-124840000D01*
X66495097Y-124840000D01*
X66656276Y-124620881D01*
X64135000Y-122099605D01*
X61613724Y-124620881D01*
X61774903Y-124840000D01*
X50160000Y-124840000D01*
X50160000Y-122156890D01*
X55583524Y-122156890D01*
X55675648Y-122419858D01*
X55822504Y-122671193D01*
X56015571Y-122889049D01*
X56247430Y-123065053D01*
X56509170Y-123192442D01*
X56790733Y-123266320D01*
X57023000Y-123126165D01*
X57023000Y-121927000D01*
X57277000Y-121927000D01*
X57277000Y-123126165D01*
X57509267Y-123266320D01*
X57790830Y-123192442D01*
X58052570Y-123065053D01*
X58284429Y-122889049D01*
X58477496Y-122671193D01*
X58624352Y-122419858D01*
X58716476Y-122156890D01*
X58595155Y-121927000D01*
X57277000Y-121927000D01*
X57023000Y-121927000D01*
X55704845Y-121927000D01*
X55583524Y-122156890D01*
X50160000Y-122156890D01*
X50160000Y-121895695D01*
X60281520Y-121895695D01*
X60350822Y-122647938D01*
X60565548Y-123372208D01*
X60917445Y-124040670D01*
X60944452Y-124081088D01*
X61434119Y-124441276D01*
X63955395Y-121920000D01*
X64314605Y-121920000D01*
X66835881Y-124441276D01*
X67325548Y-124081088D01*
X67685849Y-123417118D01*
X67909694Y-122695615D01*
X67988480Y-121944305D01*
X67932730Y-121339161D01*
X67977598Y-121384029D01*
X68132375Y-121487448D01*
X68304354Y-121558684D01*
X68486926Y-121595000D01*
X68673074Y-121595000D01*
X68855646Y-121558684D01*
X69027625Y-121487448D01*
X69143534Y-121410000D01*
X69921466Y-121410000D01*
X70037375Y-121487448D01*
X70209354Y-121558684D01*
X70391926Y-121595000D01*
X70578074Y-121595000D01*
X70760646Y-121558684D01*
X70932625Y-121487448D01*
X71048534Y-121410000D01*
X72461466Y-121410000D01*
X72577375Y-121487448D01*
X72749354Y-121558684D01*
X72931926Y-121595000D01*
X73118074Y-121595000D01*
X73300646Y-121558684D01*
X73472625Y-121487448D01*
X73588534Y-121410000D01*
X75001466Y-121410000D01*
X75117375Y-121487448D01*
X75289354Y-121558684D01*
X75471926Y-121595000D01*
X75658074Y-121595000D01*
X75840646Y-121558684D01*
X76012625Y-121487448D01*
X76128534Y-121410000D01*
X77541466Y-121410000D01*
X77657375Y-121487448D01*
X77829354Y-121558684D01*
X78011926Y-121595000D01*
X78198074Y-121595000D01*
X78380646Y-121558684D01*
X78552625Y-121487448D01*
X78668534Y-121410000D01*
X80081466Y-121410000D01*
X80197375Y-121487448D01*
X80369354Y-121558684D01*
X80551926Y-121595000D01*
X80738074Y-121595000D01*
X80920646Y-121558684D01*
X81092625Y-121487448D01*
X81208534Y-121410000D01*
X82621466Y-121410000D01*
X82737375Y-121487448D01*
X82909354Y-121558684D01*
X83091926Y-121595000D01*
X83278074Y-121595000D01*
X83460646Y-121558684D01*
X83632625Y-121487448D01*
X83748534Y-121410000D01*
X85161466Y-121410000D01*
X85277375Y-121487448D01*
X85449354Y-121558684D01*
X85631926Y-121595000D01*
X85818074Y-121595000D01*
X86000646Y-121558684D01*
X86172625Y-121487448D01*
X86288534Y-121410000D01*
X87701466Y-121410000D01*
X87817375Y-121487448D01*
X87989354Y-121558684D01*
X88171926Y-121595000D01*
X88358074Y-121595000D01*
X88540646Y-121558684D01*
X88712625Y-121487448D01*
X88828534Y-121410000D01*
X90241466Y-121410000D01*
X90357375Y-121487448D01*
X90529354Y-121558684D01*
X90711926Y-121595000D01*
X90898074Y-121595000D01*
X91080646Y-121558684D01*
X91252625Y-121487448D01*
X91407402Y-121384029D01*
X91539029Y-121252402D01*
X91642448Y-121097625D01*
X91713684Y-120925646D01*
X91750000Y-120743074D01*
X91750000Y-120556926D01*
X91713684Y-120374354D01*
X91642448Y-120202375D01*
X91539029Y-120047598D01*
X91407402Y-119915971D01*
X91252625Y-119812552D01*
X91080646Y-119741316D01*
X90898074Y-119705000D01*
X90711926Y-119705000D01*
X90529354Y-119741316D01*
X90357375Y-119812552D01*
X90241466Y-119890000D01*
X88828534Y-119890000D01*
X88712625Y-119812552D01*
X88540646Y-119741316D01*
X88358074Y-119705000D01*
X88171926Y-119705000D01*
X87989354Y-119741316D01*
X87817375Y-119812552D01*
X87701466Y-119890000D01*
X86288534Y-119890000D01*
X86172625Y-119812552D01*
X86000646Y-119741316D01*
X85818074Y-119705000D01*
X85631926Y-119705000D01*
X85449354Y-119741316D01*
X85277375Y-119812552D01*
X85161466Y-119890000D01*
X83748534Y-119890000D01*
X83632625Y-119812552D01*
X83460646Y-119741316D01*
X83278074Y-119705000D01*
X83091926Y-119705000D01*
X82909354Y-119741316D01*
X82737375Y-119812552D01*
X82621466Y-119890000D01*
X81208534Y-119890000D01*
X81092625Y-119812552D01*
X80920646Y-119741316D01*
X80738074Y-119705000D01*
X80551926Y-119705000D01*
X80369354Y-119741316D01*
X80197375Y-119812552D01*
X80081466Y-119890000D01*
X78668534Y-119890000D01*
X78552625Y-119812552D01*
X78380646Y-119741316D01*
X78198074Y-119705000D01*
X78011926Y-119705000D01*
X77829354Y-119741316D01*
X77657375Y-119812552D01*
X77541466Y-119890000D01*
X76128534Y-119890000D01*
X76012625Y-119812552D01*
X75840646Y-119741316D01*
X75658074Y-119705000D01*
X75471926Y-119705000D01*
X75289354Y-119741316D01*
X75117375Y-119812552D01*
X75001466Y-119890000D01*
X73588534Y-119890000D01*
X73472625Y-119812552D01*
X73300646Y-119741316D01*
X73118074Y-119705000D01*
X72931926Y-119705000D01*
X72749354Y-119741316D01*
X72577375Y-119812552D01*
X72461466Y-119890000D01*
X71048534Y-119890000D01*
X70932625Y-119812552D01*
X70760646Y-119741316D01*
X70578074Y-119705000D01*
X70391926Y-119705000D01*
X70209354Y-119741316D01*
X70037375Y-119812552D01*
X69921466Y-119890000D01*
X69143534Y-119890000D01*
X69027625Y-119812552D01*
X68855646Y-119741316D01*
X68673074Y-119705000D01*
X68486926Y-119705000D01*
X68304354Y-119741316D01*
X68132375Y-119812552D01*
X67977598Y-119915971D01*
X67845971Y-120047598D01*
X67742552Y-120202375D01*
X67671316Y-120374354D01*
X67666914Y-120396485D01*
X67352555Y-119799330D01*
X67325548Y-119758912D01*
X66835881Y-119398724D01*
X64314605Y-121920000D01*
X63955395Y-121920000D01*
X61434119Y-119398724D01*
X60944452Y-119758912D01*
X60584151Y-120422882D01*
X60360306Y-121144385D01*
X60281520Y-121895695D01*
X50160000Y-121895695D01*
X50160000Y-116800000D01*
X55532815Y-116800000D01*
X55561487Y-117091111D01*
X55646401Y-117371034D01*
X55784294Y-117629014D01*
X55969866Y-117855134D01*
X56195986Y-118040706D01*
X56213374Y-118050000D01*
X56195986Y-118059294D01*
X55969866Y-118244866D01*
X55784294Y-118470986D01*
X55646401Y-118728966D01*
X55561487Y-119008889D01*
X55532815Y-119300000D01*
X55561487Y-119591111D01*
X55646401Y-119871034D01*
X55784294Y-120129014D01*
X55969866Y-120355134D01*
X56195986Y-120540706D01*
X56221722Y-120554462D01*
X56015571Y-120710951D01*
X55822504Y-120928807D01*
X55675648Y-121180142D01*
X55583524Y-121443110D01*
X55704845Y-121673000D01*
X57023000Y-121673000D01*
X57023000Y-121653000D01*
X57277000Y-121653000D01*
X57277000Y-121673000D01*
X58595155Y-121673000D01*
X58716476Y-121443110D01*
X58624352Y-121180142D01*
X58477496Y-120928807D01*
X58284429Y-120710951D01*
X58078278Y-120554462D01*
X58104014Y-120540706D01*
X58330134Y-120355134D01*
X58515706Y-120129014D01*
X58653599Y-119871034D01*
X58738513Y-119591111D01*
X58767185Y-119300000D01*
X58759219Y-119219119D01*
X61613724Y-119219119D01*
X64135000Y-121740395D01*
X66656276Y-119219119D01*
X66296088Y-118729452D01*
X65632118Y-118369151D01*
X64910615Y-118145306D01*
X64159305Y-118066520D01*
X63407062Y-118135822D01*
X62682792Y-118350548D01*
X62014330Y-118702445D01*
X61973912Y-118729452D01*
X61613724Y-119219119D01*
X58759219Y-119219119D01*
X58738513Y-119008889D01*
X58653599Y-118728966D01*
X58515706Y-118470986D01*
X58330134Y-118244866D01*
X58104014Y-118059294D01*
X58086626Y-118050000D01*
X58104014Y-118040706D01*
X58330134Y-117855134D01*
X58515706Y-117629014D01*
X58653599Y-117371034D01*
X58738513Y-117091111D01*
X58767185Y-116800000D01*
X58738513Y-116508889D01*
X58653599Y-116228966D01*
X58515706Y-115970986D01*
X58330134Y-115744866D01*
X58266663Y-115692777D01*
X58368386Y-115638405D01*
X58502962Y-115527962D01*
X58613405Y-115393386D01*
X58695472Y-115239850D01*
X58746008Y-115073254D01*
X58763072Y-114900000D01*
X58763072Y-113700000D01*
X58746008Y-113526746D01*
X58695472Y-113360150D01*
X58613405Y-113206614D01*
X58502962Y-113072038D01*
X58368386Y-112961595D01*
X58214850Y-112879528D01*
X58048254Y-112828992D01*
X57875000Y-112811928D01*
X56425000Y-112811928D01*
X56251746Y-112828992D01*
X56085150Y-112879528D01*
X55931614Y-112961595D01*
X55797038Y-113072038D01*
X55686595Y-113206614D01*
X55604528Y-113360150D01*
X55553992Y-113526746D01*
X55536928Y-113700000D01*
X55536928Y-114900000D01*
X55553992Y-115073254D01*
X55604528Y-115239850D01*
X55686595Y-115393386D01*
X55797038Y-115527962D01*
X55931614Y-115638405D01*
X56033337Y-115692777D01*
X55969866Y-115744866D01*
X55784294Y-115970986D01*
X55646401Y-116228966D01*
X55561487Y-116508889D01*
X55532815Y-116800000D01*
X50160000Y-116800000D01*
X50160000Y-104336890D01*
X55583524Y-104336890D01*
X55675648Y-104599858D01*
X55822504Y-104851193D01*
X56015571Y-105069049D01*
X56247430Y-105245053D01*
X56509170Y-105372442D01*
X56790733Y-105446320D01*
X57023000Y-105306165D01*
X57023000Y-104107000D01*
X57277000Y-104107000D01*
X57277000Y-105306165D01*
X57509267Y-105446320D01*
X57790830Y-105372442D01*
X58052570Y-105245053D01*
X58284429Y-105069049D01*
X58477496Y-104851193D01*
X58624352Y-104599858D01*
X58716476Y-104336890D01*
X58595155Y-104107000D01*
X57277000Y-104107000D01*
X57023000Y-104107000D01*
X55704845Y-104107000D01*
X55583524Y-104336890D01*
X50160000Y-104336890D01*
X50160000Y-96480000D01*
X55532815Y-96480000D01*
X55561487Y-96771111D01*
X55646401Y-97051034D01*
X55784294Y-97309014D01*
X55969866Y-97535134D01*
X56195986Y-97720706D01*
X56213374Y-97730000D01*
X56195986Y-97739294D01*
X55969866Y-97924866D01*
X55784294Y-98150986D01*
X55646401Y-98408966D01*
X55561487Y-98688889D01*
X55532815Y-98980000D01*
X55561487Y-99271111D01*
X55646401Y-99551034D01*
X55784294Y-99809014D01*
X55969866Y-100035134D01*
X56195986Y-100220706D01*
X56213374Y-100230000D01*
X56195986Y-100239294D01*
X55969866Y-100424866D01*
X55784294Y-100650986D01*
X55646401Y-100908966D01*
X55561487Y-101188889D01*
X55532815Y-101480000D01*
X55561487Y-101771111D01*
X55646401Y-102051034D01*
X55784294Y-102309014D01*
X55969866Y-102535134D01*
X56195986Y-102720706D01*
X56221722Y-102734462D01*
X56015571Y-102890951D01*
X55822504Y-103108807D01*
X55675648Y-103360142D01*
X55583524Y-103623110D01*
X55704845Y-103853000D01*
X57023000Y-103853000D01*
X57023000Y-103833000D01*
X57277000Y-103833000D01*
X57277000Y-103853000D01*
X58595155Y-103853000D01*
X58716476Y-103623110D01*
X58624352Y-103360142D01*
X58477496Y-103108807D01*
X58284429Y-102890951D01*
X58078278Y-102734462D01*
X58104014Y-102720706D01*
X58330134Y-102535134D01*
X58515706Y-102309014D01*
X58653599Y-102051034D01*
X58738513Y-101771111D01*
X58767185Y-101480000D01*
X58738513Y-101188889D01*
X58653599Y-100908966D01*
X58515706Y-100650986D01*
X58330134Y-100424866D01*
X58104014Y-100239294D01*
X58086626Y-100230000D01*
X58104014Y-100220706D01*
X58330134Y-100035134D01*
X58515706Y-99809014D01*
X58653599Y-99551034D01*
X58738513Y-99271111D01*
X58767185Y-98980000D01*
X58738513Y-98688889D01*
X58653599Y-98408966D01*
X58515706Y-98150986D01*
X58330134Y-97924866D01*
X58104014Y-97739294D01*
X58086626Y-97730000D01*
X58104014Y-97720706D01*
X58330134Y-97535134D01*
X58515706Y-97309014D01*
X58653599Y-97051034D01*
X58738513Y-96771111D01*
X58767185Y-96480000D01*
X58738513Y-96188889D01*
X58653599Y-95908966D01*
X58515706Y-95650986D01*
X58330134Y-95424866D01*
X58266663Y-95372777D01*
X58368386Y-95318405D01*
X58502962Y-95207962D01*
X58613405Y-95073386D01*
X58695472Y-94919850D01*
X58746008Y-94753254D01*
X58763072Y-94580000D01*
X58763072Y-93955695D01*
X60281520Y-93955695D01*
X60350822Y-94707938D01*
X60565548Y-95432208D01*
X60917445Y-96100670D01*
X60944452Y-96141088D01*
X61434119Y-96501276D01*
X63955395Y-93980000D01*
X61434119Y-91458724D01*
X60944452Y-91818912D01*
X60584151Y-92482882D01*
X60360306Y-93204385D01*
X60281520Y-93955695D01*
X58763072Y-93955695D01*
X58763072Y-93380000D01*
X58746008Y-93206746D01*
X58695472Y-93040150D01*
X58613405Y-92886614D01*
X58502962Y-92752038D01*
X58368386Y-92641595D01*
X58214850Y-92559528D01*
X58048254Y-92508992D01*
X57875000Y-92491928D01*
X56425000Y-92491928D01*
X56251746Y-92508992D01*
X56085150Y-92559528D01*
X55931614Y-92641595D01*
X55797038Y-92752038D01*
X55686595Y-92886614D01*
X55604528Y-93040150D01*
X55553992Y-93206746D01*
X55536928Y-93380000D01*
X55536928Y-94580000D01*
X55553992Y-94753254D01*
X55604528Y-94919850D01*
X55686595Y-95073386D01*
X55797038Y-95207962D01*
X55931614Y-95318405D01*
X56033337Y-95372777D01*
X55969866Y-95424866D01*
X55784294Y-95650986D01*
X55646401Y-95908966D01*
X55561487Y-96188889D01*
X55532815Y-96480000D01*
X50160000Y-96480000D01*
X50160000Y-91160000D01*
X61701345Y-91160000D01*
X61613724Y-91279119D01*
G37*
X61613724Y-91279119D02*
X64135000Y-93800395D01*
X66656276Y-91279119D01*
X66568655Y-91160000D01*
X67701107Y-91160000D01*
X67669354Y-91166316D01*
X67497375Y-91237552D01*
X67342598Y-91340971D01*
X67210971Y-91472598D01*
X67107552Y-91627375D01*
X67097652Y-91651277D01*
X66835881Y-91458724D01*
X64314605Y-93980000D01*
X64328748Y-93994143D01*
X64149143Y-94173748D01*
X64135000Y-94159605D01*
X61613724Y-96680881D01*
X61973912Y-97170548D01*
X62637882Y-97530849D01*
X63359385Y-97754694D01*
X64110695Y-97833480D01*
X64715839Y-97777730D01*
X64670971Y-97822598D01*
X64567552Y-97977375D01*
X64496316Y-98149354D01*
X64489434Y-98183951D01*
X64410646Y-98151316D01*
X64228074Y-98115000D01*
X64041926Y-98115000D01*
X63859354Y-98151316D01*
X63687375Y-98222552D01*
X63532598Y-98325971D01*
X63400971Y-98457598D01*
X63297552Y-98612375D01*
X63226316Y-98784354D01*
X63190000Y-98966926D01*
X63190000Y-99153074D01*
X63226316Y-99335646D01*
X63297552Y-99507625D01*
X63339230Y-99570000D01*
X62752909Y-99570000D01*
X62670799Y-99447114D01*
X62477886Y-99254201D01*
X62251043Y-99102629D01*
X61998989Y-98998225D01*
X61731411Y-98945000D01*
X61458589Y-98945000D01*
X61191011Y-98998225D01*
X60938957Y-99102629D01*
X60712114Y-99254201D01*
X60519201Y-99447114D01*
X60367629Y-99673957D01*
X60263225Y-99926011D01*
X60210000Y-100193589D01*
X60210000Y-100466411D01*
X60263225Y-100733989D01*
X60367629Y-100986043D01*
X60519201Y-101212886D01*
X60712114Y-101405799D01*
X60938957Y-101557371D01*
X61041873Y-101600000D01*
X60938957Y-101642629D01*
X60712114Y-101794201D01*
X60519201Y-101987114D01*
X60367629Y-102213957D01*
X60263225Y-102466011D01*
X60210000Y-102733589D01*
X60210000Y-103006411D01*
X60263225Y-103273989D01*
X60367629Y-103526043D01*
X60519201Y-103752886D01*
X60712114Y-103945799D01*
X60938957Y-104097371D01*
X61041873Y-104140000D01*
X60938957Y-104182629D01*
X60712114Y-104334201D01*
X60519201Y-104527114D01*
X60367629Y-104753957D01*
X60263225Y-105006011D01*
X60210000Y-105273589D01*
X60210000Y-105546411D01*
X60263225Y-105813989D01*
X60367629Y-106066043D01*
X60519201Y-106292886D01*
X60712114Y-106485799D01*
X60938957Y-106637371D01*
X61191011Y-106741775D01*
X61458589Y-106795000D01*
X61731411Y-106795000D01*
X61998989Y-106741775D01*
X62251043Y-106637371D01*
X62477886Y-106485799D01*
X62670799Y-106292886D01*
X62752909Y-106170000D01*
X66111466Y-106170000D01*
X66227375Y-106247448D01*
X66399354Y-106318684D01*
X66581926Y-106355000D01*
X66768074Y-106355000D01*
X66950646Y-106318684D01*
X67122625Y-106247448D01*
X67277402Y-106144029D01*
X67409029Y-106012402D01*
X67512448Y-105857625D01*
X67583684Y-105685646D01*
X67620000Y-105503074D01*
X67620000Y-105316926D01*
X67583684Y-105134354D01*
X67512448Y-104962375D01*
X67409029Y-104807598D01*
X67277402Y-104675971D01*
X67122625Y-104572552D01*
X66950646Y-104501316D01*
X66768074Y-104465000D01*
X66581926Y-104465000D01*
X66399354Y-104501316D01*
X66227375Y-104572552D01*
X66111466Y-104650000D01*
X62752909Y-104650000D01*
X62670799Y-104527114D01*
X62477886Y-104334201D01*
X62251043Y-104182629D01*
X62148127Y-104140000D01*
X62251043Y-104097371D01*
X62477886Y-103945799D01*
X62670799Y-103752886D01*
X62752909Y-103630000D01*
X65476466Y-103630000D01*
X65592375Y-103707448D01*
X65764354Y-103778684D01*
X65946926Y-103815000D01*
X66133074Y-103815000D01*
X66315646Y-103778684D01*
X66487625Y-103707448D01*
X66642402Y-103604029D01*
X66774029Y-103472402D01*
X66877448Y-103317625D01*
X66948684Y-103145646D01*
X66985000Y-102963074D01*
X66985000Y-102776926D01*
X66948684Y-102594354D01*
X66877448Y-102422375D01*
X66774029Y-102267598D01*
X66642402Y-102135971D01*
X66487625Y-102032552D01*
X66315646Y-101961316D01*
X66133074Y-101925000D01*
X65946926Y-101925000D01*
X65764354Y-101961316D01*
X65592375Y-102032552D01*
X65476466Y-102110000D01*
X62752909Y-102110000D01*
X62670799Y-101987114D01*
X62477886Y-101794201D01*
X62251043Y-101642629D01*
X62148127Y-101600000D01*
X62251043Y-101557371D01*
X62477886Y-101405799D01*
X62670799Y-101212886D01*
X62752909Y-101090000D01*
X64841466Y-101090000D01*
X64957375Y-101167448D01*
X65129354Y-101238684D01*
X65311926Y-101275000D01*
X65498074Y-101275000D01*
X65680646Y-101238684D01*
X65852625Y-101167448D01*
X66007402Y-101064029D01*
X66139029Y-100932402D01*
X66242448Y-100777625D01*
X66313684Y-100605646D01*
X66350000Y-100423074D01*
X66350000Y-100236926D01*
X66313684Y-100054354D01*
X66242448Y-99882375D01*
X66200770Y-99820000D01*
X66360199Y-99820000D01*
X66746200Y-100206002D01*
X66769999Y-100235001D01*
X66885724Y-100329974D01*
X67017753Y-100400546D01*
X67161014Y-100444003D01*
X67262484Y-100453997D01*
X67310000Y-100458677D01*
X67347333Y-100455000D01*
X69286466Y-100455000D01*
X69402375Y-100532448D01*
X69574354Y-100603684D01*
X69756926Y-100640000D01*
X69943074Y-100640000D01*
X70125646Y-100603684D01*
X70297625Y-100532448D01*
X70413534Y-100455000D01*
X72461466Y-100455000D01*
X72577375Y-100532448D01*
X72749354Y-100603684D01*
X72931926Y-100640000D01*
X73118074Y-100640000D01*
X73300646Y-100603684D01*
X73472625Y-100532448D01*
X73588534Y-100455000D01*
X76271466Y-100455000D01*
X76387375Y-100532448D01*
X76559354Y-100603684D01*
X76741926Y-100640000D01*
X76928074Y-100640000D01*
X77110646Y-100603684D01*
X77282625Y-100532448D01*
X77398534Y-100455000D01*
X80081466Y-100455000D01*
X80197375Y-100532448D01*
X80369354Y-100603684D01*
X80506079Y-100630880D01*
X80981201Y-101106003D01*
X81004999Y-101135001D01*
X81120724Y-101229974D01*
X81252753Y-101300546D01*
X81396014Y-101344003D01*
X81507667Y-101355000D01*
X81507676Y-101355000D01*
X81544999Y-101358676D01*
X81582322Y-101355000D01*
X84936466Y-101355000D01*
X85052375Y-101432448D01*
X85159032Y-101476627D01*
X85122598Y-101500971D01*
X84990971Y-101632598D01*
X84887552Y-101787375D01*
X84816316Y-101959354D01*
X84780000Y-102141926D01*
X84780000Y-102328074D01*
X84816316Y-102510646D01*
X84887552Y-102682625D01*
X84990971Y-102837402D01*
X85122598Y-102969029D01*
X85277375Y-103072448D01*
X85449354Y-103143684D01*
X85631926Y-103180000D01*
X85818074Y-103180000D01*
X86000646Y-103143684D01*
X86056461Y-103120565D01*
X86086316Y-103270656D01*
X86157552Y-103442635D01*
X86260971Y-103597412D01*
X86392598Y-103729039D01*
X86423968Y-103750000D01*
X85316317Y-103750000D01*
X85292448Y-103692375D01*
X85189029Y-103537598D01*
X85057402Y-103405971D01*
X84902625Y-103302552D01*
X84730646Y-103231316D01*
X84548074Y-103195000D01*
X84361926Y-103195000D01*
X84179354Y-103231316D01*
X84007375Y-103302552D01*
X83852598Y-103405971D01*
X83720971Y-103537598D01*
X83617552Y-103692375D01*
X83546316Y-103864354D01*
X83510000Y-104046926D01*
X83510000Y-104233074D01*
X83546316Y-104415646D01*
X83617552Y-104587625D01*
X83720971Y-104742402D01*
X83852598Y-104874029D01*
X84007375Y-104977448D01*
X84179354Y-105048684D01*
X84316678Y-105076000D01*
X84400724Y-105144974D01*
X84532753Y-105215546D01*
X84676014Y-105259003D01*
X84787667Y-105270000D01*
X84787677Y-105270000D01*
X84824999Y-105273676D01*
X84862322Y-105270000D01*
X87836928Y-105270000D01*
X87836928Y-105310000D01*
X87849188Y-105434482D01*
X87864512Y-105485000D01*
X87849188Y-105535518D01*
X87836928Y-105660000D01*
X87836928Y-105960000D01*
X87849188Y-106084482D01*
X87864512Y-106135000D01*
X87849188Y-106185518D01*
X87836928Y-106310000D01*
X87836928Y-106469453D01*
X87817375Y-106477552D01*
X87662598Y-106580971D01*
X87530971Y-106712598D01*
X87427552Y-106867375D01*
X87356316Y-107039354D01*
X87326351Y-107190000D01*
X86288534Y-107190000D01*
X86172625Y-107112552D01*
X86000646Y-107041316D01*
X85818074Y-107005000D01*
X85631926Y-107005000D01*
X85449354Y-107041316D01*
X85277375Y-107112552D01*
X85122598Y-107215971D01*
X84990971Y-107347598D01*
X84887552Y-107502375D01*
X84816316Y-107674354D01*
X84786351Y-107825000D01*
X83748534Y-107825000D01*
X83632625Y-107747552D01*
X83460646Y-107676316D01*
X83278074Y-107640000D01*
X83091926Y-107640000D01*
X82909354Y-107676316D01*
X82737375Y-107747552D01*
X82582598Y-107850971D01*
X82450971Y-107982598D01*
X82347552Y-108137375D01*
X82276316Y-108309354D01*
X82246351Y-108460000D01*
X81208534Y-108460000D01*
X81092625Y-108382552D01*
X80920646Y-108311316D01*
X80738074Y-108275000D01*
X80551926Y-108275000D01*
X80369354Y-108311316D01*
X80197375Y-108382552D01*
X80042598Y-108485971D01*
X79910971Y-108617598D01*
X79807552Y-108772375D01*
X79736316Y-108944354D01*
X79706351Y-109095000D01*
X78668534Y-109095000D01*
X78552625Y-109017552D01*
X78380646Y-108946316D01*
X78198074Y-108910000D01*
X78011926Y-108910000D01*
X77829354Y-108946316D01*
X77657375Y-109017552D01*
X77502598Y-109120971D01*
X77370971Y-109252598D01*
X77267552Y-109407375D01*
X77196316Y-109579354D01*
X77166351Y-109730000D01*
X76128534Y-109730000D01*
X76012625Y-109652552D01*
X75840646Y-109581316D01*
X75658074Y-109545000D01*
X75471926Y-109545000D01*
X75289354Y-109581316D01*
X75117375Y-109652552D01*
X74962598Y-109755971D01*
X74830971Y-109887598D01*
X74727552Y-110042375D01*
X74656316Y-110214354D01*
X74626351Y-110365000D01*
X73588534Y-110365000D01*
X73472625Y-110287552D01*
X73300646Y-110216316D01*
X73118074Y-110180000D01*
X72931926Y-110180000D01*
X72749354Y-110216316D01*
X72577375Y-110287552D01*
X72422598Y-110390971D01*
X72290971Y-110522598D01*
X72187552Y-110677375D01*
X72116316Y-110849354D01*
X72086351Y-111000000D01*
X71157333Y-111000000D01*
X71120000Y-110996323D01*
X71082667Y-111000000D01*
X70971014Y-111010997D01*
X70827753Y-111054454D01*
X70695724Y-111125026D01*
X70579999Y-111219999D01*
X70556200Y-111248998D01*
X69973998Y-111831201D01*
X69945000Y-111854999D01*
X69921202Y-111883997D01*
X69921201Y-111883998D01*
X69850026Y-111970724D01*
X69779454Y-112102754D01*
X69755555Y-112181542D01*
X69735998Y-112246014D01*
X69730837Y-112298417D01*
X69721324Y-112395000D01*
X69725001Y-112432332D01*
X69725000Y-114131928D01*
X69685000Y-114131928D01*
X69560518Y-114144188D01*
X69440820Y-114180498D01*
X69330506Y-114239463D01*
X69233815Y-114318815D01*
X69154463Y-114415506D01*
X69095498Y-114525820D01*
X69059188Y-114645518D01*
X69046928Y-114770000D01*
X69046928Y-115597126D01*
X63800881Y-110351079D01*
X63773684Y-110214354D01*
X63702448Y-110042375D01*
X63599029Y-109887598D01*
X63467402Y-109755971D01*
X63312625Y-109652552D01*
X63140646Y-109581316D01*
X62958074Y-109545000D01*
X62771926Y-109545000D01*
X62589354Y-109581316D01*
X62417375Y-109652552D01*
X62262598Y-109755971D01*
X62130971Y-109887598D01*
X62027552Y-110042375D01*
X61956316Y-110214354D01*
X61920000Y-110396926D01*
X61920000Y-110583074D01*
X61956316Y-110765646D01*
X62027552Y-110937625D01*
X62130971Y-111092402D01*
X62262598Y-111224029D01*
X62417375Y-111327448D01*
X62589354Y-111398684D01*
X62726079Y-111425881D01*
X63570199Y-112270000D01*
X63428534Y-112270000D01*
X63312625Y-112192552D01*
X63140646Y-112121316D01*
X62958074Y-112085000D01*
X62771926Y-112085000D01*
X62589354Y-112121316D01*
X62417375Y-112192552D01*
X62262598Y-112295971D01*
X62130971Y-112427598D01*
X62027552Y-112582375D01*
X61956316Y-112754354D01*
X61920000Y-112936926D01*
X61920000Y-113123074D01*
X61956316Y-113305646D01*
X62027552Y-113477625D01*
X62130971Y-113632402D01*
X62262598Y-113764029D01*
X62417375Y-113867448D01*
X62589354Y-113938684D01*
X62771926Y-113975000D01*
X62958074Y-113975000D01*
X63140646Y-113938684D01*
X63312625Y-113867448D01*
X63428534Y-113790000D01*
X63820199Y-113790000D01*
X64840199Y-114810000D01*
X63428534Y-114810000D01*
X63312625Y-114732552D01*
X63140646Y-114661316D01*
X62958074Y-114625000D01*
X62771926Y-114625000D01*
X62589354Y-114661316D01*
X62417375Y-114732552D01*
X62262598Y-114835971D01*
X62130971Y-114967598D01*
X62027552Y-115122375D01*
X61956316Y-115294354D01*
X61920000Y-115476926D01*
X61920000Y-115663074D01*
X61956316Y-115845646D01*
X62027552Y-116017625D01*
X62130971Y-116172402D01*
X62262598Y-116304029D01*
X62417375Y-116407448D01*
X62589354Y-116478684D01*
X62771926Y-116515000D01*
X62958074Y-116515000D01*
X63140646Y-116478684D01*
X63312625Y-116407448D01*
X63428534Y-116330000D01*
X65090199Y-116330000D01*
X68016201Y-119256003D01*
X68039999Y-119285001D01*
X68068997Y-119308799D01*
X68155723Y-119379974D01*
X68190802Y-119398724D01*
X68287753Y-119450546D01*
X68431014Y-119494003D01*
X68542667Y-119505000D01*
X68542676Y-119505000D01*
X68579999Y-119508676D01*
X68617322Y-119505000D01*
X97480383Y-119505000D01*
X97516316Y-119685646D01*
X97587552Y-119857625D01*
X97665001Y-119973535D01*
X97665000Y-121971956D01*
X97510241Y-122075363D01*
X97310363Y-122275241D01*
X97155000Y-122507759D01*
X96999637Y-122275241D01*
X96799759Y-122075363D01*
X96564727Y-121918320D01*
X96303574Y-121810147D01*
X96026335Y-121755000D01*
X95743665Y-121755000D01*
X95466426Y-121810147D01*
X95205273Y-121918320D01*
X94970241Y-122075363D01*
X94770363Y-122275241D01*
X94615000Y-122507759D01*
X94459637Y-122275241D01*
X94259759Y-122075363D01*
X94024727Y-121918320D01*
X93763574Y-121810147D01*
X93486335Y-121755000D01*
X93203665Y-121755000D01*
X92926426Y-121810147D01*
X92665273Y-121918320D01*
X92430241Y-122075363D01*
X92230363Y-122275241D01*
X92075000Y-122507759D01*
X91919637Y-122275241D01*
X91719759Y-122075363D01*
X91484727Y-121918320D01*
X91223574Y-121810147D01*
X90946335Y-121755000D01*
X90663665Y-121755000D01*
X90386426Y-121810147D01*
X90125273Y-121918320D01*
X89890241Y-122075363D01*
X89690363Y-122275241D01*
X89535000Y-122507759D01*
X89379637Y-122275241D01*
X89179759Y-122075363D01*
X88944727Y-121918320D01*
X88683574Y-121810147D01*
X88406335Y-121755000D01*
X88123665Y-121755000D01*
X87846426Y-121810147D01*
X87585273Y-121918320D01*
X87350241Y-122075363D01*
X87150363Y-122275241D01*
X86995000Y-122507759D01*
X86839637Y-122275241D01*
X86639759Y-122075363D01*
X86404727Y-121918320D01*
X86143574Y-121810147D01*
X85866335Y-121755000D01*
X85583665Y-121755000D01*
X85306426Y-121810147D01*
X85045273Y-121918320D01*
X84810241Y-122075363D01*
X84610363Y-122275241D01*
X84455000Y-122507759D01*
X84299637Y-122275241D01*
X84099759Y-122075363D01*
X83864727Y-121918320D01*
X83603574Y-121810147D01*
X83326335Y-121755000D01*
X83043665Y-121755000D01*
X82766426Y-121810147D01*
X82505273Y-121918320D01*
X82270241Y-122075363D01*
X82070363Y-122275241D01*
X81915000Y-122507759D01*
X81759637Y-122275241D01*
X81559759Y-122075363D01*
X81324727Y-121918320D01*
X81063574Y-121810147D01*
X80786335Y-121755000D01*
X80503665Y-121755000D01*
X80226426Y-121810147D01*
X79965273Y-121918320D01*
X79730241Y-122075363D01*
X79530363Y-122275241D01*
X79375000Y-122507759D01*
X79219637Y-122275241D01*
X79019759Y-122075363D01*
X78784727Y-121918320D01*
X78523574Y-121810147D01*
X78246335Y-121755000D01*
X77963665Y-121755000D01*
X77686426Y-121810147D01*
X77425273Y-121918320D01*
X77190241Y-122075363D01*
X76990363Y-122275241D01*
X76835000Y-122507759D01*
X76679637Y-122275241D01*
X76479759Y-122075363D01*
X76244727Y-121918320D01*
X75983574Y-121810147D01*
X75706335Y-121755000D01*
X75423665Y-121755000D01*
X75146426Y-121810147D01*
X74885273Y-121918320D01*
X74650241Y-122075363D01*
X74450363Y-122275241D01*
X74295000Y-122507759D01*
X74139637Y-122275241D01*
X73939759Y-122075363D01*
X73704727Y-121918320D01*
X73443574Y-121810147D01*
X73166335Y-121755000D01*
X72883665Y-121755000D01*
X72606426Y-121810147D01*
X72345273Y-121918320D01*
X72110241Y-122075363D01*
X71910363Y-122275241D01*
X71755000Y-122507759D01*
X71599637Y-122275241D01*
X71399759Y-122075363D01*
X71164727Y-121918320D01*
X70903574Y-121810147D01*
X70626335Y-121755000D01*
X70343665Y-121755000D01*
X70066426Y-121810147D01*
X69805273Y-121918320D01*
X69570241Y-122075363D01*
X69370363Y-122275241D01*
X69213320Y-122510273D01*
X69105147Y-122771426D01*
X69050000Y-123048665D01*
X69050000Y-123331335D01*
X69105147Y-123608574D01*
X69213320Y-123869727D01*
X69370363Y-124104759D01*
X69570241Y-124304637D01*
X69805273Y-124461680D01*
X70066426Y-124569853D01*
X70343665Y-124625000D01*
X70626335Y-124625000D01*
X70903574Y-124569853D01*
X71164727Y-124461680D01*
X71399759Y-124304637D01*
X71599637Y-124104759D01*
X71755000Y-123872241D01*
X71910363Y-124104759D01*
X72110241Y-124304637D01*
X72345273Y-124461680D01*
X72606426Y-124569853D01*
X72883665Y-124625000D01*
X73166335Y-124625000D01*
X73443574Y-124569853D01*
X73704727Y-124461680D01*
X73939759Y-124304637D01*
X74139637Y-124104759D01*
X74295000Y-123872241D01*
X74450363Y-124104759D01*
X74650241Y-124304637D01*
X74885273Y-124461680D01*
X75146426Y-124569853D01*
X75423665Y-124625000D01*
X75706335Y-124625000D01*
X75983574Y-124569853D01*
X76244727Y-124461680D01*
X76479759Y-124304637D01*
X76679637Y-124104759D01*
X76835000Y-123872241D01*
X76990363Y-124104759D01*
X77190241Y-124304637D01*
X77425273Y-124461680D01*
X77686426Y-124569853D01*
X77963665Y-124625000D01*
X78246335Y-124625000D01*
X78523574Y-124569853D01*
X78784727Y-124461680D01*
X79019759Y-124304637D01*
X79219637Y-124104759D01*
X79375000Y-123872241D01*
X79530363Y-124104759D01*
X79730241Y-124304637D01*
X79965273Y-124461680D01*
X80226426Y-124569853D01*
X80503665Y-124625000D01*
X80786335Y-124625000D01*
X81063574Y-124569853D01*
X81324727Y-124461680D01*
X81559759Y-124304637D01*
X81759637Y-124104759D01*
X81915000Y-123872241D01*
X82070363Y-124104759D01*
X82270241Y-124304637D01*
X82505273Y-124461680D01*
X82766426Y-124569853D01*
X83043665Y-124625000D01*
X83326335Y-124625000D01*
X83603574Y-124569853D01*
X83864727Y-124461680D01*
X84099759Y-124304637D01*
X84299637Y-124104759D01*
X84455000Y-123872241D01*
X84610363Y-124104759D01*
X84810241Y-124304637D01*
X85045273Y-124461680D01*
X85306426Y-124569853D01*
X85583665Y-124625000D01*
X85866335Y-124625000D01*
X86143574Y-124569853D01*
X86404727Y-124461680D01*
X86639759Y-124304637D01*
X86839637Y-124104759D01*
X86995000Y-123872241D01*
X87150363Y-124104759D01*
X87350241Y-124304637D01*
X87585273Y-124461680D01*
X87846426Y-124569853D01*
X88123665Y-124625000D01*
X88406335Y-124625000D01*
X88683574Y-124569853D01*
X88944727Y-124461680D01*
X89179759Y-124304637D01*
X89379637Y-124104759D01*
X89535000Y-123872241D01*
X89690363Y-124104759D01*
X89890241Y-124304637D01*
X90125273Y-124461680D01*
X90386426Y-124569853D01*
X90663665Y-124625000D01*
X90946335Y-124625000D01*
X91223574Y-124569853D01*
X91484727Y-124461680D01*
X91719759Y-124304637D01*
X91919637Y-124104759D01*
X92075000Y-123872241D01*
X92230363Y-124104759D01*
X92430241Y-124304637D01*
X92665273Y-124461680D01*
X92926426Y-124569853D01*
X93203665Y-124625000D01*
X93486335Y-124625000D01*
X93763574Y-124569853D01*
X94024727Y-124461680D01*
X94259759Y-124304637D01*
X94459637Y-124104759D01*
X94615000Y-123872241D01*
X94770363Y-124104759D01*
X94970241Y-124304637D01*
X95205273Y-124461680D01*
X95466426Y-124569853D01*
X95743665Y-124625000D01*
X96026335Y-124625000D01*
X96303574Y-124569853D01*
X96564727Y-124461680D01*
X96799759Y-124304637D01*
X96999637Y-124104759D01*
X97155000Y-123872241D01*
X97310363Y-124104759D01*
X97510241Y-124304637D01*
X97745273Y-124461680D01*
X98006426Y-124569853D01*
X98283665Y-124625000D01*
X98566335Y-124625000D01*
X98843574Y-124569853D01*
X99104727Y-124461680D01*
X99339759Y-124304637D01*
X99539637Y-124104759D01*
X99695000Y-123872241D01*
X99850363Y-124104759D01*
X100050241Y-124304637D01*
X100285273Y-124461680D01*
X100546426Y-124569853D01*
X100823665Y-124625000D01*
X101106335Y-124625000D01*
X101383574Y-124569853D01*
X101644727Y-124461680D01*
X101879759Y-124304637D01*
X102079637Y-124104759D01*
X102235000Y-123872241D01*
X102390363Y-124104759D01*
X102590241Y-124304637D01*
X102825273Y-124461680D01*
X103086426Y-124569853D01*
X103363665Y-124625000D01*
X103646335Y-124625000D01*
X103923574Y-124569853D01*
X104184727Y-124461680D01*
X104419759Y-124304637D01*
X104619637Y-124104759D01*
X104776680Y-123869727D01*
X104884853Y-123608574D01*
X104940000Y-123331335D01*
X104940000Y-123053589D01*
X118865000Y-123053589D01*
X118865000Y-123326411D01*
X118918225Y-123593989D01*
X119022629Y-123846043D01*
X119174201Y-124072886D01*
X119367114Y-124265799D01*
X119593957Y-124417371D01*
X119846011Y-124521775D01*
X120113589Y-124575000D01*
X120386411Y-124575000D01*
X120653989Y-124521775D01*
X120906043Y-124417371D01*
X121132886Y-124265799D01*
X121251692Y-124146993D01*
X133842612Y-124146993D01*
X133908137Y-124385860D01*
X134155116Y-124501760D01*
X134419960Y-124567250D01*
X134692492Y-124579812D01*
X134962238Y-124538965D01*
X135218832Y-124446277D01*
X135331863Y-124385860D01*
X135397388Y-124146993D01*
X134620000Y-123369605D01*
X133842612Y-124146993D01*
X121251692Y-124146993D01*
X121325799Y-124072886D01*
X121477371Y-123846043D01*
X121581775Y-123593989D01*
X121635000Y-123326411D01*
X121635000Y-123262492D01*
X133230188Y-123262492D01*
X133271035Y-123532238D01*
X133363723Y-123788832D01*
X133424140Y-123901863D01*
X133663007Y-123967388D01*
X134440395Y-123190000D01*
X134799605Y-123190000D01*
X135576993Y-123967388D01*
X135815860Y-123901863D01*
X135931760Y-123654884D01*
X135997250Y-123390040D01*
X136009812Y-123117508D01*
X135968965Y-122847762D01*
X135876277Y-122591168D01*
X135815860Y-122478137D01*
X135576993Y-122412612D01*
X134799605Y-123190000D01*
X134440395Y-123190000D01*
X133663007Y-122412612D01*
X133424140Y-122478137D01*
X133308240Y-122725116D01*
X133242750Y-122989960D01*
X133230188Y-123262492D01*
X121635000Y-123262492D01*
X121635000Y-123053589D01*
X121581775Y-122786011D01*
X121477371Y-122533957D01*
X121325799Y-122307114D01*
X121251692Y-122233007D01*
X133842612Y-122233007D01*
X134620000Y-123010395D01*
X135397388Y-122233007D01*
X135331863Y-121994140D01*
X135122081Y-121895695D01*
X157036520Y-121895695D01*
X157105822Y-122647938D01*
X157320548Y-123372208D01*
X157672445Y-124040670D01*
X157699452Y-124081088D01*
X158189119Y-124441276D01*
X160710395Y-121920000D01*
X158189119Y-119398724D01*
X157699452Y-119758912D01*
X157339151Y-120422882D01*
X157115306Y-121144385D01*
X157036520Y-121895695D01*
X135122081Y-121895695D01*
X135084884Y-121878240D01*
X134820040Y-121812750D01*
X134547508Y-121800188D01*
X134277762Y-121841035D01*
X134021168Y-121933723D01*
X133908137Y-121994140D01*
X133842612Y-122233007D01*
X121251692Y-122233007D01*
X121132886Y-122114201D01*
X120906043Y-121962629D01*
X120653989Y-121858225D01*
X120386411Y-121805000D01*
X120113589Y-121805000D01*
X119846011Y-121858225D01*
X119593957Y-121962629D01*
X119367114Y-122114201D01*
X119174201Y-122307114D01*
X119022629Y-122533957D01*
X118918225Y-122786011D01*
X118865000Y-123053589D01*
X104940000Y-123053589D01*
X104940000Y-123048665D01*
X104884853Y-122771426D01*
X104776680Y-122510273D01*
X104619637Y-122275241D01*
X104419759Y-122075363D01*
X104265000Y-121971957D01*
X104265000Y-119973534D01*
X104299483Y-119921926D01*
X150185000Y-119921926D01*
X150185000Y-120108074D01*
X150221316Y-120290646D01*
X150292552Y-120462625D01*
X150395971Y-120617402D01*
X150527598Y-120749029D01*
X150682375Y-120852448D01*
X150854354Y-120923684D01*
X151036926Y-120960000D01*
X151223074Y-120960000D01*
X151405646Y-120923684D01*
X151577625Y-120852448D01*
X151693534Y-120775000D01*
X151836466Y-120775000D01*
X151952375Y-120852448D01*
X152124354Y-120923684D01*
X152306926Y-120960000D01*
X152493074Y-120960000D01*
X152675646Y-120923684D01*
X152847625Y-120852448D01*
X153002402Y-120749029D01*
X153134029Y-120617402D01*
X153237448Y-120462625D01*
X153308684Y-120290646D01*
X153345000Y-120108074D01*
X153345000Y-119921926D01*
X153308684Y-119739354D01*
X153237448Y-119567375D01*
X153134029Y-119412598D01*
X153002402Y-119280971D01*
X152909835Y-119219119D01*
X158368724Y-119219119D01*
X160890000Y-121740395D01*
X163411276Y-119219119D01*
X163051088Y-118729452D01*
X162387118Y-118369151D01*
X161665615Y-118145306D01*
X160914305Y-118066520D01*
X160162062Y-118135822D01*
X159437792Y-118350548D01*
X158769330Y-118702445D01*
X158728912Y-118729452D01*
X158368724Y-119219119D01*
X152909835Y-119219119D01*
X152847625Y-119177552D01*
X152675646Y-119106316D01*
X152493074Y-119070000D01*
X152306926Y-119070000D01*
X152124354Y-119106316D01*
X151952375Y-119177552D01*
X151836466Y-119255000D01*
X151693534Y-119255000D01*
X151577625Y-119177552D01*
X151405646Y-119106316D01*
X151223074Y-119070000D01*
X151036926Y-119070000D01*
X150854354Y-119106316D01*
X150682375Y-119177552D01*
X150527598Y-119280971D01*
X150395971Y-119412598D01*
X150292552Y-119567375D01*
X150221316Y-119739354D01*
X150185000Y-119921926D01*
X104299483Y-119921926D01*
X104342448Y-119857625D01*
X104413684Y-119685646D01*
X104450000Y-119503074D01*
X104450000Y-119316926D01*
X104413684Y-119134354D01*
X104342448Y-118962375D01*
X104239029Y-118807598D01*
X104107402Y-118675971D01*
X103952625Y-118572552D01*
X103780646Y-118501316D01*
X103598074Y-118465000D01*
X103411926Y-118465000D01*
X103229354Y-118501316D01*
X103057375Y-118572552D01*
X102902598Y-118675971D01*
X102770971Y-118807598D01*
X102667552Y-118962375D01*
X102596316Y-119134354D01*
X102560000Y-119316926D01*
X102560000Y-119503074D01*
X102596316Y-119685646D01*
X102667552Y-119857625D01*
X102745001Y-119973535D01*
X102745000Y-121971956D01*
X102590241Y-122075363D01*
X102390363Y-122275241D01*
X102235000Y-122507759D01*
X102079637Y-122275241D01*
X101879759Y-122075363D01*
X101725000Y-121971957D01*
X101725000Y-119873534D01*
X101802448Y-119757625D01*
X101873684Y-119585646D01*
X101910000Y-119403074D01*
X101910000Y-119216926D01*
X101873684Y-119034354D01*
X101802448Y-118862375D01*
X101699029Y-118707598D01*
X101567402Y-118575971D01*
X101412625Y-118472552D01*
X101240646Y-118401316D01*
X101058074Y-118365000D01*
X100871926Y-118365000D01*
X100689354Y-118401316D01*
X100517375Y-118472552D01*
X100362598Y-118575971D01*
X100230971Y-118707598D01*
X100127552Y-118862375D01*
X100056316Y-119034354D01*
X100020000Y-119216926D01*
X100020000Y-119403074D01*
X100056316Y-119585646D01*
X100127552Y-119757625D01*
X100205001Y-119873535D01*
X100205000Y-121971956D01*
X100050241Y-122075363D01*
X99850363Y-122275241D01*
X99695000Y-122507759D01*
X99539637Y-122275241D01*
X99339759Y-122075363D01*
X99185000Y-121971957D01*
X99185000Y-119973534D01*
X99262448Y-119857625D01*
X99333684Y-119685646D01*
X99370000Y-119503074D01*
X99370000Y-119316926D01*
X99333684Y-119134354D01*
X99262448Y-118962375D01*
X99159029Y-118807598D01*
X99027402Y-118675971D01*
X98971310Y-118638491D01*
X100641114Y-116968688D01*
X100823665Y-117005000D01*
X101106335Y-117005000D01*
X101383574Y-116949853D01*
X101644727Y-116841680D01*
X101879759Y-116684637D01*
X102079637Y-116484759D01*
X102235000Y-116252241D01*
X102390363Y-116484759D01*
X102590241Y-116684637D01*
X102825273Y-116841680D01*
X103086426Y-116949853D01*
X103363665Y-117005000D01*
X103646335Y-117005000D01*
X103923574Y-116949853D01*
X104184727Y-116841680D01*
X104419759Y-116684637D01*
X104619637Y-116484759D01*
X104776680Y-116249727D01*
X104884853Y-115988574D01*
X104940000Y-115711335D01*
X104940000Y-115636909D01*
X111548955Y-115636909D01*
X111603534Y-115873240D01*
X111703170Y-116094382D01*
X111844034Y-116291837D01*
X112020713Y-116458017D01*
X112226417Y-116586535D01*
X112458391Y-116671462D01*
X112649000Y-116546731D01*
X112649000Y-115443000D01*
X111697953Y-115443000D01*
X111548955Y-115636909D01*
X104940000Y-115636909D01*
X104940000Y-115428665D01*
X104884853Y-115151426D01*
X104776680Y-114890273D01*
X104619637Y-114655241D01*
X104419759Y-114455363D01*
X104184727Y-114298320D01*
X103923574Y-114190147D01*
X103646335Y-114135000D01*
X103363665Y-114135000D01*
X103086426Y-114190147D01*
X102825273Y-114298320D01*
X102590241Y-114455363D01*
X102390363Y-114655241D01*
X102235000Y-114887759D01*
X102079637Y-114655241D01*
X101879759Y-114455363D01*
X101644727Y-114298320D01*
X101383574Y-114190147D01*
X101106335Y-114135000D01*
X100823665Y-114135000D01*
X100546426Y-114190147D01*
X100285273Y-114298320D01*
X100050241Y-114455363D01*
X99850363Y-114655241D01*
X99695000Y-114887759D01*
X99539637Y-114655241D01*
X99339759Y-114455363D01*
X99104727Y-114298320D01*
X98843574Y-114190147D01*
X98566335Y-114135000D01*
X98283665Y-114135000D01*
X98006426Y-114190147D01*
X97745273Y-114298320D01*
X97510241Y-114455363D01*
X97310363Y-114655241D01*
X97155000Y-114887759D01*
X96999637Y-114655241D01*
X96799759Y-114455363D01*
X96564727Y-114298320D01*
X96303574Y-114190147D01*
X96026335Y-114135000D01*
X95743665Y-114135000D01*
X95466426Y-114190147D01*
X95205273Y-114298320D01*
X94970241Y-114455363D01*
X94770363Y-114655241D01*
X94613320Y-114890273D01*
X94608933Y-114900865D01*
X94497385Y-114714869D01*
X94308414Y-114506481D01*
X94082420Y-114338963D01*
X93828087Y-114218754D01*
X93694039Y-114178096D01*
X93472000Y-114300085D01*
X93472000Y-115443000D01*
X93492000Y-115443000D01*
X93492000Y-115697000D01*
X93472000Y-115697000D01*
X93472000Y-115717000D01*
X93218000Y-115717000D01*
X93218000Y-115697000D01*
X93198000Y-115697000D01*
X93198000Y-115443000D01*
X93218000Y-115443000D01*
X93218000Y-114300085D01*
X92995961Y-114178096D01*
X92861913Y-114218754D01*
X92607580Y-114338963D01*
X92381586Y-114506481D01*
X92192615Y-114714869D01*
X92081067Y-114900865D01*
X92076680Y-114890273D01*
X91919637Y-114655241D01*
X91719759Y-114455363D01*
X91484727Y-114298320D01*
X91223574Y-114190147D01*
X90946335Y-114135000D01*
X90663665Y-114135000D01*
X90386426Y-114190147D01*
X90125273Y-114298320D01*
X89890241Y-114455363D01*
X89690363Y-114655241D01*
X89535000Y-114887759D01*
X89379637Y-114655241D01*
X89179759Y-114455363D01*
X88944727Y-114298320D01*
X88683574Y-114190147D01*
X88406335Y-114135000D01*
X88123665Y-114135000D01*
X87846426Y-114190147D01*
X87585273Y-114298320D01*
X87350241Y-114455363D01*
X87150363Y-114655241D01*
X86995000Y-114887759D01*
X86839637Y-114655241D01*
X86639759Y-114455363D01*
X86404727Y-114298320D01*
X86143574Y-114190147D01*
X85866335Y-114135000D01*
X85583665Y-114135000D01*
X85306426Y-114190147D01*
X85045273Y-114298320D01*
X84810241Y-114455363D01*
X84610363Y-114655241D01*
X84455000Y-114887759D01*
X84299637Y-114655241D01*
X84099759Y-114455363D01*
X83864727Y-114298320D01*
X83603574Y-114190147D01*
X83326335Y-114135000D01*
X83043665Y-114135000D01*
X82766426Y-114190147D01*
X82505273Y-114298320D01*
X82270241Y-114455363D01*
X82070363Y-114655241D01*
X81915000Y-114887759D01*
X81759637Y-114655241D01*
X81559759Y-114455363D01*
X81324727Y-114298320D01*
X81063574Y-114190147D01*
X80786335Y-114135000D01*
X80503665Y-114135000D01*
X80226426Y-114190147D01*
X79965273Y-114298320D01*
X79730241Y-114455363D01*
X79530363Y-114655241D01*
X79375000Y-114887759D01*
X79219637Y-114655241D01*
X79019759Y-114455363D01*
X78784727Y-114298320D01*
X78523574Y-114190147D01*
X78246335Y-114135000D01*
X77963665Y-114135000D01*
X77686426Y-114190147D01*
X77425273Y-114298320D01*
X77190241Y-114455363D01*
X76990363Y-114655241D01*
X76835000Y-114887759D01*
X76679637Y-114655241D01*
X76479759Y-114455363D01*
X76244727Y-114298320D01*
X75983574Y-114190147D01*
X75706335Y-114135000D01*
X75423665Y-114135000D01*
X75146426Y-114190147D01*
X74885273Y-114298320D01*
X74650241Y-114455363D01*
X74450363Y-114655241D01*
X74295000Y-114887759D01*
X74139637Y-114655241D01*
X73939759Y-114455363D01*
X73704727Y-114298320D01*
X73443574Y-114190147D01*
X73166335Y-114135000D01*
X72883665Y-114135000D01*
X72606426Y-114190147D01*
X72345273Y-114298320D01*
X72110241Y-114455363D01*
X71911643Y-114653961D01*
X71910812Y-114645518D01*
X71874502Y-114525820D01*
X71815537Y-114415506D01*
X71736185Y-114318815D01*
X71639494Y-114239463D01*
X71529180Y-114180498D01*
X71409482Y-114144188D01*
X71285000Y-114131928D01*
X71245000Y-114131928D01*
X71245000Y-112709801D01*
X71434802Y-112520000D01*
X106490401Y-112520000D01*
X106455603Y-112554556D01*
X106449779Y-112561697D01*
X106358061Y-112675773D01*
X106325313Y-112725819D01*
X106291860Y-112775414D01*
X106287534Y-112783551D01*
X106219719Y-112913268D01*
X106197331Y-112968680D01*
X106174127Y-113023880D01*
X106171464Y-113032702D01*
X106130137Y-113173121D01*
X106118920Y-113231921D01*
X106106901Y-113290473D01*
X106106002Y-113299644D01*
X106106001Y-113299649D01*
X106106001Y-113299655D01*
X106092735Y-113445415D01*
X106093152Y-113505198D01*
X106092734Y-113565057D01*
X106093634Y-113574228D01*
X106108935Y-113719800D01*
X106120954Y-113778352D01*
X106132171Y-113837152D01*
X106134835Y-113845974D01*
X106178119Y-113985803D01*
X106201294Y-114040933D01*
X106223708Y-114096412D01*
X106228035Y-114104548D01*
X106297653Y-114233306D01*
X106331098Y-114282890D01*
X106363858Y-114332953D01*
X106369683Y-114340094D01*
X106462985Y-114452877D01*
X106505421Y-114495018D01*
X106547284Y-114537767D01*
X106554384Y-114543641D01*
X106667816Y-114636154D01*
X106717625Y-114669246D01*
X106766997Y-114703053D01*
X106775104Y-114707436D01*
X106904345Y-114776155D01*
X106959626Y-114798940D01*
X107014636Y-114822517D01*
X107023439Y-114825242D01*
X107163566Y-114867548D01*
X107222232Y-114879164D01*
X107280753Y-114891603D01*
X107289918Y-114892566D01*
X107435594Y-114906850D01*
X107435598Y-114906850D01*
X107467581Y-114910000D01*
X111568606Y-114910000D01*
X111548955Y-114995091D01*
X111697953Y-115189000D01*
X112649000Y-115189000D01*
X112649000Y-115169000D01*
X112903000Y-115169000D01*
X112903000Y-115189000D01*
X112923000Y-115189000D01*
X112923000Y-115443000D01*
X112903000Y-115443000D01*
X112903000Y-116546731D01*
X113093609Y-116671462D01*
X113325583Y-116586535D01*
X113531287Y-116458017D01*
X113707966Y-116291837D01*
X113728095Y-116263622D01*
X113803498Y-116355502D01*
X113991551Y-116509833D01*
X114206099Y-116624511D01*
X114438898Y-116695130D01*
X114681000Y-116718975D01*
X114923101Y-116695130D01*
X115155900Y-116624511D01*
X115370448Y-116509833D01*
X115558502Y-116355502D01*
X115633906Y-116263622D01*
X115654034Y-116291837D01*
X115830713Y-116458017D01*
X116036417Y-116586535D01*
X116268391Y-116671462D01*
X116459000Y-116546731D01*
X116459000Y-115443000D01*
X116439000Y-115443000D01*
X116439000Y-115189000D01*
X116459000Y-115189000D01*
X116459000Y-115169000D01*
X116713000Y-115169000D01*
X116713000Y-115189000D01*
X116733000Y-115189000D01*
X116733000Y-115443000D01*
X116713000Y-115443000D01*
X116713000Y-116546731D01*
X116903609Y-116671462D01*
X117135583Y-116586535D01*
X117341287Y-116458017D01*
X117517966Y-116291837D01*
X117538095Y-116263622D01*
X117613498Y-116355502D01*
X117801551Y-116509833D01*
X118016099Y-116624511D01*
X118248898Y-116695130D01*
X118491000Y-116718975D01*
X118733101Y-116695130D01*
X118965900Y-116624511D01*
X119180448Y-116509833D01*
X119368502Y-116355502D01*
X119443906Y-116263622D01*
X119464034Y-116291837D01*
X119640713Y-116458017D01*
X119846417Y-116586535D01*
X120078391Y-116671462D01*
X120269000Y-116546731D01*
X120269000Y-115443000D01*
X120249000Y-115443000D01*
X120249000Y-115189000D01*
X120269000Y-115189000D01*
X120269000Y-115169000D01*
X120523000Y-115169000D01*
X120523000Y-115189000D01*
X120543000Y-115189000D01*
X120543000Y-115443000D01*
X120523000Y-115443000D01*
X120523000Y-116546731D01*
X120713609Y-116671462D01*
X120945583Y-116586535D01*
X121151287Y-116458017D01*
X121327966Y-116291837D01*
X121348095Y-116263622D01*
X121423498Y-116355502D01*
X121611551Y-116509833D01*
X121826099Y-116624511D01*
X122058898Y-116695130D01*
X122301000Y-116718975D01*
X122543101Y-116695130D01*
X122775900Y-116624511D01*
X122990448Y-116509833D01*
X123178502Y-116355502D01*
X123253906Y-116263622D01*
X123274034Y-116291837D01*
X123450713Y-116458017D01*
X123656417Y-116586535D01*
X123888391Y-116671462D01*
X124079000Y-116546731D01*
X124079000Y-115443000D01*
X124059000Y-115443000D01*
X124059000Y-115189000D01*
X124079000Y-115189000D01*
X124079000Y-115169000D01*
X124333000Y-115169000D01*
X124333000Y-115189000D01*
X124353000Y-115189000D01*
X124353000Y-115443000D01*
X124333000Y-115443000D01*
X124333000Y-116546731D01*
X124523609Y-116671462D01*
X124755583Y-116586535D01*
X124961287Y-116458017D01*
X125137966Y-116291837D01*
X125158095Y-116263622D01*
X125233498Y-116355502D01*
X125421551Y-116509833D01*
X125636099Y-116624511D01*
X125868898Y-116695130D01*
X126111000Y-116718975D01*
X126353101Y-116695130D01*
X126585900Y-116624511D01*
X126800448Y-116509833D01*
X126988502Y-116355502D01*
X127063906Y-116263622D01*
X127084034Y-116291837D01*
X127260713Y-116458017D01*
X127466417Y-116586535D01*
X127698391Y-116671462D01*
X127889000Y-116546731D01*
X127889000Y-115443000D01*
X127869000Y-115443000D01*
X127869000Y-115189000D01*
X127889000Y-115189000D01*
X127889000Y-115169000D01*
X128143000Y-115169000D01*
X128143000Y-115189000D01*
X128163000Y-115189000D01*
X128163000Y-115443000D01*
X128143000Y-115443000D01*
X128143000Y-116546731D01*
X128333609Y-116671462D01*
X128565583Y-116586535D01*
X128771287Y-116458017D01*
X128947966Y-116291837D01*
X128968095Y-116263622D01*
X129043498Y-116355502D01*
X129231551Y-116509833D01*
X129446099Y-116624511D01*
X129678898Y-116695130D01*
X129921000Y-116718975D01*
X130163101Y-116695130D01*
X130395900Y-116624511D01*
X130610448Y-116509833D01*
X130798502Y-116355502D01*
X130873906Y-116263622D01*
X130894034Y-116291837D01*
X131070713Y-116458017D01*
X131276417Y-116586535D01*
X131508391Y-116671462D01*
X131699000Y-116546731D01*
X131699000Y-115443000D01*
X131679000Y-115443000D01*
X131679000Y-115189000D01*
X131699000Y-115189000D01*
X131699000Y-115169000D01*
X131953000Y-115169000D01*
X131953000Y-115189000D01*
X131973000Y-115189000D01*
X131973000Y-115443000D01*
X131953000Y-115443000D01*
X131953000Y-116546731D01*
X132143609Y-116671462D01*
X132375583Y-116586535D01*
X132581287Y-116458017D01*
X132757966Y-116291837D01*
X132778095Y-116263622D01*
X132853498Y-116355502D01*
X133041551Y-116509833D01*
X133256099Y-116624511D01*
X133488898Y-116695130D01*
X133731000Y-116718975D01*
X133973101Y-116695130D01*
X134205900Y-116624511D01*
X134420448Y-116509833D01*
X134608502Y-116355502D01*
X134683906Y-116263622D01*
X134704034Y-116291837D01*
X134880713Y-116458017D01*
X135086417Y-116586535D01*
X135318391Y-116671462D01*
X135509000Y-116546731D01*
X135509000Y-115443000D01*
X135489000Y-115443000D01*
X135489000Y-115189000D01*
X135509000Y-115189000D01*
X135509000Y-115169000D01*
X135763000Y-115169000D01*
X135763000Y-115189000D01*
X135783000Y-115189000D01*
X135783000Y-115443000D01*
X135763000Y-115443000D01*
X135763000Y-116546731D01*
X135953609Y-116671462D01*
X136185583Y-116586535D01*
X136391287Y-116458017D01*
X136567966Y-116291837D01*
X136588095Y-116263622D01*
X136663498Y-116355502D01*
X136851551Y-116509833D01*
X137066099Y-116624511D01*
X137298898Y-116695130D01*
X137541000Y-116718975D01*
X137783101Y-116695130D01*
X138015900Y-116624511D01*
X138230448Y-116509833D01*
X138418502Y-116355502D01*
X138493906Y-116263622D01*
X138514034Y-116291837D01*
X138690713Y-116458017D01*
X138896417Y-116586535D01*
X139128391Y-116671462D01*
X139319000Y-116546731D01*
X139319000Y-115443000D01*
X139299000Y-115443000D01*
X139299000Y-115189000D01*
X139319000Y-115189000D01*
X139319000Y-115169000D01*
X139573000Y-115169000D01*
X139573000Y-115189000D01*
X139593000Y-115189000D01*
X139593000Y-115443000D01*
X139573000Y-115443000D01*
X139573000Y-116546731D01*
X139763609Y-116671462D01*
X139995583Y-116586535D01*
X140201287Y-116458017D01*
X140377966Y-116291837D01*
X140398095Y-116263622D01*
X140473498Y-116355502D01*
X140661551Y-116509833D01*
X140876099Y-116624511D01*
X141108898Y-116695130D01*
X141351000Y-116718975D01*
X141593101Y-116695130D01*
X141825900Y-116624511D01*
X142040448Y-116509833D01*
X142228502Y-116355502D01*
X142382833Y-116167449D01*
X142497511Y-115952901D01*
X142568130Y-115720102D01*
X142586000Y-115538665D01*
X142586000Y-115476926D01*
X150185000Y-115476926D01*
X150185000Y-115663074D01*
X150221316Y-115845646D01*
X150292552Y-116017625D01*
X150395971Y-116172402D01*
X150527598Y-116304029D01*
X150682375Y-116407448D01*
X150854354Y-116478684D01*
X151036926Y-116515000D01*
X151223074Y-116515000D01*
X151405646Y-116478684D01*
X151577625Y-116407448D01*
X151693534Y-116330000D01*
X157316466Y-116330000D01*
X157432375Y-116407448D01*
X157604354Y-116478684D01*
X157786926Y-116515000D01*
X157973074Y-116515000D01*
X158155646Y-116478684D01*
X158327625Y-116407448D01*
X158482402Y-116304029D01*
X158614029Y-116172402D01*
X158717448Y-116017625D01*
X158788684Y-115845646D01*
X158825000Y-115663074D01*
X158825000Y-115476926D01*
X158788684Y-115294354D01*
X158717448Y-115122375D01*
X158614029Y-114967598D01*
X158482402Y-114835971D01*
X158327625Y-114732552D01*
X158155646Y-114661316D01*
X157973074Y-114625000D01*
X157786926Y-114625000D01*
X157604354Y-114661316D01*
X157432375Y-114732552D01*
X157316466Y-114810000D01*
X151693534Y-114810000D01*
X151577625Y-114732552D01*
X151405646Y-114661316D01*
X151223074Y-114625000D01*
X151036926Y-114625000D01*
X150854354Y-114661316D01*
X150682375Y-114732552D01*
X150527598Y-114835971D01*
X150395971Y-114967598D01*
X150292552Y-115122375D01*
X150221316Y-115294354D01*
X150185000Y-115476926D01*
X142586000Y-115476926D01*
X142586000Y-115093336D01*
X142568130Y-114911899D01*
X142567554Y-114910000D01*
X146532419Y-114910000D01*
X146565143Y-114906777D01*
X146574876Y-114906777D01*
X146584041Y-114905814D01*
X146729503Y-114889498D01*
X146788017Y-114877060D01*
X146846695Y-114865442D01*
X146855498Y-114862717D01*
X146995021Y-114818458D01*
X147050005Y-114794891D01*
X147105309Y-114772097D01*
X147113410Y-114767716D01*
X147113414Y-114767714D01*
X147113417Y-114767712D01*
X147241684Y-114697196D01*
X147291029Y-114663409D01*
X147340861Y-114630301D01*
X147347962Y-114624427D01*
X147460092Y-114530340D01*
X147501957Y-114487589D01*
X147544397Y-114445444D01*
X147550221Y-114438303D01*
X147641940Y-114324226D01*
X147674694Y-114274172D01*
X147708140Y-114224586D01*
X147712466Y-114216449D01*
X147780281Y-114086733D01*
X147802675Y-114031306D01*
X147825873Y-113976120D01*
X147828536Y-113967298D01*
X147869863Y-113826879D01*
X147881077Y-113768093D01*
X147893099Y-113709528D01*
X147893998Y-113700357D01*
X147907265Y-113554585D01*
X147906848Y-113494802D01*
X147907266Y-113434943D01*
X147906366Y-113425772D01*
X147891065Y-113280200D01*
X147879039Y-113221617D01*
X147867829Y-113162848D01*
X147865165Y-113154026D01*
X147821881Y-113014197D01*
X147798706Y-112959067D01*
X147789761Y-112936926D01*
X149550000Y-112936926D01*
X149550000Y-113123074D01*
X149586316Y-113305646D01*
X149657552Y-113477625D01*
X149760971Y-113632402D01*
X149892598Y-113764029D01*
X150047375Y-113867448D01*
X150219354Y-113938684D01*
X150401926Y-113975000D01*
X150588074Y-113975000D01*
X150770646Y-113938684D01*
X150942625Y-113867448D01*
X151058534Y-113790000D01*
X157316466Y-113790000D01*
X157432375Y-113867448D01*
X157604354Y-113938684D01*
X157786926Y-113975000D01*
X157973074Y-113975000D01*
X158155646Y-113938684D01*
X158327625Y-113867448D01*
X158482402Y-113764029D01*
X158614029Y-113632402D01*
X158717448Y-113477625D01*
X158788684Y-113305646D01*
X158825000Y-113123074D01*
X158825000Y-112936926D01*
X158788684Y-112754354D01*
X158717448Y-112582375D01*
X158614029Y-112427598D01*
X158482402Y-112295971D01*
X158327625Y-112192552D01*
X158155646Y-112121316D01*
X157973074Y-112085000D01*
X157786926Y-112085000D01*
X157604354Y-112121316D01*
X157432375Y-112192552D01*
X157316466Y-112270000D01*
X151058534Y-112270000D01*
X150942625Y-112192552D01*
X150770646Y-112121316D01*
X150588074Y-112085000D01*
X150401926Y-112085000D01*
X150219354Y-112121316D01*
X150047375Y-112192552D01*
X149892598Y-112295971D01*
X149760971Y-112427598D01*
X149657552Y-112582375D01*
X149586316Y-112754354D01*
X149550000Y-112936926D01*
X147789761Y-112936926D01*
X147776292Y-112903588D01*
X147771965Y-112895451D01*
X147702346Y-112766694D01*
X147668919Y-112717137D01*
X147636142Y-112667047D01*
X147630317Y-112659906D01*
X147537015Y-112547123D01*
X147494598Y-112505001D01*
X147452716Y-112462232D01*
X147445615Y-112456359D01*
X147332184Y-112363846D01*
X147282375Y-112330754D01*
X147233003Y-112296947D01*
X147224897Y-112292564D01*
X147095655Y-112223845D01*
X147040362Y-112201055D01*
X146985364Y-112177483D01*
X146976560Y-112174758D01*
X146836434Y-112132452D01*
X146777768Y-112120836D01*
X146719247Y-112108397D01*
X146710083Y-112107434D01*
X146564406Y-112093150D01*
X146564402Y-112093150D01*
X146532419Y-112090000D01*
X146301170Y-112090000D01*
X146323684Y-112035646D01*
X146360000Y-111853074D01*
X146360000Y-111666926D01*
X146323684Y-111484354D01*
X146252448Y-111312375D01*
X146175000Y-111196466D01*
X146175000Y-107243534D01*
X146252448Y-107127625D01*
X146323684Y-106955646D01*
X146353649Y-106805000D01*
X152085199Y-106805000D01*
X152275000Y-106994802D01*
X152275001Y-108021465D01*
X152197552Y-108137375D01*
X152126316Y-108309354D01*
X152090000Y-108491926D01*
X152090000Y-108678074D01*
X152126316Y-108860646D01*
X152197552Y-109032625D01*
X152300971Y-109187402D01*
X152432598Y-109319029D01*
X152587375Y-109422448D01*
X152759354Y-109493684D01*
X152941926Y-109530000D01*
X153128074Y-109530000D01*
X153310646Y-109493684D01*
X153482625Y-109422448D01*
X153637402Y-109319029D01*
X153769029Y-109187402D01*
X153872448Y-109032625D01*
X153943684Y-108860646D01*
X153980000Y-108678074D01*
X153980000Y-108491926D01*
X153943684Y-108309354D01*
X153872448Y-108137375D01*
X153795000Y-108021466D01*
X153795000Y-106717333D01*
X153798677Y-106680000D01*
X153784003Y-106531014D01*
X153740546Y-106387753D01*
X153669974Y-106255724D01*
X153598799Y-106168997D01*
X153575001Y-106139999D01*
X153546003Y-106116201D01*
X152964801Y-105535000D01*
X154376466Y-105535000D01*
X154492375Y-105612448D01*
X154664354Y-105683684D01*
X154846926Y-105720000D01*
X155033074Y-105720000D01*
X155215646Y-105683684D01*
X155387625Y-105612448D01*
X155542402Y-105509029D01*
X155674029Y-105377402D01*
X155777448Y-105222625D01*
X155848684Y-105050646D01*
X155878649Y-104900000D01*
X156572678Y-104900000D01*
X156610000Y-104903676D01*
X156647322Y-104900000D01*
X156647333Y-104900000D01*
X156758986Y-104889003D01*
X156902247Y-104845546D01*
X157034276Y-104774974D01*
X157150001Y-104680001D01*
X157173804Y-104650997D01*
X158018921Y-103805880D01*
X158155646Y-103778684D01*
X158327625Y-103707448D01*
X158482402Y-103604029D01*
X158614029Y-103472402D01*
X158717448Y-103317625D01*
X158788684Y-103145646D01*
X158825000Y-102963074D01*
X158825000Y-102776926D01*
X158788684Y-102594354D01*
X158717448Y-102422375D01*
X158614029Y-102267598D01*
X158482402Y-102135971D01*
X158327625Y-102032552D01*
X158155646Y-101961316D01*
X157973074Y-101925000D01*
X157786926Y-101925000D01*
X157604354Y-101961316D01*
X157432375Y-102032552D01*
X157277598Y-102135971D01*
X157145971Y-102267598D01*
X157042552Y-102422375D01*
X156971316Y-102594354D01*
X156944120Y-102731079D01*
X156295199Y-103380000D01*
X153598534Y-103380000D01*
X153482625Y-103302552D01*
X153310646Y-103231316D01*
X153128074Y-103195000D01*
X152941926Y-103195000D01*
X152759354Y-103231316D01*
X152587375Y-103302552D01*
X152471466Y-103380000D01*
X151925770Y-103380000D01*
X151967448Y-103317625D01*
X152038684Y-103145646D01*
X152039010Y-103144010D01*
X152040646Y-103143684D01*
X152212625Y-103072448D01*
X152367402Y-102969029D01*
X152400000Y-102936431D01*
X152432598Y-102969029D01*
X152587375Y-103072448D01*
X152759354Y-103143684D01*
X152941926Y-103180000D01*
X153128074Y-103180000D01*
X153310646Y-103143684D01*
X153482625Y-103072448D01*
X153637402Y-102969029D01*
X153769029Y-102837402D01*
X153872448Y-102682625D01*
X153943684Y-102510646D01*
X153980000Y-102328074D01*
X153980000Y-102141926D01*
X153943684Y-101959354D01*
X153872448Y-101787375D01*
X153795000Y-101671466D01*
X153795000Y-101528533D01*
X153872448Y-101412624D01*
X153943684Y-101240645D01*
X153980000Y-101058073D01*
X153980000Y-100871925D01*
X153943684Y-100689353D01*
X153872448Y-100517374D01*
X153769029Y-100362597D01*
X153637402Y-100230970D01*
X153482625Y-100127551D01*
X153310646Y-100056315D01*
X153128074Y-100019999D01*
X152941926Y-100019999D01*
X152759354Y-100056315D01*
X152587375Y-100127551D01*
X152432598Y-100230970D01*
X152300971Y-100362597D01*
X152197552Y-100517374D01*
X152126316Y-100689353D01*
X152090000Y-100871925D01*
X152090000Y-101058073D01*
X152126316Y-101240645D01*
X152186894Y-101386894D01*
X152040646Y-101326316D01*
X151858074Y-101290000D01*
X151671926Y-101290000D01*
X151489354Y-101326316D01*
X151317375Y-101397552D01*
X151201466Y-101475000D01*
X142099952Y-101475000D01*
X142228502Y-101369502D01*
X142382833Y-101181449D01*
X142497511Y-100966901D01*
X142568130Y-100734102D01*
X142586000Y-100552665D01*
X142586000Y-100107336D01*
X142568130Y-99925899D01*
X142563307Y-99910000D01*
X146532419Y-99910000D01*
X146565143Y-99906777D01*
X146574876Y-99906777D01*
X146584041Y-99905814D01*
X146729503Y-99889498D01*
X146788017Y-99877060D01*
X146846695Y-99865442D01*
X146855498Y-99862717D01*
X146995021Y-99818458D01*
X147050005Y-99794891D01*
X147105309Y-99772097D01*
X147113410Y-99767716D01*
X147113414Y-99767714D01*
X147113417Y-99767712D01*
X147241684Y-99697196D01*
X147291029Y-99663409D01*
X147340861Y-99630301D01*
X147347962Y-99624427D01*
X147460092Y-99530340D01*
X147501957Y-99487589D01*
X147544397Y-99445444D01*
X147550221Y-99438303D01*
X147641940Y-99324226D01*
X147674694Y-99274172D01*
X147708140Y-99224586D01*
X147712466Y-99216449D01*
X147780281Y-99086733D01*
X147802675Y-99031306D01*
X147825873Y-98976120D01*
X147828536Y-98967298D01*
X147869863Y-98826879D01*
X147881077Y-98768093D01*
X147893099Y-98709528D01*
X147893998Y-98700357D01*
X147907265Y-98554585D01*
X147906848Y-98494802D01*
X147907266Y-98434943D01*
X147906366Y-98425772D01*
X147891065Y-98280200D01*
X147879039Y-98221617D01*
X147867829Y-98162848D01*
X147865165Y-98154026D01*
X147821881Y-98014197D01*
X147798706Y-97959067D01*
X147776292Y-97903588D01*
X147771965Y-97895451D01*
X147702346Y-97766694D01*
X147668919Y-97717137D01*
X147636142Y-97667047D01*
X147630317Y-97659906D01*
X147537015Y-97547123D01*
X147494598Y-97505001D01*
X147452716Y-97462232D01*
X147445615Y-97456359D01*
X147332184Y-97363846D01*
X147282375Y-97330754D01*
X147233003Y-97296947D01*
X147224897Y-97292564D01*
X147095655Y-97223845D01*
X147040362Y-97201055D01*
X146985364Y-97177483D01*
X146976560Y-97174758D01*
X146836434Y-97132452D01*
X146777768Y-97120836D01*
X146719247Y-97108397D01*
X146710083Y-97107434D01*
X146564406Y-97093150D01*
X146564402Y-97093150D01*
X146532419Y-97090000D01*
X142574273Y-97090000D01*
X142429047Y-96901000D01*
X141478000Y-96901000D01*
X141478000Y-96921000D01*
X141224000Y-96921000D01*
X141224000Y-96901000D01*
X141204000Y-96901000D01*
X141204000Y-96680881D01*
X158368724Y-96680881D01*
X158728912Y-97170548D01*
X159392882Y-97530849D01*
X160114385Y-97754694D01*
X160865695Y-97833480D01*
X161617938Y-97764178D01*
X162342208Y-97549452D01*
X163010670Y-97197555D01*
X163051088Y-97170548D01*
X163411276Y-96680881D01*
X160890000Y-94159605D01*
X158368724Y-96680881D01*
X141204000Y-96680881D01*
X141204000Y-96647000D01*
X141224000Y-96647000D01*
X141224000Y-95543269D01*
X141478000Y-95543269D01*
X141478000Y-96647000D01*
X142429047Y-96647000D01*
X142578045Y-96453091D01*
X142523466Y-96216760D01*
X142423830Y-95995618D01*
X142282966Y-95798163D01*
X142106287Y-95631983D01*
X141900583Y-95503465D01*
X141668609Y-95418538D01*
X141478000Y-95543269D01*
X141224000Y-95543269D01*
X141033391Y-95418538D01*
X140801417Y-95503465D01*
X140595713Y-95631983D01*
X140419034Y-95798163D01*
X140398905Y-95826378D01*
X140323502Y-95734498D01*
X140206000Y-95638067D01*
X140206000Y-93251926D01*
X143835000Y-93251926D01*
X143835000Y-93438074D01*
X143871316Y-93620646D01*
X143942552Y-93792625D01*
X144045971Y-93947402D01*
X144177598Y-94079029D01*
X144332375Y-94182448D01*
X144504354Y-94253684D01*
X144686926Y-94290000D01*
X144873074Y-94290000D01*
X145055646Y-94253684D01*
X145227625Y-94182448D01*
X145343534Y-94105000D01*
X148661466Y-94105000D01*
X148777375Y-94182448D01*
X148949354Y-94253684D01*
X149131926Y-94290000D01*
X149318074Y-94290000D01*
X149500646Y-94253684D01*
X149672625Y-94182448D01*
X149827402Y-94079029D01*
X149950736Y-93955695D01*
X157036520Y-93955695D01*
X157105822Y-94707938D01*
X157320548Y-95432208D01*
X157672445Y-96100670D01*
X157699452Y-96141088D01*
X158189119Y-96501276D01*
X160710395Y-93980000D01*
X158189119Y-91458724D01*
X157699452Y-91818912D01*
X157339151Y-92482882D01*
X157115306Y-93204385D01*
X157036520Y-93955695D01*
X149950736Y-93955695D01*
X149959029Y-93947402D01*
X150062448Y-93792625D01*
X150133684Y-93620646D01*
X150170000Y-93438074D01*
X150170000Y-93251926D01*
X150133684Y-93069354D01*
X150062448Y-92897375D01*
X149959029Y-92742598D01*
X149827402Y-92610971D01*
X149672625Y-92507552D01*
X149500646Y-92436316D01*
X149318074Y-92400000D01*
X149131926Y-92400000D01*
X148949354Y-92436316D01*
X148777375Y-92507552D01*
X148661466Y-92585000D01*
X145343534Y-92585000D01*
X145227625Y-92507552D01*
X145055646Y-92436316D01*
X144873074Y-92400000D01*
X144686926Y-92400000D01*
X144504354Y-92436316D01*
X144332375Y-92507552D01*
X144177598Y-92610971D01*
X144045971Y-92742598D01*
X143942552Y-92897375D01*
X143871316Y-93069354D01*
X143835000Y-93251926D01*
X140206000Y-93251926D01*
X140206000Y-91858322D01*
X140209676Y-91820999D01*
X140206000Y-91783676D01*
X140206000Y-91783667D01*
X140195003Y-91672014D01*
X140151546Y-91528753D01*
X140080974Y-91396724D01*
X139986001Y-91280999D01*
X139956997Y-91257196D01*
X139859801Y-91160000D01*
X158456345Y-91160000D01*
X158368724Y-91279119D01*
X160890000Y-93800395D01*
X163411276Y-91279119D01*
X163323655Y-91160000D01*
X163840001Y-91160000D01*
X163840001Y-91641971D01*
X163590881Y-91458724D01*
X161069605Y-93980000D01*
X163590881Y-96501276D01*
X163840001Y-96318029D01*
X163840000Y-119581970D01*
X163590881Y-119398724D01*
X161069605Y-121920000D01*
X163590881Y-124441276D01*
X163840000Y-124258030D01*
X163840000Y-124840000D01*
X163250097Y-124840000D01*
X163411276Y-124620881D01*
X160890000Y-122099605D01*
X158368724Y-124620881D01*
X158529903Y-124840000D01*
X66495097Y-124840000D01*
X66656276Y-124620881D01*
X64135000Y-122099605D01*
X61613724Y-124620881D01*
X61774903Y-124840000D01*
X50160000Y-124840000D01*
X50160000Y-122156890D01*
X55583524Y-122156890D01*
X55675648Y-122419858D01*
X55822504Y-122671193D01*
X56015571Y-122889049D01*
X56247430Y-123065053D01*
X56509170Y-123192442D01*
X56790733Y-123266320D01*
X57023000Y-123126165D01*
X57023000Y-121927000D01*
X57277000Y-121927000D01*
X57277000Y-123126165D01*
X57509267Y-123266320D01*
X57790830Y-123192442D01*
X58052570Y-123065053D01*
X58284429Y-122889049D01*
X58477496Y-122671193D01*
X58624352Y-122419858D01*
X58716476Y-122156890D01*
X58595155Y-121927000D01*
X57277000Y-121927000D01*
X57023000Y-121927000D01*
X55704845Y-121927000D01*
X55583524Y-122156890D01*
X50160000Y-122156890D01*
X50160000Y-121895695D01*
X60281520Y-121895695D01*
X60350822Y-122647938D01*
X60565548Y-123372208D01*
X60917445Y-124040670D01*
X60944452Y-124081088D01*
X61434119Y-124441276D01*
X63955395Y-121920000D01*
X64314605Y-121920000D01*
X66835881Y-124441276D01*
X67325548Y-124081088D01*
X67685849Y-123417118D01*
X67909694Y-122695615D01*
X67988480Y-121944305D01*
X67932730Y-121339161D01*
X67977598Y-121384029D01*
X68132375Y-121487448D01*
X68304354Y-121558684D01*
X68486926Y-121595000D01*
X68673074Y-121595000D01*
X68855646Y-121558684D01*
X69027625Y-121487448D01*
X69143534Y-121410000D01*
X69921466Y-121410000D01*
X70037375Y-121487448D01*
X70209354Y-121558684D01*
X70391926Y-121595000D01*
X70578074Y-121595000D01*
X70760646Y-121558684D01*
X70932625Y-121487448D01*
X71048534Y-121410000D01*
X72461466Y-121410000D01*
X72577375Y-121487448D01*
X72749354Y-121558684D01*
X72931926Y-121595000D01*
X73118074Y-121595000D01*
X73300646Y-121558684D01*
X73472625Y-121487448D01*
X73588534Y-121410000D01*
X75001466Y-121410000D01*
X75117375Y-121487448D01*
X75289354Y-121558684D01*
X75471926Y-121595000D01*
X75658074Y-121595000D01*
X75840646Y-121558684D01*
X76012625Y-121487448D01*
X76128534Y-121410000D01*
X77541466Y-121410000D01*
X77657375Y-121487448D01*
X77829354Y-121558684D01*
X78011926Y-121595000D01*
X78198074Y-121595000D01*
X78380646Y-121558684D01*
X78552625Y-121487448D01*
X78668534Y-121410000D01*
X80081466Y-121410000D01*
X80197375Y-121487448D01*
X80369354Y-121558684D01*
X80551926Y-121595000D01*
X80738074Y-121595000D01*
X80920646Y-121558684D01*
X81092625Y-121487448D01*
X81208534Y-121410000D01*
X82621466Y-121410000D01*
X82737375Y-121487448D01*
X82909354Y-121558684D01*
X83091926Y-121595000D01*
X83278074Y-121595000D01*
X83460646Y-121558684D01*
X83632625Y-121487448D01*
X83748534Y-121410000D01*
X85161466Y-121410000D01*
X85277375Y-121487448D01*
X85449354Y-121558684D01*
X85631926Y-121595000D01*
X85818074Y-121595000D01*
X86000646Y-121558684D01*
X86172625Y-121487448D01*
X86288534Y-121410000D01*
X87701466Y-121410000D01*
X87817375Y-121487448D01*
X87989354Y-121558684D01*
X88171926Y-121595000D01*
X88358074Y-121595000D01*
X88540646Y-121558684D01*
X88712625Y-121487448D01*
X88828534Y-121410000D01*
X90241466Y-121410000D01*
X90357375Y-121487448D01*
X90529354Y-121558684D01*
X90711926Y-121595000D01*
X90898074Y-121595000D01*
X91080646Y-121558684D01*
X91252625Y-121487448D01*
X91407402Y-121384029D01*
X91539029Y-121252402D01*
X91642448Y-121097625D01*
X91713684Y-120925646D01*
X91750000Y-120743074D01*
X91750000Y-120556926D01*
X91713684Y-120374354D01*
X91642448Y-120202375D01*
X91539029Y-120047598D01*
X91407402Y-119915971D01*
X91252625Y-119812552D01*
X91080646Y-119741316D01*
X90898074Y-119705000D01*
X90711926Y-119705000D01*
X90529354Y-119741316D01*
X90357375Y-119812552D01*
X90241466Y-119890000D01*
X88828534Y-119890000D01*
X88712625Y-119812552D01*
X88540646Y-119741316D01*
X88358074Y-119705000D01*
X88171926Y-119705000D01*
X87989354Y-119741316D01*
X87817375Y-119812552D01*
X87701466Y-119890000D01*
X86288534Y-119890000D01*
X86172625Y-119812552D01*
X86000646Y-119741316D01*
X85818074Y-119705000D01*
X85631926Y-119705000D01*
X85449354Y-119741316D01*
X85277375Y-119812552D01*
X85161466Y-119890000D01*
X83748534Y-119890000D01*
X83632625Y-119812552D01*
X83460646Y-119741316D01*
X83278074Y-119705000D01*
X83091926Y-119705000D01*
X82909354Y-119741316D01*
X82737375Y-119812552D01*
X82621466Y-119890000D01*
X81208534Y-119890000D01*
X81092625Y-119812552D01*
X80920646Y-119741316D01*
X80738074Y-119705000D01*
X80551926Y-119705000D01*
X80369354Y-119741316D01*
X80197375Y-119812552D01*
X80081466Y-119890000D01*
X78668534Y-119890000D01*
X78552625Y-119812552D01*
X78380646Y-119741316D01*
X78198074Y-119705000D01*
X78011926Y-119705000D01*
X77829354Y-119741316D01*
X77657375Y-119812552D01*
X77541466Y-119890000D01*
X76128534Y-119890000D01*
X76012625Y-119812552D01*
X75840646Y-119741316D01*
X75658074Y-119705000D01*
X75471926Y-119705000D01*
X75289354Y-119741316D01*
X75117375Y-119812552D01*
X75001466Y-119890000D01*
X73588534Y-119890000D01*
X73472625Y-119812552D01*
X73300646Y-119741316D01*
X73118074Y-119705000D01*
X72931926Y-119705000D01*
X72749354Y-119741316D01*
X72577375Y-119812552D01*
X72461466Y-119890000D01*
X71048534Y-119890000D01*
X70932625Y-119812552D01*
X70760646Y-119741316D01*
X70578074Y-119705000D01*
X70391926Y-119705000D01*
X70209354Y-119741316D01*
X70037375Y-119812552D01*
X69921466Y-119890000D01*
X69143534Y-119890000D01*
X69027625Y-119812552D01*
X68855646Y-119741316D01*
X68673074Y-119705000D01*
X68486926Y-119705000D01*
X68304354Y-119741316D01*
X68132375Y-119812552D01*
X67977598Y-119915971D01*
X67845971Y-120047598D01*
X67742552Y-120202375D01*
X67671316Y-120374354D01*
X67666914Y-120396485D01*
X67352555Y-119799330D01*
X67325548Y-119758912D01*
X66835881Y-119398724D01*
X64314605Y-121920000D01*
X63955395Y-121920000D01*
X61434119Y-119398724D01*
X60944452Y-119758912D01*
X60584151Y-120422882D01*
X60360306Y-121144385D01*
X60281520Y-121895695D01*
X50160000Y-121895695D01*
X50160000Y-116800000D01*
X55532815Y-116800000D01*
X55561487Y-117091111D01*
X55646401Y-117371034D01*
X55784294Y-117629014D01*
X55969866Y-117855134D01*
X56195986Y-118040706D01*
X56213374Y-118050000D01*
X56195986Y-118059294D01*
X55969866Y-118244866D01*
X55784294Y-118470986D01*
X55646401Y-118728966D01*
X55561487Y-119008889D01*
X55532815Y-119300000D01*
X55561487Y-119591111D01*
X55646401Y-119871034D01*
X55784294Y-120129014D01*
X55969866Y-120355134D01*
X56195986Y-120540706D01*
X56221722Y-120554462D01*
X56015571Y-120710951D01*
X55822504Y-120928807D01*
X55675648Y-121180142D01*
X55583524Y-121443110D01*
X55704845Y-121673000D01*
X57023000Y-121673000D01*
X57023000Y-121653000D01*
X57277000Y-121653000D01*
X57277000Y-121673000D01*
X58595155Y-121673000D01*
X58716476Y-121443110D01*
X58624352Y-121180142D01*
X58477496Y-120928807D01*
X58284429Y-120710951D01*
X58078278Y-120554462D01*
X58104014Y-120540706D01*
X58330134Y-120355134D01*
X58515706Y-120129014D01*
X58653599Y-119871034D01*
X58738513Y-119591111D01*
X58767185Y-119300000D01*
X58759219Y-119219119D01*
X61613724Y-119219119D01*
X64135000Y-121740395D01*
X66656276Y-119219119D01*
X66296088Y-118729452D01*
X65632118Y-118369151D01*
X64910615Y-118145306D01*
X64159305Y-118066520D01*
X63407062Y-118135822D01*
X62682792Y-118350548D01*
X62014330Y-118702445D01*
X61973912Y-118729452D01*
X61613724Y-119219119D01*
X58759219Y-119219119D01*
X58738513Y-119008889D01*
X58653599Y-118728966D01*
X58515706Y-118470986D01*
X58330134Y-118244866D01*
X58104014Y-118059294D01*
X58086626Y-118050000D01*
X58104014Y-118040706D01*
X58330134Y-117855134D01*
X58515706Y-117629014D01*
X58653599Y-117371034D01*
X58738513Y-117091111D01*
X58767185Y-116800000D01*
X58738513Y-116508889D01*
X58653599Y-116228966D01*
X58515706Y-115970986D01*
X58330134Y-115744866D01*
X58266663Y-115692777D01*
X58368386Y-115638405D01*
X58502962Y-115527962D01*
X58613405Y-115393386D01*
X58695472Y-115239850D01*
X58746008Y-115073254D01*
X58763072Y-114900000D01*
X58763072Y-113700000D01*
X58746008Y-113526746D01*
X58695472Y-113360150D01*
X58613405Y-113206614D01*
X58502962Y-113072038D01*
X58368386Y-112961595D01*
X58214850Y-112879528D01*
X58048254Y-112828992D01*
X57875000Y-112811928D01*
X56425000Y-112811928D01*
X56251746Y-112828992D01*
X56085150Y-112879528D01*
X55931614Y-112961595D01*
X55797038Y-113072038D01*
X55686595Y-113206614D01*
X55604528Y-113360150D01*
X55553992Y-113526746D01*
X55536928Y-113700000D01*
X55536928Y-114900000D01*
X55553992Y-115073254D01*
X55604528Y-115239850D01*
X55686595Y-115393386D01*
X55797038Y-115527962D01*
X55931614Y-115638405D01*
X56033337Y-115692777D01*
X55969866Y-115744866D01*
X55784294Y-115970986D01*
X55646401Y-116228966D01*
X55561487Y-116508889D01*
X55532815Y-116800000D01*
X50160000Y-116800000D01*
X50160000Y-104336890D01*
X55583524Y-104336890D01*
X55675648Y-104599858D01*
X55822504Y-104851193D01*
X56015571Y-105069049D01*
X56247430Y-105245053D01*
X56509170Y-105372442D01*
X56790733Y-105446320D01*
X57023000Y-105306165D01*
X57023000Y-104107000D01*
X57277000Y-104107000D01*
X57277000Y-105306165D01*
X57509267Y-105446320D01*
X57790830Y-105372442D01*
X58052570Y-105245053D01*
X58284429Y-105069049D01*
X58477496Y-104851193D01*
X58624352Y-104599858D01*
X58716476Y-104336890D01*
X58595155Y-104107000D01*
X57277000Y-104107000D01*
X57023000Y-104107000D01*
X55704845Y-104107000D01*
X55583524Y-104336890D01*
X50160000Y-104336890D01*
X50160000Y-96480000D01*
X55532815Y-96480000D01*
X55561487Y-96771111D01*
X55646401Y-97051034D01*
X55784294Y-97309014D01*
X55969866Y-97535134D01*
X56195986Y-97720706D01*
X56213374Y-97730000D01*
X56195986Y-97739294D01*
X55969866Y-97924866D01*
X55784294Y-98150986D01*
X55646401Y-98408966D01*
X55561487Y-98688889D01*
X55532815Y-98980000D01*
X55561487Y-99271111D01*
X55646401Y-99551034D01*
X55784294Y-99809014D01*
X55969866Y-100035134D01*
X56195986Y-100220706D01*
X56213374Y-100230000D01*
X56195986Y-100239294D01*
X55969866Y-100424866D01*
X55784294Y-100650986D01*
X55646401Y-100908966D01*
X55561487Y-101188889D01*
X55532815Y-101480000D01*
X55561487Y-101771111D01*
X55646401Y-102051034D01*
X55784294Y-102309014D01*
X55969866Y-102535134D01*
X56195986Y-102720706D01*
X56221722Y-102734462D01*
X56015571Y-102890951D01*
X55822504Y-103108807D01*
X55675648Y-103360142D01*
X55583524Y-103623110D01*
X55704845Y-103853000D01*
X57023000Y-103853000D01*
X57023000Y-103833000D01*
X57277000Y-103833000D01*
X57277000Y-103853000D01*
X58595155Y-103853000D01*
X58716476Y-103623110D01*
X58624352Y-103360142D01*
X58477496Y-103108807D01*
X58284429Y-102890951D01*
X58078278Y-102734462D01*
X58104014Y-102720706D01*
X58330134Y-102535134D01*
X58515706Y-102309014D01*
X58653599Y-102051034D01*
X58738513Y-101771111D01*
X58767185Y-101480000D01*
X58738513Y-101188889D01*
X58653599Y-100908966D01*
X58515706Y-100650986D01*
X58330134Y-100424866D01*
X58104014Y-100239294D01*
X58086626Y-100230000D01*
X58104014Y-100220706D01*
X58330134Y-100035134D01*
X58515706Y-99809014D01*
X58653599Y-99551034D01*
X58738513Y-99271111D01*
X58767185Y-98980000D01*
X58738513Y-98688889D01*
X58653599Y-98408966D01*
X58515706Y-98150986D01*
X58330134Y-97924866D01*
X58104014Y-97739294D01*
X58086626Y-97730000D01*
X58104014Y-97720706D01*
X58330134Y-97535134D01*
X58515706Y-97309014D01*
X58653599Y-97051034D01*
X58738513Y-96771111D01*
X58767185Y-96480000D01*
X58738513Y-96188889D01*
X58653599Y-95908966D01*
X58515706Y-95650986D01*
X58330134Y-95424866D01*
X58266663Y-95372777D01*
X58368386Y-95318405D01*
X58502962Y-95207962D01*
X58613405Y-95073386D01*
X58695472Y-94919850D01*
X58746008Y-94753254D01*
X58763072Y-94580000D01*
X58763072Y-93955695D01*
X60281520Y-93955695D01*
X60350822Y-94707938D01*
X60565548Y-95432208D01*
X60917445Y-96100670D01*
X60944452Y-96141088D01*
X61434119Y-96501276D01*
X63955395Y-93980000D01*
X61434119Y-91458724D01*
X60944452Y-91818912D01*
X60584151Y-92482882D01*
X60360306Y-93204385D01*
X60281520Y-93955695D01*
X58763072Y-93955695D01*
X58763072Y-93380000D01*
X58746008Y-93206746D01*
X58695472Y-93040150D01*
X58613405Y-92886614D01*
X58502962Y-92752038D01*
X58368386Y-92641595D01*
X58214850Y-92559528D01*
X58048254Y-92508992D01*
X57875000Y-92491928D01*
X56425000Y-92491928D01*
X56251746Y-92508992D01*
X56085150Y-92559528D01*
X55931614Y-92641595D01*
X55797038Y-92752038D01*
X55686595Y-92886614D01*
X55604528Y-93040150D01*
X55553992Y-93206746D01*
X55536928Y-93380000D01*
X55536928Y-94580000D01*
X55553992Y-94753254D01*
X55604528Y-94919850D01*
X55686595Y-95073386D01*
X55797038Y-95207962D01*
X55931614Y-95318405D01*
X56033337Y-95372777D01*
X55969866Y-95424866D01*
X55784294Y-95650986D01*
X55646401Y-95908966D01*
X55561487Y-96188889D01*
X55532815Y-96480000D01*
X50160000Y-96480000D01*
X50160000Y-91160000D01*
X61701345Y-91160000D01*
X61613724Y-91279119D01*
G36*
X144506316Y-106955646D02*
G01*
X144577552Y-107127625D01*
X144655000Y-107243534D01*
X144655001Y-111196465D01*
X144577552Y-111312375D01*
X144506316Y-111484354D01*
X144470000Y-111666926D01*
X144470000Y-111853074D01*
X144506316Y-112035646D01*
X144528830Y-112090000D01*
X142575945Y-112090000D01*
X142578045Y-112080909D01*
X142429047Y-111887000D01*
X141478000Y-111887000D01*
X141478000Y-111907000D01*
X141224000Y-111907000D01*
X141224000Y-111887000D01*
X141204000Y-111887000D01*
X141204000Y-111633000D01*
X141224000Y-111633000D01*
X141224000Y-110529269D01*
X141478000Y-110529269D01*
X141478000Y-111633000D01*
X142429047Y-111633000D01*
X142578045Y-111439091D01*
X142523466Y-111202760D01*
X142423830Y-110981618D01*
X142282966Y-110784163D01*
X142106287Y-110617983D01*
X141900583Y-110489465D01*
X141668609Y-110404538D01*
X141478000Y-110529269D01*
X141224000Y-110529269D01*
X141033391Y-110404538D01*
X140801417Y-110489465D01*
X140595713Y-110617983D01*
X140419034Y-110784163D01*
X140398905Y-110812378D01*
X140323502Y-110720498D01*
X140196720Y-110616451D01*
X140195003Y-110599014D01*
X140151546Y-110455753D01*
X140080974Y-110323724D01*
X139986001Y-110207999D01*
X139957004Y-110184202D01*
X136577801Y-106805000D01*
X144476351Y-106805000D01*
X144506316Y-106955646D01*
G37*
X144506316Y-106955646D02*
X144577552Y-107127625D01*
X144655000Y-107243534D01*
X144655001Y-111196465D01*
X144577552Y-111312375D01*
X144506316Y-111484354D01*
X144470000Y-111666926D01*
X144470000Y-111853074D01*
X144506316Y-112035646D01*
X144528830Y-112090000D01*
X142575945Y-112090000D01*
X142578045Y-112080909D01*
X142429047Y-111887000D01*
X141478000Y-111887000D01*
X141478000Y-111907000D01*
X141224000Y-111907000D01*
X141224000Y-111887000D01*
X141204000Y-111887000D01*
X141204000Y-111633000D01*
X141224000Y-111633000D01*
X141224000Y-110529269D01*
X141478000Y-110529269D01*
X141478000Y-111633000D01*
X142429047Y-111633000D01*
X142578045Y-111439091D01*
X142523466Y-111202760D01*
X142423830Y-110981618D01*
X142282966Y-110784163D01*
X142106287Y-110617983D01*
X141900583Y-110489465D01*
X141668609Y-110404538D01*
X141478000Y-110529269D01*
X141224000Y-110529269D01*
X141033391Y-110404538D01*
X140801417Y-110489465D01*
X140595713Y-110617983D01*
X140419034Y-110784163D01*
X140398905Y-110812378D01*
X140323502Y-110720498D01*
X140196720Y-110616451D01*
X140195003Y-110599014D01*
X140151546Y-110455753D01*
X140080974Y-110323724D01*
X139986001Y-110207999D01*
X139957004Y-110184202D01*
X136577801Y-106805000D01*
X144476351Y-106805000D01*
X144506316Y-106955646D01*
G36*
X114808000Y-111633000D02*
G01*
X114828000Y-111633000D01*
X114828000Y-111887000D01*
X114808000Y-111887000D01*
X114808000Y-111907000D01*
X114554000Y-111907000D01*
X114554000Y-111887000D01*
X114534000Y-111887000D01*
X114534000Y-111633000D01*
X114554000Y-111633000D01*
X114554000Y-111613000D01*
X114808000Y-111613000D01*
X114808000Y-111633000D01*
G37*
X114808000Y-111633000D02*
X114828000Y-111633000D01*
X114828000Y-111887000D01*
X114808000Y-111887000D01*
X114808000Y-111907000D01*
X114554000Y-111907000D01*
X114554000Y-111887000D01*
X114534000Y-111887000D01*
X114534000Y-111633000D01*
X114554000Y-111633000D01*
X114554000Y-111613000D01*
X114808000Y-111613000D01*
X114808000Y-111633000D01*
G36*
X118618000Y-111633000D02*
G01*
X118638000Y-111633000D01*
X118638000Y-111887000D01*
X118618000Y-111887000D01*
X118618000Y-111907000D01*
X118364000Y-111907000D01*
X118364000Y-111887000D01*
X118344000Y-111887000D01*
X118344000Y-111633000D01*
X118364000Y-111633000D01*
X118364000Y-111613000D01*
X118618000Y-111613000D01*
X118618000Y-111633000D01*
G37*
X118618000Y-111633000D02*
X118638000Y-111633000D01*
X118638000Y-111887000D01*
X118618000Y-111887000D01*
X118618000Y-111907000D01*
X118364000Y-111907000D01*
X118364000Y-111887000D01*
X118344000Y-111887000D01*
X118344000Y-111633000D01*
X118364000Y-111633000D01*
X118364000Y-111613000D01*
X118618000Y-111613000D01*
X118618000Y-111633000D01*
G36*
X122909428Y-110526230D02*
G01*
X122850583Y-110489465D01*
X122618609Y-110404538D01*
X122428000Y-110529269D01*
X122428000Y-111633000D01*
X122448000Y-111633000D01*
X122448000Y-111887000D01*
X122428000Y-111887000D01*
X122428000Y-111907000D01*
X122174000Y-111907000D01*
X122174000Y-111887000D01*
X122154000Y-111887000D01*
X122154000Y-111633000D01*
X122174000Y-111633000D01*
X122174000Y-110529269D01*
X121983391Y-110404538D01*
X121751417Y-110489465D01*
X121545713Y-110617983D01*
X121369034Y-110784163D01*
X121348905Y-110812378D01*
X121273502Y-110720498D01*
X121146720Y-110616451D01*
X121145003Y-110599014D01*
X121137856Y-110575452D01*
X121133873Y-110551162D01*
X121116176Y-110503984D01*
X121101546Y-110455753D01*
X121089941Y-110434042D01*
X121081295Y-110410992D01*
X121054727Y-110368162D01*
X121030974Y-110323724D01*
X121015358Y-110304696D01*
X121002380Y-110283774D01*
X120967969Y-110246952D01*
X120936001Y-110207999D01*
X120907003Y-110184201D01*
X120702802Y-109980000D01*
X122363199Y-109980000D01*
X122909428Y-110526230D01*
G37*
X122909428Y-110526230D02*
X122850583Y-110489465D01*
X122618609Y-110404538D01*
X122428000Y-110529269D01*
X122428000Y-111633000D01*
X122448000Y-111633000D01*
X122448000Y-111887000D01*
X122428000Y-111887000D01*
X122428000Y-111907000D01*
X122174000Y-111907000D01*
X122174000Y-111887000D01*
X122154000Y-111887000D01*
X122154000Y-111633000D01*
X122174000Y-111633000D01*
X122174000Y-110529269D01*
X121983391Y-110404538D01*
X121751417Y-110489465D01*
X121545713Y-110617983D01*
X121369034Y-110784163D01*
X121348905Y-110812378D01*
X121273502Y-110720498D01*
X121146720Y-110616451D01*
X121145003Y-110599014D01*
X121137856Y-110575452D01*
X121133873Y-110551162D01*
X121116176Y-110503984D01*
X121101546Y-110455753D01*
X121089941Y-110434042D01*
X121081295Y-110410992D01*
X121054727Y-110368162D01*
X121030974Y-110323724D01*
X121015358Y-110304696D01*
X121002380Y-110283774D01*
X120967969Y-110246952D01*
X120936001Y-110207999D01*
X120907003Y-110184201D01*
X120702802Y-109980000D01*
X122363199Y-109980000D01*
X122909428Y-110526230D01*
G36*
X126719428Y-110526230D02*
G01*
X126660583Y-110489465D01*
X126428609Y-110404538D01*
X126238000Y-110529269D01*
X126238000Y-111633000D01*
X126258000Y-111633000D01*
X126258000Y-111887000D01*
X126238000Y-111887000D01*
X126238000Y-111907000D01*
X125984000Y-111907000D01*
X125984000Y-111887000D01*
X125964000Y-111887000D01*
X125964000Y-111633000D01*
X125984000Y-111633000D01*
X125984000Y-110529269D01*
X125793391Y-110404538D01*
X125561417Y-110489465D01*
X125355713Y-110617983D01*
X125179034Y-110784163D01*
X125158905Y-110812378D01*
X125083502Y-110720498D01*
X124956720Y-110616451D01*
X124955003Y-110599014D01*
X124911546Y-110455753D01*
X124840974Y-110323724D01*
X124746001Y-110207999D01*
X124717004Y-110184202D01*
X123877801Y-109345000D01*
X125538199Y-109345000D01*
X126719428Y-110526230D01*
G37*
X126719428Y-110526230D02*
X126660583Y-110489465D01*
X126428609Y-110404538D01*
X126238000Y-110529269D01*
X126238000Y-111633000D01*
X126258000Y-111633000D01*
X126258000Y-111887000D01*
X126238000Y-111887000D01*
X126238000Y-111907000D01*
X125984000Y-111907000D01*
X125984000Y-111887000D01*
X125964000Y-111887000D01*
X125964000Y-111633000D01*
X125984000Y-111633000D01*
X125984000Y-110529269D01*
X125793391Y-110404538D01*
X125561417Y-110489465D01*
X125355713Y-110617983D01*
X125179034Y-110784163D01*
X125158905Y-110812378D01*
X125083502Y-110720498D01*
X124956720Y-110616451D01*
X124955003Y-110599014D01*
X124911546Y-110455753D01*
X124840974Y-110323724D01*
X124746001Y-110207999D01*
X124717004Y-110184202D01*
X123877801Y-109345000D01*
X125538199Y-109345000D01*
X126719428Y-110526230D01*
G36*
X130529428Y-110526230D02*
G01*
X130470583Y-110489465D01*
X130238609Y-110404538D01*
X130048000Y-110529269D01*
X130048000Y-111633000D01*
X130068000Y-111633000D01*
X130068000Y-111887000D01*
X130048000Y-111887000D01*
X130048000Y-111907000D01*
X129794000Y-111907000D01*
X129794000Y-111887000D01*
X129774000Y-111887000D01*
X129774000Y-111633000D01*
X129794000Y-111633000D01*
X129794000Y-110529269D01*
X129603391Y-110404538D01*
X129371417Y-110489465D01*
X129165713Y-110617983D01*
X128989034Y-110784163D01*
X128968905Y-110812378D01*
X128893502Y-110720498D01*
X128766720Y-110616451D01*
X128765003Y-110599014D01*
X128721546Y-110455753D01*
X128719267Y-110451489D01*
X128650974Y-110323723D01*
X128579799Y-110236997D01*
X128556001Y-110207999D01*
X128527004Y-110184202D01*
X127052801Y-108710000D01*
X128713199Y-108710000D01*
X130529428Y-110526230D01*
G37*
X130529428Y-110526230D02*
X130470583Y-110489465D01*
X130238609Y-110404538D01*
X130048000Y-110529269D01*
X130048000Y-111633000D01*
X130068000Y-111633000D01*
X130068000Y-111887000D01*
X130048000Y-111887000D01*
X130048000Y-111907000D01*
X129794000Y-111907000D01*
X129794000Y-111887000D01*
X129774000Y-111887000D01*
X129774000Y-111633000D01*
X129794000Y-111633000D01*
X129794000Y-110529269D01*
X129603391Y-110404538D01*
X129371417Y-110489465D01*
X129165713Y-110617983D01*
X128989034Y-110784163D01*
X128968905Y-110812378D01*
X128893502Y-110720498D01*
X128766720Y-110616451D01*
X128765003Y-110599014D01*
X128721546Y-110455753D01*
X128719267Y-110451489D01*
X128650974Y-110323723D01*
X128579799Y-110236997D01*
X128556001Y-110207999D01*
X128527004Y-110184202D01*
X127052801Y-108710000D01*
X128713199Y-108710000D01*
X130529428Y-110526230D01*
G36*
X138149428Y-110526229D02*
G01*
X138090583Y-110489465D01*
X137858609Y-110404538D01*
X137668000Y-110529269D01*
X137668000Y-111633000D01*
X137688000Y-111633000D01*
X137688000Y-111887000D01*
X137668000Y-111887000D01*
X137668000Y-111907000D01*
X137414000Y-111907000D01*
X137414000Y-111887000D01*
X137394000Y-111887000D01*
X137394000Y-111633000D01*
X137414000Y-111633000D01*
X137414000Y-110529269D01*
X137223391Y-110404538D01*
X136991417Y-110489465D01*
X136785713Y-110617983D01*
X136609034Y-110784163D01*
X136588905Y-110812378D01*
X136513502Y-110720498D01*
X136386720Y-110616451D01*
X136385003Y-110599014D01*
X136341546Y-110455753D01*
X136270974Y-110323724D01*
X136176001Y-110207999D01*
X136147004Y-110184202D01*
X133402801Y-107440000D01*
X135063199Y-107440000D01*
X138149428Y-110526229D01*
G37*
X138149428Y-110526229D02*
X138090583Y-110489465D01*
X137858609Y-110404538D01*
X137668000Y-110529269D01*
X137668000Y-111633000D01*
X137688000Y-111633000D01*
X137688000Y-111887000D01*
X137668000Y-111887000D01*
X137668000Y-111907000D01*
X137414000Y-111907000D01*
X137414000Y-111887000D01*
X137394000Y-111887000D01*
X137394000Y-111633000D01*
X137414000Y-111633000D01*
X137414000Y-110529269D01*
X137223391Y-110404538D01*
X136991417Y-110489465D01*
X136785713Y-110617983D01*
X136609034Y-110784163D01*
X136588905Y-110812378D01*
X136513502Y-110720498D01*
X136386720Y-110616451D01*
X136385003Y-110599014D01*
X136341546Y-110455753D01*
X136270974Y-110323724D01*
X136176001Y-110207999D01*
X136147004Y-110184202D01*
X133402801Y-107440000D01*
X135063199Y-107440000D01*
X138149428Y-110526229D01*
G36*
X134339428Y-110526230D02*
G01*
X134280583Y-110489465D01*
X134048609Y-110404538D01*
X133858000Y-110529269D01*
X133858000Y-111633000D01*
X133878000Y-111633000D01*
X133878000Y-111887000D01*
X133858000Y-111887000D01*
X133858000Y-111907000D01*
X133604000Y-111907000D01*
X133604000Y-111887000D01*
X133584000Y-111887000D01*
X133584000Y-111633000D01*
X133604000Y-111633000D01*
X133604000Y-110529269D01*
X133413391Y-110404538D01*
X133181417Y-110489465D01*
X132975713Y-110617983D01*
X132799034Y-110784163D01*
X132778905Y-110812378D01*
X132703502Y-110720498D01*
X132576720Y-110616451D01*
X132575003Y-110599014D01*
X132531546Y-110455753D01*
X132460974Y-110323724D01*
X132389799Y-110236997D01*
X132366001Y-110207999D01*
X132337004Y-110184202D01*
X130227801Y-108075000D01*
X131888199Y-108075000D01*
X134339428Y-110526230D01*
G37*
X134339428Y-110526230D02*
X134280583Y-110489465D01*
X134048609Y-110404538D01*
X133858000Y-110529269D01*
X133858000Y-111633000D01*
X133878000Y-111633000D01*
X133878000Y-111887000D01*
X133858000Y-111887000D01*
X133858000Y-111907000D01*
X133604000Y-111907000D01*
X133604000Y-111887000D01*
X133584000Y-111887000D01*
X133584000Y-111633000D01*
X133604000Y-111633000D01*
X133604000Y-110529269D01*
X133413391Y-110404538D01*
X133181417Y-110489465D01*
X132975713Y-110617983D01*
X132799034Y-110784163D01*
X132778905Y-110812378D01*
X132703502Y-110720498D01*
X132576720Y-110616451D01*
X132575003Y-110599014D01*
X132531546Y-110455753D01*
X132460974Y-110323724D01*
X132389799Y-110236997D01*
X132366001Y-110207999D01*
X132337004Y-110184202D01*
X130227801Y-108075000D01*
X131888199Y-108075000D01*
X134339428Y-110526230D01*
G36*
X109045411Y-96785213D02*
G01*
X109069210Y-96814212D01*
X109184935Y-96909185D01*
X109316964Y-96979757D01*
X109460225Y-97023214D01*
X109482271Y-97025385D01*
X109578973Y-97090000D01*
X107467581Y-97090000D01*
X107434857Y-97093223D01*
X107425124Y-97093223D01*
X107415959Y-97094186D01*
X107270497Y-97110502D01*
X107211976Y-97122941D01*
X107153305Y-97134558D01*
X107144502Y-97137283D01*
X107004980Y-97181542D01*
X106949997Y-97205108D01*
X106894691Y-97227903D01*
X106886585Y-97232286D01*
X106758316Y-97302804D01*
X106709036Y-97336547D01*
X106659139Y-97369698D01*
X106652039Y-97375573D01*
X106539908Y-97469660D01*
X106498060Y-97512394D01*
X106455603Y-97554556D01*
X106449779Y-97561697D01*
X106358061Y-97675773D01*
X106325313Y-97725819D01*
X106291860Y-97775414D01*
X106287534Y-97783551D01*
X106219719Y-97913268D01*
X106197331Y-97968680D01*
X106174127Y-98023880D01*
X106171464Y-98032702D01*
X106130137Y-98173121D01*
X106118920Y-98231921D01*
X106106901Y-98290473D01*
X106106002Y-98299644D01*
X106106001Y-98299649D01*
X106106001Y-98299655D01*
X106092735Y-98445415D01*
X106093152Y-98505198D01*
X106092734Y-98565057D01*
X106093634Y-98574228D01*
X106108935Y-98719800D01*
X106120954Y-98778352D01*
X106132171Y-98837152D01*
X106134835Y-98845974D01*
X106178119Y-98985803D01*
X106201294Y-99040933D01*
X106223708Y-99096412D01*
X106228035Y-99104548D01*
X106297653Y-99233306D01*
X106331098Y-99282890D01*
X106363858Y-99332953D01*
X106369683Y-99340094D01*
X106462985Y-99452877D01*
X106505421Y-99495018D01*
X106547284Y-99537767D01*
X106554384Y-99543641D01*
X106667816Y-99636154D01*
X106717625Y-99669246D01*
X106766997Y-99703053D01*
X106775104Y-99707436D01*
X106904345Y-99776155D01*
X106959626Y-99798940D01*
X107014636Y-99822517D01*
X107023439Y-99825242D01*
X107163566Y-99867548D01*
X107222232Y-99879164D01*
X107280753Y-99891603D01*
X107289918Y-99892566D01*
X107435594Y-99906850D01*
X107435598Y-99906850D01*
X107467581Y-99910000D01*
X111571839Y-99910000D01*
X111548955Y-100009091D01*
X111697953Y-100203000D01*
X112649000Y-100203000D01*
X112649000Y-100183000D01*
X112903000Y-100183000D01*
X112903000Y-100203000D01*
X112923000Y-100203000D01*
X112923000Y-100457000D01*
X112903000Y-100457000D01*
X112903000Y-100477000D01*
X112649000Y-100477000D01*
X112649000Y-100457000D01*
X111697953Y-100457000D01*
X111548955Y-100650909D01*
X111603534Y-100887240D01*
X111703170Y-101108382D01*
X111844034Y-101305837D01*
X112020713Y-101472017D01*
X112025488Y-101475000D01*
X111285770Y-101475000D01*
X111327448Y-101412625D01*
X111398684Y-101240646D01*
X111435000Y-101058074D01*
X111435000Y-100871926D01*
X111398684Y-100689354D01*
X111327448Y-100517375D01*
X111224029Y-100362598D01*
X111092402Y-100230971D01*
X110937625Y-100127552D01*
X110765646Y-100056316D01*
X110583074Y-100020000D01*
X110396926Y-100020000D01*
X110214354Y-100056316D01*
X110157176Y-100080000D01*
X107046579Y-100080000D01*
X105660000Y-98693422D01*
X105660000Y-96852824D01*
X105683684Y-96795646D01*
X105713649Y-96645000D01*
X108905198Y-96645000D01*
X109045411Y-96785213D01*
G37*
X109045411Y-96785213D02*
X109069210Y-96814212D01*
X109184935Y-96909185D01*
X109316964Y-96979757D01*
X109460225Y-97023214D01*
X109482271Y-97025385D01*
X109578973Y-97090000D01*
X107467581Y-97090000D01*
X107434857Y-97093223D01*
X107425124Y-97093223D01*
X107415959Y-97094186D01*
X107270497Y-97110502D01*
X107211976Y-97122941D01*
X107153305Y-97134558D01*
X107144502Y-97137283D01*
X107004980Y-97181542D01*
X106949997Y-97205108D01*
X106894691Y-97227903D01*
X106886585Y-97232286D01*
X106758316Y-97302804D01*
X106709036Y-97336547D01*
X106659139Y-97369698D01*
X106652039Y-97375573D01*
X106539908Y-97469660D01*
X106498060Y-97512394D01*
X106455603Y-97554556D01*
X106449779Y-97561697D01*
X106358061Y-97675773D01*
X106325313Y-97725819D01*
X106291860Y-97775414D01*
X106287534Y-97783551D01*
X106219719Y-97913268D01*
X106197331Y-97968680D01*
X106174127Y-98023880D01*
X106171464Y-98032702D01*
X106130137Y-98173121D01*
X106118920Y-98231921D01*
X106106901Y-98290473D01*
X106106002Y-98299644D01*
X106106001Y-98299649D01*
X106106001Y-98299655D01*
X106092735Y-98445415D01*
X106093152Y-98505198D01*
X106092734Y-98565057D01*
X106093634Y-98574228D01*
X106108935Y-98719800D01*
X106120954Y-98778352D01*
X106132171Y-98837152D01*
X106134835Y-98845974D01*
X106178119Y-98985803D01*
X106201294Y-99040933D01*
X106223708Y-99096412D01*
X106228035Y-99104548D01*
X106297653Y-99233306D01*
X106331098Y-99282890D01*
X106363858Y-99332953D01*
X106369683Y-99340094D01*
X106462985Y-99452877D01*
X106505421Y-99495018D01*
X106547284Y-99537767D01*
X106554384Y-99543641D01*
X106667816Y-99636154D01*
X106717625Y-99669246D01*
X106766997Y-99703053D01*
X106775104Y-99707436D01*
X106904345Y-99776155D01*
X106959626Y-99798940D01*
X107014636Y-99822517D01*
X107023439Y-99825242D01*
X107163566Y-99867548D01*
X107222232Y-99879164D01*
X107280753Y-99891603D01*
X107289918Y-99892566D01*
X107435594Y-99906850D01*
X107435598Y-99906850D01*
X107467581Y-99910000D01*
X111571839Y-99910000D01*
X111548955Y-100009091D01*
X111697953Y-100203000D01*
X112649000Y-100203000D01*
X112649000Y-100183000D01*
X112903000Y-100183000D01*
X112903000Y-100203000D01*
X112923000Y-100203000D01*
X112923000Y-100457000D01*
X112903000Y-100457000D01*
X112903000Y-100477000D01*
X112649000Y-100477000D01*
X112649000Y-100457000D01*
X111697953Y-100457000D01*
X111548955Y-100650909D01*
X111603534Y-100887240D01*
X111703170Y-101108382D01*
X111844034Y-101305837D01*
X112020713Y-101472017D01*
X112025488Y-101475000D01*
X111285770Y-101475000D01*
X111327448Y-101412625D01*
X111398684Y-101240646D01*
X111435000Y-101058074D01*
X111435000Y-100871926D01*
X111398684Y-100689354D01*
X111327448Y-100517375D01*
X111224029Y-100362598D01*
X111092402Y-100230971D01*
X110937625Y-100127552D01*
X110765646Y-100056316D01*
X110583074Y-100020000D01*
X110396926Y-100020000D01*
X110214354Y-100056316D01*
X110157176Y-100080000D01*
X107046579Y-100080000D01*
X105660000Y-98693422D01*
X105660000Y-96852824D01*
X105683684Y-96795646D01*
X105713649Y-96645000D01*
X108905198Y-96645000D01*
X109045411Y-96785213D01*
G36*
X103866316Y-96795646D02*
G01*
X103890000Y-96852825D01*
X103890001Y-98727174D01*
X103866316Y-98784354D01*
X103830000Y-98966926D01*
X103830000Y-99153074D01*
X103866316Y-99335646D01*
X103937552Y-99507625D01*
X104040971Y-99662402D01*
X104172598Y-99794029D01*
X104327375Y-99897448D01*
X104384554Y-99921132D01*
X105938421Y-101475000D01*
X105078649Y-101475000D01*
X105048684Y-101324354D01*
X104977448Y-101152375D01*
X104874029Y-100997598D01*
X104742402Y-100865971D01*
X104587625Y-100762552D01*
X104415646Y-100691316D01*
X104233074Y-100655000D01*
X104046926Y-100655000D01*
X103864354Y-100691316D01*
X103692375Y-100762552D01*
X103576466Y-100840000D01*
X102538649Y-100840000D01*
X102508684Y-100689354D01*
X102437448Y-100517375D01*
X102334029Y-100362598D01*
X102202402Y-100230971D01*
X102047625Y-100127552D01*
X101875646Y-100056316D01*
X101693074Y-100020000D01*
X101506926Y-100020000D01*
X101324354Y-100056316D01*
X101245566Y-100088951D01*
X101238684Y-100054354D01*
X101167448Y-99882375D01*
X101064029Y-99727598D01*
X100932402Y-99595971D01*
X100777625Y-99492552D01*
X100605646Y-99421316D01*
X100423074Y-99385000D01*
X100367069Y-99385000D01*
X99539057Y-98719983D01*
X99484276Y-98675026D01*
X99447633Y-98655440D01*
X99412859Y-98632732D01*
X99381791Y-98620246D01*
X99352247Y-98604454D01*
X99312490Y-98592394D01*
X99273950Y-98576905D01*
X99241036Y-98570719D01*
X99208986Y-98560997D01*
X99167639Y-98556925D01*
X99126820Y-98549253D01*
X99056090Y-98550000D01*
X97074109Y-98550000D01*
X97044144Y-98399354D01*
X96972908Y-98227375D01*
X96869489Y-98072598D01*
X96737862Y-97940971D01*
X96583085Y-97837552D01*
X96411106Y-97766316D01*
X96301702Y-97744554D01*
X96300812Y-97735518D01*
X96264502Y-97615820D01*
X96205537Y-97505506D01*
X96153793Y-97442455D01*
X96158684Y-97430646D01*
X96195000Y-97248074D01*
X96195000Y-97061926D01*
X96158684Y-96879354D01*
X96087448Y-96707375D01*
X96045770Y-96645000D01*
X103836351Y-96645000D01*
X103866316Y-96795646D01*
G37*
X103866316Y-96795646D02*
X103890000Y-96852825D01*
X103890001Y-98727174D01*
X103866316Y-98784354D01*
X103830000Y-98966926D01*
X103830000Y-99153074D01*
X103866316Y-99335646D01*
X103937552Y-99507625D01*
X104040971Y-99662402D01*
X104172598Y-99794029D01*
X104327375Y-99897448D01*
X104384554Y-99921132D01*
X105938421Y-101475000D01*
X105078649Y-101475000D01*
X105048684Y-101324354D01*
X104977448Y-101152375D01*
X104874029Y-100997598D01*
X104742402Y-100865971D01*
X104587625Y-100762552D01*
X104415646Y-100691316D01*
X104233074Y-100655000D01*
X104046926Y-100655000D01*
X103864354Y-100691316D01*
X103692375Y-100762552D01*
X103576466Y-100840000D01*
X102538649Y-100840000D01*
X102508684Y-100689354D01*
X102437448Y-100517375D01*
X102334029Y-100362598D01*
X102202402Y-100230971D01*
X102047625Y-100127552D01*
X101875646Y-100056316D01*
X101693074Y-100020000D01*
X101506926Y-100020000D01*
X101324354Y-100056316D01*
X101245566Y-100088951D01*
X101238684Y-100054354D01*
X101167448Y-99882375D01*
X101064029Y-99727598D01*
X100932402Y-99595971D01*
X100777625Y-99492552D01*
X100605646Y-99421316D01*
X100423074Y-99385000D01*
X100367069Y-99385000D01*
X99539057Y-98719983D01*
X99484276Y-98675026D01*
X99447633Y-98655440D01*
X99412859Y-98632732D01*
X99381791Y-98620246D01*
X99352247Y-98604454D01*
X99312490Y-98592394D01*
X99273950Y-98576905D01*
X99241036Y-98570719D01*
X99208986Y-98560997D01*
X99167639Y-98556925D01*
X99126820Y-98549253D01*
X99056090Y-98550000D01*
X97074109Y-98550000D01*
X97044144Y-98399354D01*
X96972908Y-98227375D01*
X96869489Y-98072598D01*
X96737862Y-97940971D01*
X96583085Y-97837552D01*
X96411106Y-97766316D01*
X96301702Y-97744554D01*
X96300812Y-97735518D01*
X96264502Y-97615820D01*
X96205537Y-97505506D01*
X96153793Y-97442455D01*
X96158684Y-97430646D01*
X96195000Y-97248074D01*
X96195000Y-97061926D01*
X96158684Y-96879354D01*
X96087448Y-96707375D01*
X96045770Y-96645000D01*
X103836351Y-96645000D01*
X103866316Y-96795646D01*
G36*
X139573000Y-100203000D02*
G01*
X139593000Y-100203000D01*
X139593000Y-100457000D01*
X139573000Y-100457000D01*
X139573000Y-100477000D01*
X139319000Y-100477000D01*
X139319000Y-100457000D01*
X139299000Y-100457000D01*
X139299000Y-100203000D01*
X139319000Y-100203000D01*
X139319000Y-100183000D01*
X139573000Y-100183000D01*
X139573000Y-100203000D01*
G37*
X139573000Y-100203000D02*
X139593000Y-100203000D01*
X139593000Y-100457000D01*
X139573000Y-100457000D01*
X139573000Y-100477000D01*
X139319000Y-100477000D01*
X139319000Y-100457000D01*
X139299000Y-100457000D01*
X139299000Y-100203000D01*
X139319000Y-100203000D01*
X139319000Y-100183000D01*
X139573000Y-100183000D01*
X139573000Y-100203000D01*
G36*
X135763000Y-100203000D02*
G01*
X135783000Y-100203000D01*
X135783000Y-100457000D01*
X135763000Y-100457000D01*
X135763000Y-100477000D01*
X135509000Y-100477000D01*
X135509000Y-100457000D01*
X135489000Y-100457000D01*
X135489000Y-100203000D01*
X135509000Y-100203000D01*
X135509000Y-100183000D01*
X135763000Y-100183000D01*
X135763000Y-100203000D01*
G37*
X135763000Y-100203000D02*
X135783000Y-100203000D01*
X135783000Y-100457000D01*
X135763000Y-100457000D01*
X135763000Y-100477000D01*
X135509000Y-100477000D01*
X135509000Y-100457000D01*
X135489000Y-100457000D01*
X135489000Y-100203000D01*
X135509000Y-100203000D01*
X135509000Y-100183000D01*
X135763000Y-100183000D01*
X135763000Y-100203000D01*
G36*
X131953000Y-100203000D02*
G01*
X131973000Y-100203000D01*
X131973000Y-100457000D01*
X131953000Y-100457000D01*
X131953000Y-100477000D01*
X131699000Y-100477000D01*
X131699000Y-100457000D01*
X131679000Y-100457000D01*
X131679000Y-100203000D01*
X131699000Y-100203000D01*
X131699000Y-100183000D01*
X131953000Y-100183000D01*
X131953000Y-100203000D01*
G37*
X131953000Y-100203000D02*
X131973000Y-100203000D01*
X131973000Y-100457000D01*
X131953000Y-100457000D01*
X131953000Y-100477000D01*
X131699000Y-100477000D01*
X131699000Y-100457000D01*
X131679000Y-100457000D01*
X131679000Y-100203000D01*
X131699000Y-100203000D01*
X131699000Y-100183000D01*
X131953000Y-100183000D01*
X131953000Y-100203000D01*
G36*
X128143000Y-100203000D02*
G01*
X128163000Y-100203000D01*
X128163000Y-100457000D01*
X128143000Y-100457000D01*
X128143000Y-100477000D01*
X127889000Y-100477000D01*
X127889000Y-100457000D01*
X127869000Y-100457000D01*
X127869000Y-100203000D01*
X127889000Y-100203000D01*
X127889000Y-100183000D01*
X128143000Y-100183000D01*
X128143000Y-100203000D01*
G37*
X128143000Y-100203000D02*
X128163000Y-100203000D01*
X128163000Y-100457000D01*
X128143000Y-100457000D01*
X128143000Y-100477000D01*
X127889000Y-100477000D01*
X127889000Y-100457000D01*
X127869000Y-100457000D01*
X127869000Y-100203000D01*
X127889000Y-100203000D01*
X127889000Y-100183000D01*
X128143000Y-100183000D01*
X128143000Y-100203000D01*
G36*
X124333000Y-100203000D02*
G01*
X124353000Y-100203000D01*
X124353000Y-100457000D01*
X124333000Y-100457000D01*
X124333000Y-100477000D01*
X124079000Y-100477000D01*
X124079000Y-100457000D01*
X124059000Y-100457000D01*
X124059000Y-100203000D01*
X124079000Y-100203000D01*
X124079000Y-100183000D01*
X124333000Y-100183000D01*
X124333000Y-100203000D01*
G37*
X124333000Y-100203000D02*
X124353000Y-100203000D01*
X124353000Y-100457000D01*
X124333000Y-100457000D01*
X124333000Y-100477000D01*
X124079000Y-100477000D01*
X124079000Y-100457000D01*
X124059000Y-100457000D01*
X124059000Y-100203000D01*
X124079000Y-100203000D01*
X124079000Y-100183000D01*
X124333000Y-100183000D01*
X124333000Y-100203000D01*
G36*
X120523000Y-100203000D02*
G01*
X120543000Y-100203000D01*
X120543000Y-100457000D01*
X120523000Y-100457000D01*
X120523000Y-100477000D01*
X120269000Y-100477000D01*
X120269000Y-100457000D01*
X120249000Y-100457000D01*
X120249000Y-100203000D01*
X120269000Y-100203000D01*
X120269000Y-100183000D01*
X120523000Y-100183000D01*
X120523000Y-100203000D01*
G37*
X120523000Y-100203000D02*
X120543000Y-100203000D01*
X120543000Y-100457000D01*
X120523000Y-100457000D01*
X120523000Y-100477000D01*
X120269000Y-100477000D01*
X120269000Y-100457000D01*
X120249000Y-100457000D01*
X120249000Y-100203000D01*
X120269000Y-100203000D01*
X120269000Y-100183000D01*
X120523000Y-100183000D01*
X120523000Y-100203000D01*
G36*
X116713000Y-100203000D02*
G01*
X116733000Y-100203000D01*
X116733000Y-100457000D01*
X116713000Y-100457000D01*
X116713000Y-100477000D01*
X116459000Y-100477000D01*
X116459000Y-100457000D01*
X116439000Y-100457000D01*
X116439000Y-100203000D01*
X116459000Y-100203000D01*
X116459000Y-100183000D01*
X116713000Y-100183000D01*
X116713000Y-100203000D01*
G37*
X116713000Y-100203000D02*
X116733000Y-100203000D01*
X116733000Y-100457000D01*
X116713000Y-100457000D01*
X116713000Y-100477000D01*
X116459000Y-100477000D01*
X116459000Y-100457000D01*
X116439000Y-100457000D01*
X116439000Y-100203000D01*
X116459000Y-100203000D01*
X116459000Y-100183000D01*
X116713000Y-100183000D01*
X116713000Y-100203000D01*
G36*
X111629489Y-96137099D02*
G01*
X111558870Y-96369898D01*
X111541000Y-96551335D01*
X111541000Y-96996664D01*
X111550193Y-97090000D01*
X110539053Y-97090000D01*
X110661415Y-97008240D01*
X110793042Y-96876613D01*
X110896461Y-96721836D01*
X110967697Y-96549857D01*
X111004013Y-96367285D01*
X111004013Y-96181137D01*
X110969972Y-96010000D01*
X111697425Y-96010000D01*
X111629489Y-96137099D01*
G37*
X111629489Y-96137099D02*
X111558870Y-96369898D01*
X111541000Y-96551335D01*
X111541000Y-96996664D01*
X111550193Y-97090000D01*
X110539053Y-97090000D01*
X110661415Y-97008240D01*
X110793042Y-96876613D01*
X110896461Y-96721836D01*
X110967697Y-96549857D01*
X111004013Y-96367285D01*
X111004013Y-96181137D01*
X110969972Y-96010000D01*
X111697425Y-96010000D01*
X111629489Y-96137099D01*
G36*
X114808000Y-96647000D02*
G01*
X114828000Y-96647000D01*
X114828000Y-96901000D01*
X114808000Y-96901000D01*
X114808000Y-96921000D01*
X114554000Y-96921000D01*
X114554000Y-96901000D01*
X114534000Y-96901000D01*
X114534000Y-96647000D01*
X114554000Y-96647000D01*
X114554000Y-96627000D01*
X114808000Y-96627000D01*
X114808000Y-96647000D01*
G37*
X114808000Y-96647000D02*
X114828000Y-96647000D01*
X114828000Y-96901000D01*
X114808000Y-96901000D01*
X114808000Y-96921000D01*
X114554000Y-96921000D01*
X114554000Y-96901000D01*
X114534000Y-96901000D01*
X114534000Y-96647000D01*
X114554000Y-96647000D01*
X114554000Y-96627000D01*
X114808000Y-96627000D01*
X114808000Y-96647000D01*
G36*
X138686000Y-95638067D02*
G01*
X138568499Y-95734498D01*
X138493095Y-95826378D01*
X138472966Y-95798163D01*
X138296287Y-95631983D01*
X138090583Y-95503465D01*
X137858609Y-95418538D01*
X137668000Y-95543269D01*
X137668000Y-96647000D01*
X137688000Y-96647000D01*
X137688000Y-96901000D01*
X137668000Y-96901000D01*
X137668000Y-96921000D01*
X137414000Y-96921000D01*
X137414000Y-96901000D01*
X137394000Y-96901000D01*
X137394000Y-96647000D01*
X137414000Y-96647000D01*
X137414000Y-95543269D01*
X137223391Y-95418538D01*
X136991417Y-95503465D01*
X136785713Y-95631983D01*
X136609034Y-95798163D01*
X136588905Y-95826378D01*
X136513502Y-95734498D01*
X136396000Y-95638067D01*
X136396000Y-92493322D01*
X136399676Y-92455999D01*
X136396000Y-92418676D01*
X136396000Y-92418667D01*
X136385003Y-92307014D01*
X136352541Y-92200000D01*
X138686001Y-92200000D01*
X138686000Y-95638067D01*
G37*
X138686000Y-95638067D02*
X138568499Y-95734498D01*
X138493095Y-95826378D01*
X138472966Y-95798163D01*
X138296287Y-95631983D01*
X138090583Y-95503465D01*
X137858609Y-95418538D01*
X137668000Y-95543269D01*
X137668000Y-96647000D01*
X137688000Y-96647000D01*
X137688000Y-96901000D01*
X137668000Y-96901000D01*
X137668000Y-96921000D01*
X137414000Y-96921000D01*
X137414000Y-96901000D01*
X137394000Y-96901000D01*
X137394000Y-96647000D01*
X137414000Y-96647000D01*
X137414000Y-95543269D01*
X137223391Y-95418538D01*
X136991417Y-95503465D01*
X136785713Y-95631983D01*
X136609034Y-95798163D01*
X136588905Y-95826378D01*
X136513502Y-95734498D01*
X136396000Y-95638067D01*
X136396000Y-92493322D01*
X136399676Y-92455999D01*
X136396000Y-92418676D01*
X136396000Y-92418667D01*
X136385003Y-92307014D01*
X136352541Y-92200000D01*
X138686001Y-92200000D01*
X138686000Y-95638067D01*
G36*
X134876000Y-95638067D02*
G01*
X134758499Y-95734498D01*
X134683095Y-95826378D01*
X134662966Y-95798163D01*
X134486287Y-95631983D01*
X134280583Y-95503465D01*
X134048609Y-95418538D01*
X133858000Y-95543269D01*
X133858000Y-96647000D01*
X133878000Y-96647000D01*
X133878000Y-96901000D01*
X133858000Y-96901000D01*
X133858000Y-96921000D01*
X133604000Y-96921000D01*
X133604000Y-96901000D01*
X133584000Y-96901000D01*
X133584000Y-96647000D01*
X133604000Y-96647000D01*
X133604000Y-95543269D01*
X133413391Y-95418538D01*
X133181417Y-95503465D01*
X132975713Y-95631983D01*
X132799034Y-95798163D01*
X132778905Y-95826378D01*
X132703502Y-95734498D01*
X132586000Y-95638067D01*
X132586000Y-93128322D01*
X132589676Y-93090999D01*
X132586000Y-93053676D01*
X132586000Y-93053667D01*
X132575003Y-92942014D01*
X132542541Y-92835000D01*
X134876001Y-92835000D01*
X134876000Y-95638067D01*
G37*
X134876000Y-95638067D02*
X134758499Y-95734498D01*
X134683095Y-95826378D01*
X134662966Y-95798163D01*
X134486287Y-95631983D01*
X134280583Y-95503465D01*
X134048609Y-95418538D01*
X133858000Y-95543269D01*
X133858000Y-96647000D01*
X133878000Y-96647000D01*
X133878000Y-96901000D01*
X133858000Y-96901000D01*
X133858000Y-96921000D01*
X133604000Y-96921000D01*
X133604000Y-96901000D01*
X133584000Y-96901000D01*
X133584000Y-96647000D01*
X133604000Y-96647000D01*
X133604000Y-95543269D01*
X133413391Y-95418538D01*
X133181417Y-95503465D01*
X132975713Y-95631983D01*
X132799034Y-95798163D01*
X132778905Y-95826378D01*
X132703502Y-95734498D01*
X132586000Y-95638067D01*
X132586000Y-93128322D01*
X132589676Y-93090999D01*
X132586000Y-93053676D01*
X132586000Y-93053667D01*
X132575003Y-92942014D01*
X132542541Y-92835000D01*
X134876001Y-92835000D01*
X134876000Y-95638067D01*
G36*
X131066000Y-95638067D02*
G01*
X130948499Y-95734498D01*
X130873095Y-95826378D01*
X130852966Y-95798163D01*
X130676287Y-95631983D01*
X130470583Y-95503465D01*
X130238609Y-95418538D01*
X130048000Y-95543269D01*
X130048000Y-96647000D01*
X130068000Y-96647000D01*
X130068000Y-96901000D01*
X130048000Y-96901000D01*
X130048000Y-96921000D01*
X129794000Y-96921000D01*
X129794000Y-96901000D01*
X129774000Y-96901000D01*
X129774000Y-96647000D01*
X129794000Y-96647000D01*
X129794000Y-95543269D01*
X129603391Y-95418538D01*
X129371417Y-95503465D01*
X129165713Y-95631983D01*
X128989034Y-95798163D01*
X128968905Y-95826378D01*
X128893502Y-95734498D01*
X128776000Y-95638067D01*
X128776000Y-93763322D01*
X128779676Y-93725999D01*
X128776000Y-93688676D01*
X128776000Y-93688667D01*
X128765003Y-93577014D01*
X128732541Y-93470000D01*
X131066001Y-93470000D01*
X131066000Y-95638067D01*
G37*
X131066000Y-95638067D02*
X130948499Y-95734498D01*
X130873095Y-95826378D01*
X130852966Y-95798163D01*
X130676287Y-95631983D01*
X130470583Y-95503465D01*
X130238609Y-95418538D01*
X130048000Y-95543269D01*
X130048000Y-96647000D01*
X130068000Y-96647000D01*
X130068000Y-96901000D01*
X130048000Y-96901000D01*
X130048000Y-96921000D01*
X129794000Y-96921000D01*
X129794000Y-96901000D01*
X129774000Y-96901000D01*
X129774000Y-96647000D01*
X129794000Y-96647000D01*
X129794000Y-95543269D01*
X129603391Y-95418538D01*
X129371417Y-95503465D01*
X129165713Y-95631983D01*
X128989034Y-95798163D01*
X128968905Y-95826378D01*
X128893502Y-95734498D01*
X128776000Y-95638067D01*
X128776000Y-93763322D01*
X128779676Y-93725999D01*
X128776000Y-93688676D01*
X128776000Y-93688667D01*
X128765003Y-93577014D01*
X128732541Y-93470000D01*
X131066001Y-93470000D01*
X131066000Y-95638067D01*
G36*
X127256000Y-95638067D02*
G01*
X127138499Y-95734498D01*
X127063095Y-95826378D01*
X127042966Y-95798163D01*
X126866287Y-95631983D01*
X126660583Y-95503465D01*
X126428609Y-95418538D01*
X126238000Y-95543269D01*
X126238000Y-96647000D01*
X126258000Y-96647000D01*
X126258000Y-96901000D01*
X126238000Y-96901000D01*
X126238000Y-96921000D01*
X125984000Y-96921000D01*
X125984000Y-96901000D01*
X125964000Y-96901000D01*
X125964000Y-96647000D01*
X125984000Y-96647000D01*
X125984000Y-95543269D01*
X125793391Y-95418538D01*
X125561417Y-95503465D01*
X125355713Y-95631983D01*
X125179034Y-95798163D01*
X125158905Y-95826378D01*
X125083502Y-95734498D01*
X124966000Y-95638067D01*
X124966000Y-94398322D01*
X124969676Y-94360999D01*
X124966000Y-94323676D01*
X124966000Y-94323667D01*
X124955003Y-94212014D01*
X124922541Y-94105000D01*
X127256001Y-94105000D01*
X127256000Y-95638067D01*
G37*
X127256000Y-95638067D02*
X127138499Y-95734498D01*
X127063095Y-95826378D01*
X127042966Y-95798163D01*
X126866287Y-95631983D01*
X126660583Y-95503465D01*
X126428609Y-95418538D01*
X126238000Y-95543269D01*
X126238000Y-96647000D01*
X126258000Y-96647000D01*
X126258000Y-96901000D01*
X126238000Y-96901000D01*
X126238000Y-96921000D01*
X125984000Y-96921000D01*
X125984000Y-96901000D01*
X125964000Y-96901000D01*
X125964000Y-96647000D01*
X125984000Y-96647000D01*
X125984000Y-95543269D01*
X125793391Y-95418538D01*
X125561417Y-95503465D01*
X125355713Y-95631983D01*
X125179034Y-95798163D01*
X125158905Y-95826378D01*
X125083502Y-95734498D01*
X124966000Y-95638067D01*
X124966000Y-94398322D01*
X124969676Y-94360999D01*
X124966000Y-94323676D01*
X124966000Y-94323667D01*
X124955003Y-94212014D01*
X124922541Y-94105000D01*
X127256001Y-94105000D01*
X127256000Y-95638067D01*
G36*
X123446000Y-95638067D02*
G01*
X123328499Y-95734498D01*
X123253095Y-95826378D01*
X123232966Y-95798163D01*
X123056287Y-95631983D01*
X122850583Y-95503465D01*
X122618609Y-95418538D01*
X122428000Y-95543269D01*
X122428000Y-96647000D01*
X122448000Y-96647000D01*
X122448000Y-96901000D01*
X122428000Y-96901000D01*
X122428000Y-96921000D01*
X122174000Y-96921000D01*
X122174000Y-96901000D01*
X122154000Y-96901000D01*
X122154000Y-96647000D01*
X122174000Y-96647000D01*
X122174000Y-95543269D01*
X121983391Y-95418538D01*
X121751417Y-95503465D01*
X121545713Y-95631983D01*
X121369034Y-95798163D01*
X121348905Y-95826378D01*
X121273502Y-95734498D01*
X121156000Y-95638067D01*
X121156000Y-95033322D01*
X121159676Y-94995999D01*
X121156000Y-94958676D01*
X121156000Y-94958667D01*
X121145003Y-94847014D01*
X121112541Y-94740000D01*
X123446001Y-94740000D01*
X123446000Y-95638067D01*
G37*
X123446000Y-95638067D02*
X123328499Y-95734498D01*
X123253095Y-95826378D01*
X123232966Y-95798163D01*
X123056287Y-95631983D01*
X122850583Y-95503465D01*
X122618609Y-95418538D01*
X122428000Y-95543269D01*
X122428000Y-96647000D01*
X122448000Y-96647000D01*
X122448000Y-96901000D01*
X122428000Y-96901000D01*
X122428000Y-96921000D01*
X122174000Y-96921000D01*
X122174000Y-96901000D01*
X122154000Y-96901000D01*
X122154000Y-96647000D01*
X122174000Y-96647000D01*
X122174000Y-95543269D01*
X121983391Y-95418538D01*
X121751417Y-95503465D01*
X121545713Y-95631983D01*
X121369034Y-95798163D01*
X121348905Y-95826378D01*
X121273502Y-95734498D01*
X121156000Y-95638067D01*
X121156000Y-95033322D01*
X121159676Y-94995999D01*
X121156000Y-94958676D01*
X121156000Y-94958667D01*
X121145003Y-94847014D01*
X121112541Y-94740000D01*
X123446001Y-94740000D01*
X123446000Y-95638067D01*
G36*
X119636001Y-95638067D02*
G01*
X119518499Y-95734498D01*
X119443095Y-95826378D01*
X119422966Y-95798163D01*
X119246287Y-95631983D01*
X119040583Y-95503465D01*
X118808609Y-95418538D01*
X118618000Y-95543269D01*
X118618000Y-96647000D01*
X118638000Y-96647000D01*
X118638000Y-96901000D01*
X118618000Y-96901000D01*
X118618000Y-96921000D01*
X118364000Y-96921000D01*
X118364000Y-96901000D01*
X118344000Y-96901000D01*
X118344000Y-96647000D01*
X118364000Y-96647000D01*
X118364000Y-95543269D01*
X118173391Y-95418538D01*
X117941417Y-95503465D01*
X117735713Y-95631983D01*
X117559034Y-95798163D01*
X117538905Y-95826378D01*
X117463502Y-95734498D01*
X117348757Y-95640329D01*
X117349676Y-95630999D01*
X117346000Y-95593676D01*
X117346000Y-95593667D01*
X117335003Y-95482014D01*
X117302541Y-95375000D01*
X119636001Y-95375000D01*
X119636001Y-95638067D01*
G37*
X119636001Y-95638067D02*
X119518499Y-95734498D01*
X119443095Y-95826378D01*
X119422966Y-95798163D01*
X119246287Y-95631983D01*
X119040583Y-95503465D01*
X118808609Y-95418538D01*
X118618000Y-95543269D01*
X118618000Y-96647000D01*
X118638000Y-96647000D01*
X118638000Y-96901000D01*
X118618000Y-96901000D01*
X118618000Y-96921000D01*
X118364000Y-96921000D01*
X118364000Y-96901000D01*
X118344000Y-96901000D01*
X118344000Y-96647000D01*
X118364000Y-96647000D01*
X118364000Y-95543269D01*
X118173391Y-95418538D01*
X117941417Y-95503465D01*
X117735713Y-95631983D01*
X117559034Y-95798163D01*
X117538905Y-95826378D01*
X117463502Y-95734498D01*
X117348757Y-95640329D01*
X117349676Y-95630999D01*
X117346000Y-95593676D01*
X117346000Y-95593667D01*
X117335003Y-95482014D01*
X117302541Y-95375000D01*
X119636001Y-95375000D01*
X119636001Y-95638067D01*
M02*
