G04 #@! TF.GenerationSoftware,KiCad,Pcbnew,(5.1.5-0-10_14)*
G04 #@! TF.CreationDate,2020-08-25T00:06:45+09:00*
G04 #@! TF.ProjectId,FPGA-X68k-ProCaseLED,46504741-2d58-4363-986b-2d50726f4361,rev?*
G04 #@! TF.SameCoordinates,Original*
G04 #@! TF.FileFunction,Legend,Bot*
G04 #@! TF.FilePolarity,Positive*
%FSLAX46Y46*%
G04 Gerber Fmt 4.6, Leading zero omitted, Abs format (unit mm)*
G04 Created by KiCad (PCBNEW (5.1.5-0-10_14)) date 2020-08-25 00:06:45*
%MOMM*%
%LPD*%
G04 APERTURE LIST*
%ADD10C,0.203200*%
%ADD11C,0.120000*%
%ADD12C,0.100000*%
%ADD13C,0.150000*%
G04 APERTURE END LIST*
D10*
X142007166Y-117865466D02*
X142430500Y-117865466D01*
X142430500Y-116976466D01*
X141710833Y-117399800D02*
X141414500Y-117399800D01*
X141287500Y-117865466D02*
X141710833Y-117865466D01*
X141710833Y-116976466D01*
X141287500Y-116976466D01*
X140906500Y-117865466D02*
X140906500Y-116976466D01*
X140694833Y-116976466D01*
X140567833Y-117018800D01*
X140483166Y-117103466D01*
X140440833Y-117188133D01*
X140398500Y-117357466D01*
X140398500Y-117484466D01*
X140440833Y-117653800D01*
X140483166Y-117738466D01*
X140567833Y-117823133D01*
X140694833Y-117865466D01*
X140906500Y-117865466D01*
X138705166Y-116934133D02*
X139467166Y-118077133D01*
X137435166Y-117399800D02*
X137731500Y-117399800D01*
X137731500Y-117865466D02*
X137731500Y-116976466D01*
X137308166Y-116976466D01*
X136969500Y-117865466D02*
X136969500Y-116976466D01*
X136757833Y-116976466D01*
X136630833Y-117018800D01*
X136546166Y-117103466D01*
X136503833Y-117188133D01*
X136461500Y-117357466D01*
X136461500Y-117484466D01*
X136503833Y-117653800D01*
X136546166Y-117738466D01*
X136630833Y-117823133D01*
X136757833Y-117865466D01*
X136969500Y-117865466D01*
X136080500Y-117865466D02*
X136080500Y-116976466D01*
X135868833Y-116976466D01*
X135741833Y-117018800D01*
X135657166Y-117103466D01*
X135614833Y-117188133D01*
X135572500Y-117357466D01*
X135572500Y-117484466D01*
X135614833Y-117653800D01*
X135657166Y-117738466D01*
X135741833Y-117823133D01*
X135868833Y-117865466D01*
X136080500Y-117865466D01*
X134217833Y-117399800D02*
X134090833Y-117442133D01*
X134048500Y-117484466D01*
X134006166Y-117569133D01*
X134006166Y-117696133D01*
X134048500Y-117780800D01*
X134090833Y-117823133D01*
X134175500Y-117865466D01*
X134514166Y-117865466D01*
X134514166Y-116976466D01*
X134217833Y-116976466D01*
X134133166Y-117018800D01*
X134090833Y-117061133D01*
X134048500Y-117145800D01*
X134048500Y-117230466D01*
X134090833Y-117315133D01*
X134133166Y-117357466D01*
X134217833Y-117399800D01*
X134514166Y-117399800D01*
X133498166Y-117865466D02*
X133582833Y-117823133D01*
X133625166Y-117780800D01*
X133667500Y-117696133D01*
X133667500Y-117442133D01*
X133625166Y-117357466D01*
X133582833Y-117315133D01*
X133498166Y-117272800D01*
X133371166Y-117272800D01*
X133286500Y-117315133D01*
X133244166Y-117357466D01*
X133201833Y-117442133D01*
X133201833Y-117696133D01*
X133244166Y-117780800D01*
X133286500Y-117823133D01*
X133371166Y-117865466D01*
X133498166Y-117865466D01*
X132439833Y-117865466D02*
X132439833Y-117399800D01*
X132482166Y-117315133D01*
X132566833Y-117272800D01*
X132736166Y-117272800D01*
X132820833Y-117315133D01*
X132439833Y-117823133D02*
X132524500Y-117865466D01*
X132736166Y-117865466D01*
X132820833Y-117823133D01*
X132863166Y-117738466D01*
X132863166Y-117653800D01*
X132820833Y-117569133D01*
X132736166Y-117526800D01*
X132524500Y-117526800D01*
X132439833Y-117484466D01*
X132016500Y-117865466D02*
X132016500Y-117272800D01*
X132016500Y-117442133D02*
X131974166Y-117357466D01*
X131931833Y-117315133D01*
X131847166Y-117272800D01*
X131762500Y-117272800D01*
X131085166Y-117865466D02*
X131085166Y-116976466D01*
X131085166Y-117823133D02*
X131169833Y-117865466D01*
X131339166Y-117865466D01*
X131423833Y-117823133D01*
X131466166Y-117780800D01*
X131508500Y-117696133D01*
X131508500Y-117442133D01*
X131466166Y-117357466D01*
X131423833Y-117315133D01*
X131339166Y-117272800D01*
X131169833Y-117272800D01*
X131085166Y-117315133D01*
X130111500Y-117272800D02*
X129772833Y-117272800D01*
X129984500Y-117865466D02*
X129984500Y-117103466D01*
X129942166Y-117018800D01*
X129857500Y-116976466D01*
X129772833Y-116976466D01*
X129349500Y-117865466D02*
X129434166Y-117823133D01*
X129476500Y-117780800D01*
X129518833Y-117696133D01*
X129518833Y-117442133D01*
X129476500Y-117357466D01*
X129434166Y-117315133D01*
X129349500Y-117272800D01*
X129222500Y-117272800D01*
X129137833Y-117315133D01*
X129095500Y-117357466D01*
X129053166Y-117442133D01*
X129053166Y-117696133D01*
X129095500Y-117780800D01*
X129137833Y-117823133D01*
X129222500Y-117865466D01*
X129349500Y-117865466D01*
X128672166Y-117865466D02*
X128672166Y-117272800D01*
X128672166Y-117442133D02*
X128629833Y-117357466D01*
X128587500Y-117315133D01*
X128502833Y-117272800D01*
X128418166Y-117272800D01*
X127148166Y-117399800D02*
X127444500Y-117399800D01*
X127444500Y-117865466D02*
X127444500Y-116976466D01*
X127021166Y-116976466D01*
X126682500Y-117865466D02*
X126682500Y-116976466D01*
X126343833Y-116976466D01*
X126259166Y-117018800D01*
X126216833Y-117061133D01*
X126174500Y-117145800D01*
X126174500Y-117272800D01*
X126216833Y-117357466D01*
X126259166Y-117399800D01*
X126343833Y-117442133D01*
X126682500Y-117442133D01*
X125327833Y-117018800D02*
X125412500Y-116976466D01*
X125539500Y-116976466D01*
X125666500Y-117018800D01*
X125751166Y-117103466D01*
X125793500Y-117188133D01*
X125835833Y-117357466D01*
X125835833Y-117484466D01*
X125793500Y-117653800D01*
X125751166Y-117738466D01*
X125666500Y-117823133D01*
X125539500Y-117865466D01*
X125454833Y-117865466D01*
X125327833Y-117823133D01*
X125285500Y-117780800D01*
X125285500Y-117484466D01*
X125454833Y-117484466D01*
X124946833Y-117611466D02*
X124523500Y-117611466D01*
X125031500Y-117865466D02*
X124735166Y-116976466D01*
X124438833Y-117865466D01*
X123549833Y-116976466D02*
X122957166Y-117865466D01*
X122957166Y-116976466D02*
X123549833Y-117865466D01*
X122237500Y-116976466D02*
X122406833Y-116976466D01*
X122491500Y-117018800D01*
X122533833Y-117061133D01*
X122618500Y-117188133D01*
X122660833Y-117357466D01*
X122660833Y-117696133D01*
X122618500Y-117780800D01*
X122576166Y-117823133D01*
X122491500Y-117865466D01*
X122322166Y-117865466D01*
X122237500Y-117823133D01*
X122195166Y-117780800D01*
X122152833Y-117696133D01*
X122152833Y-117484466D01*
X122195166Y-117399800D01*
X122237500Y-117357466D01*
X122322166Y-117315133D01*
X122491500Y-117315133D01*
X122576166Y-117357466D01*
X122618500Y-117399800D01*
X122660833Y-117484466D01*
X121644833Y-117357466D02*
X121729500Y-117315133D01*
X121771833Y-117272800D01*
X121814166Y-117188133D01*
X121814166Y-117145800D01*
X121771833Y-117061133D01*
X121729500Y-117018800D01*
X121644833Y-116976466D01*
X121475500Y-116976466D01*
X121390833Y-117018800D01*
X121348500Y-117061133D01*
X121306166Y-117145800D01*
X121306166Y-117188133D01*
X121348500Y-117272800D01*
X121390833Y-117315133D01*
X121475500Y-117357466D01*
X121644833Y-117357466D01*
X121729500Y-117399800D01*
X121771833Y-117442133D01*
X121814166Y-117526800D01*
X121814166Y-117696133D01*
X121771833Y-117780800D01*
X121729500Y-117823133D01*
X121644833Y-117865466D01*
X121475500Y-117865466D01*
X121390833Y-117823133D01*
X121348500Y-117780800D01*
X121306166Y-117696133D01*
X121306166Y-117526800D01*
X121348500Y-117442133D01*
X121390833Y-117399800D01*
X121475500Y-117357466D01*
X120755833Y-116976466D02*
X120671166Y-116976466D01*
X120586500Y-117018800D01*
X120544166Y-117061133D01*
X120501833Y-117145800D01*
X120459500Y-117315133D01*
X120459500Y-117526800D01*
X120501833Y-117696133D01*
X120544166Y-117780800D01*
X120586500Y-117823133D01*
X120671166Y-117865466D01*
X120755833Y-117865466D01*
X120840500Y-117823133D01*
X120882833Y-117780800D01*
X120925166Y-117696133D01*
X120967500Y-117526800D01*
X120967500Y-117315133D01*
X120925166Y-117145800D01*
X120882833Y-117061133D01*
X120840500Y-117018800D01*
X120755833Y-116976466D01*
X119909166Y-116976466D02*
X119824500Y-116976466D01*
X119739833Y-117018800D01*
X119697500Y-117061133D01*
X119655166Y-117145800D01*
X119612833Y-117315133D01*
X119612833Y-117526800D01*
X119655166Y-117696133D01*
X119697500Y-117780800D01*
X119739833Y-117823133D01*
X119824500Y-117865466D01*
X119909166Y-117865466D01*
X119993833Y-117823133D01*
X120036166Y-117780800D01*
X120078500Y-117696133D01*
X120120833Y-117526800D01*
X120120833Y-117315133D01*
X120078500Y-117145800D01*
X120036166Y-117061133D01*
X119993833Y-117018800D01*
X119909166Y-116976466D01*
X119062500Y-116976466D02*
X118977833Y-116976466D01*
X118893166Y-117018800D01*
X118850833Y-117061133D01*
X118808500Y-117145800D01*
X118766166Y-117315133D01*
X118766166Y-117526800D01*
X118808500Y-117696133D01*
X118850833Y-117780800D01*
X118893166Y-117823133D01*
X118977833Y-117865466D01*
X119062500Y-117865466D01*
X119147166Y-117823133D01*
X119189500Y-117780800D01*
X119231833Y-117696133D01*
X119274166Y-117526800D01*
X119274166Y-117315133D01*
X119231833Y-117145800D01*
X119189500Y-117061133D01*
X119147166Y-117018800D01*
X119062500Y-116976466D01*
X117707833Y-117865466D02*
X117707833Y-116976466D01*
X117369166Y-116976466D01*
X117284500Y-117018800D01*
X117242166Y-117061133D01*
X117199833Y-117145800D01*
X117199833Y-117272800D01*
X117242166Y-117357466D01*
X117284500Y-117399800D01*
X117369166Y-117442133D01*
X117707833Y-117442133D01*
X116310833Y-117865466D02*
X116607166Y-117442133D01*
X116818833Y-117865466D02*
X116818833Y-116976466D01*
X116480166Y-116976466D01*
X116395500Y-117018800D01*
X116353166Y-117061133D01*
X116310833Y-117145800D01*
X116310833Y-117272800D01*
X116353166Y-117357466D01*
X116395500Y-117399800D01*
X116480166Y-117442133D01*
X116818833Y-117442133D01*
X115760500Y-116976466D02*
X115591166Y-116976466D01*
X115506500Y-117018800D01*
X115421833Y-117103466D01*
X115379500Y-117272800D01*
X115379500Y-117569133D01*
X115421833Y-117738466D01*
X115506500Y-117823133D01*
X115591166Y-117865466D01*
X115760500Y-117865466D01*
X115845166Y-117823133D01*
X115929833Y-117738466D01*
X115972166Y-117569133D01*
X115972166Y-117272800D01*
X115929833Y-117103466D01*
X115845166Y-117018800D01*
X115760500Y-116976466D01*
X113813166Y-117780800D02*
X113855500Y-117823133D01*
X113982500Y-117865466D01*
X114067166Y-117865466D01*
X114194166Y-117823133D01*
X114278833Y-117738466D01*
X114321166Y-117653800D01*
X114363500Y-117484466D01*
X114363500Y-117357466D01*
X114321166Y-117188133D01*
X114278833Y-117103466D01*
X114194166Y-117018800D01*
X114067166Y-116976466D01*
X113982500Y-116976466D01*
X113855500Y-117018800D01*
X113813166Y-117061133D01*
X113051166Y-117865466D02*
X113051166Y-117399800D01*
X113093500Y-117315133D01*
X113178166Y-117272800D01*
X113347500Y-117272800D01*
X113432166Y-117315133D01*
X113051166Y-117823133D02*
X113135833Y-117865466D01*
X113347500Y-117865466D01*
X113432166Y-117823133D01*
X113474500Y-117738466D01*
X113474500Y-117653800D01*
X113432166Y-117569133D01*
X113347500Y-117526800D01*
X113135833Y-117526800D01*
X113051166Y-117484466D01*
X112670166Y-117823133D02*
X112585500Y-117865466D01*
X112416166Y-117865466D01*
X112331500Y-117823133D01*
X112289166Y-117738466D01*
X112289166Y-117696133D01*
X112331500Y-117611466D01*
X112416166Y-117569133D01*
X112543166Y-117569133D01*
X112627833Y-117526800D01*
X112670166Y-117442133D01*
X112670166Y-117399800D01*
X112627833Y-117315133D01*
X112543166Y-117272800D01*
X112416166Y-117272800D01*
X112331500Y-117315133D01*
X111569500Y-117823133D02*
X111654166Y-117865466D01*
X111823500Y-117865466D01*
X111908166Y-117823133D01*
X111950500Y-117738466D01*
X111950500Y-117399800D01*
X111908166Y-117315133D01*
X111823500Y-117272800D01*
X111654166Y-117272800D01*
X111569500Y-117315133D01*
X111527166Y-117399800D01*
X111527166Y-117484466D01*
X111950500Y-117569133D01*
X135995833Y-119148166D02*
X135572500Y-119148166D01*
X136080500Y-119402166D02*
X135784166Y-118513166D01*
X135487833Y-119402166D01*
X134810500Y-118809500D02*
X134810500Y-119402166D01*
X135191500Y-118809500D02*
X135191500Y-119275166D01*
X135149166Y-119359833D01*
X135064500Y-119402166D01*
X134937500Y-119402166D01*
X134852833Y-119359833D01*
X134810500Y-119317500D01*
X134006166Y-118809500D02*
X134006166Y-119529166D01*
X134048500Y-119613833D01*
X134090833Y-119656166D01*
X134175500Y-119698500D01*
X134302500Y-119698500D01*
X134387166Y-119656166D01*
X134006166Y-119359833D02*
X134090833Y-119402166D01*
X134260166Y-119402166D01*
X134344833Y-119359833D01*
X134387166Y-119317500D01*
X134429500Y-119232833D01*
X134429500Y-118978833D01*
X134387166Y-118894166D01*
X134344833Y-118851833D01*
X134260166Y-118809500D01*
X134090833Y-118809500D01*
X134006166Y-118851833D01*
X132947833Y-118597833D02*
X132905500Y-118555500D01*
X132820833Y-118513166D01*
X132609166Y-118513166D01*
X132524500Y-118555500D01*
X132482166Y-118597833D01*
X132439833Y-118682500D01*
X132439833Y-118767166D01*
X132482166Y-118894166D01*
X132990166Y-119402166D01*
X132439833Y-119402166D01*
X131889500Y-118513166D02*
X131804833Y-118513166D01*
X131720166Y-118555500D01*
X131677833Y-118597833D01*
X131635500Y-118682500D01*
X131593166Y-118851833D01*
X131593166Y-119063500D01*
X131635500Y-119232833D01*
X131677833Y-119317500D01*
X131720166Y-119359833D01*
X131804833Y-119402166D01*
X131889500Y-119402166D01*
X131974166Y-119359833D01*
X132016500Y-119317500D01*
X132058833Y-119232833D01*
X132101166Y-119063500D01*
X132101166Y-118851833D01*
X132058833Y-118682500D01*
X132016500Y-118597833D01*
X131974166Y-118555500D01*
X131889500Y-118513166D01*
X131254500Y-118597833D02*
X131212166Y-118555500D01*
X131127500Y-118513166D01*
X130915833Y-118513166D01*
X130831166Y-118555500D01*
X130788833Y-118597833D01*
X130746500Y-118682500D01*
X130746500Y-118767166D01*
X130788833Y-118894166D01*
X131296833Y-119402166D01*
X130746500Y-119402166D01*
X130196166Y-118513166D02*
X130111500Y-118513166D01*
X130026833Y-118555500D01*
X129984500Y-118597833D01*
X129942166Y-118682500D01*
X129899833Y-118851833D01*
X129899833Y-119063500D01*
X129942166Y-119232833D01*
X129984500Y-119317500D01*
X130026833Y-119359833D01*
X130111500Y-119402166D01*
X130196166Y-119402166D01*
X130280833Y-119359833D01*
X130323166Y-119317500D01*
X130365500Y-119232833D01*
X130407833Y-119063500D01*
X130407833Y-118851833D01*
X130365500Y-118682500D01*
X130323166Y-118597833D01*
X130280833Y-118555500D01*
X130196166Y-118513166D01*
X128841500Y-119402166D02*
X128841500Y-118513166D01*
X128333500Y-119402166D02*
X128714500Y-118894166D01*
X128333500Y-118513166D02*
X128841500Y-119021166D01*
X127571500Y-118809500D02*
X127571500Y-119402166D01*
X127952500Y-118809500D02*
X127952500Y-119275166D01*
X127910166Y-119359833D01*
X127825500Y-119402166D01*
X127698500Y-119402166D01*
X127613833Y-119359833D01*
X127571500Y-119317500D01*
X127148166Y-118809500D02*
X127148166Y-119402166D01*
X127148166Y-118894166D02*
X127105833Y-118851833D01*
X127021166Y-118809500D01*
X126894166Y-118809500D01*
X126809500Y-118851833D01*
X126767166Y-118936500D01*
X126767166Y-119402166D01*
X126343833Y-119402166D02*
X126343833Y-118809500D01*
X126343833Y-118513166D02*
X126386166Y-118555500D01*
X126343833Y-118597833D01*
X126301500Y-118555500D01*
X126343833Y-118513166D01*
X126343833Y-118597833D01*
X125920500Y-119402166D02*
X125920500Y-118513166D01*
X125539500Y-119402166D02*
X125539500Y-118936500D01*
X125581833Y-118851833D01*
X125666500Y-118809500D01*
X125793500Y-118809500D01*
X125878166Y-118851833D01*
X125920500Y-118894166D01*
X125116166Y-119402166D02*
X125116166Y-118809500D01*
X125116166Y-118513166D02*
X125158500Y-118555500D01*
X125116166Y-118597833D01*
X125073833Y-118555500D01*
X125116166Y-118513166D01*
X125116166Y-118597833D01*
X124692833Y-119402166D02*
X124692833Y-118513166D01*
X124608166Y-119063500D02*
X124354166Y-119402166D01*
X124354166Y-118809500D02*
X124692833Y-119148166D01*
X123846166Y-119402166D02*
X123930833Y-119359833D01*
X123973166Y-119317500D01*
X124015500Y-119232833D01*
X124015500Y-118978833D01*
X123973166Y-118894166D01*
X123930833Y-118851833D01*
X123846166Y-118809500D01*
X123719166Y-118809500D01*
X123634500Y-118851833D01*
X123592166Y-118894166D01*
X123549833Y-118978833D01*
X123549833Y-119232833D01*
X123592166Y-119317500D01*
X123634500Y-119359833D01*
X123719166Y-119402166D01*
X123846166Y-119402166D01*
X122322166Y-118513166D02*
X122152833Y-118513166D01*
X122068166Y-118555500D01*
X121983500Y-118640166D01*
X121941166Y-118809500D01*
X121941166Y-119105833D01*
X121983500Y-119275166D01*
X122068166Y-119359833D01*
X122152833Y-119402166D01*
X122322166Y-119402166D01*
X122406833Y-119359833D01*
X122491500Y-119275166D01*
X122533833Y-119105833D01*
X122533833Y-118809500D01*
X122491500Y-118640166D01*
X122406833Y-118555500D01*
X122322166Y-118513166D01*
X121560166Y-119402166D02*
X121560166Y-118513166D01*
X121179166Y-119402166D02*
X121179166Y-118936500D01*
X121221500Y-118851833D01*
X121306166Y-118809500D01*
X121433166Y-118809500D01*
X121517833Y-118851833D01*
X121560166Y-118894166D01*
X120755833Y-118809500D02*
X120755833Y-119402166D01*
X120755833Y-118894166D02*
X120713500Y-118851833D01*
X120628833Y-118809500D01*
X120501833Y-118809500D01*
X120417166Y-118851833D01*
X120374833Y-118936500D01*
X120374833Y-119402166D01*
X119570500Y-119402166D02*
X119570500Y-118936500D01*
X119612833Y-118851833D01*
X119697500Y-118809500D01*
X119866833Y-118809500D01*
X119951500Y-118851833D01*
X119570500Y-119359833D02*
X119655166Y-119402166D01*
X119866833Y-119402166D01*
X119951500Y-119359833D01*
X119993833Y-119275166D01*
X119993833Y-119190500D01*
X119951500Y-119105833D01*
X119866833Y-119063500D01*
X119655166Y-119063500D01*
X119570500Y-119021166D01*
X119147166Y-119402166D02*
X119147166Y-118513166D01*
X119062500Y-119063500D02*
X118808500Y-119402166D01*
X118808500Y-118809500D02*
X119147166Y-119148166D01*
X118046500Y-119402166D02*
X118046500Y-118936500D01*
X118088833Y-118851833D01*
X118173500Y-118809500D01*
X118342833Y-118809500D01*
X118427500Y-118851833D01*
X118046500Y-119359833D02*
X118131166Y-119402166D01*
X118342833Y-119402166D01*
X118427500Y-119359833D01*
X118469833Y-119275166D01*
X118469833Y-119190500D01*
X118427500Y-119105833D01*
X118342833Y-119063500D01*
X118131166Y-119063500D01*
X118046500Y-119021166D01*
X129942166Y-120515533D02*
X129984500Y-120473200D01*
X130069166Y-120430866D01*
X130153833Y-120430866D01*
X130238500Y-120473200D01*
X130280833Y-120515533D01*
X130323166Y-120600200D01*
X130323166Y-120684866D01*
X130280833Y-120769533D01*
X130238500Y-120811866D01*
X130153833Y-120854200D01*
X130069166Y-120854200D01*
X129984500Y-120811866D01*
X129942166Y-120769533D01*
X129942166Y-120430866D02*
X129942166Y-120769533D01*
X129899833Y-120811866D01*
X129857500Y-120811866D01*
X129772833Y-120769533D01*
X129730500Y-120684866D01*
X129730500Y-120473200D01*
X129815166Y-120346200D01*
X129942166Y-120261533D01*
X130111500Y-120219200D01*
X130280833Y-120261533D01*
X130407833Y-120346200D01*
X130492500Y-120473200D01*
X130534833Y-120642533D01*
X130492500Y-120811866D01*
X130407833Y-120938866D01*
X130280833Y-121023533D01*
X130111500Y-121065866D01*
X129942166Y-121023533D01*
X129815166Y-120938866D01*
X129349500Y-120938866D02*
X129349500Y-120049866D01*
X129264833Y-120600200D02*
X129010833Y-120938866D01*
X129010833Y-120346200D02*
X129349500Y-120684866D01*
X128248833Y-120346200D02*
X128248833Y-120938866D01*
X128629833Y-120346200D02*
X128629833Y-120811866D01*
X128587500Y-120896533D01*
X128502833Y-120938866D01*
X128375833Y-120938866D01*
X128291166Y-120896533D01*
X128248833Y-120854200D01*
X127825500Y-120346200D02*
X127825500Y-120938866D01*
X127825500Y-120430866D02*
X127783166Y-120388533D01*
X127698500Y-120346200D01*
X127571500Y-120346200D01*
X127486833Y-120388533D01*
X127444500Y-120473200D01*
X127444500Y-120938866D01*
X127021166Y-120938866D02*
X127021166Y-120346200D01*
X127021166Y-120049866D02*
X127063500Y-120092200D01*
X127021166Y-120134533D01*
X126978833Y-120092200D01*
X127021166Y-120049866D01*
X127021166Y-120134533D01*
X126216833Y-120896533D02*
X126301500Y-120938866D01*
X126470833Y-120938866D01*
X126555500Y-120896533D01*
X126597833Y-120854200D01*
X126640166Y-120769533D01*
X126640166Y-120515533D01*
X126597833Y-120430866D01*
X126555500Y-120388533D01*
X126470833Y-120346200D01*
X126301500Y-120346200D01*
X126216833Y-120388533D01*
X125835833Y-120938866D02*
X125835833Y-120049866D01*
X125454833Y-120938866D02*
X125454833Y-120473200D01*
X125497166Y-120388533D01*
X125581833Y-120346200D01*
X125708833Y-120346200D01*
X125793500Y-120388533D01*
X125835833Y-120430866D01*
X125031500Y-120938866D02*
X125031500Y-120346200D01*
X125031500Y-120049866D02*
X125073833Y-120092200D01*
X125031500Y-120134533D01*
X124989166Y-120092200D01*
X125031500Y-120049866D01*
X125031500Y-120134533D01*
X124608166Y-120938866D02*
X124608166Y-120049866D01*
X124523500Y-120600200D02*
X124269500Y-120938866D01*
X124269500Y-120346200D02*
X124608166Y-120684866D01*
X123761500Y-120938866D02*
X123846166Y-120896533D01*
X123888500Y-120854200D01*
X123930833Y-120769533D01*
X123930833Y-120515533D01*
X123888500Y-120430866D01*
X123846166Y-120388533D01*
X123761500Y-120346200D01*
X123634500Y-120346200D01*
X123549833Y-120388533D01*
X123507500Y-120430866D01*
X123465166Y-120515533D01*
X123465166Y-120769533D01*
X123507500Y-120854200D01*
X123549833Y-120896533D01*
X123634500Y-120938866D01*
X123761500Y-120938866D01*
D11*
X59250000Y-114600000D02*
X58650000Y-114300000D01*
X59250000Y-114000000D02*
X59250000Y-114600000D01*
X58650000Y-114300000D02*
X59250000Y-114000000D01*
X55560000Y-122120000D02*
X55560000Y-121800000D01*
X52140000Y-122120000D02*
X55560000Y-122120000D01*
X52060000Y-121800000D02*
X52140000Y-122120000D01*
X52140000Y-121480000D02*
X52060000Y-121800000D01*
X55560000Y-121480000D02*
X52140000Y-121480000D01*
X55560000Y-121800000D02*
X55560000Y-121480000D01*
X56560000Y-120470000D02*
X56560000Y-120630000D01*
X55560000Y-119620000D02*
X55560000Y-119300000D01*
X52140000Y-119620000D02*
X55560000Y-119620000D01*
X52060000Y-119300000D02*
X52140000Y-119620000D01*
X52140000Y-118980000D02*
X52060000Y-119300000D01*
X55560000Y-118980000D02*
X52140000Y-118980000D01*
X55560000Y-119300000D02*
X55560000Y-118980000D01*
X56560000Y-117970000D02*
X56560000Y-118130000D01*
X55560000Y-117120000D02*
X55560000Y-116800000D01*
X52140000Y-117120000D02*
X55560000Y-117120000D01*
X52060000Y-116800000D02*
X52140000Y-117120000D01*
X52140000Y-116480000D02*
X52060000Y-116800000D01*
X55560000Y-116480000D02*
X52140000Y-116480000D01*
X55560000Y-116800000D02*
X55560000Y-116480000D01*
X56560000Y-115470000D02*
X56560000Y-115630000D01*
X55560000Y-114620000D02*
X55560000Y-114300000D01*
X52140000Y-114620000D02*
X55560000Y-114620000D01*
X52060000Y-114300000D02*
X52140000Y-114620000D01*
X52140000Y-113980000D02*
X52060000Y-114300000D01*
X55560000Y-113980000D02*
X52140000Y-113980000D01*
X55560000Y-114300000D02*
X55560000Y-113980000D01*
X55560000Y-112910000D02*
X55560000Y-123190000D01*
X56560000Y-123190000D02*
X56560000Y-124410000D01*
X51560000Y-123190000D02*
X56560000Y-123190000D01*
X51560000Y-124410000D02*
X51560000Y-123190000D01*
X56560000Y-112910000D02*
X56560000Y-111690000D01*
X51560000Y-112910000D02*
X56560000Y-112910000D01*
X51560000Y-111690000D02*
X51560000Y-112910000D01*
X58760000Y-123190000D02*
X56560000Y-123190000D01*
X58760000Y-124410000D02*
X58760000Y-123190000D01*
X50340000Y-124410000D02*
X58760000Y-124410000D01*
X50340000Y-111690000D02*
X50340000Y-124410000D01*
X58760000Y-111690000D02*
X50340000Y-111690000D01*
X58760000Y-112910000D02*
X58760000Y-111690000D01*
X56560000Y-112910000D02*
X58760000Y-112910000D01*
X96455000Y-102805000D02*
X96455000Y-104205000D01*
X97855000Y-102805000D02*
X96455000Y-102805000D01*
X97855000Y-104205000D02*
X97855000Y-102805000D01*
X96455000Y-104205000D02*
X97855000Y-104205000D01*
D12*
X89675000Y-107335000D02*
X90175000Y-107335000D01*
X89675000Y-106835000D02*
X89675000Y-107335000D01*
X89675000Y-97135000D02*
X90175000Y-97135000D01*
X89675000Y-97635000D02*
X89675000Y-97135000D01*
X94475000Y-97735000D02*
X95375000Y-97735000D01*
X94475000Y-97635000D02*
X94475000Y-97735000D01*
X94075000Y-97235000D02*
X94475000Y-97635000D01*
X93675000Y-97235000D02*
X94075000Y-97235000D01*
X94475000Y-107335000D02*
X94475000Y-106935000D01*
X94075000Y-107335000D02*
X94475000Y-107335000D01*
D11*
X69155000Y-122030000D02*
X69155000Y-120380000D01*
X104835000Y-122030000D02*
X69155000Y-122030000D01*
X104835000Y-116730000D02*
X104835000Y-122030000D01*
X69155000Y-116730000D02*
X104835000Y-116730000D01*
X69155000Y-118380000D02*
X69155000Y-116730000D01*
X69155000Y-120380000D02*
G75*
G03X69155000Y-118380000I0J1000000D01*
G01*
X62545000Y-105410000D02*
G75*
G03X62545000Y-105410000I-950000J0D01*
G01*
X62545000Y-102870000D02*
G75*
G03X62545000Y-102870000I-950000J0D01*
G01*
X62545000Y-100330000D02*
G75*
G03X62545000Y-100330000I-950000J0D01*
G01*
X59250000Y-94280000D02*
X58650000Y-93980000D01*
X59250000Y-93680000D02*
X59250000Y-94280000D01*
X58650000Y-93980000D02*
X59250000Y-93680000D01*
X55560000Y-104300000D02*
X55560000Y-103980000D01*
X52140000Y-104300000D02*
X55560000Y-104300000D01*
X52060000Y-103980000D02*
X52140000Y-104300000D01*
X52140000Y-103660000D02*
X52060000Y-103980000D01*
X55560000Y-103660000D02*
X52140000Y-103660000D01*
X55560000Y-103980000D02*
X55560000Y-103660000D01*
X56560000Y-102650000D02*
X56560000Y-102810000D01*
X55560000Y-101800000D02*
X55560000Y-101480000D01*
X52140000Y-101800000D02*
X55560000Y-101800000D01*
X52060000Y-101480000D02*
X52140000Y-101800000D01*
X52140000Y-101160000D02*
X52060000Y-101480000D01*
X55560000Y-101160000D02*
X52140000Y-101160000D01*
X55560000Y-101480000D02*
X55560000Y-101160000D01*
X56560000Y-100150000D02*
X56560000Y-100310000D01*
X55560000Y-99300000D02*
X55560000Y-98980000D01*
X52140000Y-99300000D02*
X55560000Y-99300000D01*
X52060000Y-98980000D02*
X52140000Y-99300000D01*
X52140000Y-98660000D02*
X52060000Y-98980000D01*
X55560000Y-98660000D02*
X52140000Y-98660000D01*
X55560000Y-98980000D02*
X55560000Y-98660000D01*
X56560000Y-97650000D02*
X56560000Y-97810000D01*
X55560000Y-96800000D02*
X55560000Y-96480000D01*
X52140000Y-96800000D02*
X55560000Y-96800000D01*
X52060000Y-96480000D02*
X52140000Y-96800000D01*
X52140000Y-96160000D02*
X52060000Y-96480000D01*
X55560000Y-96160000D02*
X52140000Y-96160000D01*
X55560000Y-96480000D02*
X55560000Y-96160000D01*
X56560000Y-95150000D02*
X56560000Y-95310000D01*
X55560000Y-94300000D02*
X55560000Y-93980000D01*
X52140000Y-94300000D02*
X55560000Y-94300000D01*
X52060000Y-93980000D02*
X52140000Y-94300000D01*
X52140000Y-93660000D02*
X52060000Y-93980000D01*
X55560000Y-93660000D02*
X52140000Y-93660000D01*
X55560000Y-93980000D02*
X55560000Y-93660000D01*
X55560000Y-92590000D02*
X55560000Y-105370000D01*
X56560000Y-105370000D02*
X56560000Y-106590000D01*
X51560000Y-105370000D02*
X56560000Y-105370000D01*
X51560000Y-106590000D02*
X51560000Y-105370000D01*
X56560000Y-92590000D02*
X56560000Y-91370000D01*
X51560000Y-92590000D02*
X56560000Y-92590000D01*
X51560000Y-91370000D02*
X51560000Y-92590000D01*
X58760000Y-105370000D02*
X56560000Y-105370000D01*
X58760000Y-106590000D02*
X58760000Y-105370000D01*
X50340000Y-106590000D02*
X58760000Y-106590000D01*
X50340000Y-91370000D02*
X50340000Y-106590000D01*
X58760000Y-91370000D02*
X50340000Y-91370000D01*
X58760000Y-92590000D02*
X58760000Y-91370000D01*
X56560000Y-92590000D02*
X58760000Y-92590000D01*
D13*
X54943333Y-109942380D02*
X54943333Y-110656666D01*
X54990952Y-110799523D01*
X55086190Y-110894761D01*
X55229047Y-110942380D01*
X55324285Y-110942380D01*
X54514761Y-110037619D02*
X54467142Y-109990000D01*
X54371904Y-109942380D01*
X54133809Y-109942380D01*
X54038571Y-109990000D01*
X53990952Y-110037619D01*
X53943333Y-110132857D01*
X53943333Y-110228095D01*
X53990952Y-110370952D01*
X54562380Y-110942380D01*
X53943333Y-110942380D01*
X98416904Y-104405380D02*
X97845476Y-104405380D01*
X98131190Y-105405380D02*
X98131190Y-104405380D01*
X97512142Y-105405380D02*
X97512142Y-104405380D01*
X97131190Y-104405380D01*
X97035952Y-104453000D01*
X96988333Y-104500619D01*
X96940714Y-104595857D01*
X96940714Y-104738714D01*
X96988333Y-104833952D01*
X97035952Y-104881571D01*
X97131190Y-104929190D01*
X97512142Y-104929190D01*
X95988333Y-105405380D02*
X96559761Y-105405380D01*
X96274047Y-105405380D02*
X96274047Y-104405380D01*
X96369285Y-104548238D01*
X96464523Y-104643476D01*
X96559761Y-104691095D01*
X86157380Y-101673095D02*
X86966904Y-101673095D01*
X87062142Y-101720714D01*
X87109761Y-101768333D01*
X87157380Y-101863571D01*
X87157380Y-102054047D01*
X87109761Y-102149285D01*
X87062142Y-102196904D01*
X86966904Y-102244523D01*
X86157380Y-102244523D01*
X87157380Y-103244523D02*
X87157380Y-102673095D01*
X87157380Y-102958809D02*
X86157380Y-102958809D01*
X86300238Y-102863571D01*
X86395476Y-102768333D01*
X86443095Y-102673095D01*
X67607380Y-118618095D02*
X68416904Y-118618095D01*
X68512142Y-118665714D01*
X68559761Y-118713333D01*
X68607380Y-118808571D01*
X68607380Y-118999047D01*
X68559761Y-119094285D01*
X68512142Y-119141904D01*
X68416904Y-119189523D01*
X67607380Y-119189523D01*
X67702619Y-119618095D02*
X67655000Y-119665714D01*
X67607380Y-119760952D01*
X67607380Y-119999047D01*
X67655000Y-120094285D01*
X67702619Y-120141904D01*
X67797857Y-120189523D01*
X67893095Y-120189523D01*
X68035952Y-120141904D01*
X68607380Y-119570476D01*
X68607380Y-120189523D01*
X65349285Y-105814761D02*
X65206428Y-105862380D01*
X64968333Y-105862380D01*
X64873095Y-105814761D01*
X64825476Y-105767142D01*
X64777857Y-105671904D01*
X64777857Y-105576666D01*
X64825476Y-105481428D01*
X64873095Y-105433809D01*
X64968333Y-105386190D01*
X65158809Y-105338571D01*
X65254047Y-105290952D01*
X65301666Y-105243333D01*
X65349285Y-105148095D01*
X65349285Y-105052857D01*
X65301666Y-104957619D01*
X65254047Y-104910000D01*
X65158809Y-104862380D01*
X64920714Y-104862380D01*
X64777857Y-104910000D01*
X64349285Y-105862380D02*
X64349285Y-104862380D01*
X64111190Y-104862380D01*
X63968333Y-104910000D01*
X63873095Y-105005238D01*
X63825476Y-105100476D01*
X63777857Y-105290952D01*
X63777857Y-105433809D01*
X63825476Y-105624285D01*
X63873095Y-105719523D01*
X63968333Y-105814761D01*
X64111190Y-105862380D01*
X64349285Y-105862380D01*
X63396904Y-105576666D02*
X62920714Y-105576666D01*
X63492142Y-105862380D02*
X63158809Y-104862380D01*
X62825476Y-105862380D01*
X65325476Y-103274761D02*
X65182619Y-103322380D01*
X64944523Y-103322380D01*
X64849285Y-103274761D01*
X64801666Y-103227142D01*
X64754047Y-103131904D01*
X64754047Y-103036666D01*
X64801666Y-102941428D01*
X64849285Y-102893809D01*
X64944523Y-102846190D01*
X65135000Y-102798571D01*
X65230238Y-102750952D01*
X65277857Y-102703333D01*
X65325476Y-102608095D01*
X65325476Y-102512857D01*
X65277857Y-102417619D01*
X65230238Y-102370000D01*
X65135000Y-102322380D01*
X64896904Y-102322380D01*
X64754047Y-102370000D01*
X63754047Y-103227142D02*
X63801666Y-103274761D01*
X63944523Y-103322380D01*
X64039761Y-103322380D01*
X64182619Y-103274761D01*
X64277857Y-103179523D01*
X64325476Y-103084285D01*
X64373095Y-102893809D01*
X64373095Y-102750952D01*
X64325476Y-102560476D01*
X64277857Y-102465238D01*
X64182619Y-102370000D01*
X64039761Y-102322380D01*
X63944523Y-102322380D01*
X63801666Y-102370000D01*
X63754047Y-102417619D01*
X62849285Y-103322380D02*
X63325476Y-103322380D01*
X63325476Y-102322380D01*
X66222380Y-100782380D02*
X66555714Y-100306190D01*
X66793809Y-100782380D02*
X66793809Y-99782380D01*
X66412857Y-99782380D01*
X66317619Y-99830000D01*
X66270000Y-99877619D01*
X66222380Y-99972857D01*
X66222380Y-100115714D01*
X66270000Y-100210952D01*
X66317619Y-100258571D01*
X66412857Y-100306190D01*
X66793809Y-100306190D01*
X65793809Y-100258571D02*
X65460476Y-100258571D01*
X65317619Y-100782380D02*
X65793809Y-100782380D01*
X65793809Y-99782380D01*
X65317619Y-99782380D01*
X64936666Y-100734761D02*
X64793809Y-100782380D01*
X64555714Y-100782380D01*
X64460476Y-100734761D01*
X64412857Y-100687142D01*
X64365238Y-100591904D01*
X64365238Y-100496666D01*
X64412857Y-100401428D01*
X64460476Y-100353809D01*
X64555714Y-100306190D01*
X64746190Y-100258571D01*
X64841428Y-100210952D01*
X64889047Y-100163333D01*
X64936666Y-100068095D01*
X64936666Y-99972857D01*
X64889047Y-99877619D01*
X64841428Y-99830000D01*
X64746190Y-99782380D01*
X64508095Y-99782380D01*
X64365238Y-99830000D01*
X63936666Y-100258571D02*
X63603333Y-100258571D01*
X63460476Y-100782380D02*
X63936666Y-100782380D01*
X63936666Y-99782380D01*
X63460476Y-99782380D01*
X63174761Y-99782380D02*
X62603333Y-99782380D01*
X62889047Y-100782380D02*
X62889047Y-99782380D01*
X118840000Y-123261428D02*
X118078095Y-123261428D01*
X118459047Y-123642380D02*
X118459047Y-122880476D01*
X117697142Y-122642380D02*
X117078095Y-122642380D01*
X117411428Y-123023333D01*
X117268571Y-123023333D01*
X117173333Y-123070952D01*
X117125714Y-123118571D01*
X117078095Y-123213809D01*
X117078095Y-123451904D01*
X117125714Y-123547142D01*
X117173333Y-123594761D01*
X117268571Y-123642380D01*
X117554285Y-123642380D01*
X117649523Y-123594761D01*
X117697142Y-123547142D01*
X116649523Y-123547142D02*
X116601904Y-123594761D01*
X116649523Y-123642380D01*
X116697142Y-123594761D01*
X116649523Y-123547142D01*
X116649523Y-123642380D01*
X116268571Y-122642380D02*
X115649523Y-122642380D01*
X115982857Y-123023333D01*
X115840000Y-123023333D01*
X115744761Y-123070952D01*
X115697142Y-123118571D01*
X115649523Y-123213809D01*
X115649523Y-123451904D01*
X115697142Y-123547142D01*
X115744761Y-123594761D01*
X115840000Y-123642380D01*
X116125714Y-123642380D01*
X116220952Y-123594761D01*
X116268571Y-123547142D01*
X115363809Y-122642380D02*
X115030476Y-123642380D01*
X114697142Y-122642380D01*
X132206904Y-122690000D02*
X132302142Y-122642380D01*
X132445000Y-122642380D01*
X132587857Y-122690000D01*
X132683095Y-122785238D01*
X132730714Y-122880476D01*
X132778333Y-123070952D01*
X132778333Y-123213809D01*
X132730714Y-123404285D01*
X132683095Y-123499523D01*
X132587857Y-123594761D01*
X132445000Y-123642380D01*
X132349761Y-123642380D01*
X132206904Y-123594761D01*
X132159285Y-123547142D01*
X132159285Y-123213809D01*
X132349761Y-123213809D01*
X131730714Y-123642380D02*
X131730714Y-122642380D01*
X131159285Y-123642380D01*
X131159285Y-122642380D01*
X130683095Y-123642380D02*
X130683095Y-122642380D01*
X130445000Y-122642380D01*
X130302142Y-122690000D01*
X130206904Y-122785238D01*
X130159285Y-122880476D01*
X130111666Y-123070952D01*
X130111666Y-123213809D01*
X130159285Y-123404285D01*
X130206904Y-123499523D01*
X130302142Y-123594761D01*
X130445000Y-123642380D01*
X130683095Y-123642380D01*
X54943333Y-106767380D02*
X54943333Y-107481666D01*
X54990952Y-107624523D01*
X55086190Y-107719761D01*
X55229047Y-107767380D01*
X55324285Y-107767380D01*
X53943333Y-107767380D02*
X54514761Y-107767380D01*
X54229047Y-107767380D02*
X54229047Y-106767380D01*
X54324285Y-106910238D01*
X54419523Y-107005476D01*
X54514761Y-107053095D01*
M02*
