G04 #@! TF.GenerationSoftware,KiCad,Pcbnew,(5.1.5-0-10_14)*
G04 #@! TF.CreationDate,2020-08-25T00:06:46+09:00*
G04 #@! TF.ProjectId,FPGA-X68k-ProCaseLED,46504741-2d58-4363-986b-2d50726f4361,rev?*
G04 #@! TF.SameCoordinates,Original*
G04 #@! TF.FileFunction,Soldermask,Bot*
G04 #@! TF.FilePolarity,Negative*
%FSLAX46Y46*%
G04 Gerber Fmt 4.6, Leading zero omitted, Abs format (unit mm)*
G04 Created by KiCad (PCBNEW (5.1.5-0-10_14)) date 2020-08-25 00:06:46*
%MOMM*%
%LPD*%
G04 APERTURE LIST*
%ADD10C,0.100000*%
G04 APERTURE END LIST*
D10*
G36*
X161524239Y-118731467D02*
G01*
X161838282Y-118793934D01*
X162429926Y-119039001D01*
X162962392Y-119394784D01*
X163415216Y-119847608D01*
X163770999Y-120380074D01*
X164012686Y-120963558D01*
X164016066Y-120971719D01*
X164141000Y-121599803D01*
X164141000Y-122240197D01*
X164101220Y-122440185D01*
X164016066Y-122868282D01*
X163770999Y-123459926D01*
X163588883Y-123732481D01*
X163436714Y-123960219D01*
X163415216Y-123992392D01*
X162962392Y-124445216D01*
X162429926Y-124800999D01*
X161838282Y-125046066D01*
X161524239Y-125108533D01*
X161210197Y-125171000D01*
X160569803Y-125171000D01*
X160255761Y-125108533D01*
X159941718Y-125046066D01*
X159350074Y-124800999D01*
X158817608Y-124445216D01*
X158364784Y-123992392D01*
X158343287Y-123960219D01*
X158191117Y-123732481D01*
X158009001Y-123459926D01*
X157763934Y-122868282D01*
X157678780Y-122440185D01*
X157639000Y-122240197D01*
X157639000Y-121599803D01*
X157763934Y-120971719D01*
X157767314Y-120963558D01*
X158009001Y-120380074D01*
X158364784Y-119847608D01*
X158817608Y-119394784D01*
X159350074Y-119039001D01*
X159941718Y-118793934D01*
X160255761Y-118731467D01*
X160569803Y-118669000D01*
X161210197Y-118669000D01*
X161524239Y-118731467D01*
G37*
G36*
X64769239Y-118731467D02*
G01*
X65083282Y-118793934D01*
X65674926Y-119039001D01*
X66207392Y-119394784D01*
X66660216Y-119847608D01*
X67015999Y-120380074D01*
X67257686Y-120963558D01*
X67261066Y-120971719D01*
X67386000Y-121599803D01*
X67386000Y-122240197D01*
X67346220Y-122440185D01*
X67261066Y-122868282D01*
X67015999Y-123459926D01*
X66833883Y-123732481D01*
X66681714Y-123960219D01*
X66660216Y-123992392D01*
X66207392Y-124445216D01*
X65674926Y-124800999D01*
X65083282Y-125046066D01*
X64769239Y-125108533D01*
X64455197Y-125171000D01*
X63814803Y-125171000D01*
X63500761Y-125108533D01*
X63186718Y-125046066D01*
X62595074Y-124800999D01*
X62062608Y-124445216D01*
X61609784Y-123992392D01*
X61588287Y-123960219D01*
X61436117Y-123732481D01*
X61254001Y-123459926D01*
X61008934Y-122868282D01*
X60923780Y-122440185D01*
X60884000Y-122240197D01*
X60884000Y-121599803D01*
X61008934Y-120971719D01*
X61012314Y-120963558D01*
X61254001Y-120380074D01*
X61609784Y-119847608D01*
X62062608Y-119394784D01*
X62595074Y-119039001D01*
X63186718Y-118793934D01*
X63500761Y-118731467D01*
X63814803Y-118669000D01*
X64455197Y-118669000D01*
X64769239Y-118731467D01*
G37*
G36*
X98673228Y-122371703D02*
G01*
X98828100Y-122435853D01*
X98967481Y-122528985D01*
X99086015Y-122647519D01*
X99179147Y-122786900D01*
X99243297Y-122941772D01*
X99276000Y-123106184D01*
X99276000Y-123273816D01*
X99243297Y-123438228D01*
X99179147Y-123593100D01*
X99086015Y-123732481D01*
X98967481Y-123851015D01*
X98828100Y-123944147D01*
X98673228Y-124008297D01*
X98508816Y-124041000D01*
X98341184Y-124041000D01*
X98176772Y-124008297D01*
X98021900Y-123944147D01*
X97882519Y-123851015D01*
X97763985Y-123732481D01*
X97670853Y-123593100D01*
X97606703Y-123438228D01*
X97574000Y-123273816D01*
X97574000Y-123106184D01*
X97606703Y-122941772D01*
X97670853Y-122786900D01*
X97763985Y-122647519D01*
X97882519Y-122528985D01*
X98021900Y-122435853D01*
X98176772Y-122371703D01*
X98341184Y-122339000D01*
X98508816Y-122339000D01*
X98673228Y-122371703D01*
G37*
G36*
X96133228Y-122371703D02*
G01*
X96288100Y-122435853D01*
X96427481Y-122528985D01*
X96546015Y-122647519D01*
X96639147Y-122786900D01*
X96703297Y-122941772D01*
X96736000Y-123106184D01*
X96736000Y-123273816D01*
X96703297Y-123438228D01*
X96639147Y-123593100D01*
X96546015Y-123732481D01*
X96427481Y-123851015D01*
X96288100Y-123944147D01*
X96133228Y-124008297D01*
X95968816Y-124041000D01*
X95801184Y-124041000D01*
X95636772Y-124008297D01*
X95481900Y-123944147D01*
X95342519Y-123851015D01*
X95223985Y-123732481D01*
X95130853Y-123593100D01*
X95066703Y-123438228D01*
X95034000Y-123273816D01*
X95034000Y-123106184D01*
X95066703Y-122941772D01*
X95130853Y-122786900D01*
X95223985Y-122647519D01*
X95342519Y-122528985D01*
X95481900Y-122435853D01*
X95636772Y-122371703D01*
X95801184Y-122339000D01*
X95968816Y-122339000D01*
X96133228Y-122371703D01*
G37*
G36*
X93593228Y-122371703D02*
G01*
X93748100Y-122435853D01*
X93887481Y-122528985D01*
X94006015Y-122647519D01*
X94099147Y-122786900D01*
X94163297Y-122941772D01*
X94196000Y-123106184D01*
X94196000Y-123273816D01*
X94163297Y-123438228D01*
X94099147Y-123593100D01*
X94006015Y-123732481D01*
X93887481Y-123851015D01*
X93748100Y-123944147D01*
X93593228Y-124008297D01*
X93428816Y-124041000D01*
X93261184Y-124041000D01*
X93096772Y-124008297D01*
X92941900Y-123944147D01*
X92802519Y-123851015D01*
X92683985Y-123732481D01*
X92590853Y-123593100D01*
X92526703Y-123438228D01*
X92494000Y-123273816D01*
X92494000Y-123106184D01*
X92526703Y-122941772D01*
X92590853Y-122786900D01*
X92683985Y-122647519D01*
X92802519Y-122528985D01*
X92941900Y-122435853D01*
X93096772Y-122371703D01*
X93261184Y-122339000D01*
X93428816Y-122339000D01*
X93593228Y-122371703D01*
G37*
G36*
X91053228Y-122371703D02*
G01*
X91208100Y-122435853D01*
X91347481Y-122528985D01*
X91466015Y-122647519D01*
X91559147Y-122786900D01*
X91623297Y-122941772D01*
X91656000Y-123106184D01*
X91656000Y-123273816D01*
X91623297Y-123438228D01*
X91559147Y-123593100D01*
X91466015Y-123732481D01*
X91347481Y-123851015D01*
X91208100Y-123944147D01*
X91053228Y-124008297D01*
X90888816Y-124041000D01*
X90721184Y-124041000D01*
X90556772Y-124008297D01*
X90401900Y-123944147D01*
X90262519Y-123851015D01*
X90143985Y-123732481D01*
X90050853Y-123593100D01*
X89986703Y-123438228D01*
X89954000Y-123273816D01*
X89954000Y-123106184D01*
X89986703Y-122941772D01*
X90050853Y-122786900D01*
X90143985Y-122647519D01*
X90262519Y-122528985D01*
X90401900Y-122435853D01*
X90556772Y-122371703D01*
X90721184Y-122339000D01*
X90888816Y-122339000D01*
X91053228Y-122371703D01*
G37*
G36*
X88513228Y-122371703D02*
G01*
X88668100Y-122435853D01*
X88807481Y-122528985D01*
X88926015Y-122647519D01*
X89019147Y-122786900D01*
X89083297Y-122941772D01*
X89116000Y-123106184D01*
X89116000Y-123273816D01*
X89083297Y-123438228D01*
X89019147Y-123593100D01*
X88926015Y-123732481D01*
X88807481Y-123851015D01*
X88668100Y-123944147D01*
X88513228Y-124008297D01*
X88348816Y-124041000D01*
X88181184Y-124041000D01*
X88016772Y-124008297D01*
X87861900Y-123944147D01*
X87722519Y-123851015D01*
X87603985Y-123732481D01*
X87510853Y-123593100D01*
X87446703Y-123438228D01*
X87414000Y-123273816D01*
X87414000Y-123106184D01*
X87446703Y-122941772D01*
X87510853Y-122786900D01*
X87603985Y-122647519D01*
X87722519Y-122528985D01*
X87861900Y-122435853D01*
X88016772Y-122371703D01*
X88181184Y-122339000D01*
X88348816Y-122339000D01*
X88513228Y-122371703D01*
G37*
G36*
X85973228Y-122371703D02*
G01*
X86128100Y-122435853D01*
X86267481Y-122528985D01*
X86386015Y-122647519D01*
X86479147Y-122786900D01*
X86543297Y-122941772D01*
X86576000Y-123106184D01*
X86576000Y-123273816D01*
X86543297Y-123438228D01*
X86479147Y-123593100D01*
X86386015Y-123732481D01*
X86267481Y-123851015D01*
X86128100Y-123944147D01*
X85973228Y-124008297D01*
X85808816Y-124041000D01*
X85641184Y-124041000D01*
X85476772Y-124008297D01*
X85321900Y-123944147D01*
X85182519Y-123851015D01*
X85063985Y-123732481D01*
X84970853Y-123593100D01*
X84906703Y-123438228D01*
X84874000Y-123273816D01*
X84874000Y-123106184D01*
X84906703Y-122941772D01*
X84970853Y-122786900D01*
X85063985Y-122647519D01*
X85182519Y-122528985D01*
X85321900Y-122435853D01*
X85476772Y-122371703D01*
X85641184Y-122339000D01*
X85808816Y-122339000D01*
X85973228Y-122371703D01*
G37*
G36*
X83433228Y-122371703D02*
G01*
X83588100Y-122435853D01*
X83727481Y-122528985D01*
X83846015Y-122647519D01*
X83939147Y-122786900D01*
X84003297Y-122941772D01*
X84036000Y-123106184D01*
X84036000Y-123273816D01*
X84003297Y-123438228D01*
X83939147Y-123593100D01*
X83846015Y-123732481D01*
X83727481Y-123851015D01*
X83588100Y-123944147D01*
X83433228Y-124008297D01*
X83268816Y-124041000D01*
X83101184Y-124041000D01*
X82936772Y-124008297D01*
X82781900Y-123944147D01*
X82642519Y-123851015D01*
X82523985Y-123732481D01*
X82430853Y-123593100D01*
X82366703Y-123438228D01*
X82334000Y-123273816D01*
X82334000Y-123106184D01*
X82366703Y-122941772D01*
X82430853Y-122786900D01*
X82523985Y-122647519D01*
X82642519Y-122528985D01*
X82781900Y-122435853D01*
X82936772Y-122371703D01*
X83101184Y-122339000D01*
X83268816Y-122339000D01*
X83433228Y-122371703D01*
G37*
G36*
X80893228Y-122371703D02*
G01*
X81048100Y-122435853D01*
X81187481Y-122528985D01*
X81306015Y-122647519D01*
X81399147Y-122786900D01*
X81463297Y-122941772D01*
X81496000Y-123106184D01*
X81496000Y-123273816D01*
X81463297Y-123438228D01*
X81399147Y-123593100D01*
X81306015Y-123732481D01*
X81187481Y-123851015D01*
X81048100Y-123944147D01*
X80893228Y-124008297D01*
X80728816Y-124041000D01*
X80561184Y-124041000D01*
X80396772Y-124008297D01*
X80241900Y-123944147D01*
X80102519Y-123851015D01*
X79983985Y-123732481D01*
X79890853Y-123593100D01*
X79826703Y-123438228D01*
X79794000Y-123273816D01*
X79794000Y-123106184D01*
X79826703Y-122941772D01*
X79890853Y-122786900D01*
X79983985Y-122647519D01*
X80102519Y-122528985D01*
X80241900Y-122435853D01*
X80396772Y-122371703D01*
X80561184Y-122339000D01*
X80728816Y-122339000D01*
X80893228Y-122371703D01*
G37*
G36*
X78353228Y-122371703D02*
G01*
X78508100Y-122435853D01*
X78647481Y-122528985D01*
X78766015Y-122647519D01*
X78859147Y-122786900D01*
X78923297Y-122941772D01*
X78956000Y-123106184D01*
X78956000Y-123273816D01*
X78923297Y-123438228D01*
X78859147Y-123593100D01*
X78766015Y-123732481D01*
X78647481Y-123851015D01*
X78508100Y-123944147D01*
X78353228Y-124008297D01*
X78188816Y-124041000D01*
X78021184Y-124041000D01*
X77856772Y-124008297D01*
X77701900Y-123944147D01*
X77562519Y-123851015D01*
X77443985Y-123732481D01*
X77350853Y-123593100D01*
X77286703Y-123438228D01*
X77254000Y-123273816D01*
X77254000Y-123106184D01*
X77286703Y-122941772D01*
X77350853Y-122786900D01*
X77443985Y-122647519D01*
X77562519Y-122528985D01*
X77701900Y-122435853D01*
X77856772Y-122371703D01*
X78021184Y-122339000D01*
X78188816Y-122339000D01*
X78353228Y-122371703D01*
G37*
G36*
X75813228Y-122371703D02*
G01*
X75968100Y-122435853D01*
X76107481Y-122528985D01*
X76226015Y-122647519D01*
X76319147Y-122786900D01*
X76383297Y-122941772D01*
X76416000Y-123106184D01*
X76416000Y-123273816D01*
X76383297Y-123438228D01*
X76319147Y-123593100D01*
X76226015Y-123732481D01*
X76107481Y-123851015D01*
X75968100Y-123944147D01*
X75813228Y-124008297D01*
X75648816Y-124041000D01*
X75481184Y-124041000D01*
X75316772Y-124008297D01*
X75161900Y-123944147D01*
X75022519Y-123851015D01*
X74903985Y-123732481D01*
X74810853Y-123593100D01*
X74746703Y-123438228D01*
X74714000Y-123273816D01*
X74714000Y-123106184D01*
X74746703Y-122941772D01*
X74810853Y-122786900D01*
X74903985Y-122647519D01*
X75022519Y-122528985D01*
X75161900Y-122435853D01*
X75316772Y-122371703D01*
X75481184Y-122339000D01*
X75648816Y-122339000D01*
X75813228Y-122371703D01*
G37*
G36*
X73273228Y-122371703D02*
G01*
X73428100Y-122435853D01*
X73567481Y-122528985D01*
X73686015Y-122647519D01*
X73779147Y-122786900D01*
X73843297Y-122941772D01*
X73876000Y-123106184D01*
X73876000Y-123273816D01*
X73843297Y-123438228D01*
X73779147Y-123593100D01*
X73686015Y-123732481D01*
X73567481Y-123851015D01*
X73428100Y-123944147D01*
X73273228Y-124008297D01*
X73108816Y-124041000D01*
X72941184Y-124041000D01*
X72776772Y-124008297D01*
X72621900Y-123944147D01*
X72482519Y-123851015D01*
X72363985Y-123732481D01*
X72270853Y-123593100D01*
X72206703Y-123438228D01*
X72174000Y-123273816D01*
X72174000Y-123106184D01*
X72206703Y-122941772D01*
X72270853Y-122786900D01*
X72363985Y-122647519D01*
X72482519Y-122528985D01*
X72621900Y-122435853D01*
X72776772Y-122371703D01*
X72941184Y-122339000D01*
X73108816Y-122339000D01*
X73273228Y-122371703D01*
G37*
G36*
X70733228Y-122371703D02*
G01*
X70888100Y-122435853D01*
X71027481Y-122528985D01*
X71146015Y-122647519D01*
X71239147Y-122786900D01*
X71303297Y-122941772D01*
X71336000Y-123106184D01*
X71336000Y-123273816D01*
X71303297Y-123438228D01*
X71239147Y-123593100D01*
X71146015Y-123732481D01*
X71027481Y-123851015D01*
X70888100Y-123944147D01*
X70733228Y-124008297D01*
X70568816Y-124041000D01*
X70401184Y-124041000D01*
X70236772Y-124008297D01*
X70081900Y-123944147D01*
X69942519Y-123851015D01*
X69823985Y-123732481D01*
X69730853Y-123593100D01*
X69666703Y-123438228D01*
X69634000Y-123273816D01*
X69634000Y-123106184D01*
X69666703Y-122941772D01*
X69730853Y-122786900D01*
X69823985Y-122647519D01*
X69942519Y-122528985D01*
X70081900Y-122435853D01*
X70236772Y-122371703D01*
X70401184Y-122339000D01*
X70568816Y-122339000D01*
X70733228Y-122371703D01*
G37*
G36*
X101213228Y-122371703D02*
G01*
X101368100Y-122435853D01*
X101507481Y-122528985D01*
X101626015Y-122647519D01*
X101719147Y-122786900D01*
X101783297Y-122941772D01*
X101816000Y-123106184D01*
X101816000Y-123273816D01*
X101783297Y-123438228D01*
X101719147Y-123593100D01*
X101626015Y-123732481D01*
X101507481Y-123851015D01*
X101368100Y-123944147D01*
X101213228Y-124008297D01*
X101048816Y-124041000D01*
X100881184Y-124041000D01*
X100716772Y-124008297D01*
X100561900Y-123944147D01*
X100422519Y-123851015D01*
X100303985Y-123732481D01*
X100210853Y-123593100D01*
X100146703Y-123438228D01*
X100114000Y-123273816D01*
X100114000Y-123106184D01*
X100146703Y-122941772D01*
X100210853Y-122786900D01*
X100303985Y-122647519D01*
X100422519Y-122528985D01*
X100561900Y-122435853D01*
X100716772Y-122371703D01*
X100881184Y-122339000D01*
X101048816Y-122339000D01*
X101213228Y-122371703D01*
G37*
G36*
X103753228Y-122371703D02*
G01*
X103908100Y-122435853D01*
X104047481Y-122528985D01*
X104166015Y-122647519D01*
X104259147Y-122786900D01*
X104323297Y-122941772D01*
X104356000Y-123106184D01*
X104356000Y-123273816D01*
X104323297Y-123438228D01*
X104259147Y-123593100D01*
X104166015Y-123732481D01*
X104047481Y-123851015D01*
X103908100Y-123944147D01*
X103753228Y-124008297D01*
X103588816Y-124041000D01*
X103421184Y-124041000D01*
X103256772Y-124008297D01*
X103101900Y-123944147D01*
X102962519Y-123851015D01*
X102843985Y-123732481D01*
X102750853Y-123593100D01*
X102686703Y-123438228D01*
X102654000Y-123273816D01*
X102654000Y-123106184D01*
X102686703Y-122941772D01*
X102750853Y-122786900D01*
X102843985Y-122647519D01*
X102962519Y-122528985D01*
X103101900Y-122435853D01*
X103256772Y-122371703D01*
X103421184Y-122339000D01*
X103588816Y-122339000D01*
X103753228Y-122371703D01*
G37*
G36*
X134853642Y-122419781D02*
G01*
X134999414Y-122480162D01*
X134999416Y-122480163D01*
X135130608Y-122567822D01*
X135242178Y-122679392D01*
X135314012Y-122786900D01*
X135329838Y-122810586D01*
X135390219Y-122956358D01*
X135421000Y-123111107D01*
X135421000Y-123268893D01*
X135390219Y-123423642D01*
X135329838Y-123569414D01*
X135329837Y-123569416D01*
X135242178Y-123700608D01*
X135130608Y-123812178D01*
X134999416Y-123899837D01*
X134999415Y-123899838D01*
X134999414Y-123899838D01*
X134853642Y-123960219D01*
X134698893Y-123991000D01*
X134541107Y-123991000D01*
X134386358Y-123960219D01*
X134240586Y-123899838D01*
X134240585Y-123899838D01*
X134240584Y-123899837D01*
X134109392Y-123812178D01*
X133997822Y-123700608D01*
X133910163Y-123569416D01*
X133910162Y-123569414D01*
X133849781Y-123423642D01*
X133819000Y-123268893D01*
X133819000Y-123111107D01*
X133849781Y-122956358D01*
X133910162Y-122810586D01*
X133925988Y-122786900D01*
X133997822Y-122679392D01*
X134109392Y-122567822D01*
X134240584Y-122480163D01*
X134240586Y-122480162D01*
X134386358Y-122419781D01*
X134541107Y-122389000D01*
X134698893Y-122389000D01*
X134853642Y-122419781D01*
G37*
G36*
X120483642Y-122419781D02*
G01*
X120629414Y-122480162D01*
X120629416Y-122480163D01*
X120760608Y-122567822D01*
X120872178Y-122679392D01*
X120944012Y-122786900D01*
X120959838Y-122810586D01*
X121020219Y-122956358D01*
X121051000Y-123111107D01*
X121051000Y-123268893D01*
X121020219Y-123423642D01*
X120959838Y-123569414D01*
X120959837Y-123569416D01*
X120872178Y-123700608D01*
X120760608Y-123812178D01*
X120629416Y-123899837D01*
X120629415Y-123899838D01*
X120629414Y-123899838D01*
X120483642Y-123960219D01*
X120328893Y-123991000D01*
X120171107Y-123991000D01*
X120016358Y-123960219D01*
X119870586Y-123899838D01*
X119870585Y-123899838D01*
X119870584Y-123899837D01*
X119739392Y-123812178D01*
X119627822Y-123700608D01*
X119540163Y-123569416D01*
X119540162Y-123569414D01*
X119479781Y-123423642D01*
X119449000Y-123268893D01*
X119449000Y-123111107D01*
X119479781Y-122956358D01*
X119540162Y-122810586D01*
X119555988Y-122786900D01*
X119627822Y-122679392D01*
X119739392Y-122567822D01*
X119870584Y-122480163D01*
X119870586Y-122480162D01*
X120016358Y-122419781D01*
X120171107Y-122389000D01*
X120328893Y-122389000D01*
X120483642Y-122419781D01*
G37*
G36*
X57385443Y-120905519D02*
G01*
X57451627Y-120912037D01*
X57621466Y-120963557D01*
X57777991Y-121047222D01*
X57813729Y-121076552D01*
X57915186Y-121159814D01*
X57998448Y-121261271D01*
X58027778Y-121297009D01*
X58111443Y-121453534D01*
X58162963Y-121623373D01*
X58180359Y-121800000D01*
X58162963Y-121976627D01*
X58111443Y-122146466D01*
X58027778Y-122302991D01*
X57998448Y-122338729D01*
X57915186Y-122440186D01*
X57813729Y-122523448D01*
X57777991Y-122552778D01*
X57621466Y-122636443D01*
X57451627Y-122687963D01*
X57385442Y-122694482D01*
X57319260Y-122701000D01*
X56980740Y-122701000D01*
X56914558Y-122694482D01*
X56848373Y-122687963D01*
X56678534Y-122636443D01*
X56522009Y-122552778D01*
X56486271Y-122523448D01*
X56384814Y-122440186D01*
X56301552Y-122338729D01*
X56272222Y-122302991D01*
X56188557Y-122146466D01*
X56137037Y-121976627D01*
X56119641Y-121800000D01*
X56137037Y-121623373D01*
X56188557Y-121453534D01*
X56272222Y-121297009D01*
X56301552Y-121261271D01*
X56384814Y-121159814D01*
X56486271Y-121076552D01*
X56522009Y-121047222D01*
X56678534Y-120963557D01*
X56848373Y-120912037D01*
X56914557Y-120905519D01*
X56980740Y-120899000D01*
X57319260Y-120899000D01*
X57385443Y-120905519D01*
G37*
G36*
X57385443Y-118405519D02*
G01*
X57451627Y-118412037D01*
X57621466Y-118463557D01*
X57777991Y-118547222D01*
X57813729Y-118576552D01*
X57915186Y-118659814D01*
X57998448Y-118761271D01*
X58027778Y-118797009D01*
X58111443Y-118953534D01*
X58162963Y-119123373D01*
X58180359Y-119300000D01*
X58162963Y-119476627D01*
X58111443Y-119646466D01*
X58027778Y-119802991D01*
X57998448Y-119838729D01*
X57915186Y-119940186D01*
X57813729Y-120023448D01*
X57777991Y-120052778D01*
X57621466Y-120136443D01*
X57451627Y-120187963D01*
X57385443Y-120194481D01*
X57319260Y-120201000D01*
X56980740Y-120201000D01*
X56914557Y-120194481D01*
X56848373Y-120187963D01*
X56678534Y-120136443D01*
X56522009Y-120052778D01*
X56486271Y-120023448D01*
X56384814Y-119940186D01*
X56301552Y-119838729D01*
X56272222Y-119802991D01*
X56188557Y-119646466D01*
X56137037Y-119476627D01*
X56119641Y-119300000D01*
X56137037Y-119123373D01*
X56188557Y-118953534D01*
X56272222Y-118797009D01*
X56301552Y-118761271D01*
X56384814Y-118659814D01*
X56486271Y-118576552D01*
X56522009Y-118547222D01*
X56678534Y-118463557D01*
X56848373Y-118412037D01*
X56914557Y-118405519D01*
X56980740Y-118399000D01*
X57319260Y-118399000D01*
X57385443Y-118405519D01*
G37*
G36*
X57385442Y-115905518D02*
G01*
X57451627Y-115912037D01*
X57621466Y-115963557D01*
X57777991Y-116047222D01*
X57813729Y-116076552D01*
X57915186Y-116159814D01*
X57973618Y-116231015D01*
X58027778Y-116297009D01*
X58111443Y-116453534D01*
X58162963Y-116623373D01*
X58180359Y-116800000D01*
X58162963Y-116976627D01*
X58111443Y-117146466D01*
X58027778Y-117302991D01*
X57998448Y-117338729D01*
X57915186Y-117440186D01*
X57813729Y-117523448D01*
X57777991Y-117552778D01*
X57621466Y-117636443D01*
X57451627Y-117687963D01*
X57385443Y-117694481D01*
X57319260Y-117701000D01*
X56980740Y-117701000D01*
X56914557Y-117694481D01*
X56848373Y-117687963D01*
X56678534Y-117636443D01*
X56522009Y-117552778D01*
X56486271Y-117523448D01*
X56384814Y-117440186D01*
X56301552Y-117338729D01*
X56272222Y-117302991D01*
X56188557Y-117146466D01*
X56137037Y-116976627D01*
X56119641Y-116800000D01*
X56137037Y-116623373D01*
X56188557Y-116453534D01*
X56272222Y-116297009D01*
X56326382Y-116231015D01*
X56384814Y-116159814D01*
X56486271Y-116076552D01*
X56522009Y-116047222D01*
X56678534Y-115963557D01*
X56848373Y-115912037D01*
X56914558Y-115905518D01*
X56980740Y-115899000D01*
X57319260Y-115899000D01*
X57385442Y-115905518D01*
G37*
G36*
X73273228Y-114751703D02*
G01*
X73428100Y-114815853D01*
X73567481Y-114908985D01*
X73686015Y-115027519D01*
X73779147Y-115166900D01*
X73843297Y-115321772D01*
X73876000Y-115486184D01*
X73876000Y-115653816D01*
X73843297Y-115818228D01*
X73779147Y-115973100D01*
X73686015Y-116112481D01*
X73567481Y-116231015D01*
X73428100Y-116324147D01*
X73273228Y-116388297D01*
X73108816Y-116421000D01*
X72941184Y-116421000D01*
X72776772Y-116388297D01*
X72621900Y-116324147D01*
X72482519Y-116231015D01*
X72363985Y-116112481D01*
X72270853Y-115973100D01*
X72206703Y-115818228D01*
X72174000Y-115653816D01*
X72174000Y-115486184D01*
X72206703Y-115321772D01*
X72270853Y-115166900D01*
X72363985Y-115027519D01*
X72482519Y-114908985D01*
X72621900Y-114815853D01*
X72776772Y-114751703D01*
X72941184Y-114719000D01*
X73108816Y-114719000D01*
X73273228Y-114751703D01*
G37*
G36*
X85973228Y-114751703D02*
G01*
X86128100Y-114815853D01*
X86267481Y-114908985D01*
X86386015Y-115027519D01*
X86479147Y-115166900D01*
X86543297Y-115321772D01*
X86576000Y-115486184D01*
X86576000Y-115653816D01*
X86543297Y-115818228D01*
X86479147Y-115973100D01*
X86386015Y-116112481D01*
X86267481Y-116231015D01*
X86128100Y-116324147D01*
X85973228Y-116388297D01*
X85808816Y-116421000D01*
X85641184Y-116421000D01*
X85476772Y-116388297D01*
X85321900Y-116324147D01*
X85182519Y-116231015D01*
X85063985Y-116112481D01*
X84970853Y-115973100D01*
X84906703Y-115818228D01*
X84874000Y-115653816D01*
X84874000Y-115486184D01*
X84906703Y-115321772D01*
X84970853Y-115166900D01*
X85063985Y-115027519D01*
X85182519Y-114908985D01*
X85321900Y-114815853D01*
X85476772Y-114751703D01*
X85641184Y-114719000D01*
X85808816Y-114719000D01*
X85973228Y-114751703D01*
G37*
G36*
X103753228Y-114751703D02*
G01*
X103908100Y-114815853D01*
X104047481Y-114908985D01*
X104166015Y-115027519D01*
X104259147Y-115166900D01*
X104323297Y-115321772D01*
X104356000Y-115486184D01*
X104356000Y-115653816D01*
X104323297Y-115818228D01*
X104259147Y-115973100D01*
X104166015Y-116112481D01*
X104047481Y-116231015D01*
X103908100Y-116324147D01*
X103753228Y-116388297D01*
X103588816Y-116421000D01*
X103421184Y-116421000D01*
X103256772Y-116388297D01*
X103101900Y-116324147D01*
X102962519Y-116231015D01*
X102843985Y-116112481D01*
X102750853Y-115973100D01*
X102686703Y-115818228D01*
X102654000Y-115653816D01*
X102654000Y-115486184D01*
X102686703Y-115321772D01*
X102750853Y-115166900D01*
X102843985Y-115027519D01*
X102962519Y-114908985D01*
X103101900Y-114815853D01*
X103256772Y-114751703D01*
X103421184Y-114719000D01*
X103588816Y-114719000D01*
X103753228Y-114751703D01*
G37*
G36*
X71336000Y-116421000D02*
G01*
X69634000Y-116421000D01*
X69634000Y-114719000D01*
X71336000Y-114719000D01*
X71336000Y-116421000D01*
G37*
G36*
X101213228Y-114751703D02*
G01*
X101368100Y-114815853D01*
X101507481Y-114908985D01*
X101626015Y-115027519D01*
X101719147Y-115166900D01*
X101783297Y-115321772D01*
X101816000Y-115486184D01*
X101816000Y-115653816D01*
X101783297Y-115818228D01*
X101719147Y-115973100D01*
X101626015Y-116112481D01*
X101507481Y-116231015D01*
X101368100Y-116324147D01*
X101213228Y-116388297D01*
X101048816Y-116421000D01*
X100881184Y-116421000D01*
X100716772Y-116388297D01*
X100561900Y-116324147D01*
X100422519Y-116231015D01*
X100303985Y-116112481D01*
X100210853Y-115973100D01*
X100146703Y-115818228D01*
X100114000Y-115653816D01*
X100114000Y-115486184D01*
X100146703Y-115321772D01*
X100210853Y-115166900D01*
X100303985Y-115027519D01*
X100422519Y-114908985D01*
X100561900Y-114815853D01*
X100716772Y-114751703D01*
X100881184Y-114719000D01*
X101048816Y-114719000D01*
X101213228Y-114751703D01*
G37*
G36*
X75813228Y-114751703D02*
G01*
X75968100Y-114815853D01*
X76107481Y-114908985D01*
X76226015Y-115027519D01*
X76319147Y-115166900D01*
X76383297Y-115321772D01*
X76416000Y-115486184D01*
X76416000Y-115653816D01*
X76383297Y-115818228D01*
X76319147Y-115973100D01*
X76226015Y-116112481D01*
X76107481Y-116231015D01*
X75968100Y-116324147D01*
X75813228Y-116388297D01*
X75648816Y-116421000D01*
X75481184Y-116421000D01*
X75316772Y-116388297D01*
X75161900Y-116324147D01*
X75022519Y-116231015D01*
X74903985Y-116112481D01*
X74810853Y-115973100D01*
X74746703Y-115818228D01*
X74714000Y-115653816D01*
X74714000Y-115486184D01*
X74746703Y-115321772D01*
X74810853Y-115166900D01*
X74903985Y-115027519D01*
X75022519Y-114908985D01*
X75161900Y-114815853D01*
X75316772Y-114751703D01*
X75481184Y-114719000D01*
X75648816Y-114719000D01*
X75813228Y-114751703D01*
G37*
G36*
X98673228Y-114751703D02*
G01*
X98828100Y-114815853D01*
X98967481Y-114908985D01*
X99086015Y-115027519D01*
X99179147Y-115166900D01*
X99243297Y-115321772D01*
X99276000Y-115486184D01*
X99276000Y-115653816D01*
X99243297Y-115818228D01*
X99179147Y-115973100D01*
X99086015Y-116112481D01*
X98967481Y-116231015D01*
X98828100Y-116324147D01*
X98673228Y-116388297D01*
X98508816Y-116421000D01*
X98341184Y-116421000D01*
X98176772Y-116388297D01*
X98021900Y-116324147D01*
X97882519Y-116231015D01*
X97763985Y-116112481D01*
X97670853Y-115973100D01*
X97606703Y-115818228D01*
X97574000Y-115653816D01*
X97574000Y-115486184D01*
X97606703Y-115321772D01*
X97670853Y-115166900D01*
X97763985Y-115027519D01*
X97882519Y-114908985D01*
X98021900Y-114815853D01*
X98176772Y-114751703D01*
X98341184Y-114719000D01*
X98508816Y-114719000D01*
X98673228Y-114751703D01*
G37*
G36*
X78353228Y-114751703D02*
G01*
X78508100Y-114815853D01*
X78647481Y-114908985D01*
X78766015Y-115027519D01*
X78859147Y-115166900D01*
X78923297Y-115321772D01*
X78956000Y-115486184D01*
X78956000Y-115653816D01*
X78923297Y-115818228D01*
X78859147Y-115973100D01*
X78766015Y-116112481D01*
X78647481Y-116231015D01*
X78508100Y-116324147D01*
X78353228Y-116388297D01*
X78188816Y-116421000D01*
X78021184Y-116421000D01*
X77856772Y-116388297D01*
X77701900Y-116324147D01*
X77562519Y-116231015D01*
X77443985Y-116112481D01*
X77350853Y-115973100D01*
X77286703Y-115818228D01*
X77254000Y-115653816D01*
X77254000Y-115486184D01*
X77286703Y-115321772D01*
X77350853Y-115166900D01*
X77443985Y-115027519D01*
X77562519Y-114908985D01*
X77701900Y-114815853D01*
X77856772Y-114751703D01*
X78021184Y-114719000D01*
X78188816Y-114719000D01*
X78353228Y-114751703D01*
G37*
G36*
X96133228Y-114751703D02*
G01*
X96288100Y-114815853D01*
X96427481Y-114908985D01*
X96546015Y-115027519D01*
X96639147Y-115166900D01*
X96703297Y-115321772D01*
X96736000Y-115486184D01*
X96736000Y-115653816D01*
X96703297Y-115818228D01*
X96639147Y-115973100D01*
X96546015Y-116112481D01*
X96427481Y-116231015D01*
X96288100Y-116324147D01*
X96133228Y-116388297D01*
X95968816Y-116421000D01*
X95801184Y-116421000D01*
X95636772Y-116388297D01*
X95481900Y-116324147D01*
X95342519Y-116231015D01*
X95223985Y-116112481D01*
X95130853Y-115973100D01*
X95066703Y-115818228D01*
X95034000Y-115653816D01*
X95034000Y-115486184D01*
X95066703Y-115321772D01*
X95130853Y-115166900D01*
X95223985Y-115027519D01*
X95342519Y-114908985D01*
X95481900Y-114815853D01*
X95636772Y-114751703D01*
X95801184Y-114719000D01*
X95968816Y-114719000D01*
X96133228Y-114751703D01*
G37*
G36*
X80893228Y-114751703D02*
G01*
X81048100Y-114815853D01*
X81187481Y-114908985D01*
X81306015Y-115027519D01*
X81399147Y-115166900D01*
X81463297Y-115321772D01*
X81496000Y-115486184D01*
X81496000Y-115653816D01*
X81463297Y-115818228D01*
X81399147Y-115973100D01*
X81306015Y-116112481D01*
X81187481Y-116231015D01*
X81048100Y-116324147D01*
X80893228Y-116388297D01*
X80728816Y-116421000D01*
X80561184Y-116421000D01*
X80396772Y-116388297D01*
X80241900Y-116324147D01*
X80102519Y-116231015D01*
X79983985Y-116112481D01*
X79890853Y-115973100D01*
X79826703Y-115818228D01*
X79794000Y-115653816D01*
X79794000Y-115486184D01*
X79826703Y-115321772D01*
X79890853Y-115166900D01*
X79983985Y-115027519D01*
X80102519Y-114908985D01*
X80241900Y-114815853D01*
X80396772Y-114751703D01*
X80561184Y-114719000D01*
X80728816Y-114719000D01*
X80893228Y-114751703D01*
G37*
G36*
X93593228Y-114751703D02*
G01*
X93748100Y-114815853D01*
X93887481Y-114908985D01*
X94006015Y-115027519D01*
X94099147Y-115166900D01*
X94163297Y-115321772D01*
X94196000Y-115486184D01*
X94196000Y-115653816D01*
X94163297Y-115818228D01*
X94099147Y-115973100D01*
X94006015Y-116112481D01*
X93887481Y-116231015D01*
X93748100Y-116324147D01*
X93593228Y-116388297D01*
X93428816Y-116421000D01*
X93261184Y-116421000D01*
X93096772Y-116388297D01*
X92941900Y-116324147D01*
X92802519Y-116231015D01*
X92683985Y-116112481D01*
X92590853Y-115973100D01*
X92526703Y-115818228D01*
X92494000Y-115653816D01*
X92494000Y-115486184D01*
X92526703Y-115321772D01*
X92590853Y-115166900D01*
X92683985Y-115027519D01*
X92802519Y-114908985D01*
X92941900Y-114815853D01*
X93096772Y-114751703D01*
X93261184Y-114719000D01*
X93428816Y-114719000D01*
X93593228Y-114751703D01*
G37*
G36*
X83433228Y-114751703D02*
G01*
X83588100Y-114815853D01*
X83727481Y-114908985D01*
X83846015Y-115027519D01*
X83939147Y-115166900D01*
X84003297Y-115321772D01*
X84036000Y-115486184D01*
X84036000Y-115653816D01*
X84003297Y-115818228D01*
X83939147Y-115973100D01*
X83846015Y-116112481D01*
X83727481Y-116231015D01*
X83588100Y-116324147D01*
X83433228Y-116388297D01*
X83268816Y-116421000D01*
X83101184Y-116421000D01*
X82936772Y-116388297D01*
X82781900Y-116324147D01*
X82642519Y-116231015D01*
X82523985Y-116112481D01*
X82430853Y-115973100D01*
X82366703Y-115818228D01*
X82334000Y-115653816D01*
X82334000Y-115486184D01*
X82366703Y-115321772D01*
X82430853Y-115166900D01*
X82523985Y-115027519D01*
X82642519Y-114908985D01*
X82781900Y-114815853D01*
X82936772Y-114751703D01*
X83101184Y-114719000D01*
X83268816Y-114719000D01*
X83433228Y-114751703D01*
G37*
G36*
X91053228Y-114751703D02*
G01*
X91208100Y-114815853D01*
X91347481Y-114908985D01*
X91466015Y-115027519D01*
X91559147Y-115166900D01*
X91623297Y-115321772D01*
X91656000Y-115486184D01*
X91656000Y-115653816D01*
X91623297Y-115818228D01*
X91559147Y-115973100D01*
X91466015Y-116112481D01*
X91347481Y-116231015D01*
X91208100Y-116324147D01*
X91053228Y-116388297D01*
X90888816Y-116421000D01*
X90721184Y-116421000D01*
X90556772Y-116388297D01*
X90401900Y-116324147D01*
X90262519Y-116231015D01*
X90143985Y-116112481D01*
X90050853Y-115973100D01*
X89986703Y-115818228D01*
X89954000Y-115653816D01*
X89954000Y-115486184D01*
X89986703Y-115321772D01*
X90050853Y-115166900D01*
X90143985Y-115027519D01*
X90262519Y-114908985D01*
X90401900Y-114815853D01*
X90556772Y-114751703D01*
X90721184Y-114719000D01*
X90888816Y-114719000D01*
X91053228Y-114751703D01*
G37*
G36*
X88513228Y-114751703D02*
G01*
X88668100Y-114815853D01*
X88807481Y-114908985D01*
X88926015Y-115027519D01*
X89019147Y-115166900D01*
X89083297Y-115321772D01*
X89116000Y-115486184D01*
X89116000Y-115653816D01*
X89083297Y-115818228D01*
X89019147Y-115973100D01*
X88926015Y-116112481D01*
X88807481Y-116231015D01*
X88668100Y-116324147D01*
X88513228Y-116388297D01*
X88348816Y-116421000D01*
X88181184Y-116421000D01*
X88016772Y-116388297D01*
X87861900Y-116324147D01*
X87722519Y-116231015D01*
X87603985Y-116112481D01*
X87510853Y-115973100D01*
X87446703Y-115818228D01*
X87414000Y-115653816D01*
X87414000Y-115486184D01*
X87446703Y-115321772D01*
X87510853Y-115166900D01*
X87603985Y-115027519D01*
X87722519Y-114908985D01*
X87861900Y-114815853D01*
X88016772Y-114751703D01*
X88181184Y-114719000D01*
X88348816Y-114719000D01*
X88513228Y-114751703D01*
G37*
G36*
X112903618Y-114512420D02*
G01*
X112994404Y-114539960D01*
X113026336Y-114549646D01*
X113139425Y-114610094D01*
X113238554Y-114691446D01*
X113319906Y-114790575D01*
X113380354Y-114903664D01*
X113380355Y-114903668D01*
X113417580Y-115026383D01*
X113427000Y-115122028D01*
X113427000Y-115509973D01*
X113417580Y-115605618D01*
X113402959Y-115653816D01*
X113380354Y-115728336D01*
X113319906Y-115841425D01*
X113238554Y-115940553D01*
X113139424Y-116021906D01*
X113026335Y-116082354D01*
X112994403Y-116092040D01*
X112903617Y-116119580D01*
X112776000Y-116132149D01*
X112648382Y-116119580D01*
X112557596Y-116092040D01*
X112525664Y-116082354D01*
X112412575Y-116021906D01*
X112313447Y-115940554D01*
X112232094Y-115841424D01*
X112171646Y-115728335D01*
X112149041Y-115653815D01*
X112134420Y-115605617D01*
X112125000Y-115509972D01*
X112125000Y-115122027D01*
X112134420Y-115026382D01*
X112171645Y-114903668D01*
X112171646Y-114903664D01*
X112232094Y-114790575D01*
X112313446Y-114691447D01*
X112412576Y-114610094D01*
X112525665Y-114549646D01*
X112557597Y-114539960D01*
X112648383Y-114512420D01*
X112776000Y-114499851D01*
X112903618Y-114512420D01*
G37*
G36*
X114808618Y-114512420D02*
G01*
X114899404Y-114539960D01*
X114931336Y-114549646D01*
X115044425Y-114610094D01*
X115143554Y-114691446D01*
X115224906Y-114790575D01*
X115285354Y-114903664D01*
X115285355Y-114903668D01*
X115322580Y-115026383D01*
X115332000Y-115122028D01*
X115332000Y-115509973D01*
X115322580Y-115605618D01*
X115307959Y-115653816D01*
X115285354Y-115728336D01*
X115224906Y-115841425D01*
X115143554Y-115940553D01*
X115044424Y-116021906D01*
X114931335Y-116082354D01*
X114899403Y-116092040D01*
X114808617Y-116119580D01*
X114681000Y-116132149D01*
X114553382Y-116119580D01*
X114462596Y-116092040D01*
X114430664Y-116082354D01*
X114317575Y-116021906D01*
X114218447Y-115940554D01*
X114137094Y-115841424D01*
X114076646Y-115728335D01*
X114054041Y-115653815D01*
X114039420Y-115605617D01*
X114030000Y-115509972D01*
X114030000Y-115122027D01*
X114039420Y-115026382D01*
X114076645Y-114903668D01*
X114076646Y-114903664D01*
X114137094Y-114790575D01*
X114218446Y-114691447D01*
X114317576Y-114610094D01*
X114430665Y-114549646D01*
X114462597Y-114539960D01*
X114553383Y-114512420D01*
X114681000Y-114499851D01*
X114808618Y-114512420D01*
G37*
G36*
X116713618Y-114512420D02*
G01*
X116804404Y-114539960D01*
X116836336Y-114549646D01*
X116949425Y-114610094D01*
X117048554Y-114691446D01*
X117129906Y-114790575D01*
X117190354Y-114903664D01*
X117190355Y-114903668D01*
X117227580Y-115026383D01*
X117237000Y-115122028D01*
X117237000Y-115509973D01*
X117227580Y-115605618D01*
X117212959Y-115653816D01*
X117190354Y-115728336D01*
X117129906Y-115841425D01*
X117048554Y-115940553D01*
X116949424Y-116021906D01*
X116836335Y-116082354D01*
X116804403Y-116092040D01*
X116713617Y-116119580D01*
X116586000Y-116132149D01*
X116458382Y-116119580D01*
X116367596Y-116092040D01*
X116335664Y-116082354D01*
X116222575Y-116021906D01*
X116123447Y-115940554D01*
X116042094Y-115841424D01*
X115981646Y-115728335D01*
X115959041Y-115653815D01*
X115944420Y-115605617D01*
X115935000Y-115509972D01*
X115935000Y-115122027D01*
X115944420Y-115026382D01*
X115981645Y-114903668D01*
X115981646Y-114903664D01*
X116042094Y-114790575D01*
X116123446Y-114691447D01*
X116222576Y-114610094D01*
X116335665Y-114549646D01*
X116367597Y-114539960D01*
X116458383Y-114512420D01*
X116586000Y-114499851D01*
X116713618Y-114512420D01*
G37*
G36*
X128143618Y-114512420D02*
G01*
X128234404Y-114539960D01*
X128266336Y-114549646D01*
X128379425Y-114610094D01*
X128478554Y-114691446D01*
X128559906Y-114790575D01*
X128620354Y-114903664D01*
X128620355Y-114903668D01*
X128657580Y-115026383D01*
X128667000Y-115122028D01*
X128667000Y-115509973D01*
X128657580Y-115605618D01*
X128642959Y-115653816D01*
X128620354Y-115728336D01*
X128559906Y-115841425D01*
X128478554Y-115940553D01*
X128379424Y-116021906D01*
X128266335Y-116082354D01*
X128234403Y-116092040D01*
X128143617Y-116119580D01*
X128016000Y-116132149D01*
X127888382Y-116119580D01*
X127797596Y-116092040D01*
X127765664Y-116082354D01*
X127652575Y-116021906D01*
X127553447Y-115940554D01*
X127472094Y-115841424D01*
X127411646Y-115728335D01*
X127389041Y-115653815D01*
X127374420Y-115605617D01*
X127365000Y-115509972D01*
X127365000Y-115122027D01*
X127374420Y-115026382D01*
X127411645Y-114903668D01*
X127411646Y-114903664D01*
X127472094Y-114790575D01*
X127553446Y-114691447D01*
X127652576Y-114610094D01*
X127765665Y-114549646D01*
X127797597Y-114539960D01*
X127888383Y-114512420D01*
X128016000Y-114499851D01*
X128143618Y-114512420D01*
G37*
G36*
X118618618Y-114512420D02*
G01*
X118709404Y-114539960D01*
X118741336Y-114549646D01*
X118854425Y-114610094D01*
X118953554Y-114691446D01*
X119034906Y-114790575D01*
X119095354Y-114903664D01*
X119095355Y-114903668D01*
X119132580Y-115026383D01*
X119142000Y-115122028D01*
X119142000Y-115509973D01*
X119132580Y-115605618D01*
X119117959Y-115653816D01*
X119095354Y-115728336D01*
X119034906Y-115841425D01*
X118953554Y-115940553D01*
X118854424Y-116021906D01*
X118741335Y-116082354D01*
X118709403Y-116092040D01*
X118618617Y-116119580D01*
X118491000Y-116132149D01*
X118363382Y-116119580D01*
X118272596Y-116092040D01*
X118240664Y-116082354D01*
X118127575Y-116021906D01*
X118028447Y-115940554D01*
X117947094Y-115841424D01*
X117886646Y-115728335D01*
X117864041Y-115653815D01*
X117849420Y-115605617D01*
X117840000Y-115509972D01*
X117840000Y-115122027D01*
X117849420Y-115026382D01*
X117886645Y-114903668D01*
X117886646Y-114903664D01*
X117947094Y-114790575D01*
X118028446Y-114691447D01*
X118127576Y-114610094D01*
X118240665Y-114549646D01*
X118272597Y-114539960D01*
X118363383Y-114512420D01*
X118491000Y-114499851D01*
X118618618Y-114512420D01*
G37*
G36*
X120523618Y-114512420D02*
G01*
X120614404Y-114539960D01*
X120646336Y-114549646D01*
X120759425Y-114610094D01*
X120858554Y-114691446D01*
X120939906Y-114790575D01*
X121000354Y-114903664D01*
X121000355Y-114903668D01*
X121037580Y-115026383D01*
X121047000Y-115122028D01*
X121047000Y-115509973D01*
X121037580Y-115605618D01*
X121022959Y-115653816D01*
X121000354Y-115728336D01*
X120939906Y-115841425D01*
X120858554Y-115940553D01*
X120759424Y-116021906D01*
X120646335Y-116082354D01*
X120614403Y-116092040D01*
X120523617Y-116119580D01*
X120396000Y-116132149D01*
X120268382Y-116119580D01*
X120177596Y-116092040D01*
X120145664Y-116082354D01*
X120032575Y-116021906D01*
X119933447Y-115940554D01*
X119852094Y-115841424D01*
X119791646Y-115728335D01*
X119769041Y-115653815D01*
X119754420Y-115605617D01*
X119745000Y-115509972D01*
X119745000Y-115122027D01*
X119754420Y-115026382D01*
X119791645Y-114903668D01*
X119791646Y-114903664D01*
X119852094Y-114790575D01*
X119933446Y-114691447D01*
X120032576Y-114610094D01*
X120145665Y-114549646D01*
X120177597Y-114539960D01*
X120268383Y-114512420D01*
X120396000Y-114499851D01*
X120523618Y-114512420D01*
G37*
G36*
X122428618Y-114512420D02*
G01*
X122519404Y-114539960D01*
X122551336Y-114549646D01*
X122664425Y-114610094D01*
X122763554Y-114691446D01*
X122844906Y-114790575D01*
X122905354Y-114903664D01*
X122905355Y-114903668D01*
X122942580Y-115026383D01*
X122952000Y-115122028D01*
X122952000Y-115509973D01*
X122942580Y-115605618D01*
X122927959Y-115653816D01*
X122905354Y-115728336D01*
X122844906Y-115841425D01*
X122763554Y-115940553D01*
X122664424Y-116021906D01*
X122551335Y-116082354D01*
X122519403Y-116092040D01*
X122428617Y-116119580D01*
X122301000Y-116132149D01*
X122173382Y-116119580D01*
X122082596Y-116092040D01*
X122050664Y-116082354D01*
X121937575Y-116021906D01*
X121838447Y-115940554D01*
X121757094Y-115841424D01*
X121696646Y-115728335D01*
X121674041Y-115653815D01*
X121659420Y-115605617D01*
X121650000Y-115509972D01*
X121650000Y-115122027D01*
X121659420Y-115026382D01*
X121696645Y-114903668D01*
X121696646Y-114903664D01*
X121757094Y-114790575D01*
X121838446Y-114691447D01*
X121937576Y-114610094D01*
X122050665Y-114549646D01*
X122082597Y-114539960D01*
X122173383Y-114512420D01*
X122301000Y-114499851D01*
X122428618Y-114512420D01*
G37*
G36*
X124333618Y-114512420D02*
G01*
X124424404Y-114539960D01*
X124456336Y-114549646D01*
X124569425Y-114610094D01*
X124668554Y-114691446D01*
X124749906Y-114790575D01*
X124810354Y-114903664D01*
X124810355Y-114903668D01*
X124847580Y-115026383D01*
X124857000Y-115122028D01*
X124857000Y-115509973D01*
X124847580Y-115605618D01*
X124832959Y-115653816D01*
X124810354Y-115728336D01*
X124749906Y-115841425D01*
X124668554Y-115940553D01*
X124569424Y-116021906D01*
X124456335Y-116082354D01*
X124424403Y-116092040D01*
X124333617Y-116119580D01*
X124206000Y-116132149D01*
X124078382Y-116119580D01*
X123987596Y-116092040D01*
X123955664Y-116082354D01*
X123842575Y-116021906D01*
X123743447Y-115940554D01*
X123662094Y-115841424D01*
X123601646Y-115728335D01*
X123579041Y-115653815D01*
X123564420Y-115605617D01*
X123555000Y-115509972D01*
X123555000Y-115122027D01*
X123564420Y-115026382D01*
X123601645Y-114903668D01*
X123601646Y-114903664D01*
X123662094Y-114790575D01*
X123743446Y-114691447D01*
X123842576Y-114610094D01*
X123955665Y-114549646D01*
X123987597Y-114539960D01*
X124078383Y-114512420D01*
X124206000Y-114499851D01*
X124333618Y-114512420D01*
G37*
G36*
X130048618Y-114512420D02*
G01*
X130139404Y-114539960D01*
X130171336Y-114549646D01*
X130284425Y-114610094D01*
X130383554Y-114691446D01*
X130464906Y-114790575D01*
X130525354Y-114903664D01*
X130525355Y-114903668D01*
X130562580Y-115026383D01*
X130572000Y-115122028D01*
X130572000Y-115509973D01*
X130562580Y-115605618D01*
X130547959Y-115653816D01*
X130525354Y-115728336D01*
X130464906Y-115841425D01*
X130383554Y-115940553D01*
X130284424Y-116021906D01*
X130171335Y-116082354D01*
X130139403Y-116092040D01*
X130048617Y-116119580D01*
X129921000Y-116132149D01*
X129793382Y-116119580D01*
X129702596Y-116092040D01*
X129670664Y-116082354D01*
X129557575Y-116021906D01*
X129458447Y-115940554D01*
X129377094Y-115841424D01*
X129316646Y-115728335D01*
X129294041Y-115653815D01*
X129279420Y-115605617D01*
X129270000Y-115509972D01*
X129270000Y-115122027D01*
X129279420Y-115026382D01*
X129316645Y-114903668D01*
X129316646Y-114903664D01*
X129377094Y-114790575D01*
X129458446Y-114691447D01*
X129557576Y-114610094D01*
X129670665Y-114549646D01*
X129702597Y-114539960D01*
X129793383Y-114512420D01*
X129921000Y-114499851D01*
X130048618Y-114512420D01*
G37*
G36*
X126238618Y-114512420D02*
G01*
X126329404Y-114539960D01*
X126361336Y-114549646D01*
X126474425Y-114610094D01*
X126573554Y-114691446D01*
X126654906Y-114790575D01*
X126715354Y-114903664D01*
X126715355Y-114903668D01*
X126752580Y-115026383D01*
X126762000Y-115122028D01*
X126762000Y-115509973D01*
X126752580Y-115605618D01*
X126737959Y-115653816D01*
X126715354Y-115728336D01*
X126654906Y-115841425D01*
X126573554Y-115940553D01*
X126474424Y-116021906D01*
X126361335Y-116082354D01*
X126329403Y-116092040D01*
X126238617Y-116119580D01*
X126111000Y-116132149D01*
X125983382Y-116119580D01*
X125892596Y-116092040D01*
X125860664Y-116082354D01*
X125747575Y-116021906D01*
X125648447Y-115940554D01*
X125567094Y-115841424D01*
X125506646Y-115728335D01*
X125484041Y-115653815D01*
X125469420Y-115605617D01*
X125460000Y-115509972D01*
X125460000Y-115122027D01*
X125469420Y-115026382D01*
X125506645Y-114903668D01*
X125506646Y-114903664D01*
X125567094Y-114790575D01*
X125648446Y-114691447D01*
X125747576Y-114610094D01*
X125860665Y-114549646D01*
X125892597Y-114539960D01*
X125983383Y-114512420D01*
X126111000Y-114499851D01*
X126238618Y-114512420D01*
G37*
G36*
X133858618Y-114512420D02*
G01*
X133949404Y-114539960D01*
X133981336Y-114549646D01*
X134094425Y-114610094D01*
X134193554Y-114691446D01*
X134274906Y-114790575D01*
X134335354Y-114903664D01*
X134335355Y-114903668D01*
X134372580Y-115026383D01*
X134382000Y-115122028D01*
X134382000Y-115509973D01*
X134372580Y-115605618D01*
X134357959Y-115653816D01*
X134335354Y-115728336D01*
X134274906Y-115841425D01*
X134193554Y-115940553D01*
X134094424Y-116021906D01*
X133981335Y-116082354D01*
X133949403Y-116092040D01*
X133858617Y-116119580D01*
X133731000Y-116132149D01*
X133603382Y-116119580D01*
X133512596Y-116092040D01*
X133480664Y-116082354D01*
X133367575Y-116021906D01*
X133268447Y-115940554D01*
X133187094Y-115841424D01*
X133126646Y-115728335D01*
X133104041Y-115653815D01*
X133089420Y-115605617D01*
X133080000Y-115509972D01*
X133080000Y-115122027D01*
X133089420Y-115026382D01*
X133126645Y-114903668D01*
X133126646Y-114903664D01*
X133187094Y-114790575D01*
X133268446Y-114691447D01*
X133367576Y-114610094D01*
X133480665Y-114549646D01*
X133512597Y-114539960D01*
X133603383Y-114512420D01*
X133731000Y-114499851D01*
X133858618Y-114512420D01*
G37*
G36*
X131953618Y-114512420D02*
G01*
X132044404Y-114539960D01*
X132076336Y-114549646D01*
X132189425Y-114610094D01*
X132288554Y-114691446D01*
X132369906Y-114790575D01*
X132430354Y-114903664D01*
X132430355Y-114903668D01*
X132467580Y-115026383D01*
X132477000Y-115122028D01*
X132477000Y-115509973D01*
X132467580Y-115605618D01*
X132452959Y-115653816D01*
X132430354Y-115728336D01*
X132369906Y-115841425D01*
X132288554Y-115940553D01*
X132189424Y-116021906D01*
X132076335Y-116082354D01*
X132044403Y-116092040D01*
X131953617Y-116119580D01*
X131826000Y-116132149D01*
X131698382Y-116119580D01*
X131607596Y-116092040D01*
X131575664Y-116082354D01*
X131462575Y-116021906D01*
X131363447Y-115940554D01*
X131282094Y-115841424D01*
X131221646Y-115728335D01*
X131199041Y-115653815D01*
X131184420Y-115605617D01*
X131175000Y-115509972D01*
X131175000Y-115122027D01*
X131184420Y-115026382D01*
X131221645Y-114903668D01*
X131221646Y-114903664D01*
X131282094Y-114790575D01*
X131363446Y-114691447D01*
X131462576Y-114610094D01*
X131575665Y-114549646D01*
X131607597Y-114539960D01*
X131698383Y-114512420D01*
X131826000Y-114499851D01*
X131953618Y-114512420D01*
G37*
G36*
X141478618Y-114512420D02*
G01*
X141569404Y-114539960D01*
X141601336Y-114549646D01*
X141714425Y-114610094D01*
X141813554Y-114691446D01*
X141894906Y-114790575D01*
X141955354Y-114903664D01*
X141955355Y-114903668D01*
X141992580Y-115026383D01*
X142002000Y-115122028D01*
X142002000Y-115509973D01*
X141992580Y-115605618D01*
X141977959Y-115653816D01*
X141955354Y-115728336D01*
X141894906Y-115841425D01*
X141813554Y-115940553D01*
X141714424Y-116021906D01*
X141601335Y-116082354D01*
X141569403Y-116092040D01*
X141478617Y-116119580D01*
X141351000Y-116132149D01*
X141223382Y-116119580D01*
X141132596Y-116092040D01*
X141100664Y-116082354D01*
X140987575Y-116021906D01*
X140888447Y-115940554D01*
X140807094Y-115841424D01*
X140746646Y-115728335D01*
X140724041Y-115653815D01*
X140709420Y-115605617D01*
X140700000Y-115509972D01*
X140700000Y-115122027D01*
X140709420Y-115026382D01*
X140746645Y-114903668D01*
X140746646Y-114903664D01*
X140807094Y-114790575D01*
X140888446Y-114691447D01*
X140987576Y-114610094D01*
X141100665Y-114549646D01*
X141132597Y-114539960D01*
X141223383Y-114512420D01*
X141351000Y-114499851D01*
X141478618Y-114512420D01*
G37*
G36*
X137668618Y-114512420D02*
G01*
X137759404Y-114539960D01*
X137791336Y-114549646D01*
X137904425Y-114610094D01*
X138003554Y-114691446D01*
X138084906Y-114790575D01*
X138145354Y-114903664D01*
X138145355Y-114903668D01*
X138182580Y-115026383D01*
X138192000Y-115122028D01*
X138192000Y-115509973D01*
X138182580Y-115605618D01*
X138167959Y-115653816D01*
X138145354Y-115728336D01*
X138084906Y-115841425D01*
X138003554Y-115940553D01*
X137904424Y-116021906D01*
X137791335Y-116082354D01*
X137759403Y-116092040D01*
X137668617Y-116119580D01*
X137541000Y-116132149D01*
X137413382Y-116119580D01*
X137322596Y-116092040D01*
X137290664Y-116082354D01*
X137177575Y-116021906D01*
X137078447Y-115940554D01*
X136997094Y-115841424D01*
X136936646Y-115728335D01*
X136914041Y-115653815D01*
X136899420Y-115605617D01*
X136890000Y-115509972D01*
X136890000Y-115122027D01*
X136899420Y-115026382D01*
X136936645Y-114903668D01*
X136936646Y-114903664D01*
X136997094Y-114790575D01*
X137078446Y-114691447D01*
X137177576Y-114610094D01*
X137290665Y-114549646D01*
X137322597Y-114539960D01*
X137413383Y-114512420D01*
X137541000Y-114499851D01*
X137668618Y-114512420D01*
G37*
G36*
X139573618Y-114512420D02*
G01*
X139664404Y-114539960D01*
X139696336Y-114549646D01*
X139809425Y-114610094D01*
X139908554Y-114691446D01*
X139989906Y-114790575D01*
X140050354Y-114903664D01*
X140050355Y-114903668D01*
X140087580Y-115026383D01*
X140097000Y-115122028D01*
X140097000Y-115509973D01*
X140087580Y-115605618D01*
X140072959Y-115653816D01*
X140050354Y-115728336D01*
X139989906Y-115841425D01*
X139908554Y-115940553D01*
X139809424Y-116021906D01*
X139696335Y-116082354D01*
X139664403Y-116092040D01*
X139573617Y-116119580D01*
X139446000Y-116132149D01*
X139318382Y-116119580D01*
X139227596Y-116092040D01*
X139195664Y-116082354D01*
X139082575Y-116021906D01*
X138983447Y-115940554D01*
X138902094Y-115841424D01*
X138841646Y-115728335D01*
X138819041Y-115653815D01*
X138804420Y-115605617D01*
X138795000Y-115509972D01*
X138795000Y-115122027D01*
X138804420Y-115026382D01*
X138841645Y-114903668D01*
X138841646Y-114903664D01*
X138902094Y-114790575D01*
X138983446Y-114691447D01*
X139082576Y-114610094D01*
X139195665Y-114549646D01*
X139227597Y-114539960D01*
X139318383Y-114512420D01*
X139446000Y-114499851D01*
X139573618Y-114512420D01*
G37*
G36*
X135763618Y-114512420D02*
G01*
X135854404Y-114539960D01*
X135886336Y-114549646D01*
X135999425Y-114610094D01*
X136098554Y-114691446D01*
X136179906Y-114790575D01*
X136240354Y-114903664D01*
X136240355Y-114903668D01*
X136277580Y-115026383D01*
X136287000Y-115122028D01*
X136287000Y-115509973D01*
X136277580Y-115605618D01*
X136262959Y-115653816D01*
X136240354Y-115728336D01*
X136179906Y-115841425D01*
X136098554Y-115940553D01*
X135999424Y-116021906D01*
X135886335Y-116082354D01*
X135854403Y-116092040D01*
X135763617Y-116119580D01*
X135636000Y-116132149D01*
X135508382Y-116119580D01*
X135417596Y-116092040D01*
X135385664Y-116082354D01*
X135272575Y-116021906D01*
X135173447Y-115940554D01*
X135092094Y-115841424D01*
X135031646Y-115728335D01*
X135009041Y-115653815D01*
X134994420Y-115605617D01*
X134985000Y-115509972D01*
X134985000Y-115122027D01*
X134994420Y-115026382D01*
X135031645Y-114903668D01*
X135031646Y-114903664D01*
X135092094Y-114790575D01*
X135173446Y-114691447D01*
X135272576Y-114610094D01*
X135385665Y-114549646D01*
X135417597Y-114539960D01*
X135508383Y-114512420D01*
X135636000Y-114499851D01*
X135763618Y-114512420D01*
G37*
G36*
X58033600Y-113402989D02*
G01*
X58066652Y-113413015D01*
X58097103Y-113429292D01*
X58123799Y-113451201D01*
X58145708Y-113477897D01*
X58161985Y-113508348D01*
X58172011Y-113541400D01*
X58176000Y-113581903D01*
X58176000Y-115018097D01*
X58172011Y-115058600D01*
X58161985Y-115091652D01*
X58145708Y-115122103D01*
X58123799Y-115148799D01*
X58097103Y-115170708D01*
X58066652Y-115186985D01*
X58033600Y-115197011D01*
X57993097Y-115201000D01*
X56306903Y-115201000D01*
X56266400Y-115197011D01*
X56233348Y-115186985D01*
X56202897Y-115170708D01*
X56176201Y-115148799D01*
X56154292Y-115122103D01*
X56138015Y-115091652D01*
X56127989Y-115058600D01*
X56124000Y-115018097D01*
X56124000Y-113581903D01*
X56127989Y-113541400D01*
X56138015Y-113508348D01*
X56154292Y-113477897D01*
X56176201Y-113451201D01*
X56202897Y-113429292D01*
X56233348Y-113413015D01*
X56266400Y-113402989D01*
X56306903Y-113399000D01*
X57993097Y-113399000D01*
X58033600Y-113402989D01*
G37*
G36*
X139573618Y-110956420D02*
G01*
X139664404Y-110983960D01*
X139696336Y-110993646D01*
X139809425Y-111054094D01*
X139908554Y-111135446D01*
X139989906Y-111234575D01*
X140050354Y-111347664D01*
X140050355Y-111347668D01*
X140087580Y-111470383D01*
X140097000Y-111566028D01*
X140097000Y-111953973D01*
X140087580Y-112049618D01*
X140060040Y-112140404D01*
X140050354Y-112172336D01*
X139989906Y-112285425D01*
X139908554Y-112384553D01*
X139809424Y-112465906D01*
X139696335Y-112526354D01*
X139664403Y-112536040D01*
X139573617Y-112563580D01*
X139446000Y-112576149D01*
X139318382Y-112563580D01*
X139227596Y-112536040D01*
X139195664Y-112526354D01*
X139082575Y-112465906D01*
X138983447Y-112384554D01*
X138902094Y-112285424D01*
X138841646Y-112172335D01*
X138831960Y-112140403D01*
X138804420Y-112049617D01*
X138795000Y-111953972D01*
X138795000Y-111566027D01*
X138804420Y-111470382D01*
X138841645Y-111347668D01*
X138841646Y-111347664D01*
X138902094Y-111234575D01*
X138983446Y-111135447D01*
X139082576Y-111054094D01*
X139195665Y-110993646D01*
X139227597Y-110983960D01*
X139318383Y-110956420D01*
X139446000Y-110943851D01*
X139573618Y-110956420D01*
G37*
G36*
X141478618Y-110956420D02*
G01*
X141569404Y-110983960D01*
X141601336Y-110993646D01*
X141714425Y-111054094D01*
X141813554Y-111135446D01*
X141894906Y-111234575D01*
X141955354Y-111347664D01*
X141955355Y-111347668D01*
X141992580Y-111470383D01*
X142002000Y-111566028D01*
X142002000Y-111953973D01*
X141992580Y-112049618D01*
X141965040Y-112140404D01*
X141955354Y-112172336D01*
X141894906Y-112285425D01*
X141813554Y-112384553D01*
X141714424Y-112465906D01*
X141601335Y-112526354D01*
X141569403Y-112536040D01*
X141478617Y-112563580D01*
X141351000Y-112576149D01*
X141223382Y-112563580D01*
X141132596Y-112536040D01*
X141100664Y-112526354D01*
X140987575Y-112465906D01*
X140888447Y-112384554D01*
X140807094Y-112285424D01*
X140746646Y-112172335D01*
X140736960Y-112140403D01*
X140709420Y-112049617D01*
X140700000Y-111953972D01*
X140700000Y-111566027D01*
X140709420Y-111470382D01*
X140746645Y-111347668D01*
X140746646Y-111347664D01*
X140807094Y-111234575D01*
X140888446Y-111135447D01*
X140987576Y-111054094D01*
X141100665Y-110993646D01*
X141132597Y-110983960D01*
X141223383Y-110956420D01*
X141351000Y-110943851D01*
X141478618Y-110956420D01*
G37*
G36*
X135763618Y-110956420D02*
G01*
X135854404Y-110983960D01*
X135886336Y-110993646D01*
X135999425Y-111054094D01*
X136098554Y-111135446D01*
X136179906Y-111234575D01*
X136240354Y-111347664D01*
X136240355Y-111347668D01*
X136277580Y-111470383D01*
X136287000Y-111566028D01*
X136287000Y-111953973D01*
X136277580Y-112049618D01*
X136250040Y-112140404D01*
X136240354Y-112172336D01*
X136179906Y-112285425D01*
X136098554Y-112384553D01*
X135999424Y-112465906D01*
X135886335Y-112526354D01*
X135854403Y-112536040D01*
X135763617Y-112563580D01*
X135636000Y-112576149D01*
X135508382Y-112563580D01*
X135417596Y-112536040D01*
X135385664Y-112526354D01*
X135272575Y-112465906D01*
X135173447Y-112384554D01*
X135092094Y-112285424D01*
X135031646Y-112172335D01*
X135021960Y-112140403D01*
X134994420Y-112049617D01*
X134985000Y-111953972D01*
X134985000Y-111566027D01*
X134994420Y-111470382D01*
X135031645Y-111347668D01*
X135031646Y-111347664D01*
X135092094Y-111234575D01*
X135173446Y-111135447D01*
X135272576Y-111054094D01*
X135385665Y-110993646D01*
X135417597Y-110983960D01*
X135508383Y-110956420D01*
X135636000Y-110943851D01*
X135763618Y-110956420D01*
G37*
G36*
X137668618Y-110956420D02*
G01*
X137759404Y-110983960D01*
X137791336Y-110993646D01*
X137904425Y-111054094D01*
X138003554Y-111135446D01*
X138084906Y-111234575D01*
X138145354Y-111347664D01*
X138145355Y-111347668D01*
X138182580Y-111470383D01*
X138192000Y-111566028D01*
X138192000Y-111953973D01*
X138182580Y-112049618D01*
X138155040Y-112140404D01*
X138145354Y-112172336D01*
X138084906Y-112285425D01*
X138003554Y-112384553D01*
X137904424Y-112465906D01*
X137791335Y-112526354D01*
X137759403Y-112536040D01*
X137668617Y-112563580D01*
X137541000Y-112576149D01*
X137413382Y-112563580D01*
X137322596Y-112536040D01*
X137290664Y-112526354D01*
X137177575Y-112465906D01*
X137078447Y-112384554D01*
X136997094Y-112285424D01*
X136936646Y-112172335D01*
X136926960Y-112140403D01*
X136899420Y-112049617D01*
X136890000Y-111953972D01*
X136890000Y-111566027D01*
X136899420Y-111470382D01*
X136936645Y-111347668D01*
X136936646Y-111347664D01*
X136997094Y-111234575D01*
X137078446Y-111135447D01*
X137177576Y-111054094D01*
X137290665Y-110993646D01*
X137322597Y-110983960D01*
X137413383Y-110956420D01*
X137541000Y-110943851D01*
X137668618Y-110956420D01*
G37*
G36*
X124333618Y-110956420D02*
G01*
X124424404Y-110983960D01*
X124456336Y-110993646D01*
X124569425Y-111054094D01*
X124668554Y-111135446D01*
X124749906Y-111234575D01*
X124810354Y-111347664D01*
X124810355Y-111347668D01*
X124847580Y-111470383D01*
X124857000Y-111566028D01*
X124857000Y-111953973D01*
X124847580Y-112049618D01*
X124820040Y-112140404D01*
X124810354Y-112172336D01*
X124749906Y-112285425D01*
X124668554Y-112384553D01*
X124569424Y-112465906D01*
X124456335Y-112526354D01*
X124424403Y-112536040D01*
X124333617Y-112563580D01*
X124206000Y-112576149D01*
X124078382Y-112563580D01*
X123987596Y-112536040D01*
X123955664Y-112526354D01*
X123842575Y-112465906D01*
X123743447Y-112384554D01*
X123662094Y-112285424D01*
X123601646Y-112172335D01*
X123591960Y-112140403D01*
X123564420Y-112049617D01*
X123555000Y-111953972D01*
X123555000Y-111566027D01*
X123564420Y-111470382D01*
X123601645Y-111347668D01*
X123601646Y-111347664D01*
X123662094Y-111234575D01*
X123743446Y-111135447D01*
X123842576Y-111054094D01*
X123955665Y-110993646D01*
X123987597Y-110983960D01*
X124078383Y-110956420D01*
X124206000Y-110943851D01*
X124333618Y-110956420D01*
G37*
G36*
X126238618Y-110956420D02*
G01*
X126329404Y-110983960D01*
X126361336Y-110993646D01*
X126474425Y-111054094D01*
X126573554Y-111135446D01*
X126654906Y-111234575D01*
X126715354Y-111347664D01*
X126715355Y-111347668D01*
X126752580Y-111470383D01*
X126762000Y-111566028D01*
X126762000Y-111953973D01*
X126752580Y-112049618D01*
X126725040Y-112140404D01*
X126715354Y-112172336D01*
X126654906Y-112285425D01*
X126573554Y-112384553D01*
X126474424Y-112465906D01*
X126361335Y-112526354D01*
X126329403Y-112536040D01*
X126238617Y-112563580D01*
X126111000Y-112576149D01*
X125983382Y-112563580D01*
X125892596Y-112536040D01*
X125860664Y-112526354D01*
X125747575Y-112465906D01*
X125648447Y-112384554D01*
X125567094Y-112285424D01*
X125506646Y-112172335D01*
X125496960Y-112140403D01*
X125469420Y-112049617D01*
X125460000Y-111953972D01*
X125460000Y-111566027D01*
X125469420Y-111470382D01*
X125506645Y-111347668D01*
X125506646Y-111347664D01*
X125567094Y-111234575D01*
X125648446Y-111135447D01*
X125747576Y-111054094D01*
X125860665Y-110993646D01*
X125892597Y-110983960D01*
X125983383Y-110956420D01*
X126111000Y-110943851D01*
X126238618Y-110956420D01*
G37*
G36*
X120523618Y-110956420D02*
G01*
X120614404Y-110983960D01*
X120646336Y-110993646D01*
X120759425Y-111054094D01*
X120858554Y-111135446D01*
X120939906Y-111234575D01*
X121000354Y-111347664D01*
X121000355Y-111347668D01*
X121037580Y-111470383D01*
X121047000Y-111566028D01*
X121047000Y-111953973D01*
X121037580Y-112049618D01*
X121010040Y-112140404D01*
X121000354Y-112172336D01*
X120939906Y-112285425D01*
X120858554Y-112384553D01*
X120759424Y-112465906D01*
X120646335Y-112526354D01*
X120614403Y-112536040D01*
X120523617Y-112563580D01*
X120396000Y-112576149D01*
X120268382Y-112563580D01*
X120177596Y-112536040D01*
X120145664Y-112526354D01*
X120032575Y-112465906D01*
X119933447Y-112384554D01*
X119852094Y-112285424D01*
X119791646Y-112172335D01*
X119781960Y-112140403D01*
X119754420Y-112049617D01*
X119745000Y-111953972D01*
X119745000Y-111566027D01*
X119754420Y-111470382D01*
X119791645Y-111347668D01*
X119791646Y-111347664D01*
X119852094Y-111234575D01*
X119933446Y-111135447D01*
X120032576Y-111054094D01*
X120145665Y-110993646D01*
X120177597Y-110983960D01*
X120268383Y-110956420D01*
X120396000Y-110943851D01*
X120523618Y-110956420D01*
G37*
G36*
X122428618Y-110956420D02*
G01*
X122519404Y-110983960D01*
X122551336Y-110993646D01*
X122664425Y-111054094D01*
X122763554Y-111135446D01*
X122844906Y-111234575D01*
X122905354Y-111347664D01*
X122905355Y-111347668D01*
X122942580Y-111470383D01*
X122952000Y-111566028D01*
X122952000Y-111953973D01*
X122942580Y-112049618D01*
X122915040Y-112140404D01*
X122905354Y-112172336D01*
X122844906Y-112285425D01*
X122763554Y-112384553D01*
X122664424Y-112465906D01*
X122551335Y-112526354D01*
X122519403Y-112536040D01*
X122428617Y-112563580D01*
X122301000Y-112576149D01*
X122173382Y-112563580D01*
X122082596Y-112536040D01*
X122050664Y-112526354D01*
X121937575Y-112465906D01*
X121838447Y-112384554D01*
X121757094Y-112285424D01*
X121696646Y-112172335D01*
X121686960Y-112140403D01*
X121659420Y-112049617D01*
X121650000Y-111953972D01*
X121650000Y-111566027D01*
X121659420Y-111470382D01*
X121696645Y-111347668D01*
X121696646Y-111347664D01*
X121757094Y-111234575D01*
X121838446Y-111135447D01*
X121937576Y-111054094D01*
X122050665Y-110993646D01*
X122082597Y-110983960D01*
X122173383Y-110956420D01*
X122301000Y-110943851D01*
X122428618Y-110956420D01*
G37*
G36*
X116713618Y-110956420D02*
G01*
X116804404Y-110983960D01*
X116836336Y-110993646D01*
X116949425Y-111054094D01*
X117048554Y-111135446D01*
X117129906Y-111234575D01*
X117190354Y-111347664D01*
X117190355Y-111347668D01*
X117227580Y-111470383D01*
X117237000Y-111566028D01*
X117237000Y-111953973D01*
X117227580Y-112049618D01*
X117200040Y-112140404D01*
X117190354Y-112172336D01*
X117129906Y-112285425D01*
X117048554Y-112384553D01*
X116949424Y-112465906D01*
X116836335Y-112526354D01*
X116804403Y-112536040D01*
X116713617Y-112563580D01*
X116586000Y-112576149D01*
X116458382Y-112563580D01*
X116367596Y-112536040D01*
X116335664Y-112526354D01*
X116222575Y-112465906D01*
X116123447Y-112384554D01*
X116042094Y-112285424D01*
X115981646Y-112172335D01*
X115971960Y-112140403D01*
X115944420Y-112049617D01*
X115935000Y-111953972D01*
X115935000Y-111566027D01*
X115944420Y-111470382D01*
X115981645Y-111347668D01*
X115981646Y-111347664D01*
X116042094Y-111234575D01*
X116123446Y-111135447D01*
X116222576Y-111054094D01*
X116335665Y-110993646D01*
X116367597Y-110983960D01*
X116458383Y-110956420D01*
X116586000Y-110943851D01*
X116713618Y-110956420D01*
G37*
G36*
X118618618Y-110956420D02*
G01*
X118709404Y-110983960D01*
X118741336Y-110993646D01*
X118854425Y-111054094D01*
X118953554Y-111135446D01*
X119034906Y-111234575D01*
X119095354Y-111347664D01*
X119095355Y-111347668D01*
X119132580Y-111470383D01*
X119142000Y-111566028D01*
X119142000Y-111953973D01*
X119132580Y-112049618D01*
X119105040Y-112140404D01*
X119095354Y-112172336D01*
X119034906Y-112285425D01*
X118953554Y-112384553D01*
X118854424Y-112465906D01*
X118741335Y-112526354D01*
X118709403Y-112536040D01*
X118618617Y-112563580D01*
X118491000Y-112576149D01*
X118363382Y-112563580D01*
X118272596Y-112536040D01*
X118240664Y-112526354D01*
X118127575Y-112465906D01*
X118028447Y-112384554D01*
X117947094Y-112285424D01*
X117886646Y-112172335D01*
X117876960Y-112140403D01*
X117849420Y-112049617D01*
X117840000Y-111953972D01*
X117840000Y-111566027D01*
X117849420Y-111470382D01*
X117886645Y-111347668D01*
X117886646Y-111347664D01*
X117947094Y-111234575D01*
X118028446Y-111135447D01*
X118127576Y-111054094D01*
X118240665Y-110993646D01*
X118272597Y-110983960D01*
X118363383Y-110956420D01*
X118491000Y-110943851D01*
X118618618Y-110956420D01*
G37*
G36*
X112903618Y-110956420D02*
G01*
X112994404Y-110983960D01*
X113026336Y-110993646D01*
X113139425Y-111054094D01*
X113238554Y-111135446D01*
X113319906Y-111234575D01*
X113380354Y-111347664D01*
X113380355Y-111347668D01*
X113417580Y-111470383D01*
X113427000Y-111566028D01*
X113427000Y-111953973D01*
X113417580Y-112049618D01*
X113390040Y-112140404D01*
X113380354Y-112172336D01*
X113319906Y-112285425D01*
X113238554Y-112384553D01*
X113139424Y-112465906D01*
X113026335Y-112526354D01*
X112994403Y-112536040D01*
X112903617Y-112563580D01*
X112776000Y-112576149D01*
X112648382Y-112563580D01*
X112557596Y-112536040D01*
X112525664Y-112526354D01*
X112412575Y-112465906D01*
X112313447Y-112384554D01*
X112232094Y-112285424D01*
X112171646Y-112172335D01*
X112161960Y-112140403D01*
X112134420Y-112049617D01*
X112125000Y-111953972D01*
X112125000Y-111566027D01*
X112134420Y-111470382D01*
X112171645Y-111347668D01*
X112171646Y-111347664D01*
X112232094Y-111234575D01*
X112313446Y-111135447D01*
X112412576Y-111054094D01*
X112525665Y-110993646D01*
X112557597Y-110983960D01*
X112648383Y-110956420D01*
X112776000Y-110943851D01*
X112903618Y-110956420D01*
G37*
G36*
X114808618Y-110956420D02*
G01*
X114899404Y-110983960D01*
X114931336Y-110993646D01*
X115044425Y-111054094D01*
X115143554Y-111135446D01*
X115224906Y-111234575D01*
X115285354Y-111347664D01*
X115285355Y-111347668D01*
X115322580Y-111470383D01*
X115332000Y-111566028D01*
X115332000Y-111953973D01*
X115322580Y-112049618D01*
X115295040Y-112140404D01*
X115285354Y-112172336D01*
X115224906Y-112285425D01*
X115143554Y-112384553D01*
X115044424Y-112465906D01*
X114931335Y-112526354D01*
X114899403Y-112536040D01*
X114808617Y-112563580D01*
X114681000Y-112576149D01*
X114553382Y-112563580D01*
X114462596Y-112536040D01*
X114430664Y-112526354D01*
X114317575Y-112465906D01*
X114218447Y-112384554D01*
X114137094Y-112285424D01*
X114076646Y-112172335D01*
X114066960Y-112140403D01*
X114039420Y-112049617D01*
X114030000Y-111953972D01*
X114030000Y-111566027D01*
X114039420Y-111470382D01*
X114076645Y-111347668D01*
X114076646Y-111347664D01*
X114137094Y-111234575D01*
X114218446Y-111135447D01*
X114317576Y-111054094D01*
X114430665Y-110993646D01*
X114462597Y-110983960D01*
X114553383Y-110956420D01*
X114681000Y-110943851D01*
X114808618Y-110956420D01*
G37*
G36*
X131953618Y-110956420D02*
G01*
X132044404Y-110983960D01*
X132076336Y-110993646D01*
X132189425Y-111054094D01*
X132288554Y-111135446D01*
X132369906Y-111234575D01*
X132430354Y-111347664D01*
X132430355Y-111347668D01*
X132467580Y-111470383D01*
X132477000Y-111566028D01*
X132477000Y-111953973D01*
X132467580Y-112049618D01*
X132440040Y-112140404D01*
X132430354Y-112172336D01*
X132369906Y-112285425D01*
X132288554Y-112384553D01*
X132189424Y-112465906D01*
X132076335Y-112526354D01*
X132044403Y-112536040D01*
X131953617Y-112563580D01*
X131826000Y-112576149D01*
X131698382Y-112563580D01*
X131607596Y-112536040D01*
X131575664Y-112526354D01*
X131462575Y-112465906D01*
X131363447Y-112384554D01*
X131282094Y-112285424D01*
X131221646Y-112172335D01*
X131211960Y-112140403D01*
X131184420Y-112049617D01*
X131175000Y-111953972D01*
X131175000Y-111566027D01*
X131184420Y-111470382D01*
X131221645Y-111347668D01*
X131221646Y-111347664D01*
X131282094Y-111234575D01*
X131363446Y-111135447D01*
X131462576Y-111054094D01*
X131575665Y-110993646D01*
X131607597Y-110983960D01*
X131698383Y-110956420D01*
X131826000Y-110943851D01*
X131953618Y-110956420D01*
G37*
G36*
X133858618Y-110956420D02*
G01*
X133949404Y-110983960D01*
X133981336Y-110993646D01*
X134094425Y-111054094D01*
X134193554Y-111135446D01*
X134274906Y-111234575D01*
X134335354Y-111347664D01*
X134335355Y-111347668D01*
X134372580Y-111470383D01*
X134382000Y-111566028D01*
X134382000Y-111953973D01*
X134372580Y-112049618D01*
X134345040Y-112140404D01*
X134335354Y-112172336D01*
X134274906Y-112285425D01*
X134193554Y-112384553D01*
X134094424Y-112465906D01*
X133981335Y-112526354D01*
X133949403Y-112536040D01*
X133858617Y-112563580D01*
X133731000Y-112576149D01*
X133603382Y-112563580D01*
X133512596Y-112536040D01*
X133480664Y-112526354D01*
X133367575Y-112465906D01*
X133268447Y-112384554D01*
X133187094Y-112285424D01*
X133126646Y-112172335D01*
X133116960Y-112140403D01*
X133089420Y-112049617D01*
X133080000Y-111953972D01*
X133080000Y-111566027D01*
X133089420Y-111470382D01*
X133126645Y-111347668D01*
X133126646Y-111347664D01*
X133187094Y-111234575D01*
X133268446Y-111135447D01*
X133367576Y-111054094D01*
X133480665Y-110993646D01*
X133512597Y-110983960D01*
X133603383Y-110956420D01*
X133731000Y-110943851D01*
X133858618Y-110956420D01*
G37*
G36*
X128143618Y-110956420D02*
G01*
X128234404Y-110983960D01*
X128266336Y-110993646D01*
X128379425Y-111054094D01*
X128478554Y-111135446D01*
X128559906Y-111234575D01*
X128620354Y-111347664D01*
X128620355Y-111347668D01*
X128657580Y-111470383D01*
X128667000Y-111566028D01*
X128667000Y-111953973D01*
X128657580Y-112049618D01*
X128630040Y-112140404D01*
X128620354Y-112172336D01*
X128559906Y-112285425D01*
X128478554Y-112384553D01*
X128379424Y-112465906D01*
X128266335Y-112526354D01*
X128234403Y-112536040D01*
X128143617Y-112563580D01*
X128016000Y-112576149D01*
X127888382Y-112563580D01*
X127797596Y-112536040D01*
X127765664Y-112526354D01*
X127652575Y-112465906D01*
X127553447Y-112384554D01*
X127472094Y-112285424D01*
X127411646Y-112172335D01*
X127401960Y-112140403D01*
X127374420Y-112049617D01*
X127365000Y-111953972D01*
X127365000Y-111566027D01*
X127374420Y-111470382D01*
X127411645Y-111347668D01*
X127411646Y-111347664D01*
X127472094Y-111234575D01*
X127553446Y-111135447D01*
X127652576Y-111054094D01*
X127765665Y-110993646D01*
X127797597Y-110983960D01*
X127888383Y-110956420D01*
X128016000Y-110943851D01*
X128143618Y-110956420D01*
G37*
G36*
X130048618Y-110956420D02*
G01*
X130139404Y-110983960D01*
X130171336Y-110993646D01*
X130284425Y-111054094D01*
X130383554Y-111135446D01*
X130464906Y-111234575D01*
X130525354Y-111347664D01*
X130525355Y-111347668D01*
X130562580Y-111470383D01*
X130572000Y-111566028D01*
X130572000Y-111953973D01*
X130562580Y-112049618D01*
X130535040Y-112140404D01*
X130525354Y-112172336D01*
X130464906Y-112285425D01*
X130383554Y-112384553D01*
X130284424Y-112465906D01*
X130171335Y-112526354D01*
X130139403Y-112536040D01*
X130048617Y-112563580D01*
X129921000Y-112576149D01*
X129793382Y-112563580D01*
X129702596Y-112536040D01*
X129670664Y-112526354D01*
X129557575Y-112465906D01*
X129458447Y-112384554D01*
X129377094Y-112285424D01*
X129316646Y-112172335D01*
X129306960Y-112140403D01*
X129279420Y-112049617D01*
X129270000Y-111953972D01*
X129270000Y-111566027D01*
X129279420Y-111470382D01*
X129316645Y-111347668D01*
X129316646Y-111347664D01*
X129377094Y-111234575D01*
X129458446Y-111135447D01*
X129557576Y-111054094D01*
X129670665Y-110993646D01*
X129702597Y-110983960D01*
X129793383Y-110956420D01*
X129921000Y-110943851D01*
X130048618Y-110956420D01*
G37*
G36*
X95745000Y-106680000D02*
G01*
X94005000Y-106680000D01*
X94005000Y-97790000D01*
X95745000Y-97790000D01*
X95745000Y-106680000D01*
G37*
G36*
X90145000Y-106680000D02*
G01*
X88405000Y-106680000D01*
X88405000Y-97790000D01*
X90145000Y-97790000D01*
X90145000Y-106680000D01*
G37*
G36*
X61828642Y-104639781D02*
G01*
X61974414Y-104700162D01*
X61974416Y-104700163D01*
X62105608Y-104787822D01*
X62217178Y-104899392D01*
X62244311Y-104940000D01*
X62304838Y-105030586D01*
X62365219Y-105176358D01*
X62396000Y-105331107D01*
X62396000Y-105488893D01*
X62365219Y-105643642D01*
X62304838Y-105789414D01*
X62304837Y-105789416D01*
X62217178Y-105920608D01*
X62105608Y-106032178D01*
X61974416Y-106119837D01*
X61974415Y-106119838D01*
X61974414Y-106119838D01*
X61828642Y-106180219D01*
X61673893Y-106211000D01*
X61516107Y-106211000D01*
X61361358Y-106180219D01*
X61215586Y-106119838D01*
X61215585Y-106119838D01*
X61215584Y-106119837D01*
X61084392Y-106032178D01*
X60972822Y-105920608D01*
X60885163Y-105789416D01*
X60885162Y-105789414D01*
X60824781Y-105643642D01*
X60794000Y-105488893D01*
X60794000Y-105331107D01*
X60824781Y-105176358D01*
X60885162Y-105030586D01*
X60945689Y-104940000D01*
X60972822Y-104899392D01*
X61084392Y-104787822D01*
X61215584Y-104700163D01*
X61215586Y-104700162D01*
X61361358Y-104639781D01*
X61516107Y-104609000D01*
X61673893Y-104609000D01*
X61828642Y-104639781D01*
G37*
G36*
X57385442Y-103085518D02*
G01*
X57451627Y-103092037D01*
X57621466Y-103143557D01*
X57777991Y-103227222D01*
X57805032Y-103249414D01*
X57915186Y-103339814D01*
X57998448Y-103441271D01*
X58027778Y-103477009D01*
X58111443Y-103633534D01*
X58162963Y-103803373D01*
X58180359Y-103980000D01*
X58162963Y-104156627D01*
X58111443Y-104326466D01*
X58027778Y-104482991D01*
X57998448Y-104518729D01*
X57915186Y-104620186D01*
X57817732Y-104700163D01*
X57777991Y-104732778D01*
X57621466Y-104816443D01*
X57451627Y-104867963D01*
X57385442Y-104874482D01*
X57319260Y-104881000D01*
X56980740Y-104881000D01*
X56914558Y-104874482D01*
X56848373Y-104867963D01*
X56678534Y-104816443D01*
X56522009Y-104732778D01*
X56482268Y-104700163D01*
X56384814Y-104620186D01*
X56301552Y-104518729D01*
X56272222Y-104482991D01*
X56188557Y-104326466D01*
X56137037Y-104156627D01*
X56119641Y-103980000D01*
X56137037Y-103803373D01*
X56188557Y-103633534D01*
X56272222Y-103477009D01*
X56301552Y-103441271D01*
X56384814Y-103339814D01*
X56494968Y-103249414D01*
X56522009Y-103227222D01*
X56678534Y-103143557D01*
X56848373Y-103092037D01*
X56914557Y-103085519D01*
X56980740Y-103079000D01*
X57319260Y-103079000D01*
X57385442Y-103085518D01*
G37*
G36*
X97706000Y-104056000D02*
G01*
X96604000Y-104056000D01*
X96604000Y-102954000D01*
X97706000Y-102954000D01*
X97706000Y-104056000D01*
G37*
G36*
X61828642Y-102099781D02*
G01*
X61974414Y-102160162D01*
X61974416Y-102160163D01*
X62105608Y-102247822D01*
X62217178Y-102359392D01*
X62304837Y-102490584D01*
X62304838Y-102490586D01*
X62365219Y-102636358D01*
X62396000Y-102791107D01*
X62396000Y-102948893D01*
X62365219Y-103103642D01*
X62314030Y-103227222D01*
X62304837Y-103249416D01*
X62217178Y-103380608D01*
X62105608Y-103492178D01*
X61974416Y-103579837D01*
X61974415Y-103579838D01*
X61974414Y-103579838D01*
X61828642Y-103640219D01*
X61673893Y-103671000D01*
X61516107Y-103671000D01*
X61361358Y-103640219D01*
X61215586Y-103579838D01*
X61215585Y-103579838D01*
X61215584Y-103579837D01*
X61084392Y-103492178D01*
X60972822Y-103380608D01*
X60885163Y-103249416D01*
X60875970Y-103227222D01*
X60824781Y-103103642D01*
X60794000Y-102948893D01*
X60794000Y-102791107D01*
X60824781Y-102636358D01*
X60885162Y-102490586D01*
X60885163Y-102490584D01*
X60972822Y-102359392D01*
X61084392Y-102247822D01*
X61215584Y-102160163D01*
X61215586Y-102160162D01*
X61361358Y-102099781D01*
X61516107Y-102069000D01*
X61673893Y-102069000D01*
X61828642Y-102099781D01*
G37*
G36*
X57385443Y-100585519D02*
G01*
X57451627Y-100592037D01*
X57621466Y-100643557D01*
X57777991Y-100727222D01*
X57796401Y-100742331D01*
X57915186Y-100839814D01*
X57998448Y-100941271D01*
X58027778Y-100977009D01*
X58111443Y-101133534D01*
X58162963Y-101303373D01*
X58180359Y-101480000D01*
X58162963Y-101656627D01*
X58111443Y-101826466D01*
X58027778Y-101982991D01*
X57998448Y-102018729D01*
X57915186Y-102120186D01*
X57813729Y-102203448D01*
X57777991Y-102232778D01*
X57621466Y-102316443D01*
X57451627Y-102367963D01*
X57385442Y-102374482D01*
X57319260Y-102381000D01*
X56980740Y-102381000D01*
X56914558Y-102374482D01*
X56848373Y-102367963D01*
X56678534Y-102316443D01*
X56522009Y-102232778D01*
X56486271Y-102203448D01*
X56384814Y-102120186D01*
X56301552Y-102018729D01*
X56272222Y-101982991D01*
X56188557Y-101826466D01*
X56137037Y-101656627D01*
X56119641Y-101480000D01*
X56137037Y-101303373D01*
X56188557Y-101133534D01*
X56272222Y-100977009D01*
X56301552Y-100941271D01*
X56384814Y-100839814D01*
X56503599Y-100742331D01*
X56522009Y-100727222D01*
X56678534Y-100643557D01*
X56848373Y-100592037D01*
X56914557Y-100585519D01*
X56980740Y-100579000D01*
X57319260Y-100579000D01*
X57385443Y-100585519D01*
G37*
G36*
X126238618Y-99526420D02*
G01*
X126329404Y-99553960D01*
X126361336Y-99563646D01*
X126474425Y-99624094D01*
X126573554Y-99705446D01*
X126654906Y-99804575D01*
X126715354Y-99917664D01*
X126715355Y-99917668D01*
X126752580Y-100040383D01*
X126762000Y-100136028D01*
X126762000Y-100523973D01*
X126752580Y-100619618D01*
X126725341Y-100709414D01*
X126715354Y-100742336D01*
X126654906Y-100855425D01*
X126573554Y-100954553D01*
X126474424Y-101035906D01*
X126361335Y-101096354D01*
X126329403Y-101106040D01*
X126238617Y-101133580D01*
X126111000Y-101146149D01*
X125983382Y-101133580D01*
X125892596Y-101106040D01*
X125860664Y-101096354D01*
X125747575Y-101035906D01*
X125648447Y-100954554D01*
X125567094Y-100855424D01*
X125506646Y-100742335D01*
X125496660Y-100709414D01*
X125469420Y-100619617D01*
X125460000Y-100523972D01*
X125460000Y-100136027D01*
X125469420Y-100040382D01*
X125506645Y-99917668D01*
X125506646Y-99917664D01*
X125567094Y-99804575D01*
X125648446Y-99705447D01*
X125747576Y-99624094D01*
X125860665Y-99563646D01*
X125892597Y-99553960D01*
X125983383Y-99526420D01*
X126111000Y-99513851D01*
X126238618Y-99526420D01*
G37*
G36*
X116713618Y-99526420D02*
G01*
X116804404Y-99553960D01*
X116836336Y-99563646D01*
X116949425Y-99624094D01*
X117048554Y-99705446D01*
X117129906Y-99804575D01*
X117190354Y-99917664D01*
X117190355Y-99917668D01*
X117227580Y-100040383D01*
X117237000Y-100136028D01*
X117237000Y-100523973D01*
X117227580Y-100619618D01*
X117200341Y-100709414D01*
X117190354Y-100742336D01*
X117129906Y-100855425D01*
X117048554Y-100954553D01*
X116949424Y-101035906D01*
X116836335Y-101096354D01*
X116804403Y-101106040D01*
X116713617Y-101133580D01*
X116586000Y-101146149D01*
X116458382Y-101133580D01*
X116367596Y-101106040D01*
X116335664Y-101096354D01*
X116222575Y-101035906D01*
X116123447Y-100954554D01*
X116042094Y-100855424D01*
X115981646Y-100742335D01*
X115971660Y-100709414D01*
X115944420Y-100619617D01*
X115935000Y-100523972D01*
X115935000Y-100136027D01*
X115944420Y-100040382D01*
X115981645Y-99917668D01*
X115981646Y-99917664D01*
X116042094Y-99804575D01*
X116123446Y-99705447D01*
X116222576Y-99624094D01*
X116335665Y-99563646D01*
X116367597Y-99553960D01*
X116458383Y-99526420D01*
X116586000Y-99513851D01*
X116713618Y-99526420D01*
G37*
G36*
X124333618Y-99526420D02*
G01*
X124424404Y-99553960D01*
X124456336Y-99563646D01*
X124569425Y-99624094D01*
X124668554Y-99705446D01*
X124749906Y-99804575D01*
X124810354Y-99917664D01*
X124810355Y-99917668D01*
X124847580Y-100040383D01*
X124857000Y-100136028D01*
X124857000Y-100523973D01*
X124847580Y-100619618D01*
X124820341Y-100709414D01*
X124810354Y-100742336D01*
X124749906Y-100855425D01*
X124668554Y-100954553D01*
X124569424Y-101035906D01*
X124456335Y-101096354D01*
X124424403Y-101106040D01*
X124333617Y-101133580D01*
X124206000Y-101146149D01*
X124078382Y-101133580D01*
X123987596Y-101106040D01*
X123955664Y-101096354D01*
X123842575Y-101035906D01*
X123743447Y-100954554D01*
X123662094Y-100855424D01*
X123601646Y-100742335D01*
X123591660Y-100709414D01*
X123564420Y-100619617D01*
X123555000Y-100523972D01*
X123555000Y-100136027D01*
X123564420Y-100040382D01*
X123601645Y-99917668D01*
X123601646Y-99917664D01*
X123662094Y-99804575D01*
X123743446Y-99705447D01*
X123842576Y-99624094D01*
X123955665Y-99563646D01*
X123987597Y-99553960D01*
X124078383Y-99526420D01*
X124206000Y-99513851D01*
X124333618Y-99526420D01*
G37*
G36*
X112903618Y-99526420D02*
G01*
X112994404Y-99553960D01*
X113026336Y-99563646D01*
X113139425Y-99624094D01*
X113238554Y-99705446D01*
X113319906Y-99804575D01*
X113380354Y-99917664D01*
X113380355Y-99917668D01*
X113417580Y-100040383D01*
X113427000Y-100136028D01*
X113427000Y-100523973D01*
X113417580Y-100619618D01*
X113390341Y-100709414D01*
X113380354Y-100742336D01*
X113319906Y-100855425D01*
X113238554Y-100954553D01*
X113139424Y-101035906D01*
X113026335Y-101096354D01*
X112994403Y-101106040D01*
X112903617Y-101133580D01*
X112776000Y-101146149D01*
X112648382Y-101133580D01*
X112557596Y-101106040D01*
X112525664Y-101096354D01*
X112412575Y-101035906D01*
X112313447Y-100954554D01*
X112232094Y-100855424D01*
X112171646Y-100742335D01*
X112161660Y-100709414D01*
X112134420Y-100619617D01*
X112125000Y-100523972D01*
X112125000Y-100136027D01*
X112134420Y-100040382D01*
X112171645Y-99917668D01*
X112171646Y-99917664D01*
X112232094Y-99804575D01*
X112313446Y-99705447D01*
X112412576Y-99624094D01*
X112525665Y-99563646D01*
X112557597Y-99553960D01*
X112648383Y-99526420D01*
X112776000Y-99513851D01*
X112903618Y-99526420D01*
G37*
G36*
X114808618Y-99526420D02*
G01*
X114899404Y-99553960D01*
X114931336Y-99563646D01*
X115044425Y-99624094D01*
X115143554Y-99705446D01*
X115224906Y-99804575D01*
X115285354Y-99917664D01*
X115285355Y-99917668D01*
X115322580Y-100040383D01*
X115332000Y-100136028D01*
X115332000Y-100523973D01*
X115322580Y-100619618D01*
X115295341Y-100709414D01*
X115285354Y-100742336D01*
X115224906Y-100855425D01*
X115143554Y-100954553D01*
X115044424Y-101035906D01*
X114931335Y-101096354D01*
X114899403Y-101106040D01*
X114808617Y-101133580D01*
X114681000Y-101146149D01*
X114553382Y-101133580D01*
X114462596Y-101106040D01*
X114430664Y-101096354D01*
X114317575Y-101035906D01*
X114218447Y-100954554D01*
X114137094Y-100855424D01*
X114076646Y-100742335D01*
X114066660Y-100709414D01*
X114039420Y-100619617D01*
X114030000Y-100523972D01*
X114030000Y-100136027D01*
X114039420Y-100040382D01*
X114076645Y-99917668D01*
X114076646Y-99917664D01*
X114137094Y-99804575D01*
X114218446Y-99705447D01*
X114317576Y-99624094D01*
X114430665Y-99563646D01*
X114462597Y-99553960D01*
X114553383Y-99526420D01*
X114681000Y-99513851D01*
X114808618Y-99526420D01*
G37*
G36*
X118618618Y-99526420D02*
G01*
X118709404Y-99553960D01*
X118741336Y-99563646D01*
X118854425Y-99624094D01*
X118953554Y-99705446D01*
X119034906Y-99804575D01*
X119095354Y-99917664D01*
X119095355Y-99917668D01*
X119132580Y-100040383D01*
X119142000Y-100136028D01*
X119142000Y-100523973D01*
X119132580Y-100619618D01*
X119105341Y-100709414D01*
X119095354Y-100742336D01*
X119034906Y-100855425D01*
X118953554Y-100954553D01*
X118854424Y-101035906D01*
X118741335Y-101096354D01*
X118709403Y-101106040D01*
X118618617Y-101133580D01*
X118491000Y-101146149D01*
X118363382Y-101133580D01*
X118272596Y-101106040D01*
X118240664Y-101096354D01*
X118127575Y-101035906D01*
X118028447Y-100954554D01*
X117947094Y-100855424D01*
X117886646Y-100742335D01*
X117876660Y-100709414D01*
X117849420Y-100619617D01*
X117840000Y-100523972D01*
X117840000Y-100136027D01*
X117849420Y-100040382D01*
X117886645Y-99917668D01*
X117886646Y-99917664D01*
X117947094Y-99804575D01*
X118028446Y-99705447D01*
X118127576Y-99624094D01*
X118240665Y-99563646D01*
X118272597Y-99553960D01*
X118363383Y-99526420D01*
X118491000Y-99513851D01*
X118618618Y-99526420D01*
G37*
G36*
X122428618Y-99526420D02*
G01*
X122519404Y-99553960D01*
X122551336Y-99563646D01*
X122664425Y-99624094D01*
X122763554Y-99705446D01*
X122844906Y-99804575D01*
X122905354Y-99917664D01*
X122905355Y-99917668D01*
X122942580Y-100040383D01*
X122952000Y-100136028D01*
X122952000Y-100523973D01*
X122942580Y-100619618D01*
X122915341Y-100709414D01*
X122905354Y-100742336D01*
X122844906Y-100855425D01*
X122763554Y-100954553D01*
X122664424Y-101035906D01*
X122551335Y-101096354D01*
X122519403Y-101106040D01*
X122428617Y-101133580D01*
X122301000Y-101146149D01*
X122173382Y-101133580D01*
X122082596Y-101106040D01*
X122050664Y-101096354D01*
X121937575Y-101035906D01*
X121838447Y-100954554D01*
X121757094Y-100855424D01*
X121696646Y-100742335D01*
X121686660Y-100709414D01*
X121659420Y-100619617D01*
X121650000Y-100523972D01*
X121650000Y-100136027D01*
X121659420Y-100040382D01*
X121696645Y-99917668D01*
X121696646Y-99917664D01*
X121757094Y-99804575D01*
X121838446Y-99705447D01*
X121937576Y-99624094D01*
X122050665Y-99563646D01*
X122082597Y-99553960D01*
X122173383Y-99526420D01*
X122301000Y-99513851D01*
X122428618Y-99526420D01*
G37*
G36*
X120523618Y-99526420D02*
G01*
X120614404Y-99553960D01*
X120646336Y-99563646D01*
X120759425Y-99624094D01*
X120858554Y-99705446D01*
X120939906Y-99804575D01*
X121000354Y-99917664D01*
X121000355Y-99917668D01*
X121037580Y-100040383D01*
X121047000Y-100136028D01*
X121047000Y-100523973D01*
X121037580Y-100619618D01*
X121010341Y-100709414D01*
X121000354Y-100742336D01*
X120939906Y-100855425D01*
X120858554Y-100954553D01*
X120759424Y-101035906D01*
X120646335Y-101096354D01*
X120614403Y-101106040D01*
X120523617Y-101133580D01*
X120396000Y-101146149D01*
X120268382Y-101133580D01*
X120177596Y-101106040D01*
X120145664Y-101096354D01*
X120032575Y-101035906D01*
X119933447Y-100954554D01*
X119852094Y-100855424D01*
X119791646Y-100742335D01*
X119781660Y-100709414D01*
X119754420Y-100619617D01*
X119745000Y-100523972D01*
X119745000Y-100136027D01*
X119754420Y-100040382D01*
X119791645Y-99917668D01*
X119791646Y-99917664D01*
X119852094Y-99804575D01*
X119933446Y-99705447D01*
X120032576Y-99624094D01*
X120145665Y-99563646D01*
X120177597Y-99553960D01*
X120268383Y-99526420D01*
X120396000Y-99513851D01*
X120523618Y-99526420D01*
G37*
G36*
X130048618Y-99526420D02*
G01*
X130139404Y-99553960D01*
X130171336Y-99563646D01*
X130284425Y-99624094D01*
X130383554Y-99705446D01*
X130464906Y-99804575D01*
X130525354Y-99917664D01*
X130525355Y-99917668D01*
X130562580Y-100040383D01*
X130572000Y-100136028D01*
X130572000Y-100523973D01*
X130562580Y-100619618D01*
X130535341Y-100709414D01*
X130525354Y-100742336D01*
X130464906Y-100855425D01*
X130383554Y-100954553D01*
X130284424Y-101035906D01*
X130171335Y-101096354D01*
X130139403Y-101106040D01*
X130048617Y-101133580D01*
X129921000Y-101146149D01*
X129793382Y-101133580D01*
X129702596Y-101106040D01*
X129670664Y-101096354D01*
X129557575Y-101035906D01*
X129458447Y-100954554D01*
X129377094Y-100855424D01*
X129316646Y-100742335D01*
X129306660Y-100709414D01*
X129279420Y-100619617D01*
X129270000Y-100523972D01*
X129270000Y-100136027D01*
X129279420Y-100040382D01*
X129316645Y-99917668D01*
X129316646Y-99917664D01*
X129377094Y-99804575D01*
X129458446Y-99705447D01*
X129557576Y-99624094D01*
X129670665Y-99563646D01*
X129702597Y-99553960D01*
X129793383Y-99526420D01*
X129921000Y-99513851D01*
X130048618Y-99526420D01*
G37*
G36*
X128143618Y-99526420D02*
G01*
X128234404Y-99553960D01*
X128266336Y-99563646D01*
X128379425Y-99624094D01*
X128478554Y-99705446D01*
X128559906Y-99804575D01*
X128620354Y-99917664D01*
X128620355Y-99917668D01*
X128657580Y-100040383D01*
X128667000Y-100136028D01*
X128667000Y-100523973D01*
X128657580Y-100619618D01*
X128630341Y-100709414D01*
X128620354Y-100742336D01*
X128559906Y-100855425D01*
X128478554Y-100954553D01*
X128379424Y-101035906D01*
X128266335Y-101096354D01*
X128234403Y-101106040D01*
X128143617Y-101133580D01*
X128016000Y-101146149D01*
X127888382Y-101133580D01*
X127797596Y-101106040D01*
X127765664Y-101096354D01*
X127652575Y-101035906D01*
X127553447Y-100954554D01*
X127472094Y-100855424D01*
X127411646Y-100742335D01*
X127401660Y-100709414D01*
X127374420Y-100619617D01*
X127365000Y-100523972D01*
X127365000Y-100136027D01*
X127374420Y-100040382D01*
X127411645Y-99917668D01*
X127411646Y-99917664D01*
X127472094Y-99804575D01*
X127553446Y-99705447D01*
X127652576Y-99624094D01*
X127765665Y-99563646D01*
X127797597Y-99553960D01*
X127888383Y-99526420D01*
X128016000Y-99513851D01*
X128143618Y-99526420D01*
G37*
G36*
X133858618Y-99526420D02*
G01*
X133949404Y-99553960D01*
X133981336Y-99563646D01*
X134094425Y-99624094D01*
X134193554Y-99705446D01*
X134274906Y-99804575D01*
X134335354Y-99917664D01*
X134335355Y-99917668D01*
X134372580Y-100040383D01*
X134382000Y-100136028D01*
X134382000Y-100523973D01*
X134372580Y-100619618D01*
X134345341Y-100709414D01*
X134335354Y-100742336D01*
X134274906Y-100855425D01*
X134193554Y-100954553D01*
X134094424Y-101035906D01*
X133981335Y-101096354D01*
X133949403Y-101106040D01*
X133858617Y-101133580D01*
X133731000Y-101146149D01*
X133603382Y-101133580D01*
X133512596Y-101106040D01*
X133480664Y-101096354D01*
X133367575Y-101035906D01*
X133268447Y-100954554D01*
X133187094Y-100855424D01*
X133126646Y-100742335D01*
X133116660Y-100709414D01*
X133089420Y-100619617D01*
X133080000Y-100523972D01*
X133080000Y-100136027D01*
X133089420Y-100040382D01*
X133126645Y-99917668D01*
X133126646Y-99917664D01*
X133187094Y-99804575D01*
X133268446Y-99705447D01*
X133367576Y-99624094D01*
X133480665Y-99563646D01*
X133512597Y-99553960D01*
X133603383Y-99526420D01*
X133731000Y-99513851D01*
X133858618Y-99526420D01*
G37*
G36*
X131953618Y-99526420D02*
G01*
X132044404Y-99553960D01*
X132076336Y-99563646D01*
X132189425Y-99624094D01*
X132288554Y-99705446D01*
X132369906Y-99804575D01*
X132430354Y-99917664D01*
X132430355Y-99917668D01*
X132467580Y-100040383D01*
X132477000Y-100136028D01*
X132477000Y-100523973D01*
X132467580Y-100619618D01*
X132440341Y-100709414D01*
X132430354Y-100742336D01*
X132369906Y-100855425D01*
X132288554Y-100954553D01*
X132189424Y-101035906D01*
X132076335Y-101096354D01*
X132044403Y-101106040D01*
X131953617Y-101133580D01*
X131826000Y-101146149D01*
X131698382Y-101133580D01*
X131607596Y-101106040D01*
X131575664Y-101096354D01*
X131462575Y-101035906D01*
X131363447Y-100954554D01*
X131282094Y-100855424D01*
X131221646Y-100742335D01*
X131211660Y-100709414D01*
X131184420Y-100619617D01*
X131175000Y-100523972D01*
X131175000Y-100136027D01*
X131184420Y-100040382D01*
X131221645Y-99917668D01*
X131221646Y-99917664D01*
X131282094Y-99804575D01*
X131363446Y-99705447D01*
X131462576Y-99624094D01*
X131575665Y-99563646D01*
X131607597Y-99553960D01*
X131698383Y-99526420D01*
X131826000Y-99513851D01*
X131953618Y-99526420D01*
G37*
G36*
X137668618Y-99526420D02*
G01*
X137759404Y-99553960D01*
X137791336Y-99563646D01*
X137904425Y-99624094D01*
X138003554Y-99705446D01*
X138084906Y-99804575D01*
X138145354Y-99917664D01*
X138145355Y-99917668D01*
X138182580Y-100040383D01*
X138192000Y-100136028D01*
X138192000Y-100523973D01*
X138182580Y-100619618D01*
X138155341Y-100709414D01*
X138145354Y-100742336D01*
X138084906Y-100855425D01*
X138003554Y-100954553D01*
X137904424Y-101035906D01*
X137791335Y-101096354D01*
X137759403Y-101106040D01*
X137668617Y-101133580D01*
X137541000Y-101146149D01*
X137413382Y-101133580D01*
X137322596Y-101106040D01*
X137290664Y-101096354D01*
X137177575Y-101035906D01*
X137078447Y-100954554D01*
X136997094Y-100855424D01*
X136936646Y-100742335D01*
X136926660Y-100709414D01*
X136899420Y-100619617D01*
X136890000Y-100523972D01*
X136890000Y-100136027D01*
X136899420Y-100040382D01*
X136936645Y-99917668D01*
X136936646Y-99917664D01*
X136997094Y-99804575D01*
X137078446Y-99705447D01*
X137177576Y-99624094D01*
X137290665Y-99563646D01*
X137322597Y-99553960D01*
X137413383Y-99526420D01*
X137541000Y-99513851D01*
X137668618Y-99526420D01*
G37*
G36*
X135763618Y-99526420D02*
G01*
X135854404Y-99553960D01*
X135886336Y-99563646D01*
X135999425Y-99624094D01*
X136098554Y-99705446D01*
X136179906Y-99804575D01*
X136240354Y-99917664D01*
X136240355Y-99917668D01*
X136277580Y-100040383D01*
X136287000Y-100136028D01*
X136287000Y-100523973D01*
X136277580Y-100619618D01*
X136250341Y-100709414D01*
X136240354Y-100742336D01*
X136179906Y-100855425D01*
X136098554Y-100954553D01*
X135999424Y-101035906D01*
X135886335Y-101096354D01*
X135854403Y-101106040D01*
X135763617Y-101133580D01*
X135636000Y-101146149D01*
X135508382Y-101133580D01*
X135417596Y-101106040D01*
X135385664Y-101096354D01*
X135272575Y-101035906D01*
X135173447Y-100954554D01*
X135092094Y-100855424D01*
X135031646Y-100742335D01*
X135021660Y-100709414D01*
X134994420Y-100619617D01*
X134985000Y-100523972D01*
X134985000Y-100136027D01*
X134994420Y-100040382D01*
X135031645Y-99917668D01*
X135031646Y-99917664D01*
X135092094Y-99804575D01*
X135173446Y-99705447D01*
X135272576Y-99624094D01*
X135385665Y-99563646D01*
X135417597Y-99553960D01*
X135508383Y-99526420D01*
X135636000Y-99513851D01*
X135763618Y-99526420D01*
G37*
G36*
X141478618Y-99526420D02*
G01*
X141569404Y-99553960D01*
X141601336Y-99563646D01*
X141714425Y-99624094D01*
X141813554Y-99705446D01*
X141894906Y-99804575D01*
X141955354Y-99917664D01*
X141955355Y-99917668D01*
X141992580Y-100040383D01*
X142002000Y-100136028D01*
X142002000Y-100523973D01*
X141992580Y-100619618D01*
X141965341Y-100709414D01*
X141955354Y-100742336D01*
X141894906Y-100855425D01*
X141813554Y-100954553D01*
X141714424Y-101035906D01*
X141601335Y-101096354D01*
X141569403Y-101106040D01*
X141478617Y-101133580D01*
X141351000Y-101146149D01*
X141223382Y-101133580D01*
X141132596Y-101106040D01*
X141100664Y-101096354D01*
X140987575Y-101035906D01*
X140888447Y-100954554D01*
X140807094Y-100855424D01*
X140746646Y-100742335D01*
X140736660Y-100709414D01*
X140709420Y-100619617D01*
X140700000Y-100523972D01*
X140700000Y-100136027D01*
X140709420Y-100040382D01*
X140746645Y-99917668D01*
X140746646Y-99917664D01*
X140807094Y-99804575D01*
X140888446Y-99705447D01*
X140987576Y-99624094D01*
X141100665Y-99563646D01*
X141132597Y-99553960D01*
X141223383Y-99526420D01*
X141351000Y-99513851D01*
X141478618Y-99526420D01*
G37*
G36*
X139573618Y-99526420D02*
G01*
X139664404Y-99553960D01*
X139696336Y-99563646D01*
X139809425Y-99624094D01*
X139908554Y-99705446D01*
X139989906Y-99804575D01*
X140050354Y-99917664D01*
X140050355Y-99917668D01*
X140087580Y-100040383D01*
X140097000Y-100136028D01*
X140097000Y-100523973D01*
X140087580Y-100619618D01*
X140060341Y-100709414D01*
X140050354Y-100742336D01*
X139989906Y-100855425D01*
X139908554Y-100954553D01*
X139809424Y-101035906D01*
X139696335Y-101096354D01*
X139664403Y-101106040D01*
X139573617Y-101133580D01*
X139446000Y-101146149D01*
X139318382Y-101133580D01*
X139227596Y-101106040D01*
X139195664Y-101096354D01*
X139082575Y-101035906D01*
X138983447Y-100954554D01*
X138902094Y-100855424D01*
X138841646Y-100742335D01*
X138831660Y-100709414D01*
X138804420Y-100619617D01*
X138795000Y-100523972D01*
X138795000Y-100136027D01*
X138804420Y-100040382D01*
X138841645Y-99917668D01*
X138841646Y-99917664D01*
X138902094Y-99804575D01*
X138983446Y-99705447D01*
X139082576Y-99624094D01*
X139195665Y-99563646D01*
X139227597Y-99553960D01*
X139318383Y-99526420D01*
X139446000Y-99513851D01*
X139573618Y-99526420D01*
G37*
G36*
X61828642Y-99559781D02*
G01*
X61974414Y-99620162D01*
X61974416Y-99620163D01*
X62105608Y-99707822D01*
X62217178Y-99819392D01*
X62282843Y-99917668D01*
X62304838Y-99950586D01*
X62365219Y-100096358D01*
X62396000Y-100251107D01*
X62396000Y-100408893D01*
X62365219Y-100563642D01*
X62304838Y-100709414D01*
X62304837Y-100709416D01*
X62217178Y-100840608D01*
X62105608Y-100952178D01*
X61974416Y-101039837D01*
X61974415Y-101039838D01*
X61974414Y-101039838D01*
X61828642Y-101100219D01*
X61673893Y-101131000D01*
X61516107Y-101131000D01*
X61361358Y-101100219D01*
X61215586Y-101039838D01*
X61215585Y-101039838D01*
X61215584Y-101039837D01*
X61084392Y-100952178D01*
X60972822Y-100840608D01*
X60885163Y-100709416D01*
X60885162Y-100709414D01*
X60824781Y-100563642D01*
X60794000Y-100408893D01*
X60794000Y-100251107D01*
X60824781Y-100096358D01*
X60885162Y-99950586D01*
X60907157Y-99917668D01*
X60972822Y-99819392D01*
X61084392Y-99707822D01*
X61215584Y-99620163D01*
X61215586Y-99620162D01*
X61361358Y-99559781D01*
X61516107Y-99529000D01*
X61673893Y-99529000D01*
X61828642Y-99559781D01*
G37*
G36*
X57385443Y-98085519D02*
G01*
X57451627Y-98092037D01*
X57621466Y-98143557D01*
X57777991Y-98227222D01*
X57813729Y-98256552D01*
X57915186Y-98339814D01*
X57997405Y-98440000D01*
X58027778Y-98477009D01*
X58111443Y-98633534D01*
X58162963Y-98803373D01*
X58180359Y-98980000D01*
X58162963Y-99156627D01*
X58111443Y-99326466D01*
X58027778Y-99482991D01*
X58002452Y-99513851D01*
X57915186Y-99620186D01*
X57813729Y-99703448D01*
X57777991Y-99732778D01*
X57621466Y-99816443D01*
X57451627Y-99867963D01*
X57385442Y-99874482D01*
X57319260Y-99881000D01*
X56980740Y-99881000D01*
X56914558Y-99874482D01*
X56848373Y-99867963D01*
X56678534Y-99816443D01*
X56522009Y-99732778D01*
X56486271Y-99703448D01*
X56384814Y-99620186D01*
X56297548Y-99513851D01*
X56272222Y-99482991D01*
X56188557Y-99326466D01*
X56137037Y-99156627D01*
X56119641Y-98980000D01*
X56137037Y-98803373D01*
X56188557Y-98633534D01*
X56272222Y-98477009D01*
X56302595Y-98440000D01*
X56384814Y-98339814D01*
X56486271Y-98256552D01*
X56522009Y-98227222D01*
X56678534Y-98143557D01*
X56848373Y-98092037D01*
X56914557Y-98085519D01*
X56980740Y-98079000D01*
X57319260Y-98079000D01*
X57385443Y-98085519D01*
G37*
G36*
X141478618Y-95970420D02*
G01*
X141569404Y-95997960D01*
X141601336Y-96007646D01*
X141714425Y-96068094D01*
X141813554Y-96149446D01*
X141894906Y-96248575D01*
X141955354Y-96361664D01*
X141955355Y-96361668D01*
X141992580Y-96484383D01*
X142002000Y-96580028D01*
X142002000Y-96967973D01*
X141992580Y-97063618D01*
X141975420Y-97120186D01*
X141955354Y-97186336D01*
X141894906Y-97299425D01*
X141813554Y-97398553D01*
X141714424Y-97479906D01*
X141601335Y-97540354D01*
X141569403Y-97550040D01*
X141478617Y-97577580D01*
X141351000Y-97590149D01*
X141223382Y-97577580D01*
X141132596Y-97550040D01*
X141100664Y-97540354D01*
X140987575Y-97479906D01*
X140888447Y-97398554D01*
X140807094Y-97299424D01*
X140746646Y-97186335D01*
X140722297Y-97106066D01*
X140709420Y-97063617D01*
X140700000Y-96967972D01*
X140700000Y-96580027D01*
X140709420Y-96484382D01*
X140746645Y-96361668D01*
X140746646Y-96361664D01*
X140807094Y-96248575D01*
X140888446Y-96149447D01*
X140987576Y-96068094D01*
X141100665Y-96007646D01*
X141132597Y-95997960D01*
X141223383Y-95970420D01*
X141351000Y-95957851D01*
X141478618Y-95970420D01*
G37*
G36*
X131953618Y-95970420D02*
G01*
X132044404Y-95997960D01*
X132076336Y-96007646D01*
X132189425Y-96068094D01*
X132288554Y-96149446D01*
X132369906Y-96248575D01*
X132430354Y-96361664D01*
X132430355Y-96361668D01*
X132467580Y-96484383D01*
X132477000Y-96580028D01*
X132477000Y-96967973D01*
X132467580Y-97063618D01*
X132450420Y-97120186D01*
X132430354Y-97186336D01*
X132369906Y-97299425D01*
X132288554Y-97398553D01*
X132189424Y-97479906D01*
X132076335Y-97540354D01*
X132044403Y-97550040D01*
X131953617Y-97577580D01*
X131826000Y-97590149D01*
X131698382Y-97577580D01*
X131607596Y-97550040D01*
X131575664Y-97540354D01*
X131462575Y-97479906D01*
X131363447Y-97398554D01*
X131282094Y-97299424D01*
X131221646Y-97186335D01*
X131197297Y-97106066D01*
X131184420Y-97063617D01*
X131175000Y-96967972D01*
X131175000Y-96580027D01*
X131184420Y-96484382D01*
X131221645Y-96361668D01*
X131221646Y-96361664D01*
X131282094Y-96248575D01*
X131363446Y-96149447D01*
X131462576Y-96068094D01*
X131575665Y-96007646D01*
X131607597Y-95997960D01*
X131698383Y-95970420D01*
X131826000Y-95957851D01*
X131953618Y-95970420D01*
G37*
G36*
X135763618Y-95970420D02*
G01*
X135854404Y-95997960D01*
X135886336Y-96007646D01*
X135999425Y-96068094D01*
X136098554Y-96149446D01*
X136179906Y-96248575D01*
X136240354Y-96361664D01*
X136240355Y-96361668D01*
X136277580Y-96484383D01*
X136287000Y-96580028D01*
X136287000Y-96967973D01*
X136277580Y-97063618D01*
X136260420Y-97120186D01*
X136240354Y-97186336D01*
X136179906Y-97299425D01*
X136098554Y-97398553D01*
X135999424Y-97479906D01*
X135886335Y-97540354D01*
X135854403Y-97550040D01*
X135763617Y-97577580D01*
X135636000Y-97590149D01*
X135508382Y-97577580D01*
X135417596Y-97550040D01*
X135385664Y-97540354D01*
X135272575Y-97479906D01*
X135173447Y-97398554D01*
X135092094Y-97299424D01*
X135031646Y-97186335D01*
X135007297Y-97106066D01*
X134994420Y-97063617D01*
X134985000Y-96967972D01*
X134985000Y-96580027D01*
X134994420Y-96484382D01*
X135031645Y-96361668D01*
X135031646Y-96361664D01*
X135092094Y-96248575D01*
X135173446Y-96149447D01*
X135272576Y-96068094D01*
X135385665Y-96007646D01*
X135417597Y-95997960D01*
X135508383Y-95970420D01*
X135636000Y-95957851D01*
X135763618Y-95970420D01*
G37*
G36*
X133858618Y-95970420D02*
G01*
X133949404Y-95997960D01*
X133981336Y-96007646D01*
X134094425Y-96068094D01*
X134193554Y-96149446D01*
X134274906Y-96248575D01*
X134335354Y-96361664D01*
X134335355Y-96361668D01*
X134372580Y-96484383D01*
X134382000Y-96580028D01*
X134382000Y-96967973D01*
X134372580Y-97063618D01*
X134355420Y-97120186D01*
X134335354Y-97186336D01*
X134274906Y-97299425D01*
X134193554Y-97398553D01*
X134094424Y-97479906D01*
X133981335Y-97540354D01*
X133949403Y-97550040D01*
X133858617Y-97577580D01*
X133731000Y-97590149D01*
X133603382Y-97577580D01*
X133512596Y-97550040D01*
X133480664Y-97540354D01*
X133367575Y-97479906D01*
X133268447Y-97398554D01*
X133187094Y-97299424D01*
X133126646Y-97186335D01*
X133102297Y-97106066D01*
X133089420Y-97063617D01*
X133080000Y-96967972D01*
X133080000Y-96580027D01*
X133089420Y-96484382D01*
X133126645Y-96361668D01*
X133126646Y-96361664D01*
X133187094Y-96248575D01*
X133268446Y-96149447D01*
X133367576Y-96068094D01*
X133480665Y-96007646D01*
X133512597Y-95997960D01*
X133603383Y-95970420D01*
X133731000Y-95957851D01*
X133858618Y-95970420D01*
G37*
G36*
X137668618Y-95970420D02*
G01*
X137759404Y-95997960D01*
X137791336Y-96007646D01*
X137904425Y-96068094D01*
X138003554Y-96149446D01*
X138084906Y-96248575D01*
X138145354Y-96361664D01*
X138145355Y-96361668D01*
X138182580Y-96484383D01*
X138192000Y-96580028D01*
X138192000Y-96967973D01*
X138182580Y-97063618D01*
X138165420Y-97120186D01*
X138145354Y-97186336D01*
X138084906Y-97299425D01*
X138003554Y-97398553D01*
X137904424Y-97479906D01*
X137791335Y-97540354D01*
X137759403Y-97550040D01*
X137668617Y-97577580D01*
X137541000Y-97590149D01*
X137413382Y-97577580D01*
X137322596Y-97550040D01*
X137290664Y-97540354D01*
X137177575Y-97479906D01*
X137078447Y-97398554D01*
X136997094Y-97299424D01*
X136936646Y-97186335D01*
X136912297Y-97106066D01*
X136899420Y-97063617D01*
X136890000Y-96967972D01*
X136890000Y-96580027D01*
X136899420Y-96484382D01*
X136936645Y-96361668D01*
X136936646Y-96361664D01*
X136997094Y-96248575D01*
X137078446Y-96149447D01*
X137177576Y-96068094D01*
X137290665Y-96007646D01*
X137322597Y-95997960D01*
X137413383Y-95970420D01*
X137541000Y-95957851D01*
X137668618Y-95970420D01*
G37*
G36*
X139573618Y-95970420D02*
G01*
X139664404Y-95997960D01*
X139696336Y-96007646D01*
X139809425Y-96068094D01*
X139908554Y-96149446D01*
X139989906Y-96248575D01*
X140050354Y-96361664D01*
X140050355Y-96361668D01*
X140087580Y-96484383D01*
X140097000Y-96580028D01*
X140097000Y-96967973D01*
X140087580Y-97063618D01*
X140070420Y-97120186D01*
X140050354Y-97186336D01*
X139989906Y-97299425D01*
X139908554Y-97398553D01*
X139809424Y-97479906D01*
X139696335Y-97540354D01*
X139664403Y-97550040D01*
X139573617Y-97577580D01*
X139446000Y-97590149D01*
X139318382Y-97577580D01*
X139227596Y-97550040D01*
X139195664Y-97540354D01*
X139082575Y-97479906D01*
X138983447Y-97398554D01*
X138902094Y-97299424D01*
X138841646Y-97186335D01*
X138817297Y-97106066D01*
X138804420Y-97063617D01*
X138795000Y-96967972D01*
X138795000Y-96580027D01*
X138804420Y-96484382D01*
X138841645Y-96361668D01*
X138841646Y-96361664D01*
X138902094Y-96248575D01*
X138983446Y-96149447D01*
X139082576Y-96068094D01*
X139195665Y-96007646D01*
X139227597Y-95997960D01*
X139318383Y-95970420D01*
X139446000Y-95957851D01*
X139573618Y-95970420D01*
G37*
G36*
X128143618Y-95970420D02*
G01*
X128234404Y-95997960D01*
X128266336Y-96007646D01*
X128379425Y-96068094D01*
X128478554Y-96149446D01*
X128559906Y-96248575D01*
X128620354Y-96361664D01*
X128620355Y-96361668D01*
X128657580Y-96484383D01*
X128667000Y-96580028D01*
X128667000Y-96967973D01*
X128657580Y-97063618D01*
X128640420Y-97120186D01*
X128620354Y-97186336D01*
X128559906Y-97299425D01*
X128478554Y-97398553D01*
X128379424Y-97479906D01*
X128266335Y-97540354D01*
X128234403Y-97550040D01*
X128143617Y-97577580D01*
X128016000Y-97590149D01*
X127888382Y-97577580D01*
X127797596Y-97550040D01*
X127765664Y-97540354D01*
X127652575Y-97479906D01*
X127553447Y-97398554D01*
X127472094Y-97299424D01*
X127411646Y-97186335D01*
X127387297Y-97106066D01*
X127374420Y-97063617D01*
X127365000Y-96967972D01*
X127365000Y-96580027D01*
X127374420Y-96484382D01*
X127411645Y-96361668D01*
X127411646Y-96361664D01*
X127472094Y-96248575D01*
X127553446Y-96149447D01*
X127652576Y-96068094D01*
X127765665Y-96007646D01*
X127797597Y-95997960D01*
X127888383Y-95970420D01*
X128016000Y-95957851D01*
X128143618Y-95970420D01*
G37*
G36*
X130048618Y-95970420D02*
G01*
X130139404Y-95997960D01*
X130171336Y-96007646D01*
X130284425Y-96068094D01*
X130383554Y-96149446D01*
X130464906Y-96248575D01*
X130525354Y-96361664D01*
X130525355Y-96361668D01*
X130562580Y-96484383D01*
X130572000Y-96580028D01*
X130572000Y-96967973D01*
X130562580Y-97063618D01*
X130545420Y-97120186D01*
X130525354Y-97186336D01*
X130464906Y-97299425D01*
X130383554Y-97398553D01*
X130284424Y-97479906D01*
X130171335Y-97540354D01*
X130139403Y-97550040D01*
X130048617Y-97577580D01*
X129921000Y-97590149D01*
X129793382Y-97577580D01*
X129702596Y-97550040D01*
X129670664Y-97540354D01*
X129557575Y-97479906D01*
X129458447Y-97398554D01*
X129377094Y-97299424D01*
X129316646Y-97186335D01*
X129292297Y-97106066D01*
X129279420Y-97063617D01*
X129270000Y-96967972D01*
X129270000Y-96580027D01*
X129279420Y-96484382D01*
X129316645Y-96361668D01*
X129316646Y-96361664D01*
X129377094Y-96248575D01*
X129458446Y-96149447D01*
X129557576Y-96068094D01*
X129670665Y-96007646D01*
X129702597Y-95997960D01*
X129793383Y-95970420D01*
X129921000Y-95957851D01*
X130048618Y-95970420D01*
G37*
G36*
X126238618Y-95970420D02*
G01*
X126329404Y-95997960D01*
X126361336Y-96007646D01*
X126474425Y-96068094D01*
X126573554Y-96149446D01*
X126654906Y-96248575D01*
X126715354Y-96361664D01*
X126715355Y-96361668D01*
X126752580Y-96484383D01*
X126762000Y-96580028D01*
X126762000Y-96967973D01*
X126752580Y-97063618D01*
X126735420Y-97120186D01*
X126715354Y-97186336D01*
X126654906Y-97299425D01*
X126573554Y-97398553D01*
X126474424Y-97479906D01*
X126361335Y-97540354D01*
X126329403Y-97550040D01*
X126238617Y-97577580D01*
X126111000Y-97590149D01*
X125983382Y-97577580D01*
X125892596Y-97550040D01*
X125860664Y-97540354D01*
X125747575Y-97479906D01*
X125648447Y-97398554D01*
X125567094Y-97299424D01*
X125506646Y-97186335D01*
X125482297Y-97106066D01*
X125469420Y-97063617D01*
X125460000Y-96967972D01*
X125460000Y-96580027D01*
X125469420Y-96484382D01*
X125506645Y-96361668D01*
X125506646Y-96361664D01*
X125567094Y-96248575D01*
X125648446Y-96149447D01*
X125747576Y-96068094D01*
X125860665Y-96007646D01*
X125892597Y-95997960D01*
X125983383Y-95970420D01*
X126111000Y-95957851D01*
X126238618Y-95970420D01*
G37*
G36*
X120523618Y-95970420D02*
G01*
X120614404Y-95997960D01*
X120646336Y-96007646D01*
X120759425Y-96068094D01*
X120858554Y-96149446D01*
X120939906Y-96248575D01*
X121000354Y-96361664D01*
X121000355Y-96361668D01*
X121037580Y-96484383D01*
X121047000Y-96580028D01*
X121047000Y-96967973D01*
X121037580Y-97063618D01*
X121020420Y-97120186D01*
X121000354Y-97186336D01*
X120939906Y-97299425D01*
X120858554Y-97398553D01*
X120759424Y-97479906D01*
X120646335Y-97540354D01*
X120614403Y-97550040D01*
X120523617Y-97577580D01*
X120396000Y-97590149D01*
X120268382Y-97577580D01*
X120177596Y-97550040D01*
X120145664Y-97540354D01*
X120032575Y-97479906D01*
X119933447Y-97398554D01*
X119852094Y-97299424D01*
X119791646Y-97186335D01*
X119767297Y-97106066D01*
X119754420Y-97063617D01*
X119745000Y-96967972D01*
X119745000Y-96580027D01*
X119754420Y-96484382D01*
X119791645Y-96361668D01*
X119791646Y-96361664D01*
X119852094Y-96248575D01*
X119933446Y-96149447D01*
X120032576Y-96068094D01*
X120145665Y-96007646D01*
X120177597Y-95997960D01*
X120268383Y-95970420D01*
X120396000Y-95957851D01*
X120523618Y-95970420D01*
G37*
G36*
X112903618Y-95970420D02*
G01*
X112994404Y-95997960D01*
X113026336Y-96007646D01*
X113139425Y-96068094D01*
X113238554Y-96149446D01*
X113319906Y-96248575D01*
X113380354Y-96361664D01*
X113380355Y-96361668D01*
X113417580Y-96484383D01*
X113427000Y-96580028D01*
X113427000Y-96967973D01*
X113417580Y-97063618D01*
X113400420Y-97120186D01*
X113380354Y-97186336D01*
X113319906Y-97299425D01*
X113238554Y-97398553D01*
X113139424Y-97479906D01*
X113026335Y-97540354D01*
X112994403Y-97550040D01*
X112903617Y-97577580D01*
X112776000Y-97590149D01*
X112648382Y-97577580D01*
X112557596Y-97550040D01*
X112525664Y-97540354D01*
X112412575Y-97479906D01*
X112313447Y-97398554D01*
X112232094Y-97299424D01*
X112171646Y-97186335D01*
X112147297Y-97106066D01*
X112134420Y-97063617D01*
X112125000Y-96967972D01*
X112125000Y-96580027D01*
X112134420Y-96484382D01*
X112171645Y-96361668D01*
X112171646Y-96361664D01*
X112232094Y-96248575D01*
X112313446Y-96149447D01*
X112412576Y-96068094D01*
X112525665Y-96007646D01*
X112557597Y-95997960D01*
X112648383Y-95970420D01*
X112776000Y-95957851D01*
X112903618Y-95970420D01*
G37*
G36*
X122428618Y-95970420D02*
G01*
X122519404Y-95997960D01*
X122551336Y-96007646D01*
X122664425Y-96068094D01*
X122763554Y-96149446D01*
X122844906Y-96248575D01*
X122905354Y-96361664D01*
X122905355Y-96361668D01*
X122942580Y-96484383D01*
X122952000Y-96580028D01*
X122952000Y-96967973D01*
X122942580Y-97063618D01*
X122925420Y-97120186D01*
X122905354Y-97186336D01*
X122844906Y-97299425D01*
X122763554Y-97398553D01*
X122664424Y-97479906D01*
X122551335Y-97540354D01*
X122519403Y-97550040D01*
X122428617Y-97577580D01*
X122301000Y-97590149D01*
X122173382Y-97577580D01*
X122082596Y-97550040D01*
X122050664Y-97540354D01*
X121937575Y-97479906D01*
X121838447Y-97398554D01*
X121757094Y-97299424D01*
X121696646Y-97186335D01*
X121672297Y-97106066D01*
X121659420Y-97063617D01*
X121650000Y-96967972D01*
X121650000Y-96580027D01*
X121659420Y-96484382D01*
X121696645Y-96361668D01*
X121696646Y-96361664D01*
X121757094Y-96248575D01*
X121838446Y-96149447D01*
X121937576Y-96068094D01*
X122050665Y-96007646D01*
X122082597Y-95997960D01*
X122173383Y-95970420D01*
X122301000Y-95957851D01*
X122428618Y-95970420D01*
G37*
G36*
X114808618Y-95970420D02*
G01*
X114899404Y-95997960D01*
X114931336Y-96007646D01*
X115044425Y-96068094D01*
X115143554Y-96149446D01*
X115224906Y-96248575D01*
X115285354Y-96361664D01*
X115285355Y-96361668D01*
X115322580Y-96484383D01*
X115332000Y-96580028D01*
X115332000Y-96967973D01*
X115322580Y-97063618D01*
X115305420Y-97120186D01*
X115285354Y-97186336D01*
X115224906Y-97299425D01*
X115143554Y-97398553D01*
X115044424Y-97479906D01*
X114931335Y-97540354D01*
X114899403Y-97550040D01*
X114808617Y-97577580D01*
X114681000Y-97590149D01*
X114553382Y-97577580D01*
X114462596Y-97550040D01*
X114430664Y-97540354D01*
X114317575Y-97479906D01*
X114218447Y-97398554D01*
X114137094Y-97299424D01*
X114076646Y-97186335D01*
X114052297Y-97106066D01*
X114039420Y-97063617D01*
X114030000Y-96967972D01*
X114030000Y-96580027D01*
X114039420Y-96484382D01*
X114076645Y-96361668D01*
X114076646Y-96361664D01*
X114137094Y-96248575D01*
X114218446Y-96149447D01*
X114317576Y-96068094D01*
X114430665Y-96007646D01*
X114462597Y-95997960D01*
X114553383Y-95970420D01*
X114681000Y-95957851D01*
X114808618Y-95970420D01*
G37*
G36*
X116713618Y-95970420D02*
G01*
X116804404Y-95997960D01*
X116836336Y-96007646D01*
X116949425Y-96068094D01*
X117048554Y-96149446D01*
X117129906Y-96248575D01*
X117190354Y-96361664D01*
X117190355Y-96361668D01*
X117227580Y-96484383D01*
X117237000Y-96580028D01*
X117237000Y-96967973D01*
X117227580Y-97063618D01*
X117210420Y-97120186D01*
X117190354Y-97186336D01*
X117129906Y-97299425D01*
X117048554Y-97398553D01*
X116949424Y-97479906D01*
X116836335Y-97540354D01*
X116804403Y-97550040D01*
X116713617Y-97577580D01*
X116586000Y-97590149D01*
X116458382Y-97577580D01*
X116367596Y-97550040D01*
X116335664Y-97540354D01*
X116222575Y-97479906D01*
X116123447Y-97398554D01*
X116042094Y-97299424D01*
X115981646Y-97186335D01*
X115957297Y-97106066D01*
X115944420Y-97063617D01*
X115935000Y-96967972D01*
X115935000Y-96580027D01*
X115944420Y-96484382D01*
X115981645Y-96361668D01*
X115981646Y-96361664D01*
X116042094Y-96248575D01*
X116123446Y-96149447D01*
X116222576Y-96068094D01*
X116335665Y-96007646D01*
X116367597Y-95997960D01*
X116458383Y-95970420D01*
X116586000Y-95957851D01*
X116713618Y-95970420D01*
G37*
G36*
X124333618Y-95970420D02*
G01*
X124424404Y-95997960D01*
X124456336Y-96007646D01*
X124569425Y-96068094D01*
X124668554Y-96149446D01*
X124749906Y-96248575D01*
X124810354Y-96361664D01*
X124810355Y-96361668D01*
X124847580Y-96484383D01*
X124857000Y-96580028D01*
X124857000Y-96967973D01*
X124847580Y-97063618D01*
X124830420Y-97120186D01*
X124810354Y-97186336D01*
X124749906Y-97299425D01*
X124668554Y-97398553D01*
X124569424Y-97479906D01*
X124456335Y-97540354D01*
X124424403Y-97550040D01*
X124333617Y-97577580D01*
X124206000Y-97590149D01*
X124078382Y-97577580D01*
X123987596Y-97550040D01*
X123955664Y-97540354D01*
X123842575Y-97479906D01*
X123743447Y-97398554D01*
X123662094Y-97299424D01*
X123601646Y-97186335D01*
X123577297Y-97106066D01*
X123564420Y-97063617D01*
X123555000Y-96967972D01*
X123555000Y-96580027D01*
X123564420Y-96484382D01*
X123601645Y-96361668D01*
X123601646Y-96361664D01*
X123662094Y-96248575D01*
X123743446Y-96149447D01*
X123842576Y-96068094D01*
X123955665Y-96007646D01*
X123987597Y-95997960D01*
X124078383Y-95970420D01*
X124206000Y-95957851D01*
X124333618Y-95970420D01*
G37*
G36*
X118618618Y-95970420D02*
G01*
X118709404Y-95997960D01*
X118741336Y-96007646D01*
X118854425Y-96068094D01*
X118953554Y-96149446D01*
X119034906Y-96248575D01*
X119095354Y-96361664D01*
X119095355Y-96361668D01*
X119132580Y-96484383D01*
X119142000Y-96580028D01*
X119142000Y-96967973D01*
X119132580Y-97063618D01*
X119115420Y-97120186D01*
X119095354Y-97186336D01*
X119034906Y-97299425D01*
X118953554Y-97398553D01*
X118854424Y-97479906D01*
X118741335Y-97540354D01*
X118709403Y-97550040D01*
X118618617Y-97577580D01*
X118491000Y-97590149D01*
X118363382Y-97577580D01*
X118272596Y-97550040D01*
X118240664Y-97540354D01*
X118127575Y-97479906D01*
X118028447Y-97398554D01*
X117947094Y-97299424D01*
X117886646Y-97186335D01*
X117862297Y-97106066D01*
X117849420Y-97063617D01*
X117840000Y-96967972D01*
X117840000Y-96580027D01*
X117849420Y-96484382D01*
X117886645Y-96361668D01*
X117886646Y-96361664D01*
X117947094Y-96248575D01*
X118028446Y-96149447D01*
X118127576Y-96068094D01*
X118240665Y-96007646D01*
X118272597Y-95997960D01*
X118363383Y-95970420D01*
X118491000Y-95957851D01*
X118618618Y-95970420D01*
G37*
G36*
X57385443Y-95585519D02*
G01*
X57451627Y-95592037D01*
X57621466Y-95643557D01*
X57777991Y-95727222D01*
X57813729Y-95756552D01*
X57915186Y-95839814D01*
X57998448Y-95941271D01*
X58027778Y-95977009D01*
X58111443Y-96133534D01*
X58162963Y-96303373D01*
X58180359Y-96480000D01*
X58162963Y-96656627D01*
X58111443Y-96826466D01*
X58027778Y-96982991D01*
X57998448Y-97018729D01*
X57915186Y-97120186D01*
X57813729Y-97203448D01*
X57777991Y-97232778D01*
X57621466Y-97316443D01*
X57451627Y-97367963D01*
X57385442Y-97374482D01*
X57319260Y-97381000D01*
X56980740Y-97381000D01*
X56914558Y-97374482D01*
X56848373Y-97367963D01*
X56678534Y-97316443D01*
X56522009Y-97232778D01*
X56486271Y-97203448D01*
X56384814Y-97120186D01*
X56301552Y-97018729D01*
X56272222Y-96982991D01*
X56188557Y-96826466D01*
X56137037Y-96656627D01*
X56119641Y-96480000D01*
X56137037Y-96303373D01*
X56188557Y-96133534D01*
X56272222Y-95977009D01*
X56301552Y-95941271D01*
X56384814Y-95839814D01*
X56486271Y-95756552D01*
X56522009Y-95727222D01*
X56678534Y-95643557D01*
X56848373Y-95592037D01*
X56914557Y-95585519D01*
X56980740Y-95579000D01*
X57319260Y-95579000D01*
X57385443Y-95585519D01*
G37*
G36*
X64769239Y-90791467D02*
G01*
X65083282Y-90853934D01*
X65674926Y-91099001D01*
X66207392Y-91454784D01*
X66660216Y-91907608D01*
X67015999Y-92440074D01*
X67261066Y-93031718D01*
X67386000Y-93659804D01*
X67386000Y-94300196D01*
X67261066Y-94928282D01*
X67015999Y-95519926D01*
X66730986Y-95946477D01*
X66690115Y-96007646D01*
X66660216Y-96052392D01*
X66207392Y-96505216D01*
X65674926Y-96860999D01*
X65083282Y-97106066D01*
X64769239Y-97168533D01*
X64455197Y-97231000D01*
X63814803Y-97231000D01*
X63500761Y-97168533D01*
X63186718Y-97106066D01*
X62595074Y-96860999D01*
X62062608Y-96505216D01*
X61609784Y-96052392D01*
X61579886Y-96007646D01*
X61539014Y-95946477D01*
X61254001Y-95519926D01*
X61008934Y-94928282D01*
X60884000Y-94300196D01*
X60884000Y-93659804D01*
X61008934Y-93031718D01*
X61254001Y-92440074D01*
X61609784Y-91907608D01*
X62062608Y-91454784D01*
X62595074Y-91099001D01*
X63186718Y-90853934D01*
X63500761Y-90791467D01*
X63814803Y-90729000D01*
X64455197Y-90729000D01*
X64769239Y-90791467D01*
G37*
G36*
X161524239Y-90791467D02*
G01*
X161838282Y-90853934D01*
X162429926Y-91099001D01*
X162962392Y-91454784D01*
X163415216Y-91907608D01*
X163770999Y-92440074D01*
X164016066Y-93031718D01*
X164141000Y-93659804D01*
X164141000Y-94300196D01*
X164016066Y-94928282D01*
X163770999Y-95519926D01*
X163485986Y-95946477D01*
X163445115Y-96007646D01*
X163415216Y-96052392D01*
X162962392Y-96505216D01*
X162429926Y-96860999D01*
X161838282Y-97106066D01*
X161524239Y-97168533D01*
X161210197Y-97231000D01*
X160569803Y-97231000D01*
X160255761Y-97168533D01*
X159941718Y-97106066D01*
X159350074Y-96860999D01*
X158817608Y-96505216D01*
X158364784Y-96052392D01*
X158334886Y-96007646D01*
X158294014Y-95946477D01*
X158009001Y-95519926D01*
X157763934Y-94928282D01*
X157639000Y-94300196D01*
X157639000Y-93659804D01*
X157763934Y-93031718D01*
X158009001Y-92440074D01*
X158364784Y-91907608D01*
X158817608Y-91454784D01*
X159350074Y-91099001D01*
X159941718Y-90853934D01*
X160255761Y-90791467D01*
X160569803Y-90729000D01*
X161210197Y-90729000D01*
X161524239Y-90791467D01*
G37*
G36*
X58033600Y-93082989D02*
G01*
X58066652Y-93093015D01*
X58097103Y-93109292D01*
X58123799Y-93131201D01*
X58145708Y-93157897D01*
X58161985Y-93188348D01*
X58172011Y-93221400D01*
X58176000Y-93261903D01*
X58176000Y-94698097D01*
X58172011Y-94738600D01*
X58161985Y-94771652D01*
X58145708Y-94802103D01*
X58123799Y-94828799D01*
X58097103Y-94850708D01*
X58066652Y-94866985D01*
X58033600Y-94877011D01*
X57993097Y-94881000D01*
X56306903Y-94881000D01*
X56266400Y-94877011D01*
X56233348Y-94866985D01*
X56202897Y-94850708D01*
X56176201Y-94828799D01*
X56154292Y-94802103D01*
X56138015Y-94771652D01*
X56127989Y-94738600D01*
X56124000Y-94698097D01*
X56124000Y-93261903D01*
X56127989Y-93221400D01*
X56138015Y-93188348D01*
X56154292Y-93157897D01*
X56176201Y-93131201D01*
X56202897Y-93109292D01*
X56233348Y-93093015D01*
X56266400Y-93082989D01*
X56306903Y-93079000D01*
X57993097Y-93079000D01*
X58033600Y-93082989D01*
G37*
M02*
